<svg width="16" height="17" viewBox="0 0 16 17" fill="none" xmlns="http://www.w3.org/2000/svg">
<path d="M3.5 16C3.5 16.2761 3.72386 16.5 4 16.5C4.27614 16.5 4.5 16.2761 4.5 16H3.5ZM4.35355 0.646447C4.15829 0.451184 3.84171 0.451184 3.64645 0.646447L0.464466 3.82843C0.269204 4.02369 0.269204 4.34027 0.464466 4.53553C0.659728 4.7308 0.976311 4.7308 1.17157 4.53553L4 1.70711L6.82843 4.53553C7.02369 4.7308 7.34027 4.7308 7.53553 4.53553C7.7308 4.34027 7.7308 4.02369 7.53553 3.82843L4.35355 0.646447ZM4.5 16V1H3.5V16H4.5Z" fill="#C2C2C2"/>
<path d="M12 1C12 0.723858 11.7761 0.5 11.5 0.5C11.2239 0.5 11 0.723858 11 1L12 1ZM11.1464 16.3536C11.3417 16.5488 11.6583 16.5488 11.8536 16.3536L15.0355 13.1716C15.2308 12.9763 15.2308 12.6597 15.0355 12.4645C14.8403 12.2692 14.5237 12.2692 14.3284 12.4645L11.5 15.2929L8.67157 12.4645C8.47631 12.2692 8.15973 12.2692 7.96447 12.4645C7.7692 12.6597 7.7692 12.9763 7.96447 13.1716L11.1464 16.3536ZM11 1L11 16L12 16L12 1L11 1Z" fill="#C2C2C2"/>
</svg>
