<svg width="39" height="12" viewBox="0 0 39 12" fill="none" xmlns="http://www.w3.org/2000/svg">
<path d="M1.21894 3.79973C2.10355 4.81286 2.90737 5.61529 4.02576 6.18372C5.57266 6.96995 7.24949 7.44163 8.88321 7.80876C11.471 8.39029 14.8264 8.70106 16.8928 6.17697C17.2173 5.78059 17.3144 4.84675 17.0281 4.17361C16.7232 3.45687 16.1955 2.72893 15.6858 2.66913C15.2817 2.62169 14.56 3.13558 14.2402 3.68916C13.9334 4.22036 13.895 5.415 14.0988 5.7834C15.5463 8.40035 18.3464 8.96202 20.654 9.23126C23.4597 9.5586 26.1977 9.23354 28.9295 8.35358C32.0529 7.34748 34.9508 5.65237 37.9117 4.083" stroke="#F87000" stroke-linecap="round"/>
<path d="M34.0073 4.77588C34.2995 4.74831 34.5929 4.77202 34.8842 4.74255C34.9712 4.73375 35.0529 4.69929 35.1393 4.68521C35.3161 4.6564 35.4968 4.58455 35.6742 4.57596C35.8337 4.56823 36.0011 4.51971 36.1613 4.49492C36.3272 4.46926 36.4912 4.45122 36.6563 4.42014C36.8676 4.38036 37.0816 4.35321 37.2933 4.31159C37.4748 4.27591 37.6705 4.31839 37.8482 4.27576C37.959 4.24918 38.0391 4.24624 37.9713 4.42786C37.8887 4.64926 37.7974 4.81399 37.6623 4.99075C37.5424 5.1475 37.4025 5.28319 37.2905 5.44859C37.1704 5.62597 37.0124 5.77605 36.9101 5.97127C36.8286 6.12687 36.7022 6.25632 36.6041 6.3962C36.5176 6.51963 36.4444 6.65562 36.3583 6.77953C36.1061 7.14226 35.9624 7.61915 35.6704 7.93509" stroke="#F87000" stroke-linecap="square"/>
</svg>
