<svg width="134" height="37" viewBox="0 0 134 37" fill="none" xmlns="http://www.w3.org/2000/svg">
<g clip-path="url(#clip0_333_693)">
<path d="M36.1096 0.00805734V0.0242136C36.0931 0.0242136 30.8738 0.00805664 29.482 4.87067C28.2062 9.32941 24.6107 21.634 24.5113 21.9733H23.5171C23.5171 21.9733 19.8388 9.39403 18.5464 4.85451C17.1546 -0.00809961 11.9187 0.00805734 11.9187 0.00805734H0V36.9919H11.9242V15.0265H12.9184L19.8774 36.9917H28.1565L35.1155 15.0427H36.1096V36.9917H48.0339V0.00805734H36.1096ZM79.6699 0.00805734C79.6699 0.00805734 76.1738 0.314997 74.5334 3.88539L66.0887 21.9733H65.0946V0.00805734H53.1703V36.9919H64.4318C64.4318 36.9919 68.0936 36.6688 69.7341 33.1147L78.0131 15.0267H79.0073V36.9919H90.9315V0.00805734H79.6699ZM96.2335 16.8037V36.9919H108.158V25.2042H121.076C126.71 25.2042 131.476 21.6986 133.249 16.8091H96.2335V16.8037Z" fill="#4DB45E"/>
<path d="M121.082 0.00805664H94.5601C95.8856 7.05157 101.304 12.7004 108.307 14.542C109.933 14.9714 111.61 15.1887 113.294 15.1884H133.735C133.917 14.3484 134 13.4921 134 12.6036C134 5.6461 128.217 0.00805664 121.082 0.00805664Z" fill="url(#paint0_linear_333_693)"/>
</g>
<defs>
<linearGradient id="paint0_linear_333_693" x1="94.56" y1="7.5982" x2="134" y2="7.5982" gradientUnits="userSpaceOnUse">
<stop offset="0.3" stop-color="#00B4E6"/>
<stop offset="1" stop-color="#088CCB"/>
</linearGradient>
<clipPath id="clip0_333_693">
<rect width="134" height="37" fill="white"/>
</clipPath>
</defs>
</svg>
