<svg width="157" height="31" viewBox="0 0 157 31" fill="none" xmlns="http://www.w3.org/2000/svg">
<path fill-rule="evenodd" clip-rule="evenodd" d="M49.7388 6.67758V14.2928H54.7965C58.2375 14.2928 60.0767 13.3279 60.0767 10.4481C60.0767 7.56824 58.2524 6.67758 54.841 6.67758H49.7462H49.7388ZM43.1831 1.14062H56.1685C59.5502 1.14062 62.2422 1.94964 64.2296 3.5751C66.2171 5.20056 67.2109 7.14518 67.2109 10.3664C67.2109 13.5876 66.2245 15.8069 64.2519 17.4249C62.2792 19.0504 59.3425 19.8594 56.1536 19.8594H49.7388V29.9833H43.1831V1.14062Z" fill="#2B2A29"/>
<path fill-rule="evenodd" clip-rule="evenodd" d="M97.4314 19.1098C97.0977 22.8951 95.6887 24.6022 93.3823 26.8289C91.0685 29.0629 88.2505 30.4064 84.2162 30.4064C79.8482 30.4064 76.3256 29.434 73.6632 26.5394C71.0009 23.6447 69.5474 19.8149 69.5474 15.0424C69.5474 10.5297 70.8897 7.66475 73.5891 4.67361C76.2811 1.68247 79.9891 0.658203 84.4757 0.658203C88.0576 0.658203 90.8238 1.7938 93.2488 3.82748C95.6739 5.86116 97.0087 8.67417 97.2683 11.8138H91.0315C90.6903 10.1512 89.9413 8.74097 88.7696 7.82062C87.5979 6.90769 86.1221 5.97249 84.3497 5.97249C82.5772 5.97249 80.9754 6.48462 79.7147 7.51631C78.4614 8.54799 77.6975 9.69101 77.1932 11.1903C76.6519 12.7935 76.548 13.9068 76.548 15.562C76.548 18.3527 77.0301 20.2008 78.4688 22.049C79.9075 23.8971 81.8356 24.8249 84.2681 24.8249C87.5534 24.8249 90.4827 22.6873 90.9276 19.1098H97.4389H97.4314Z" fill="#2B2A29"/>
<path fill-rule="evenodd" clip-rule="evenodd" d="M126.569 1.14062L119.123 14.7381L127.6 29.9313H120.154L114.066 18.5308L112.864 18.5011L106.716 29.9313H99.3003L107.821 14.7381L100.242 1.14062H107.71L113.213 11.4426H113.813L119.294 1.14062H126.569Z" fill="#2B2A29"/>
<path fill-rule="evenodd" clip-rule="evenodd" d="M149.099 20.1711C149.099 18.5531 147.556 16.794 145.057 16.794H138.427V24.1791H145.094C147.875 24.1791 149.091 22.138 149.091 20.1711H149.099ZM138.435 11.9399H145.48C148.669 11.9399 151.249 12.1626 153.222 13.7806C155.195 15.4061 156.181 17.0909 156.181 20.2528C156.181 23.4146 155.187 25.8936 153.2 27.5117C151.212 29.1371 148.528 29.9462 145.139 29.9313H131.76V1.14062H154.097V6.67758H138.435V11.9399Z" fill="#2B2A29"/>
<path d="M31.5183 1.14062H20.0161V29.9313H31.5183V1.14062Z" fill="#28813D"/>
<path d="M17.035 1.14062H8.52148V29.9313H17.035V1.14062Z" fill="#B0CB1F"/>
<path d="M5.7552 1.14062H0.0078125V29.9313H5.7552V1.14062Z" fill="#FECC00"/>
<path fill-rule="evenodd" clip-rule="evenodd" d="M35.2635 2.79578H35.5305C35.4934 2.98875 35.4119 3.14462 35.2784 3.25595C35.1449 3.36729 34.9892 3.42666 34.8112 3.42666C34.5516 3.42666 34.344 3.3376 34.1882 3.16689C34.0325 2.99618 33.9509 2.78093 33.9509 2.52116C33.9509 2.26138 34.0251 2.03871 34.1808 1.87543C34.3291 1.70471 34.5368 1.62307 34.7963 1.62307C34.9892 1.62307 35.1523 1.67503 35.2858 1.78636C35.4193 1.89769 35.5009 2.04614 35.5305 2.23911H35.271C35.2487 2.12778 35.1968 2.04614 35.1078 1.97934C35.0262 1.91254 34.9224 1.88285 34.8038 1.88285C34.6258 1.88285 34.4923 1.94223 34.3959 2.06098C34.2995 2.17974 34.2476 2.3356 34.2476 2.52116C34.2476 2.70671 34.2995 2.86258 34.4033 2.98875C34.5071 3.11493 34.648 3.17431 34.8186 3.17431C34.9372 3.17431 35.0411 3.14462 35.1226 3.0704C35.2042 3.0036 35.2561 2.91453 35.271 2.8032L35.2635 2.79578ZM33.5653 2.52116C33.5653 2.87 33.6765 3.15947 33.9064 3.39698C34.1363 3.62706 34.4181 3.74582 34.7518 3.74582C35.0856 3.74582 35.3674 3.62706 35.5973 3.39698C35.8197 3.16689 35.9384 2.87 35.9384 2.52116C35.9384 2.17231 35.8272 1.89027 35.5973 1.65276C35.3674 1.42267 35.0856 1.30392 34.7518 1.30392C34.4181 1.30392 34.1363 1.42267 33.9064 1.65276C33.6765 1.88285 33.5579 2.17231 33.5579 2.52116H33.5653ZM34.7593 3.99075C35.1671 3.99075 35.5157 3.84973 35.8049 3.57511C36.0941 3.29306 36.235 2.94422 36.235 2.52858C36.235 2.11294 36.0941 1.77151 35.7975 1.48947C35.5083 1.20743 35.1597 1.06641 34.7518 1.06641C34.344 1.06641 33.9954 1.20743 33.6988 1.48205C33.4096 1.76409 33.2612 2.11294 33.2612 2.52858C33.2612 2.94422 33.4095 3.30049 33.7062 3.58253C33.9954 3.85715 34.344 3.99817 34.7518 3.99817L34.7593 3.99075Z" fill="#28813D"/>
</svg>
