<svg width="259" height="41" viewBox="0 0 259 41" fill="none" xmlns="http://www.w3.org/2000/svg">
<g clip-path="url(#clip0_334_704)">
<path d="M115.834 12.5362L121.241 8.45828H103.143V32.8899H121.241V28.812H108.314V22.574H119.361V18.4961H108.314V12.5362H115.834ZM89.4728 17.9761H83.2042V12.5362H93.234L98.6391 8.45828H78.0358V32.8899H88.8082C94.8402 32.8899 98.3244 30.094 98.3244 25.2129C98.3244 20.5351 95.1926 17.9761 89.4728 17.9761ZM88.6119 28.8145H83.2067V22.0514H88.6119C91.9023 22.0514 93.4304 23.1713 93.4304 25.4497C93.4304 27.7307 91.7839 28.8094 88.6119 28.8094V28.8145ZM135.888 8.45828H126.057V32.8899H131.228V25.9749H135.929C142.197 25.9749 146.112 22.6152 146.112 17.2166C146.112 11.818 142.195 8.45828 135.888 8.45828ZM135.773 21.897H131.191V12.5337H135.773C139.101 12.5337 140.903 14.2148 140.903 17.214C140.903 20.2133 139.101 21.8918 135.773 21.8918V21.897ZM69.1841 27.6123C67.8132 28.3732 66.2779 28.7715 64.7181 28.7708C60.0556 28.7708 56.6872 25.3725 56.6872 20.6947C56.6872 16.0169 60.0556 12.616 64.7181 12.616C66.404 12.5905 68.0528 13.1234 69.4183 14.135L73.1392 11.3365L72.905 11.0971C70.75 9.13794 67.8524 8.13647 64.562 8.13647C60.9972 8.13647 57.7471 9.37736 55.3957 11.6171C54.226 12.769 53.302 14.1559 52.682 15.6907C52.062 17.2254 51.7594 18.8748 51.7931 20.5351C51.7713 22.2174 52.0788 23.8871 52.6975 25.4461C53.3162 27.005 54.2336 28.4217 55.3957 29.6126C57.8627 31.9828 61.1373 33.2742 64.5217 33.2117C68.2426 33.2117 71.4952 31.8936 73.688 29.4942L70.3573 26.9712L69.1841 27.6123ZM208.275 8.4969V32.9311H213.446V22.9345H224.455V32.9311H229.626V8.49947H224.455V18.5347H213.448V8.4969H208.275ZM199.385 32.9311H204.828L194.723 8.49947H189.474L179.172 32.9311H184.383L186.458 28.0139H197.427L199.385 32.9311ZM188.024 23.9359L192.019 14.1375L195.78 23.9359H188.024ZM241.219 23.058H244.429L252.341 32.8925H259L248.426 20.257L257.668 8.46086H251.752L244.076 18.9389H241.216V8.46086H236.048V32.8925H241.216L241.219 23.058ZM162.091 18.0147V12.5774H175.605V8.4969H156.922V32.9311H167.692C173.724 32.9311 177.211 30.1327 177.211 25.2541C177.211 20.5737 174.077 18.0147 168.359 18.0147H162.091ZM162.091 28.8531V22.0952H167.498C170.789 22.0952 172.314 23.2151 172.314 25.4935C172.314 27.7745 170.708 28.8918 167.498 28.8918H162.091V28.8531ZM35.6155 8.29867C36.5546 9.53698 37.3375 10.8989 38.0047 12.3354L19.9062 25.9749L12.3083 21.0937V15.2549L19.8685 20.0948L35.6155 8.29867Z" fill="#21A038"/>
<path d="M4.59238 20.6947C4.59238 20.4141 4.59238 20.1747 4.63267 19.8941L0.0507801 19.6547C0.0507801 19.9739 0.0104998 20.3343 0.0104998 20.6536C0.00939567 23.322 0.524428 25.9644 1.52595 28.4285C2.52747 30.8926 3.99569 33.1298 5.84611 35.0113L9.09623 31.6903C7.66681 30.2569 6.53202 28.5458 5.75857 26.6576C4.98513 24.7693 4.58863 22.742 4.59238 20.6947Z" fill="url(#paint0_linear_334_704)"/>
<path d="M19.8685 5.09601C20.1429 5.09601 20.3771 5.09601 20.6515 5.1372L20.8881 0.459406C20.5734 0.459406 20.221 0.418215 19.9063 0.418215C17.2945 0.417024 14.7082 0.942843 12.2954 1.96555C9.88271 2.98825 7.69102 4.48773 5.84595 6.37809L9.09606 9.69656C10.5044 8.23861 12.1819 7.08118 14.0311 6.29144C15.8803 5.50169 17.8645 5.09536 19.8685 5.09601Z" fill="url(#paint1_linear_334_704)"/>
<path d="M19.8684 36.2907C19.594 36.2907 19.3599 36.2907 19.0854 36.2496L18.8513 40.9299C19.1635 40.9299 19.5159 40.9685 19.8281 40.9685C22.4401 40.9704 25.0269 40.4452 27.44 39.4229C29.8532 38.4006 32.0454 36.9014 33.891 35.0112L30.6409 31.6902C29.2403 33.1587 27.5643 34.323 25.7133 35.1135C23.8623 35.9041 21.8743 36.3044 19.8684 36.2907Z" fill="url(#paint2_linear_334_704)"/>
<path d="M28.4859 7.81982L32.3629 4.89781C28.8245 1.97734 24.4155 0.382967 19.8684 0.379639V5.05743C22.9459 5.07721 25.9471 6.04096 28.4859 7.81982Z" fill="url(#paint3_linear_334_704)"/>
<path d="M39.7669 20.6947C39.7669 19.4564 39.6486 18.2541 39.4548 17.0544L35.1851 20.2957V20.6947C35.1866 22.877 34.7371 25.0349 33.8659 27.027C32.9947 29.0191 31.7215 30.8004 30.1299 32.254L33.2264 35.7296C35.2853 33.8315 36.9313 31.5124 38.058 28.9224C39.1847 26.3325 39.7669 23.5294 39.7669 20.6947Z" fill="#21A038"/>
<path d="M19.8686 36.2934C17.7331 36.2952 15.6212 35.8364 13.6709 34.947C11.7205 34.0576 9.97551 32.7575 8.54983 31.1316L5.14111 34.293C7.00025 36.4007 9.2724 38.0845 11.8098 39.2351C14.3472 40.3857 17.093 40.9772 19.8686 40.9712V36.2934Z" fill="url(#paint4_linear_334_704)"/>
<path d="M9.64508 9.13789L6.55105 5.65723C4.48818 7.55251 2.83941 9.87143 1.7124 12.4626C0.585391 15.0537 0.00547922 17.8588 0.0105308 20.6946H4.59242C4.59463 18.5133 5.04564 16.3568 5.91614 14.3653C6.78663 12.3738 8.05713 10.5919 9.64508 9.13532V9.13789Z" fill="url(#paint5_linear_334_704)"/>
</g>
<defs>
<linearGradient id="paint0_linear_334_704" x1="551.567" y1="254.961" x2="306.402" y2="147.96" gradientUnits="userSpaceOnUse">
<stop offset="0.144" stop-color="#F2E913"/>
<stop offset="0.304" stop-color="#E7E518"/>
<stop offset="0.582" stop-color="#CADB26"/>
<stop offset="0.891" stop-color="#A3CD39"/>
</linearGradient>
<linearGradient id="paint1_linear_334_704" x1="140.249" y1="86.6079" x2="1467.32" y2="10.2361" gradientUnits="userSpaceOnUse">
<stop offset="0.059" stop-color="#0FA8E0"/>
<stop offset="0.538" stop-color="#0099F9"/>
<stop offset="0.923" stop-color="#0291EB"/>
</linearGradient>
<linearGradient id="paint2_linear_334_704" x1="-8.82927" y1="115.819" x2="1493.6" y2="64.5488" gradientUnits="userSpaceOnUse">
<stop offset="0.123" stop-color="#A3CD39"/>
<stop offset="0.285" stop-color="#86C339"/>
<stop offset="0.869" stop-color="#21A038"/>
</linearGradient>
<linearGradient id="paint3_linear_334_704" x1="-77.0006" y1="48.0293" x2="1206.74" y2="107.824" gradientUnits="userSpaceOnUse">
<stop offset="0.057" stop-color="#0291EB"/>
<stop offset="0.79" stop-color="#0C8ACB"/>
</linearGradient>
<linearGradient id="paint4_linear_334_704" x1="125.02" y1="93.5093" x2="1521.91" y2="172.311" gradientUnits="userSpaceOnUse">
<stop offset="0.132" stop-color="#F2E913"/>
<stop offset="0.298" stop-color="#EBE716"/>
<stop offset="0.531" stop-color="#D9E01F"/>
<stop offset="0.802" stop-color="#BBD62D"/>
<stop offset="0.983" stop-color="#A3CD39"/>
</linearGradient>
<linearGradient id="paint5_linear_334_704" x1="358.715" y1="253.937" x2="646.193" y2="141.024" gradientUnits="userSpaceOnUse">
<stop offset="0.07" stop-color="#A3CD39"/>
<stop offset="0.26" stop-color="#81C55F"/>
<stop offset="0.922" stop-color="#0FA8E0"/>
</linearGradient>
<clipPath id="clip0_334_704">
<rect width="259" height="41" fill="white"/>
</clipPath>
</defs>
</svg>
