<svg width="164" height="82" viewBox="0 0 164 82" fill="none" xmlns="http://www.w3.org/2000/svg">
<path d="M143.758 23.4069V43.4545H136.57V29.3915H129.65V43.4545H122.463V23.4055H143.758V23.4069Z" fill="black"/>
<path fill-rule="evenodd" clip-rule="evenodd" d="M107.701 44.1707C114.136 44.1707 118.914 40.2415 118.914 34.2856C118.914 28.5203 115.389 24.777 109.497 24.777C106.779 24.777 104.535 25.7303 102.845 27.3751C103.249 23.9755 106.135 21.4936 109.313 21.4936C110.046 21.4936 115.568 21.482 115.568 21.482L118.689 15.5302C118.689 15.5302 111.758 15.6873 108.536 15.6873C101.173 15.8158 96.1995 22.4817 96.1995 30.5772C96.1995 40.0099 101.05 44.1714 107.702 44.1714L107.701 44.1707ZM107.741 30.0483C110.13 30.0483 111.786 31.6117 111.786 34.2849C111.786 36.6903 110.315 38.6733 107.741 38.6788C105.28 38.6788 103.623 36.842 103.623 34.3259C103.623 31.652 105.28 30.0483 107.741 30.0483Z" fill="black"/>
<path d="M90.3494 36.7428C90.3494 36.7428 88.6521 37.7173 86.1164 37.9018C83.2026 37.9879 80.6059 36.1545 80.6059 32.897C80.6059 29.7195 82.8973 27.8985 86.0436 27.8985C87.9729 27.8985 90.525 29.2303 90.525 29.2303C90.525 29.2303 92.3925 25.817 93.3598 24.1101C91.5884 22.7728 89.229 22.0396 86.4848 22.0396C79.5589 22.0396 74.1946 26.5373 74.1946 32.8567C74.1946 39.2568 79.2365 43.65 86.4848 43.5167C88.5107 43.4416 91.3058 42.7336 93.0093 41.6437L90.3494 36.7428Z" fill="black"/>
<path d="M1.97168 17.8486L11.9416 35.5982V46.4249L1.98334 64.1397L1.97168 17.8486Z" fill="#5B57A2"/>
<path d="M40.2522 29.1393L49.5944 23.4362L68.7137 23.4185L40.2522 40.7847V29.1393Z" fill="#D90751"/>
<path d="M40.1995 17.7441L40.2523 41.2439L30.259 35.1281V0L40.1995 17.7441Z" fill="#FAB718"/>
<path d="M68.7138 23.4185L49.5938 23.4363L40.1995 17.7441L30.259 0L68.7138 23.4185Z" fill="#ED6F26"/>
<path d="M40.2523 64.2381V52.8367L30.259 46.837L30.2645 82L40.2523 64.2381Z" fill="#63B22F"/>
<path d="M49.571 58.5869L11.9409 35.5982L1.97168 17.8486L68.6731 58.5637L49.571 58.5869Z" fill="#1487C9"/>
<path d="M30.2651 82L40.2515 64.2381L49.5704 58.587L68.6725 58.5637L30.2651 82Z" fill="#017F36"/>
<path d="M1.9834 64.1397L30.3406 46.8377L20.807 41.0116L11.9417 46.425L1.9834 64.1397Z" fill="#984995"/>
<path d="M80.608 56.947C80.3884 57.2258 80.0996 57.4362 79.7531 57.5784C79.3976 57.7225 79.0173 57.7959 78.6335 57.7943C78.2517 57.7994 77.8722 57.736 77.5131 57.6071C77.1906 57.4904 76.8958 57.3084 76.6473 57.0727C76.4019 56.8366 76.2093 56.5516 76.082 56.2363C75.944 55.8907 75.8753 55.5216 75.8796 55.1498C75.8796 54.7808 75.9434 54.4391 76.0758 54.1159C76.197 53.8031 76.3815 53.5184 76.6178 53.2795C76.8533 53.0423 77.1317 52.8515 77.4383 52.7171C77.756 52.5805 78.1024 52.5067 78.4832 52.5067C78.8935 52.5067 79.2742 52.5579 79.6207 52.6597C79.9672 52.7622 80.2615 52.9331 80.5037 53.1722L80.0824 53.8829C79.8787 53.699 79.6387 53.5593 79.3778 53.4729C79.1296 53.3932 78.8703 53.3531 78.6094 53.354C78.3796 53.354 78.1601 53.3991 77.9467 53.4838C77.7364 53.5684 77.5443 53.6922 77.3807 53.8487C77.2135 54.0094 77.0817 54.203 76.9938 54.4173C76.8942 54.6505 76.8451 54.9019 76.8497 55.1553C76.8497 55.4347 76.9011 55.6848 76.9992 55.9001C77.098 56.1229 77.2305 56.3101 77.3972 56.4693C77.5653 56.6292 77.7608 56.7481 77.9865 56.8281C78.2155 56.9132 78.4583 56.9556 78.7028 56.9531C79.0142 56.9531 79.2976 56.8902 79.5398 56.7707C79.7797 56.6552 79.9954 56.4952 80.175 56.2992L80.608 56.947ZM81.7969 57.6747V52.6146H82.7094V56.3846L85.6766 52.6146H86.5891V57.6754H85.6766V53.9054L82.7094 57.6754L81.7969 57.6747ZM92.6333 56.947C92.4089 57.2281 92.1144 57.4458 91.7792 57.5784C91.4234 57.7224 91.0428 57.7958 90.6588 57.7943C90.2773 57.7994 89.8981 57.736 89.5392 57.6071C89.2164 57.4904 88.9214 57.3085 88.6727 57.0727C88.4273 56.8366 88.2347 56.5516 88.1074 56.2363C87.9694 55.8907 87.9007 55.5216 87.905 55.1498C87.905 54.7808 87.9688 54.4391 88.1012 54.1159C88.2288 53.7913 88.4133 53.5132 88.6432 53.2795C88.8787 53.0423 89.1571 52.8515 89.4637 52.7171C89.7927 52.5728 90.1491 52.501 90.5086 52.5067C90.9189 52.5067 91.2996 52.5579 91.6461 52.6597C91.9925 52.7622 92.2869 52.9331 92.5297 53.1722L92.1078 53.8829C91.9044 53.6989 91.6647 53.5592 91.4039 53.4729C91.1556 53.3933 90.8963 53.3531 90.6355 53.354C90.1771 53.3556 89.737 53.5328 89.4061 53.8487C89.2403 54.0106 89.1087 54.2039 89.0191 54.4173C88.9196 54.6505 88.8705 54.9019 88.8751 55.1553C88.8751 55.4347 88.9272 55.6848 89.0253 55.9001C89.1234 56.1229 89.2558 56.3101 89.4232 56.4693C89.5906 56.6292 89.7868 56.7481 90.0126 56.8281C90.2376 56.9073 90.4743 56.9531 90.7281 56.9531C91.0403 56.9531 91.3175 56.8902 91.5651 56.7707C91.8051 56.6552 92.0207 56.4952 92.2004 56.2992L92.6333 56.947ZM93.1012 52.6146H97.783V53.5132H95.9011V57.6747H94.9886V53.5132H93.1067V52.6146H93.1012Z" fill="black"/>
<path fill-rule="evenodd" clip-rule="evenodd" d="M102.044 57.6241C102.391 57.5161 102.685 57.3507 102.939 57.1239L102.662 56.4187C102.494 56.567 102.269 56.692 101.998 56.7945C101.726 56.897 101.42 56.9476 101.086 56.9476C100.583 56.9476 100.168 56.8171 99.8384 56.5499C99.5091 56.282 99.3307 55.9075 99.2895 55.4292H103.239C103.281 55.2293 103.301 55.0253 103.297 54.821C103.301 54.4966 103.236 54.1749 103.106 53.8774C102.988 53.6013 102.815 53.3517 102.598 53.1435C102.379 52.9372 102.119 52.7768 101.836 52.672C101.54 52.5574 101.224 52.4995 100.907 52.5011C100.479 52.5011 100.104 52.5749 99.7746 52.7116C99.4641 52.8419 99.1834 53.0334 98.9492 53.2747C98.7217 53.5147 98.547 53.7993 98.436 54.1104C98.3141 54.4416 98.2534 54.7921 98.257 55.1449C98.257 55.5433 98.3256 55.9069 98.4532 56.2314C98.5767 56.5459 98.7656 56.8307 99.0075 57.0672C99.2442 57.2995 99.5324 57.4765 99.8734 57.6015C100.238 57.7305 100.624 57.7939 101.011 57.7888C101.362 57.7866 101.71 57.7306 102.044 57.6241ZM99.7348 53.7291C100.017 53.4735 100.393 53.3485 100.866 53.3485C101.311 53.3485 101.669 53.468 101.929 53.7072C102.189 53.9457 102.327 54.2757 102.35 54.696H99.2326C99.2768 54.3239 99.4552 53.9798 99.7348 53.7291Z" fill="black"/>
<path d="M104.538 52.6146H105.369L107.344 55.1225L109.214 52.6146H110.022V57.6754H109.11V53.9854L107.332 56.3333H107.297L105.45 53.9847V57.6747H104.538V52.6146Z" fill="black"/>
<path fill-rule="evenodd" clip-rule="evenodd" d="M112.504 52.6317C112.227 52.7038 111.963 52.8167 111.72 52.9665L111.962 53.684C112.17 53.5815 112.378 53.4961 112.586 53.4223C112.793 53.3471 113.059 53.313 113.377 53.313C113.63 53.313 113.833 53.354 113.989 53.4332C114.144 53.507 114.26 53.6212 114.341 53.7578C114.422 53.8945 114.474 54.0646 114.502 54.2635C114.531 54.4623 114.543 54.6783 114.543 54.912C114.356 54.7823 114.143 54.6949 113.919 54.6557C113.702 54.6129 113.482 54.59 113.261 54.5874C112.99 54.5874 112.736 54.6277 112.493 54.6954C112.251 54.7637 112.043 54.8662 111.876 55.0029C111.704 55.1392 111.566 55.312 111.471 55.5085C111.369 55.7237 111.318 55.959 111.321 56.1966C111.321 56.6914 111.465 57.0781 111.753 57.3515C112.043 57.6241 112.424 57.7601 112.897 57.7601C113.324 57.7601 113.665 57.6863 113.925 57.5387C114.185 57.3904 114.393 57.2203 114.542 57.0262V57.6808H115.397V54.5765C115.397 53.9164 115.253 53.4052 114.958 53.0458C114.67 52.6884 114.155 52.506 113.428 52.506C113.105 52.506 112.798 52.5517 112.504 52.6317ZM114.03 56.7317C113.822 56.8793 113.55 56.9469 113.215 56.9469C112.92 56.9469 112.69 56.8731 112.529 56.731C112.367 56.5834 112.286 56.3893 112.286 56.1502C112.286 56.0094 112.315 55.8898 112.378 55.7812C112.442 55.6725 112.529 55.5885 112.627 55.5201C112.734 55.4487 112.853 55.3966 112.979 55.3664C113.112 55.3322 113.244 55.3151 113.383 55.3151C113.834 55.3151 114.22 55.4231 114.537 55.65V56.2923C114.388 56.4596 114.217 56.6077 114.03 56.7317ZM123.452 50.8345C123.636 50.7498 123.808 50.6077 123.971 50.3972L123.474 49.6865C123.347 49.8574 123.203 49.9763 123.041 50.0391C122.87 50.1059 122.692 50.1554 122.51 50.1867L122.337 50.2175C122.186 50.2434 122.026 50.2721 121.852 50.3008C121.574 50.3521 121.303 50.4361 121.044 50.5509C120.634 50.7272 120.305 50.9657 120.056 51.2671C119.807 51.5684 119.612 51.9094 119.479 52.2852C119.344 52.666 119.253 53.0607 119.208 53.4619C119.162 53.8719 119.139 54.2635 119.139 54.6386C119.139 55.1224 119.202 55.5598 119.329 55.952C119.457 56.3449 119.635 56.6743 119.871 56.9415C120.108 57.2148 120.392 57.4198 120.726 57.5674C121.061 57.715 121.437 57.7888 121.858 57.7888C122.245 57.7888 122.603 57.715 122.926 57.5783C123.238 57.447 123.52 57.2559 123.758 57.016C123.988 56.7823 124.173 56.5035 124.299 56.1912C124.432 55.8741 124.499 55.5336 124.496 55.1901C124.496 54.8095 124.439 54.463 124.329 54.1555C124.228 53.8624 124.067 53.5934 123.856 53.3656C123.644 53.1416 123.386 52.9667 123.099 52.8531C122.783 52.7291 122.446 52.6674 122.106 52.6713C121.887 52.6713 121.673 52.7 121.465 52.7567C121.263 52.8135 121.069 52.8957 120.888 53.0014C120.712 53.1018 120.551 53.2259 120.409 53.3704C120.27 53.5132 120.155 53.6724 120.074 53.8542H120.051C120.068 53.6136 120.1 53.3744 120.149 53.138C120.201 52.8934 120.276 52.6597 120.375 52.4383C120.473 52.2169 120.6 52.0174 120.755 51.8356C120.922 51.6521 121.127 51.5067 121.356 51.4092C121.607 51.29 121.873 51.2041 122.147 51.1536L122.328 51.1208C122.508 51.088 122.68 51.0566 122.845 51.0224C123.065 50.9773 123.266 50.9193 123.452 50.8345ZM120.241 55.6964C120.152 55.4093 120.109 55.1099 120.114 54.8095C120.153 54.637 120.224 54.4732 120.322 54.3264C120.424 54.1701 120.551 54.0316 120.698 53.9164C121.037 53.6518 121.456 53.5096 121.887 53.5132C122.424 53.5132 122.828 53.6772 123.111 54.0025C123.394 54.3318 123.532 54.7405 123.532 55.2359C123.532 55.4805 123.486 55.7026 123.406 55.9069C123.327 56.1085 123.209 56.2924 123.059 56.4477C122.908 56.603 122.727 56.7266 122.527 56.811C122.32 56.9018 122.094 56.9476 121.841 56.9476C121.587 56.9476 121.356 56.8964 121.142 56.7939C120.93 56.6934 120.743 56.5479 120.593 56.3675C120.437 56.1664 120.318 55.9392 120.241 55.6964H120.241ZM131.494 52.6146H130.581V57.6754H131.494V52.6146ZM125.812 52.6146H126.725V54.133H127.568C127.966 54.133 128.288 54.1842 128.549 54.2806C128.809 54.3776 129.017 54.5081 129.173 54.6673C129.328 54.8266 129.438 55.0145 129.502 55.2243C129.565 55.4347 129.6 55.6507 129.6 55.8782C129.6 56.1058 129.565 56.3224 129.49 56.5383C129.421 56.7542 129.3 56.9415 129.138 57.1123C128.976 57.2831 128.757 57.4198 128.479 57.5223C128.203 57.6241 127.868 57.6808 127.464 57.6808H125.807V52.6146H125.812ZM126.725 54.9789V56.8335H127.389C127.845 56.8335 128.168 56.7542 128.353 56.5943C128.538 56.4351 128.63 56.2083 128.63 55.9069C128.63 55.5994 128.532 55.3671 128.347 55.2072C128.157 55.048 127.839 54.968 127.401 54.968H126.725V54.9789Z" fill="black"/>
<path d="M137.527 56.947C137.307 57.2258 137.019 57.4362 136.672 57.5784C136.317 57.7224 135.936 57.7958 135.552 57.7943C135.171 57.7994 134.791 57.736 134.432 57.6071C134.109 57.4906 133.815 57.3086 133.566 57.0727C133.321 56.8364 133.128 56.5515 133 56.2363C132.863 55.8906 132.794 55.5216 132.799 55.1498C132.799 54.7808 132.862 54.4391 132.995 54.1159C133.116 53.8031 133.3 53.5184 133.537 53.2795C133.769 53.0403 134.044 52.8593 134.357 52.7171C134.686 52.5728 135.043 52.501 135.402 52.5067C135.812 52.5067 136.193 52.5579 136.54 52.6597C136.886 52.7622 137.18 52.9331 137.423 53.1722L137.001 53.8829C136.798 53.699 136.558 53.5594 136.297 53.4729C136.049 53.3932 135.789 53.3531 135.528 53.354C135.299 53.354 135.079 53.3991 134.865 53.4838C134.655 53.5684 134.463 53.6923 134.3 53.8487C134.134 54.0104 134.002 54.2038 133.913 54.4173C133.813 54.6505 133.764 54.9019 133.769 55.1553C133.769 55.4347 133.82 55.6848 133.918 55.9001C134.016 56.1229 134.149 56.3101 134.316 56.4693C134.484 56.6292 134.68 56.7481 134.905 56.8281C135.131 56.9073 135.368 56.9531 135.622 56.9531C135.911 56.9568 136.197 56.8944 136.459 56.7707C136.699 56.6552 136.914 56.4952 137.094 56.2992L137.527 56.947ZM137.993 52.6146H142.677V53.5132H140.794V57.6747H139.881V53.5132H138V52.6146H137.993Z" fill="black"/>
<path fill-rule="evenodd" clip-rule="evenodd" d="M144.582 52.6153H143.669V59.927H144.582V57.4424C144.766 57.562 144.986 57.6474 145.24 57.7041C145.493 57.7608 145.759 57.7889 146.031 57.7889C146.435 57.7889 146.798 57.7151 147.128 57.5791C147.443 57.4445 147.73 57.2495 147.97 57.0051C148.209 56.757 148.393 56.4624 148.512 56.14C148.64 55.8051 148.704 55.4464 148.704 55.0658C148.704 54.6899 148.646 54.3435 148.536 54.0305C148.433 53.7333 148.272 53.4591 148.063 53.2235C147.857 52.9937 147.603 52.8129 147.318 52.6946C147.006 52.5611 146.669 52.4952 146.33 52.5012C145.973 52.5012 145.638 52.5696 145.321 52.7062C145.003 52.8429 144.755 53.0069 144.582 53.2119V52.6153ZM145.217 53.5536C145.477 53.4169 145.759 53.3486 146.066 53.3486C146.331 53.3486 146.568 53.3882 146.782 53.4736C146.99 53.559 147.163 53.6786 147.307 53.8378C147.451 53.997 147.561 54.1795 147.63 54.3947C147.705 54.6107 147.74 54.8444 147.74 55.0999C147.74 55.3733 147.694 55.6172 147.613 55.8448C147.538 56.0605 147.418 56.2581 147.261 56.4249C147.103 56.5897 146.912 56.7194 146.701 56.8055C146.465 56.9039 146.211 56.9523 145.956 56.9477C145.708 56.9477 145.477 56.9197 145.257 56.8629C145.017 56.7978 144.789 56.6939 144.582 56.5554V54.0476C144.744 53.8549 144.958 53.6902 145.217 53.5536ZM155.7 52.6147H154.788V57.6754H155.7V52.6147ZM150.014 52.6147H150.926V54.133H151.769C152.167 54.133 152.491 54.1843 152.75 54.2806C153.011 54.3777 153.219 54.5082 153.374 54.6674C153.53 54.8266 153.64 55.0145 153.703 55.2243C153.767 55.4348 153.801 55.6507 153.801 55.8783C153.801 56.1058 153.767 56.3224 153.691 56.5384C153.623 56.7543 153.501 56.9415 153.339 57.1124C153.178 57.2832 152.959 57.4199 152.681 57.5224C152.404 57.6242 152.069 57.6809 151.665 57.6809H150.008V52.6147H150.014ZM150.933 54.979V56.8336H151.597C152.052 56.8336 152.376 56.7543 152.561 56.5944C152.745 56.4352 152.838 56.2083 152.838 55.907C152.838 55.5995 152.74 55.3671 152.555 55.2072C152.364 55.048 152.047 54.9681 151.608 54.9681H150.933V54.979Z" fill="black"/>
<path d="M160.077 55.0541L162.028 57.6754H160.909L159.401 55.6281L157.871 57.6754H156.809L158.749 55.0992L156.924 52.6146H158.045L159.436 54.5252L160.85 52.6146H161.913L160.077 55.0541ZM79.9328 63.9299H77.1329V68.1488H76.2205V63.0888H80.8445V68.1488H79.9321L79.9328 63.9299ZM86.023 63.9867H84.2221L84.1637 64.8395C84.1006 65.5617 84.0142 66.1419 83.8927 66.5847C83.7713 67.0289 83.6211 67.3698 83.4482 67.6083C83.2753 67.8475 83.0729 68.0115 82.8417 68.0921C82.6032 68.1783 82.351 68.2206 82.0973 68.2172L82.028 67.3411C82.1457 67.3438 82.2624 67.3185 82.3683 67.2673C82.4959 67.2106 82.6221 67.0856 82.7436 66.8983C82.865 66.7043 82.9748 66.4316 83.0729 66.0783C83.171 65.721 83.2348 65.2549 83.2691 64.6686L83.3617 63.0935H86.9355V68.1543H86.023V63.9867Z" fill="black"/>
<path fill-rule="evenodd" clip-rule="evenodd" d="M89.395 63.1004C89.1 63.1797 88.8345 63.2931 88.6095 63.4352L88.8524 64.152C89.0602 64.0495 89.2681 63.9641 89.4753 63.8903C89.6832 63.8165 89.9487 63.7824 90.2663 63.7824C90.5202 63.7824 90.7226 63.822 90.8783 63.9013C91.0347 63.9757 91.15 64.0892 91.2309 64.2258C91.3112 64.3625 91.3634 64.5333 91.3922 64.7315C91.421 64.931 91.4327 65.147 91.4327 65.38C91.2457 65.2505 91.0327 65.1633 90.8083 65.1244C90.5918 65.0815 90.3718 65.0586 90.1511 65.0561C89.8801 65.0561 89.6256 65.0957 89.3827 65.1641C89.1405 65.2324 88.9326 65.3349 88.7652 65.4716C88.5941 65.6079 88.4558 65.7807 88.3604 65.9772C88.2592 66.1924 88.2083 66.4277 88.2116 66.6653C88.2116 67.1594 88.3556 67.5468 88.6438 67.8195C88.9319 68.0921 89.3141 68.2288 89.7875 68.2288C90.2149 68.2288 90.5552 68.155 90.8152 68.0067C91.0745 67.8591 91.2817 67.6883 91.4327 67.4942V68.1489H92.2875V65.0445C92.2875 64.3851 92.1427 63.8732 91.8484 63.5152C91.5596 63.1564 91.0457 62.9753 90.3185 62.9753C90.0065 62.9756 89.6959 63.0181 89.395 63.1004ZM90.925 67.199C90.7178 67.3473 90.4461 67.4156 90.1113 67.4156C89.8108 67.4156 89.5858 67.3418 89.4245 67.199C89.2626 67.0514 89.1817 66.8574 89.1817 66.6196C89.1817 66.4774 89.2105 66.3578 89.2743 66.2499C89.3374 66.1419 89.4245 66.0565 89.5226 65.9882C89.6207 65.9198 89.7415 65.8686 89.8746 65.8344C90.0066 65.8005 90.1424 65.7835 90.2787 65.7838C90.7287 65.7838 91.1157 65.8918 91.4333 66.1187V66.761C91.2834 66.9278 91.1125 67.0755 90.925 67.199Z" fill="black"/>
<path d="M93.1814 63.0887H97.8638V63.9866H95.9812V68.1481H95.0688V63.9866H93.1876V63.0887H93.1814Z" fill="black"/>
<path fill-rule="evenodd" clip-rule="evenodd" d="M102.125 68.0975C102.472 67.9896 102.766 67.8242 103.02 67.5973L102.743 66.8921C102.575 67.0404 102.35 67.1655 102.078 67.268C101.807 67.3705 101.501 67.421 101.166 67.421C100.664 67.421 100.249 67.2905 99.9194 67.0233C99.5901 66.7561 99.4117 66.381 99.3705 65.9027H103.32C103.36 65.727 103.378 65.5268 103.378 65.2945C103.378 64.948 103.314 64.6351 103.187 64.3508C103.069 64.0748 102.896 63.8254 102.679 63.6176C102.459 63.4109 102.2 63.2503 101.917 63.1454C101.621 63.0309 101.305 62.973 100.988 62.9746C100.56 62.9746 100.185 63.0484 99.8556 63.185C99.5449 63.315 99.2641 63.5066 99.0302 63.7481C98.8025 63.9882 98.6273 64.2728 98.5157 64.5838C98.3943 64.9152 98.3338 65.2657 98.3373 65.6184C98.3373 66.0168 98.4059 66.3803 98.5335 66.7049C98.6611 67.0288 98.8512 67.3076 99.0879 67.5406C99.3245 67.7736 99.6134 67.9499 99.9544 68.075C100.319 68.2041 100.704 68.2678 101.091 68.2629C101.432 68.2629 101.779 68.2055 102.125 68.0975ZM99.8103 64.1971C100.093 63.9415 100.468 63.8164 100.942 63.8164C101.392 63.8164 101.744 63.9415 102.004 64.1745C102.264 64.4137 102.402 64.743 102.426 65.164H99.3081C99.3521 64.7916 99.5306 64.448 99.8103 64.1971ZM103.822 63.0887H104.977L106.738 65.5282L104.856 68.1488H103.736L105.71 65.5275L103.822 63.0887ZM106.963 63.0887H107.875V68.1488H106.963V63.0887ZM111.137 68.1488L109.128 65.5275L111.004 63.088H109.872L108.1 65.5275L110.005 68.1488H111.137ZM115.305 68.0975C115.652 67.9896 115.946 67.8242 116.2 67.5973L115.923 66.8921C115.755 67.0404 115.53 67.1655 115.259 67.268C114.987 67.3705 114.681 67.421 114.347 67.421C113.844 67.421 113.429 67.2905 113.099 67.0233C112.77 66.7561 112.592 66.381 112.551 65.9027H116.5C116.541 65.727 116.558 65.5268 116.558 65.2945C116.558 64.948 116.495 64.6351 116.367 64.3508C116.249 64.075 116.076 63.8257 115.859 63.6176C115.64 63.4109 115.381 63.2503 115.097 63.1454C114.801 63.0309 114.485 62.9729 114.168 62.9746C113.741 62.9746 113.365 63.0484 113.036 63.185C112.725 63.3152 112.445 63.5067 112.211 63.7481C111.983 63.9879 111.807 64.2725 111.696 64.5838C111.575 64.9151 111.514 65.2656 111.518 65.6184C111.518 66.0168 111.587 66.3803 111.714 66.7049C111.841 67.0288 112.032 67.3076 112.269 67.5406C112.505 67.7736 112.793 67.9499 113.134 68.075C113.499 68.2041 113.885 68.2678 114.272 68.2629C114.623 68.2603 114.971 68.2045 115.305 68.0975ZM112.99 64.1971C113.274 63.9415 113.649 63.8164 114.122 63.8164C114.567 63.8164 114.924 63.9415 115.184 64.1745C115.444 64.4137 115.582 64.743 115.606 65.164H112.488C112.532 64.7916 112.711 64.448 112.99 64.1971ZM120.259 61.3886C119.722 61.3886 119.428 61.0927 119.381 60.5016H118.521C118.521 60.7285 118.562 60.9335 118.637 61.1268C118.712 61.3202 118.822 61.4849 118.966 61.6216C119.11 61.7582 119.295 61.8662 119.508 61.9509C119.722 62.0364 119.97 62.076 120.253 62.076C120.492 62.0807 120.73 62.0382 120.952 61.9509C121.16 61.8717 121.333 61.7582 121.483 61.6216C121.63 61.4824 121.746 61.3138 121.823 61.1268C121.904 60.9335 121.945 60.7285 121.945 60.5016H121.091C121.05 61.0927 120.767 61.3886 120.259 61.3886ZM117.793 63.088V68.1488H118.706L121.673 64.3788V68.1488H122.586V63.088H121.673L118.706 66.858V63.088H117.793Z" fill="black"/>
</svg>
