<svg width="129" height="47" viewBox="0 0 129 47" fill="none" xmlns="http://www.w3.org/2000/svg">
<mask id="mask0_334_715" style="mask-type:luminance" maskUnits="userSpaceOnUse" x="0" y="0" width="129" height="47">
<path d="M128.314 0H0.686279V47H128.314V0Z" fill="white"/>
</mask>
<g mask="url(#mask0_334_715)">
<path d="M0.686279 6.91174H36.3671V25.2156C36.3671 29.9093 33.8847 34.2366 29.8485 36.5922L18.5267 43.3101L7.21685 36.5922C3.18071 34.2541 0.703601 29.9093 0.703601 25.2156V6.91174H0.686279Z" fill="#FFDD2D"/>
<path fill-rule="evenodd" clip-rule="evenodd" d="M10.2927 16.545V22.2331C11.0722 21.3607 12.4754 20.7674 14.069 20.7674H15.8186V27.3806C15.8186 29.1428 15.3509 30.6785 14.6407 31.5335H22.4105C21.7003 30.6785 21.2714 29.1428 21.2714 27.3806V20.7674H22.9731C24.5841 20.7674 25.9986 21.3607 26.7608 22.2331V16.545H10.2927Z" fill="#333333"/>
<path d="M62.6583 21.7225C61.7299 21.374 60.5158 21.2695 59.1945 21.2695H51.8378V19.0392H64.4796V15.2058H46.6597V31.794H58.7301C60.4087 31.794 61.6582 31.6547 62.587 31.3059C64.5511 30.5741 65.8724 28.7968 65.8724 26.462C65.8724 24.0924 64.6225 22.4545 62.6583 21.7225ZM60.0872 27.4727C59.8015 27.5773 59.4087 27.612 58.9085 27.612H51.8378V24.9636H58.9085C59.4802 24.9636 59.9442 24.9985 60.3014 25.1727C60.7299 25.3819 60.9442 25.7652 60.9442 26.2529C60.9442 26.7407 60.6943 27.2635 60.0872 27.4727Z" fill="#333333"/>
<path d="M79.7896 15.2058H72.5405L65.8726 31.794H71.4805L72.4037 29.3894H79.9263L80.8839 31.794H86.4577L79.7896 15.2058ZM73.6347 25.7301L75.9943 19.0392H76.3703L78.7296 25.7301H73.6347Z" fill="#333333"/>
<path d="M92.7759 25.6258V31.794H87.8298V15.2058H92.7759V21.2696H100.724V15.2058H105.67V31.794H100.724V25.6258H92.7759Z" fill="#333333"/>
<path d="M113.471 25.5212V31.794H108.415V15.2058H113.471V21.4438H114.866L120.968 15.2058H127.314L119.224 23.1514L127.628 31.794H120.898L114.866 25.5212H113.471Z" fill="#333333"/>
</g>
</svg>
