<svg width="369" height="94" viewBox="0 0 369 94" fill="none" xmlns="http://www.w3.org/2000/svg">
<rect x="1" y="47" width="367" height="46" fill="#F87000"/>
<path d="M25.7216 10.8182V37H18.7159V16.4432H9.86932V37H2.86364V10.8182H25.7216ZM30.2695 37V10.8182H49.1389V16.5455H37.3775V21.0455H48.1673V26.7727H37.3775V31.2727H49.0877V37H30.2695ZM52.6641 37V10.8182H63.9652C65.9084 10.8182 67.6087 11.2017 69.0661 11.9688C70.5234 12.7358 71.657 13.8139 72.4666 15.2031C73.2763 16.5923 73.6811 18.2159 73.6811 20.0739C73.6811 21.9489 73.2635 23.5724 72.4283 24.9446C71.6016 26.3168 70.4382 27.3736 68.9382 28.1151C67.4467 28.8565 65.7038 29.2273 63.7095 29.2273H56.9595V23.7045H62.2777C63.1129 23.7045 63.8246 23.5597 64.4126 23.2699C65.0092 22.9716 65.4652 22.5497 65.7805 22.0043C66.1044 21.4588 66.2663 20.8153 66.2663 20.0739C66.2663 19.3239 66.1044 18.6847 65.7805 18.1562C65.4652 17.6193 65.0092 17.2102 64.4126 16.929C63.8246 16.6392 63.1129 16.4943 62.2777 16.4943H59.772V37H52.6641ZM76.2891 37V10.8182H95.1584V16.5455H83.397V21.0455H94.1868V26.7727H83.397V31.2727H95.1072V37H76.2891ZM98.6836 37V10.8182H110.036C112.03 10.8182 113.705 11.0866 115.06 11.6236C116.424 12.1605 117.451 12.919 118.141 13.8991C118.84 14.8793 119.189 16.0341 119.189 17.3636C119.189 18.3267 118.976 19.2045 118.55 19.9972C118.132 20.7898 117.544 21.4545 116.786 21.9915C116.027 22.5199 115.141 22.8864 114.127 23.0909V23.3466C115.252 23.3892 116.275 23.6747 117.195 24.2031C118.115 24.723 118.848 25.4432 119.394 26.3636C119.939 27.2756 120.212 28.3494 120.212 29.5852C120.212 31.017 119.837 32.2912 119.087 33.4077C118.346 34.5241 117.289 35.402 115.917 36.0412C114.544 36.6804 112.908 37 111.007 37H98.6836ZM105.792 31.3239H109.115C110.309 31.3239 111.203 31.1023 111.8 30.6591C112.397 30.2074 112.695 29.5426 112.695 28.6648C112.695 28.0511 112.554 27.5312 112.273 27.1051C111.992 26.679 111.591 26.3551 111.071 26.1335C110.56 25.9119 109.942 25.8011 109.218 25.8011H105.792V31.3239ZM105.792 21.4034H108.706C109.328 21.4034 109.878 21.3054 110.355 21.1094C110.833 20.9134 111.203 20.6321 111.468 20.2656C111.74 19.8906 111.877 19.4347 111.877 18.8977C111.877 18.0881 111.587 17.4702 111.007 17.044C110.428 16.6094 109.695 16.392 108.809 16.392H105.792V21.4034ZM148.094 23.9091C148.094 26.8239 147.527 29.2827 146.394 31.2855C145.26 33.2798 143.73 34.7926 141.804 35.8239C139.878 36.8466 137.73 37.358 135.361 37.358C132.975 37.358 130.819 36.8423 128.892 35.8111C126.975 34.7713 125.449 33.2543 124.316 31.2599C123.191 29.2571 122.628 26.8068 122.628 23.9091C122.628 20.9943 123.191 18.5398 124.316 16.5455C125.449 14.5426 126.975 13.0298 128.892 12.0071C130.819 10.9759 132.975 10.4602 135.361 10.4602C137.73 10.4602 139.878 10.9759 141.804 12.0071C143.73 13.0298 145.26 14.5426 146.394 16.5455C147.527 18.5398 148.094 20.9943 148.094 23.9091ZM140.782 23.9091C140.782 22.3409 140.573 21.0199 140.155 19.946C139.746 18.8636 139.137 18.0455 138.327 17.4915C137.526 16.929 136.537 16.6477 135.361 16.6477C134.185 16.6477 133.192 16.929 132.382 17.4915C131.581 18.0455 130.972 18.8636 130.554 19.946C130.145 21.0199 129.941 22.3409 129.941 23.9091C129.941 25.4773 130.145 26.8026 130.554 27.8849C130.972 28.9588 131.581 29.777 132.382 30.3395C133.192 30.8935 134.185 31.1705 135.361 31.1705C136.537 31.1705 137.526 30.8935 138.327 30.3395C139.137 29.777 139.746 28.9588 140.155 27.8849C140.573 26.8026 140.782 25.4773 140.782 23.9091ZM150.513 43.2898V31.5284H152.354C152.968 31.1534 153.522 30.625 154.016 29.9432C154.519 29.2614 154.945 28.2855 155.295 27.0156C155.653 25.7457 155.917 24.0455 156.087 21.9148L156.957 10.8182H175.468V31.5284H178.229V43.2898H171.377V37H157.366V43.2898H150.513ZM160.485 31.5284H168.616V16.5455H163.349L162.94 21.9148C162.82 23.517 162.637 24.919 162.39 26.1207C162.151 27.3139 161.866 28.3537 161.533 29.2401C161.21 30.1179 160.86 30.8807 160.485 31.5284Z" fill="#0E1111"/>
<path d="M8.85938 84V57.8182H15.9673V68.0455H25.3764V57.8182H32.4844V84H25.3764V73.7727H15.9673V84H8.85938ZM42.6605 84H34.9901L43.6321 57.8182H53.348L61.9901 84H54.3196L48.5923 65.0284H48.3878L42.6605 84ZM41.2287 73.6705H55.6491V78.9886H41.2287V73.6705ZM70.9677 63.5455V57.8182H93.7234V63.5455H85.8484V84H78.8427V63.5455H70.9677ZM99.8949 84H92.2244L100.866 57.8182H110.582L119.224 84H111.554L105.827 65.0284H105.622L99.8949 84ZM98.4631 73.6705H112.884V78.9886H98.4631V73.6705ZM121.746 57.8182H128.854V71.5227H129.059L138.365 57.8182H144.4V84H137.292V70.2443H137.138L127.678 84H121.746V57.8182ZM135.655 50.7614H140.104C140.096 52.4233 139.461 53.7528 138.199 54.75C136.938 55.7386 135.238 56.233 133.098 56.233C130.942 56.233 129.233 55.7386 127.972 54.75C126.711 53.7528 126.084 52.4233 126.093 50.7614H130.49C130.482 51.2983 130.674 51.7926 131.066 52.2443C131.466 52.6875 132.144 52.9091 133.098 52.9091C134.01 52.9091 134.662 52.6918 135.054 52.2571C135.446 51.8224 135.647 51.3239 135.655 50.7614ZM172.205 67.6364H164.995C164.944 67.0398 164.807 66.4986 164.586 66.0128C164.373 65.527 164.074 65.1094 163.691 64.7599C163.316 64.402 162.86 64.1293 162.323 63.9418C161.786 63.7457 161.176 63.6477 160.495 63.6477C159.301 63.6477 158.292 63.9375 157.465 64.517C156.647 65.0966 156.025 65.9276 155.598 67.0099C155.181 68.0923 154.972 69.392 154.972 70.9091C154.972 72.5114 155.185 73.8537 155.611 74.9361C156.046 76.0099 156.672 76.8196 157.49 77.3651C158.309 77.902 159.293 78.1705 160.444 78.1705C161.1 78.1705 161.688 78.0895 162.208 77.9276C162.728 77.7571 163.179 77.5142 163.563 77.1989C163.946 76.8835 164.257 76.5043 164.496 76.0611C164.743 75.6094 164.909 75.1023 164.995 74.5398L172.205 74.5909C172.12 75.6989 171.809 76.8281 171.272 77.9787C170.735 79.1207 169.972 80.1776 168.983 81.1491C168.003 82.1122 166.789 82.8878 165.34 83.4759C163.891 84.0639 162.208 84.358 160.29 84.358C157.887 84.358 155.73 83.8423 153.821 82.8111C151.921 81.7798 150.417 80.2628 149.309 78.2599C148.209 76.2571 147.659 73.8068 147.659 70.9091C147.659 67.9943 148.222 65.5398 149.347 63.5455C150.472 61.5426 151.989 60.0298 153.898 59.0071C155.807 57.9759 157.938 57.4602 160.29 57.4602C161.944 57.4602 163.465 57.6861 164.854 58.1378C166.243 58.5895 167.462 59.25 168.51 60.1193C169.559 60.9801 170.402 62.0412 171.042 63.3026C171.681 64.5639 172.069 66.0085 172.205 67.6364ZM191.563 84L183.535 73.4148H182.538V84H175.43V57.8182H182.538V67.6875H183.458L190.975 57.8182H199.924L189.952 70.3977L200.487 84H191.563ZM202.395 57.8182H209.502V71.5227H209.707L219.014 57.8182H225.048V84H217.94V70.2443H217.787L208.326 84H202.395V57.8182ZM228.41 57.8182H235.518V71.5227H235.723L245.029 57.8182H251.064V84H243.956V70.2443H243.802L234.342 84H228.41V57.8182ZM242.319 50.7614H246.768C246.76 52.4233 246.125 53.7528 244.863 54.75C243.602 55.7386 241.902 56.233 239.762 56.233C237.606 56.233 235.897 55.7386 234.636 54.75C233.375 53.7528 232.748 52.4233 232.757 50.7614H237.154C237.146 51.2983 237.338 51.7926 237.73 52.2443C238.13 52.6875 238.808 52.9091 239.762 52.9091C240.674 52.9091 241.326 52.6918 241.718 52.2571C242.11 51.8224 242.311 51.3239 242.319 50.7614ZM286.041 67.6364H278.831C278.779 67.0398 278.643 66.4986 278.422 66.0128C278.208 65.527 277.91 65.1094 277.527 64.7599C277.152 64.402 276.696 64.1293 276.159 63.9418C275.622 63.7457 275.012 63.6477 274.331 63.6477C273.137 63.6477 272.127 63.9375 271.301 64.517C270.483 65.0966 269.86 65.9276 269.434 67.0099C269.017 68.0923 268.808 69.392 268.808 70.9091C268.808 72.5114 269.021 73.8537 269.447 74.9361C269.882 76.0099 270.508 76.8196 271.326 77.3651C272.145 77.902 273.129 78.1705 274.279 78.1705C274.936 78.1705 275.524 78.0895 276.044 77.9276C276.564 77.7571 277.015 77.5142 277.399 77.1989C277.782 76.8835 278.093 76.5043 278.332 76.0611C278.579 75.6094 278.745 75.1023 278.831 74.5398L286.041 74.5909C285.956 75.6989 285.645 76.8281 285.108 77.9787C284.571 79.1207 283.808 80.1776 282.819 81.1491C281.839 82.1122 280.625 82.8878 279.176 83.4759C277.727 84.0639 276.044 84.358 274.126 84.358C271.723 84.358 269.566 83.8423 267.657 82.8111C265.757 81.7798 264.252 80.2628 263.145 78.2599C262.045 76.2571 261.495 73.8068 261.495 70.9091C261.495 67.9943 262.058 65.5398 263.183 63.5455C264.308 61.5426 265.825 60.0298 267.734 59.0071C269.643 57.9759 271.774 57.4602 274.126 57.4602C275.779 57.4602 277.301 57.6861 278.69 58.1378C280.079 58.5895 281.298 59.25 282.346 60.1193C283.395 60.9801 284.238 62.0412 284.877 63.3026C285.517 64.5639 285.904 66.0085 286.041 67.6364ZM290.851 57.8182H297.703V66.0511C297.703 66.8693 297.844 67.5384 298.125 68.0582C298.415 68.5781 298.896 68.9616 299.57 69.2088C300.251 69.456 301.18 69.5795 302.357 69.5795C302.57 69.5795 302.915 69.5753 303.392 69.5668C303.878 69.5497 304.402 69.5284 304.964 69.5028C305.527 69.4687 306.043 69.4304 306.511 69.3878C306.989 69.3366 307.325 69.2812 307.521 69.2216V74.5909C307.3 74.6676 306.933 74.7358 306.422 74.7955C305.911 74.8466 305.361 74.8935 304.773 74.9361C304.193 74.9702 303.673 75 303.213 75.0256C302.753 75.0426 302.467 75.0511 302.357 75.0511C300.055 75.0511 298.04 74.723 296.31 74.0668C294.58 73.4105 293.237 72.4176 292.283 71.0881C291.328 69.7585 290.851 68.0795 290.851 66.0511V57.8182ZM306.192 57.8182H313.095V84H306.192V57.8182ZM317.988 84V57.8182H336.858V63.5455H325.096V68.0455H335.886V73.7727H325.096V78.2727H336.806V84H317.988ZM339.667 63.5455V57.8182H362.423V63.5455H354.548V84H347.542V63.5455H339.667Z" fill="#F9F9E5"/>
</svg>
