<svg width="468" height="94" viewBox="0 0 468 94" fill="none" xmlns="http://www.w3.org/2000/svg">
<rect y="47" width="452" height="46" fill="#F87000"/>
<path d="M0.971591 16.5455V10.8182H23.7273V16.5455H15.8523V37H8.84659V16.5455H0.971591ZM26.4023 37V10.8182H37.7035C39.6467 10.8182 41.3469 11.1719 42.8043 11.8793C44.2617 12.5866 45.3952 13.6051 46.2049 14.9347C47.0146 16.2642 47.4194 17.858 47.4194 19.7159C47.4194 21.5909 47.0018 23.1719 46.1665 24.4588C45.3398 25.7457 44.1765 26.7173 42.6765 27.3736C41.185 28.0298 39.4421 28.358 37.4478 28.358H30.6978V22.8352H36.016C36.8512 22.8352 37.5629 22.733 38.1509 22.5284C38.7475 22.3153 39.2035 21.9787 39.5188 21.5185C39.8427 21.0582 40.0046 20.4574 40.0046 19.7159C40.0046 18.9659 39.8427 18.3565 39.5188 17.8878C39.2035 17.4105 38.7475 17.0611 38.1509 16.8395C37.5629 16.6094 36.8512 16.4943 36.016 16.4943H33.5103V37H26.4023ZM41.7433 24.983L48.2887 37H40.5671L34.1751 24.983H41.7433ZM57.2504 37H49.5799L58.2219 10.8182H67.9379L76.5799 37H68.9094L63.1822 18.0284H62.9776L57.2504 37ZM55.8185 26.6705H70.239V31.9886H55.8185V26.6705ZM101.755 10.8182V37H95.8232L86.3629 23.2443H86.2095V37H79.1016V10.8182H85.1357L94.4425 24.5227H94.647V10.8182H101.755ZM119.231 19C119.163 18.1477 118.843 17.483 118.272 17.0057C117.71 16.5284 116.853 16.2898 115.702 16.2898C114.969 16.2898 114.369 16.3793 113.9 16.5582C113.44 16.7287 113.099 16.9631 112.877 17.2614C112.656 17.5597 112.54 17.9006 112.532 18.2841C112.515 18.5994 112.57 18.8849 112.698 19.1406C112.835 19.3878 113.048 19.6136 113.337 19.8182C113.627 20.0142 113.998 20.1932 114.45 20.3551C114.901 20.517 115.438 20.6619 116.06 20.7898L118.208 21.25C119.657 21.5568 120.897 21.9616 121.928 22.4645C122.96 22.9673 123.803 23.5597 124.46 24.2415C125.116 24.9148 125.597 25.6733 125.904 26.517C126.219 27.3608 126.381 28.2812 126.39 29.2784C126.381 31 125.951 32.4574 125.099 33.6506C124.246 34.8438 123.028 35.7514 121.442 36.3736C119.866 36.9957 117.969 37.3068 115.754 37.3068C113.478 37.3068 111.492 36.9702 109.796 36.2969C108.109 35.6236 106.796 34.5881 105.859 33.1903C104.93 31.7841 104.461 29.9858 104.452 27.7955H111.202C111.245 28.5966 111.445 29.2699 111.803 29.8153C112.161 30.3608 112.664 30.7741 113.312 31.0554C113.968 31.3366 114.748 31.4773 115.651 31.4773C116.41 31.4773 117.045 31.3835 117.556 31.196C118.067 31.0085 118.455 30.7486 118.719 30.4162C118.984 30.0838 119.12 29.7045 119.129 29.2784C119.12 28.8778 118.988 28.5284 118.732 28.2301C118.485 27.9233 118.076 27.6506 117.505 27.4119C116.934 27.1648 116.163 26.9347 115.191 26.7216L112.583 26.1591C110.265 25.6562 108.437 24.8168 107.099 23.6406C105.769 22.456 105.109 20.8409 105.117 18.7955C105.109 17.1335 105.552 15.6804 106.447 14.4361C107.35 13.1832 108.599 12.2074 110.192 11.5085C111.795 10.8097 113.631 10.4602 115.702 10.4602C117.816 10.4602 119.644 10.8139 121.187 11.5213C122.729 12.2287 123.918 13.2259 124.754 14.5128C125.597 15.7912 126.023 17.2869 126.032 19H119.231ZM129.094 37V10.8182H147.503V16.5455H136.202V21.0455H146.378V26.7727H136.202V37H129.094ZM150.117 37V10.8182H168.987V16.5455H157.225V21.0455H168.015V26.7727H157.225V31.2727H168.935V37H150.117ZM172.512 37V10.8182H183.813C185.756 10.8182 187.456 11.1719 188.914 11.8793C190.371 12.5866 191.505 13.6051 192.314 14.9347C193.124 16.2642 193.529 17.858 193.529 19.7159C193.529 21.5909 193.111 23.1719 192.276 24.4588C191.449 25.7457 190.286 26.7173 188.786 27.3736C187.294 28.0298 185.551 28.358 183.557 28.358H176.807V22.8352H182.125C182.961 22.8352 183.672 22.733 184.26 22.5284C184.857 22.3153 185.313 21.9787 185.628 21.5185C185.952 21.0582 186.114 20.4574 186.114 19.7159C186.114 18.9659 185.952 18.3565 185.628 17.8878C185.313 17.4105 184.857 17.0611 184.26 16.8395C183.672 16.6094 182.961 16.4943 182.125 16.4943H179.62V37H172.512ZM187.853 24.983L194.398 37H186.676L180.284 24.983H187.853ZM203.015 16.5455V10.8182H225.77V16.5455H217.895V37H210.89V16.5455H203.015ZM252.578 23.9091C252.578 26.8239 252.012 29.2827 250.878 31.2855C249.745 33.2798 248.215 34.7926 246.289 35.8239C244.363 36.8466 242.215 37.358 239.846 37.358C237.459 37.358 235.303 36.8423 233.377 35.8111C231.459 34.7713 229.934 33.2543 228.8 31.2599C227.675 29.2571 227.113 26.8068 227.113 23.9091C227.113 20.9943 227.675 18.5398 228.8 16.5455C229.934 14.5426 231.459 13.0298 233.377 12.0071C235.303 10.9759 237.459 10.4602 239.846 10.4602C242.215 10.4602 244.363 10.9759 246.289 12.0071C248.215 13.0298 249.745 14.5426 250.878 16.5455C252.012 18.5398 252.578 20.9943 252.578 23.9091ZM245.266 23.9091C245.266 22.3409 245.057 21.0199 244.64 19.946C244.23 18.8636 243.621 18.0455 242.811 17.4915C242.01 16.929 241.022 16.6477 239.846 16.6477C238.669 16.6477 237.676 16.929 236.867 17.4915C236.066 18.0455 235.456 18.8636 235.039 19.946C234.63 21.0199 234.425 22.3409 234.425 23.9091C234.425 25.4773 234.63 26.8026 235.039 27.8849C235.456 28.9588 236.066 29.777 236.867 30.3395C237.676 30.8935 238.669 31.1705 239.846 31.1705C241.022 31.1705 242.01 30.8935 242.811 30.3395C243.621 29.777 244.23 28.9588 244.64 27.8849C245.057 26.8026 245.266 25.4773 245.266 23.9091Z" fill="#0E1111"/>
<path d="M15.6605 84H7.99006L16.6321 57.8182H26.348L34.9901 84H27.3196L21.5923 65.0284H21.3878L15.6605 84ZM14.2287 73.6705H28.6491V78.9886H14.2287V73.6705ZM43.9677 63.5455V57.8182H66.7234V63.5455H58.8484V84H51.8427V63.5455H43.9677ZM69.3984 84V57.8182H76.5064V68.0455H85.9155V57.8182H93.0234V84H85.9155V73.7727H76.5064V84H69.3984ZM103.2 84H95.5291L104.171 57.8182H113.887L122.529 84H114.859L109.131 65.0284H108.927L103.2 84ZM101.768 73.6705H116.188V78.9886H101.768V73.6705ZM132.159 57.8182V84H125.051V57.8182H132.159ZM142.699 84V57.8182H154.051C156.046 57.8182 157.721 58.0866 159.076 58.6236C160.439 59.1605 161.466 59.919 162.157 60.8991C162.855 61.8793 163.205 63.0341 163.205 64.3636C163.205 65.3267 162.992 66.2045 162.566 66.9972C162.148 67.7898 161.56 68.4545 160.801 68.9915C160.043 69.5199 159.157 69.8864 158.142 70.0909V70.3466C159.267 70.3892 160.29 70.6747 161.211 71.2031C162.131 71.723 162.864 72.4432 163.409 73.3636C163.955 74.2756 164.228 75.3494 164.228 76.5852C164.228 78.017 163.853 79.2912 163.103 80.4077C162.361 81.5241 161.304 82.402 159.932 83.0412C158.56 83.6804 156.924 84 155.023 84H142.699ZM149.807 78.3239H153.131C154.324 78.3239 155.219 78.1023 155.816 77.6591C156.412 77.2074 156.711 76.5426 156.711 75.6648C156.711 75.0511 156.57 74.5312 156.289 74.1051C156.007 73.679 155.607 73.3551 155.087 73.1335C154.576 72.9119 153.958 72.8011 153.233 72.8011H149.807V78.3239ZM149.807 68.4034H152.722C153.344 68.4034 153.894 68.3054 154.371 68.1094C154.848 67.9134 155.219 67.6321 155.483 67.2656C155.756 66.8906 155.892 66.4347 155.892 65.8977C155.892 65.0881 155.603 64.4702 155.023 64.044C154.444 63.6094 153.711 63.392 152.824 63.392H149.807V68.4034ZM173.547 84H165.877L174.519 57.8182H184.235L192.877 84H185.206L179.479 65.0284H179.275L173.547 84ZM172.115 73.6705H186.536V78.9886H172.115V73.6705ZM218.052 57.8182V84H212.12L202.66 70.2443H202.506V84H195.398V57.8182H201.433L210.739 71.5227H210.944V57.8182H218.052ZM221.414 84V57.8182H228.522V68.4034H228.88L236.755 57.8182H245.039L236.192 69.4773L245.244 84H236.755L230.874 74.1818L228.522 77.25V84H221.414ZM261.121 84H253.451L262.093 57.8182H271.809L280.451 84H272.781L267.053 65.0284H266.849L261.121 84ZM259.69 73.6705H274.11V78.9886H259.69V73.6705ZM306.185 67.6364H298.975C298.924 67.0398 298.788 66.4986 298.566 66.0128C298.353 65.527 298.055 65.1094 297.671 64.7599C297.296 64.402 296.84 64.1293 296.303 63.9418C295.766 63.7457 295.157 63.6477 294.475 63.6477C293.282 63.6477 292.272 63.9375 291.445 64.517C290.627 65.0966 290.005 65.9276 289.579 67.0099C289.161 68.0923 288.952 69.392 288.952 70.9091C288.952 72.5114 289.165 73.8537 289.592 74.9361C290.026 76.0099 290.653 76.8196 291.471 77.3651C292.289 77.902 293.273 78.1705 294.424 78.1705C295.08 78.1705 295.668 78.0895 296.188 77.9276C296.708 77.7571 297.16 77.5142 297.543 77.1989C297.927 76.8835 298.238 76.5043 298.477 76.0611C298.724 75.6094 298.89 75.1023 298.975 74.5398L306.185 74.5909C306.1 75.6989 305.789 76.8281 305.252 77.9787C304.715 79.1207 303.952 80.1776 302.964 81.1491C301.984 82.1122 300.769 82.8878 299.32 83.4759C297.871 84.0639 296.188 84.358 294.271 84.358C291.867 84.358 289.711 83.8423 287.802 82.8111C285.901 81.7798 284.397 80.2628 283.289 78.2599C282.19 76.2571 281.64 73.8068 281.64 70.9091C281.64 67.9943 282.202 65.5398 283.327 63.5455C284.452 61.5426 285.969 60.0298 287.879 59.0071C289.788 57.9759 291.918 57.4602 294.271 57.4602C295.924 57.4602 297.445 57.6861 298.835 58.1378C300.224 58.5895 301.442 59.25 302.491 60.1193C303.539 60.9801 304.383 62.0412 305.022 63.3026C305.661 64.5639 306.049 66.0085 306.185 67.6364ZM333.853 67.6364H326.643C326.592 67.0398 326.456 66.4986 326.234 66.0128C326.021 65.527 325.723 65.1094 325.339 64.7599C324.964 64.402 324.508 64.1293 323.971 63.9418C323.434 63.7457 322.825 63.6477 322.143 63.6477C320.95 63.6477 319.94 63.9375 319.113 64.517C318.295 65.0966 317.673 65.9276 317.247 67.0099C316.829 68.0923 316.62 69.392 316.62 70.9091C316.62 72.5114 316.833 73.8537 317.26 74.9361C317.694 76.0099 318.321 76.8196 319.139 77.3651C319.957 77.902 320.941 78.1705 322.092 78.1705C322.748 78.1705 323.336 78.0895 323.856 77.9276C324.376 77.7571 324.828 77.5142 325.211 77.1989C325.595 76.8835 325.906 76.5043 326.145 76.0611C326.392 75.6094 326.558 75.1023 326.643 74.5398L333.853 74.5909C333.768 75.6989 333.457 76.8281 332.92 77.9787C332.383 79.1207 331.62 80.1776 330.632 81.1491C329.652 82.1122 328.437 82.8878 326.988 83.4759C325.539 84.0639 323.856 84.358 321.939 84.358C319.535 84.358 317.379 83.8423 315.47 82.8111C313.569 81.7798 312.065 80.2628 310.957 78.2599C309.858 76.2571 309.308 73.8068 309.308 70.9091C309.308 67.9943 309.87 65.5398 310.995 63.5455C312.12 61.5426 313.637 60.0298 315.547 59.0071C317.456 57.9759 319.586 57.4602 321.939 57.4602C323.592 57.4602 325.113 57.6861 326.502 58.1378C327.892 58.5895 329.11 59.25 330.159 60.1193C331.207 60.9801 332.051 62.0412 332.69 63.3026C333.329 64.5639 333.717 66.0085 333.853 67.6364ZM362.442 70.9091C362.442 73.8239 361.875 76.2827 360.741 78.2855C359.608 80.2798 358.078 81.7926 356.152 82.8239C354.226 83.8466 352.078 84.358 349.709 84.358C347.322 84.358 345.166 83.8423 343.24 82.8111C341.322 81.7713 339.797 80.2543 338.663 78.2599C337.538 76.2571 336.976 73.8068 336.976 70.9091C336.976 67.9943 337.538 65.5398 338.663 63.5455C339.797 61.5426 341.322 60.0298 343.24 59.0071C345.166 57.9759 347.322 57.4602 349.709 57.4602C352.078 57.4602 354.226 57.9759 356.152 59.0071C358.078 60.0298 359.608 61.5426 360.741 63.5455C361.875 65.5398 362.442 67.9943 362.442 70.9091ZM355.129 70.9091C355.129 69.3409 354.92 68.0199 354.503 66.946C354.094 65.8636 353.484 65.0455 352.675 64.4915C351.874 63.929 350.885 63.6477 349.709 63.6477C348.533 63.6477 347.54 63.929 346.73 64.4915C345.929 65.0455 345.32 65.8636 344.902 66.946C344.493 68.0199 344.288 69.3409 344.288 70.9091C344.288 72.4773 344.493 73.8026 344.902 74.8849C345.32 75.9588 345.929 76.777 346.73 77.3395C347.54 77.8935 348.533 78.1705 349.709 78.1705C350.885 78.1705 351.874 77.8935 352.675 77.3395C353.484 76.777 354.094 75.9588 354.503 74.8849C354.92 73.8026 355.129 72.4773 355.129 70.9091ZM381.225 57.8182H388.333V74.5909C388.333 76.5852 387.855 78.3111 386.901 79.7685C385.955 81.2173 384.634 82.3381 382.938 83.1307C381.242 83.9148 379.273 84.3068 377.032 84.3068C374.773 84.3068 372.796 83.9148 371.1 83.1307C369.404 82.3381 368.083 81.2173 367.137 79.7685C366.199 78.3111 365.73 76.5852 365.73 74.5909V57.8182H372.838V73.9773C372.838 74.7869 373.017 75.5114 373.375 76.1506C373.733 76.7812 374.228 77.2756 374.858 77.6335C375.498 77.9915 376.222 78.1705 377.032 78.1705C377.85 78.1705 378.574 77.9915 379.205 77.6335C379.836 77.2756 380.33 76.7812 380.688 76.1506C381.046 75.5114 381.225 74.7869 381.225 73.9773V57.8182ZM414.364 57.8182V84H408.433L398.972 70.2443H398.819V84H391.711V57.8182H397.745L407.052 71.5227H407.256V57.8182H414.364ZM417.011 63.5455V57.8182H439.766V63.5455H431.891V84H424.886V63.5455H417.011Z" fill="#F9F9E5"/>
</svg>
