<svg width="662" height="84" viewBox="0 0 662 84" fill="none" xmlns="http://www.w3.org/2000/svg">
<rect y="42" width="662" height="42" fill="#F87000"/>
<path d="M36.223 62.9091C36.223 65.8239 35.6563 68.2827 34.5227 70.2855C33.3892 72.2798 31.8594 73.7926 29.9332 74.8239C28.0071 75.8466 25.8594 76.358 23.4901 76.358C21.1037 76.358 18.9474 75.8423 17.0213 74.8111C15.1037 73.7713 13.5781 72.2543 12.4446 70.2599C11.3196 68.2571 10.7571 65.8068 10.7571 62.9091C10.7571 59.9943 11.3196 57.5398 12.4446 55.5455C13.5781 53.5426 15.1037 52.0298 17.0213 51.0071C18.9474 49.9759 21.1037 49.4602 23.4901 49.4602C25.8594 49.4602 28.0071 49.9759 29.9332 51.0071C31.8594 52.0298 33.3892 53.5426 34.5227 55.5455C35.6563 57.5398 36.223 59.9943 36.223 62.9091ZM28.9105 62.9091C28.9105 61.3409 28.7017 60.0199 28.2841 58.946C27.875 57.8636 27.2656 57.0455 26.456 56.4915C25.6548 55.929 24.6662 55.6477 23.4901 55.6477C22.3139 55.6477 21.321 55.929 20.5114 56.4915C19.7102 57.0455 19.1009 57.8636 18.6832 58.946C18.2741 60.0199 18.0696 61.3409 18.0696 62.9091C18.0696 64.4773 18.2741 65.8026 18.6832 66.8849C19.1009 67.9588 19.7102 68.777 20.5114 69.3395C21.321 69.8935 22.3139 70.1705 23.4901 70.1705C24.6662 70.1705 25.6548 69.8935 26.456 69.3395C27.2656 68.777 27.875 67.9588 28.2841 66.8849C28.7017 65.8026 28.9105 64.4773 28.9105 62.9091ZM39.5117 76V49.8182H57.9208V55.5455H46.6197V60.0455H56.7958V65.7727H46.6197V76H39.5117ZM60.5352 76V49.8182H78.9442V55.5455H67.6431V60.0455H77.8192V65.7727H67.6431V76H60.5352ZM88.6665 49.8182V76H81.5586V49.8182H88.6665ZM116.478 59.6364H109.268C109.217 59.0398 109.081 58.4986 108.859 58.0128C108.646 57.527 108.348 57.1094 107.964 56.7599C107.589 56.402 107.133 56.1293 106.596 55.9418C106.059 55.7457 105.45 55.6477 104.768 55.6477C103.575 55.6477 102.565 55.9375 101.738 56.517C100.92 57.0966 100.298 57.9276 99.8718 59.0099C99.4542 60.0923 99.2454 61.392 99.2454 62.9091C99.2454 64.5114 99.4585 65.8537 99.8846 66.9361C100.319 68.0099 100.946 68.8196 101.764 69.3651C102.582 69.902 103.566 70.1705 104.717 70.1705C105.373 70.1705 105.961 70.0895 106.481 69.9276C107.001 69.7571 107.453 69.5142 107.836 69.1989C108.22 68.8835 108.531 68.5043 108.77 68.0611C109.017 67.6094 109.183 67.1023 109.268 66.5398L116.478 66.5909C116.393 67.6989 116.082 68.8281 115.545 69.9787C115.008 71.1207 114.245 72.1776 113.257 73.1491C112.277 74.1122 111.062 74.8878 109.613 75.4759C108.164 76.0639 106.481 76.358 104.564 76.358C102.16 76.358 100.004 75.8423 98.0948 74.8111C96.1942 73.7798 94.69 72.2628 93.582 70.2599C92.4826 68.2571 91.9329 65.8068 91.9329 62.9091C91.9329 59.9943 92.4954 57.5398 93.6204 55.5455C94.7454 53.5426 96.2624 52.0298 98.1715 51.0071C100.081 49.9759 102.211 49.4602 104.564 49.4602C106.217 49.4602 107.738 49.6861 109.127 50.1378C110.517 50.5895 111.735 51.25 112.784 52.1193C113.832 52.9801 114.676 54.0412 115.315 55.3026C115.954 56.5639 116.342 58.0085 116.478 59.6364ZM119.703 76V49.8182H138.572V55.5455H126.811V60.0455H137.601V65.7727H126.811V70.2727H138.521V76H119.703ZM150.65 62.9091C150.65 59.7642 151.076 56.8707 151.929 54.2287C152.789 51.5866 154.153 49.1278 156.02 46.8523H162.923C162.224 47.696 161.572 48.723 160.967 49.9332C160.37 51.1349 159.85 52.4517 159.407 53.8835C158.973 55.3153 158.632 56.8026 158.385 58.3452C158.137 59.8793 158.014 61.4006 158.014 62.9091C158.014 64.9205 158.227 66.9489 158.653 68.9943C159.079 71.0312 159.663 72.9233 160.404 74.6705C161.146 76.4091 161.985 77.8409 162.923 78.9659H156.02C154.153 76.6903 152.789 74.2315 151.929 71.5895C151.076 68.9474 150.65 66.054 150.65 62.9091ZM189.568 59.6364H182.358C182.307 59.0398 182.17 58.4986 181.949 58.0128C181.736 57.527 181.438 57.1094 181.054 56.7599C180.679 56.402 180.223 56.1293 179.686 55.9418C179.149 55.7457 178.54 55.6477 177.858 55.6477C176.665 55.6477 175.655 55.9375 174.828 56.517C174.01 57.0966 173.388 57.9276 172.962 59.0099C172.544 60.0923 172.335 61.392 172.335 62.9091C172.335 64.5114 172.548 65.8537 172.974 66.9361C173.409 68.0099 174.036 68.8196 174.854 69.3651C175.672 69.902 176.656 70.1705 177.807 70.1705C178.463 70.1705 179.051 70.0895 179.571 69.9276C180.091 69.7571 180.543 69.5142 180.926 69.1989C181.31 68.8835 181.621 68.5043 181.859 68.0611C182.107 67.6094 182.273 67.1023 182.358 66.5398L189.568 66.5909C189.483 67.6989 189.172 68.8281 188.635 69.9787C188.098 71.1207 187.335 72.1776 186.347 73.1491C185.366 74.1122 184.152 74.8878 182.703 75.4759C181.254 76.0639 179.571 76.358 177.653 76.358C175.25 76.358 173.094 75.8423 171.185 74.8111C169.284 73.7798 167.78 72.2628 166.672 70.2599C165.572 68.2571 165.023 65.8068 165.023 62.9091C165.023 59.9943 165.585 57.5398 166.71 55.5455C167.835 53.5426 169.352 52.0298 171.261 51.0071C173.17 49.9759 175.301 49.4602 177.653 49.4602C179.307 49.4602 180.828 49.6861 182.217 50.1378C183.607 50.5895 184.825 51.25 185.874 52.1193C186.922 52.9801 187.766 54.0412 188.405 55.3026C189.044 56.5639 189.432 58.0085 189.568 59.6364ZM192.793 76V49.8182H199.901V60.0455H209.31V49.8182H216.418V76H209.31V65.7727H199.901V76H192.793ZM226.594 76H218.924L227.566 49.8182H237.282L245.924 76H238.253L232.526 57.0284H232.321L226.594 76ZM225.162 65.6705H239.583V70.9886H225.162V65.6705ZM248.445 76V49.8182H255.553V70.2727H266.138V76H248.445ZM293.356 62.9091C293.356 65.8239 292.789 68.2827 291.656 70.2855C290.522 72.2798 288.992 73.7926 287.066 74.8239C285.14 75.8466 282.992 76.358 280.623 76.358C278.237 76.358 276.08 75.8423 274.154 74.8111C272.237 73.7713 270.711 72.2543 269.577 70.2599C268.452 68.2571 267.89 65.8068 267.89 62.9091C267.89 59.9943 268.452 57.5398 269.577 55.5455C270.711 53.5426 272.237 52.0298 274.154 51.0071C276.08 49.9759 278.237 49.4602 280.623 49.4602C282.992 49.4602 285.14 49.9759 287.066 51.0071C288.992 52.0298 290.522 53.5426 291.656 55.5455C292.789 57.5398 293.356 59.9943 293.356 62.9091ZM286.043 62.9091C286.043 61.3409 285.835 60.0199 285.417 58.946C285.008 57.8636 284.398 57.0455 283.589 56.4915C282.788 55.929 281.799 55.6477 280.623 55.6477C279.447 55.6477 278.454 55.929 277.644 56.4915C276.843 57.0455 276.234 57.8636 275.816 58.946C275.407 60.0199 275.202 61.3409 275.202 62.9091C275.202 64.4773 275.407 65.8026 275.816 66.8849C276.234 67.9588 276.843 68.777 277.644 69.3395C278.454 69.8935 279.447 70.1705 280.623 70.1705C281.799 70.1705 282.788 69.8935 283.589 69.3395C284.398 68.777 285.008 67.9588 285.417 66.8849C285.835 65.8026 286.043 64.4773 286.043 62.9091ZM319.298 49.8182V76H313.366L303.906 62.2443H303.752V76H296.645V49.8182H302.679L311.985 63.5227H312.19V49.8182H319.298ZM339.663 58.4602C339.552 58.0085 339.377 57.6122 339.139 57.2713C338.9 56.9219 338.602 56.6278 338.244 56.3892C337.895 56.142 337.485 55.9588 337.017 55.8395C336.556 55.7116 336.049 55.6477 335.495 55.6477C334.302 55.6477 333.284 55.9332 332.44 56.5043C331.605 57.0753 330.966 57.8977 330.522 58.9716C330.088 60.0455 329.87 61.3409 329.87 62.858C329.87 64.392 330.079 65.7045 330.497 66.7955C330.914 67.8864 331.537 68.7216 332.363 69.3011C333.19 69.8807 334.217 70.1705 335.444 70.1705C336.527 70.1705 337.426 70.0128 338.142 69.6974C338.866 69.3821 339.407 68.9347 339.765 68.3551C340.123 67.7756 340.302 67.0937 340.302 66.3097L341.529 66.4375H335.547V61.375H347.154V65.0057C347.154 67.392 346.647 69.4332 345.633 71.1293C344.627 72.8168 343.238 74.1122 341.466 75.0156C339.701 75.9105 337.677 76.358 335.393 76.358C332.845 76.358 330.608 75.8168 328.681 74.7344C326.755 73.652 325.251 72.1094 324.169 70.1065C323.095 68.1037 322.558 65.7216 322.558 62.9602C322.558 60.7955 322.886 58.8778 323.542 57.2074C324.207 55.5369 325.127 54.1264 326.304 52.9759C327.48 51.8168 328.839 50.9432 330.382 50.3551C331.924 49.7585 333.578 49.4602 335.342 49.4602C336.893 49.4602 338.333 49.6818 339.663 50.125C341.001 50.5597 342.181 51.1818 343.204 51.9915C344.235 52.7926 345.066 53.7429 345.697 54.8423C346.328 55.9418 346.711 57.1477 346.848 58.4602H339.663ZM364.442 76H356.771L365.413 49.8182H375.129L383.771 76H376.101L370.374 57.0284H370.169L364.442 76ZM363.01 65.6705H377.43V70.9886H363.01V65.6705ZM386.293 76V49.8182H397.594C399.537 49.8182 401.238 50.1719 402.695 50.8793C404.152 51.5866 405.286 52.6051 406.096 53.9347C406.905 55.2642 407.31 56.858 407.31 58.7159C407.31 60.5909 406.892 62.1719 406.057 63.4588C405.23 64.7457 404.067 65.7173 402.567 66.3736C401.076 67.0298 399.333 67.358 397.338 67.358H390.588V61.8352H395.907C396.742 61.8352 397.453 61.733 398.042 61.5284C398.638 61.3153 399.094 60.9787 399.409 60.5185C399.733 60.0582 399.895 59.4574 399.895 58.7159C399.895 57.9659 399.733 57.3565 399.409 56.8878C399.094 56.4105 398.638 56.0611 398.042 55.8395C397.453 55.6094 396.742 55.4943 395.907 55.4943H393.401V76H386.293ZM401.634 63.983L408.179 76H400.458L394.066 63.983H401.634ZM410.34 76V49.8182H429.209V55.5455H417.448V60.0455H428.238V65.7727H417.448V70.2727H429.158V76H410.34ZM439.536 76H431.865L440.507 49.8182H450.223L458.865 76H451.195L445.467 57.0284H445.263L439.536 76ZM438.104 65.6705H452.524V70.9886H438.104V65.6705ZM468.341 72.4205L468.239 73.8523C468.154 75.0795 467.949 76.2557 467.625 77.3807C467.31 78.5057 466.973 79.5028 466.615 80.3722C466.266 81.2415 465.989 81.9148 465.784 82.392H461.438C461.574 81.9148 461.766 81.2244 462.013 80.321C462.269 79.4261 462.499 78.4119 462.703 77.2784C462.917 76.1534 463.023 75.0114 463.023 73.8523V72.4205H468.341ZM477.98 76V49.8182H489.282C491.225 49.8182 492.925 50.2017 494.382 50.9688C495.84 51.7358 496.973 52.8139 497.783 54.2031C498.593 55.5923 498.998 57.2159 498.998 59.0739C498.998 60.9489 498.58 62.5724 497.745 63.9446C496.918 65.3168 495.755 66.3736 494.255 67.1151C492.763 67.8565 491.02 68.2273 489.026 68.2273H482.276V62.7045H487.594C488.429 62.7045 489.141 62.5597 489.729 62.2699C490.326 61.9716 490.782 61.5497 491.097 61.0043C491.421 60.4588 491.583 59.8153 491.583 59.0739C491.583 58.3239 491.421 57.6847 491.097 57.1562C490.782 56.6193 490.326 56.2102 489.729 55.929C489.141 55.6392 488.429 55.4943 487.594 55.4943H485.088V76H477.98ZM501.605 76V49.8182H508.713V60.0455H518.123V49.8182H525.23V76H518.123V65.7727H508.713V76H501.605ZM544.1 49.8182H551.208V66.5909C551.208 68.5852 550.73 70.3111 549.776 71.7685C548.83 73.2173 547.509 74.3381 545.813 75.1307C544.117 75.9148 542.148 76.3068 539.907 76.3068C537.648 76.3068 535.671 75.9148 533.975 75.1307C532.279 74.3381 530.958 73.2173 530.012 71.7685C529.074 70.3111 528.605 68.5852 528.605 66.5909V49.8182H535.713V65.9773C535.713 66.7869 535.892 67.5114 536.25 68.1506C536.608 68.7812 537.103 69.2756 537.733 69.6335C538.373 69.9915 539.097 70.1705 539.907 70.1705C540.725 70.1705 541.449 69.9915 542.08 69.6335C542.711 69.2756 543.205 68.7812 543.563 68.1506C543.921 67.5114 544.1 66.7869 544.1 65.9773V49.8182ZM554.586 76V49.8182H561.694V60.4034H562.052L569.927 49.8182H578.211L569.364 61.4773L578.415 76H569.927L564.046 66.1818L561.694 69.25V76H554.586ZM580.32 76V49.8182H599.19V55.5455H587.428V60.0455H598.218V65.7727H587.428V70.2727H599.138V76H580.32ZM601.999 55.5455V49.8182H624.755V55.5455H616.88V76H609.874V55.5455H601.999ZM638.526 62.9091C638.526 66.054 638.096 68.9474 637.235 71.5895C636.383 74.2315 635.023 76.6903 633.157 78.9659H626.254C626.961 78.1222 627.613 77.0994 628.21 75.8977C628.806 74.6875 629.322 73.3665 629.756 71.9347C630.2 70.5028 630.545 69.0199 630.792 67.4858C631.039 65.9432 631.163 64.4176 631.163 62.9091C631.163 60.8977 630.95 58.8736 630.523 56.8366C630.097 54.7912 629.513 52.8991 628.772 51.1605C628.031 49.4134 627.191 47.9773 626.254 46.8523H633.157C635.023 49.1278 636.383 51.5866 637.235 54.2287C638.096 56.8707 638.526 59.7642 638.526 62.9091Z" fill="#F9F9E5"/>
</svg>
