<svg width="662" height="84" viewBox="0 0 662 84" fill="none" xmlns="http://www.w3.org/2000/svg">
<rect y="42" width="662" height="42" fill="#F87000"/>
<path d="M36.223 62.9091C36.223 65.8239 35.6563 68.2827 34.5227 70.2855C33.3892 72.2798 31.8594 73.7926 29.9332 74.8239C28.0071 75.8466 25.8594 76.358 23.4901 76.358C21.1037 76.358 18.9474 75.8423 17.0213 74.8111C15.1037 73.7713 13.5781 72.2543 12.4446 70.2599C11.3196 68.2571 10.7571 65.8068 10.7571 62.9091C10.7571 59.9943 11.3196 57.5398 12.4446 55.5455C13.5781 53.5426 15.1037 52.0298 17.0213 51.0071C18.9474 49.9759 21.1037 49.4602 23.4901 49.4602C25.8594 49.4602 28.0071 49.9759 29.9332 51.0071C31.8594 52.0298 33.3892 53.5426 34.5227 55.5455C35.6563 57.5398 36.223 59.9943 36.223 62.9091ZM28.9105 62.9091C28.9105 61.3409 28.7017 60.0199 28.2841 58.946C27.875 57.8636 27.2656 57.0455 26.456 56.4915C25.6548 55.929 24.6662 55.6477 23.4901 55.6477C22.3139 55.6477 21.321 55.929 20.5114 56.4915C19.7102 57.0455 19.1009 57.8636 18.6832 58.946C18.2741 60.0199 18.0696 61.3409 18.0696 62.9091C18.0696 64.4773 18.2741 65.8026 18.6832 66.8849C19.1009 67.9588 19.7102 68.777 20.5114 69.3395C21.321 69.8935 22.3139 70.1705 23.4901 70.1705C24.6662 70.1705 25.6548 69.8935 26.456 69.3395C27.2656 68.777 27.875 67.9588 28.2841 66.8849C28.7017 65.8026 28.9105 64.4773 28.9105 62.9091ZM50.7617 52.4261H57.7674C59.9663 52.4261 61.9137 52.8736 63.6097 53.7685C65.3143 54.6634 66.6481 55.9332 67.6112 57.5781C68.5827 59.223 69.0685 61.1705 69.0685 63.4205C69.0685 65.5511 68.5827 67.3963 67.6112 68.956C66.6481 70.5156 65.3143 71.7216 63.6097 72.5739C61.9137 73.4261 59.9663 73.8523 57.7674 73.8523H50.7617C48.5458 73.8523 46.5813 73.4304 44.8683 72.5866C43.1637 71.7429 41.8256 70.5369 40.854 68.9688C39.891 67.4006 39.4094 65.5341 39.4094 63.3693C39.4094 61.1193 39.8995 59.1761 40.8796 57.5398C41.8683 55.9034 43.2148 54.642 44.9194 53.7557C46.6325 52.8693 48.5799 52.4261 50.7617 52.4261ZM50.7617 58.2557C49.8754 58.2557 49.0572 58.4219 48.3072 58.7543C47.5657 59.0866 46.9691 59.6278 46.5174 60.3778C46.0742 61.1278 45.8526 62.125 45.8526 63.3693C45.8526 64.5114 46.0827 65.4233 46.543 66.1051C47.0117 66.7869 47.6168 67.277 48.3583 67.5753C49.1083 67.8736 49.9094 68.0227 50.7617 68.0227H57.8185C58.6879 68.0227 59.4805 67.8693 60.1964 67.5625C60.9208 67.2472 61.4961 66.7528 61.9222 66.0795C62.3569 65.3977 62.5742 64.5114 62.5742 63.4205C62.5742 62.1761 62.3569 61.1747 61.9222 60.4162C61.4961 59.6577 60.9208 59.108 60.1964 58.767C59.4805 58.4261 58.6879 58.2557 57.8185 58.2557H50.7617ZM57.5629 49.358V77.0739H50.9151V49.358H57.5629ZM72.3477 49.8182H79.4556V63.5227H79.6602L88.967 49.8182H95.0011V76H87.8931V62.2443H87.7397L78.2795 76H72.3477V49.8182ZM122.806 59.6364H115.596C115.545 59.0398 115.409 58.4986 115.187 58.0128C114.974 57.527 114.676 57.1094 114.292 56.7599C113.917 56.402 113.461 56.1293 112.924 55.9418C112.387 55.7457 111.778 55.6477 111.096 55.6477C109.903 55.6477 108.893 55.9375 108.066 56.517C107.248 57.0966 106.626 57.9276 106.2 59.0099C105.782 60.0923 105.574 61.392 105.574 62.9091C105.574 64.5114 105.787 65.8537 106.213 66.9361C106.647 68.0099 107.274 68.8196 108.092 69.3651C108.91 69.902 109.895 70.1705 111.045 70.1705C111.701 70.1705 112.289 70.0895 112.809 69.9276C113.329 69.7571 113.781 69.5142 114.164 69.1989C114.548 68.8835 114.859 68.5043 115.098 68.0611C115.345 67.6094 115.511 67.1023 115.596 66.5398L122.806 66.5909C122.721 67.6989 122.41 68.8281 121.873 69.9787C121.336 71.1207 120.574 72.1776 119.585 73.1491C118.605 74.1122 117.39 74.8878 115.941 75.4759C114.493 76.0639 112.809 76.358 110.892 76.358C108.488 76.358 106.332 75.8423 104.423 74.8111C102.522 73.7798 101.018 72.2628 99.9102 70.2599C98.8107 68.2571 98.261 65.8068 98.261 62.9091C98.261 59.9943 98.8235 57.5398 99.9485 55.5455C101.074 53.5426 102.591 52.0298 104.5 51.0071C106.409 49.9759 108.539 49.4602 110.892 49.4602C112.545 49.4602 114.066 49.6861 115.456 50.1378C116.845 50.5895 118.064 51.25 119.112 52.1193C120.16 52.9801 121.004 54.0412 121.643 55.3026C122.282 56.5639 122.67 58.0085 122.806 59.6364ZM134.584 62.9091C134.584 59.7642 135.01 56.8707 135.862 54.2287C136.723 51.5866 138.087 49.1278 139.953 46.8523H146.857C146.158 47.696 145.506 48.723 144.901 49.9332C144.304 51.1349 143.784 52.4517 143.341 53.8835C142.906 55.3153 142.565 56.8026 142.318 58.3452C142.071 59.8793 141.947 61.4006 141.947 62.9091C141.947 64.9205 142.161 66.9489 142.587 68.9943C143.013 71.0312 143.597 72.9233 144.338 74.6705C145.08 76.4091 145.919 77.8409 146.857 78.9659H139.953C138.087 76.6903 136.723 74.2315 135.862 71.5895C135.01 68.9474 134.584 66.054 134.584 62.9091ZM149.059 76V49.8182H160.36C162.303 49.8182 164.003 50.2017 165.461 50.9688C166.918 51.7358 168.051 52.8139 168.861 54.2031C169.671 55.5923 170.076 57.2159 170.076 59.0739C170.076 60.9489 169.658 62.5724 168.823 63.9446C167.996 65.3168 166.833 66.3736 165.333 67.1151C163.841 67.8565 162.098 68.2273 160.104 68.2273H153.354V62.7045H158.672C159.507 62.7045 160.219 62.5597 160.807 62.2699C161.404 61.9716 161.86 61.5497 162.175 61.0043C162.499 60.4588 162.661 59.8153 162.661 59.0739C162.661 58.3239 162.499 57.6847 162.175 57.1562C161.86 56.6193 161.404 56.2102 160.807 55.929C160.219 55.6392 159.507 55.4943 158.672 55.4943H156.167V76H149.059ZM176.215 76H168.545L177.187 49.8182H186.903L195.545 76H187.874L182.147 57.0284H181.942L176.215 76ZM174.783 65.6705H189.204V70.9886H174.783V65.6705ZM198.066 49.8182H205.174V63.5227H205.379L214.686 49.8182H220.72V76H213.612V62.2443H213.458L203.998 76H198.066V49.8182ZM211.975 42.7614H216.424C216.416 44.4233 215.781 45.7528 214.52 46.75C213.258 47.7386 211.558 48.233 209.419 48.233C207.262 48.233 205.554 47.7386 204.292 46.75C203.031 45.7528 202.404 44.4233 202.413 42.7614H206.811C206.802 43.2983 206.994 43.7926 207.386 44.2443C207.787 44.6875 208.464 44.9091 209.419 44.9091C210.331 44.9091 210.983 44.6918 211.375 44.2571C211.767 43.8224 211.967 43.3239 211.975 42.7614ZM249.446 62.9091C249.446 65.8239 248.879 68.2827 247.745 70.2855C246.612 72.2798 245.082 73.7926 243.156 74.8239C241.23 75.8466 239.082 76.358 236.713 76.358C234.326 76.358 232.17 75.8423 230.244 74.8111C228.326 73.7713 226.801 72.2543 225.667 70.2599C224.542 68.2571 223.98 65.8068 223.98 62.9091C223.98 59.9943 224.542 57.5398 225.667 55.5455C226.801 53.5426 228.326 52.0298 230.244 51.0071C232.17 49.9759 234.326 49.4602 236.713 49.4602C239.082 49.4602 241.23 49.9759 243.156 51.0071C245.082 52.0298 246.612 53.5426 247.745 55.5455C248.879 57.5398 249.446 59.9943 249.446 62.9091ZM242.133 62.9091C242.133 61.3409 241.924 60.0199 241.507 58.946C241.098 57.8636 240.488 57.0455 239.679 56.4915C238.877 55.929 237.889 55.6477 236.713 55.6477C235.537 55.6477 234.544 55.929 233.734 56.4915C232.933 57.0455 232.324 57.8636 231.906 58.946C231.497 60.0199 231.292 61.3409 231.292 62.9091C231.292 64.4773 231.497 65.8026 231.906 66.8849C232.324 67.9588 232.933 68.777 233.734 69.3395C234.544 69.8935 235.537 70.1705 236.713 70.1705C237.889 70.1705 238.877 69.8935 239.679 69.3395C240.488 68.777 241.098 67.9588 241.507 66.8849C241.924 65.8026 242.133 64.4773 242.133 62.9091ZM252.734 76V49.8182H259.842V60.0455H269.251V49.8182H276.359V76H269.251V65.7727H259.842V76H252.734ZM288.491 49.8182H295.344V58.0511C295.344 58.8693 295.484 59.5384 295.766 60.0582C296.055 60.5781 296.537 60.9616 297.21 61.2088C297.892 61.456 298.821 61.5795 299.997 61.5795C300.21 61.5795 300.555 61.5753 301.033 61.5668C301.518 61.5497 302.043 61.5284 302.605 61.5028C303.168 61.4687 303.683 61.4304 304.152 61.3878C304.629 61.3366 304.966 61.2812 305.162 61.2216V66.5909C304.94 66.6676 304.574 66.7358 304.062 66.7955C303.551 66.8466 303.001 66.8935 302.413 66.9361C301.834 66.9702 301.314 67 300.854 67.0256C300.393 67.0426 300.108 67.0511 299.997 67.0511C297.696 67.0511 295.68 66.723 293.95 66.0668C292.22 65.4105 290.878 64.4176 289.923 63.0881C288.969 61.7585 288.491 60.0795 288.491 58.0511V49.8182ZM303.832 49.8182H310.736V76H303.832V49.8182ZM322.43 76H314.76L323.402 49.8182H333.118L341.76 76H334.089L328.362 57.0284H328.157L322.43 76ZM320.998 65.6705H335.419V70.9886H320.998V65.6705ZM343.412 76V70.5284L344.128 70.4261C344.997 70.2898 345.717 69.9148 346.288 69.3011C346.868 68.679 347.311 67.6946 347.618 66.348C347.933 64.9929 348.134 63.1477 348.219 60.8125L348.628 49.8182H367.599V76H360.747V55.3409H355.173L354.764 63.5739C354.611 66.625 354.202 69.0582 353.537 70.8736C352.872 72.6889 351.862 73.9972 350.507 74.7983C349.152 75.5994 347.366 76 345.151 76H343.412ZM396.328 62.9091C396.328 65.8239 395.762 68.2827 394.628 70.2855C393.495 72.2798 391.965 73.7926 390.039 74.8239C388.113 75.8466 385.965 76.358 383.596 76.358C381.209 76.358 379.053 75.8423 377.127 74.8111C375.209 73.7713 373.684 72.2543 372.55 70.2599C371.425 68.2571 370.863 65.8068 370.863 62.9091C370.863 59.9943 371.425 57.5398 372.55 55.5455C373.684 53.5426 375.209 52.0298 377.127 51.0071C379.053 49.9759 381.209 49.4602 383.596 49.4602C385.965 49.4602 388.113 49.9759 390.039 51.0071C391.965 52.0298 393.495 53.5426 394.628 55.5455C395.762 57.5398 396.328 59.9943 396.328 62.9091ZM389.016 62.9091C389.016 61.3409 388.807 60.0199 388.39 58.946C387.98 57.8636 387.371 57.0455 386.561 56.4915C385.76 55.929 384.772 55.6477 383.596 55.6477C382.419 55.6477 381.426 55.929 380.617 56.4915C379.816 57.0455 379.206 57.8636 378.789 58.946C378.38 60.0199 378.175 61.3409 378.175 62.9091C378.175 64.4773 378.38 65.8026 378.789 66.8849C379.206 67.9588 379.816 68.777 380.617 69.3395C381.426 69.8935 382.419 70.1705 383.596 70.1705C384.772 70.1705 385.76 69.8935 386.561 69.3395C387.371 68.777 387.98 67.9588 388.39 66.8849C388.807 65.8026 389.016 64.4773 389.016 62.9091ZM399.617 76V49.8182H406.725V60.0455H416.134V49.8182H423.242V76H416.134V65.7727H406.725V76H399.617ZM445.026 49.8182V55.5455H433.725V76H426.617V49.8182H445.026ZM453.4 72.4205L453.298 73.8523C453.212 75.0795 453.008 76.2557 452.684 77.3807C452.369 78.5057 452.032 79.5028 451.674 80.3722C451.325 81.2415 451.048 81.9148 450.843 82.392H446.496C446.633 81.9148 446.825 81.2244 447.072 80.321C447.327 79.4261 447.558 78.4119 447.762 77.2784C447.975 76.1534 448.082 75.0114 448.082 73.8523V72.4205H453.4ZM487.073 49.8182V76H480.067V55.4432H471.221V76H464.215V49.8182H487.073ZM499.24 49.8182L503.536 57.4375H503.74L508.087 49.8182H516.013L508.189 62.9091L516.32 76H508.189L503.74 68.2273H503.536L499.087 76H491.007L499.036 62.9091L491.263 49.8182H499.24ZM522.862 76.358V70.8352H524.141C524.891 70.8352 525.483 70.7756 525.918 70.6562C526.361 70.5284 526.702 70.3068 526.94 69.9915C527.188 69.6676 527.396 69.2159 527.567 68.6364L527.822 67.8693L518.004 49.8182H525.266L530.737 60.4545L534.93 49.8182H542.089L533.089 70.2727C532.595 71.3466 532.007 72.348 531.325 73.277C530.643 74.1974 529.795 74.9432 528.781 75.5142C527.767 76.0767 526.51 76.358 525.01 76.358H522.862ZM560.524 76L552.496 65.4148H551.499V76H544.391V49.8182H551.499V59.6875H552.419L559.936 49.8182H568.885L558.913 62.3977L569.447 76H560.524ZM571.355 76V49.8182H590.225V55.5455H578.463V60.0455H589.253V65.7727H578.463V70.2727H590.174V76H571.355ZM593.034 55.5455V49.8182H615.79V55.5455H607.915V76H600.909V55.5455H593.034ZM629.561 62.9091C629.561 66.054 629.131 68.9474 628.27 71.5895C627.418 74.2315 626.059 76.6903 624.192 78.9659H617.289C617.996 78.1222 618.648 77.0994 619.245 75.8977C619.841 74.6875 620.357 73.3665 620.792 71.9347C621.235 70.5028 621.58 69.0199 621.827 67.4858C622.074 65.9432 622.198 64.4176 622.198 62.9091C622.198 60.8977 621.985 58.8736 621.559 56.8366C621.132 54.7912 620.549 52.8991 619.807 51.1605C619.066 49.4134 618.226 47.9773 617.289 46.8523H624.192C626.059 49.1278 627.418 51.5866 628.27 54.2287C629.131 56.8707 629.561 59.7642 629.561 62.9091Z" fill="#F9F9E5"/>
</svg>
