<svg width="40" height="40" viewBox="0 0 40 40" fill="none" xmlns="http://www.w3.org/2000/svg">
<g clip-path="url(#clip0_196_2359)">
<path d="M23.9524 20.0138C23.9524 20.7955 23.7206 21.5596 23.2863 22.2096C22.852 22.8595 22.2348 23.3661 21.5126 23.6652C20.7904 23.9644 19.9957 24.0426 19.2291 23.8901C18.4624 23.7376 17.7582 23.3612 17.2054 22.8085C16.6527 22.2557 16.2763 21.5515 16.1238 20.7849C15.9713 20.0182 16.0496 19.2235 16.3487 18.5013C16.6478 17.7791 17.1544 17.1619 17.8044 16.7276C18.4543 16.2933 19.2184 16.0615 20.0001 16.0615C20.5194 16.0606 21.0337 16.1622 21.5137 16.3605C21.9936 16.5589 22.4296 16.8499 22.7968 17.2171C23.164 17.5843 23.4551 18.0204 23.6534 18.5003C23.8517 18.9802 23.9533 19.4945 23.9524 20.0138Z" fill="#F9F9E5"/>
<path d="M25.0525 10.0293H14.9479C13.6401 10.0299 12.386 10.5497 11.4613 11.4745C10.5365 12.3992 10.0167 13.6533 10.0161 14.9611V25.0702C10.0161 25.7178 10.1437 26.359 10.3916 26.9572C10.6394 27.5554 11.0028 28.0989 11.4607 28.5567C11.9187 29.0145 12.4624 29.3776 13.0608 29.6252C13.6591 29.8728 14.3004 30 14.9479 29.9998H25.057C25.7044 29.9995 26.3453 29.8717 26.9433 29.6236C27.5413 29.3756 28.0845 29.0123 28.5421 28.5543C28.9996 28.0964 29.3625 27.5528 29.6099 26.9546C29.8574 26.3564 29.9846 25.7153 29.9843 25.0679V14.9611C29.9837 13.6533 29.4639 12.3992 28.5391 11.4745C27.6144 10.5497 26.3603 10.0299 25.0525 10.0293ZM20.0002 26.4793C18.7227 26.4784 17.474 26.0988 16.4122 25.3885C15.3503 24.6781 14.5228 23.669 14.0344 22.4885C13.5459 21.308 13.4183 20.0092 13.6678 18.7563C13.9172 17.5033 14.5325 16.3524 15.4359 15.4491C16.3392 14.5457 17.4901 13.9304 18.7431 13.6809C19.996 13.4315 21.2948 13.5591 22.4753 14.0475C23.6558 14.536 24.665 15.3635 25.3753 16.4254C26.0856 17.4872 26.4652 18.7358 26.4661 20.0134C26.4661 20.8625 26.2989 21.7033 25.9739 22.4878C25.649 23.2723 25.1727 23.9851 24.5723 24.5855C23.9719 25.1859 23.2591 25.6622 22.4746 25.9871C21.6901 26.3121 20.8493 26.4793 20.0002 26.4793ZM26.5025 15.1452C26.1878 15.1452 25.8802 15.0519 25.6186 14.8771C25.357 14.7023 25.1531 14.4538 25.0327 14.1631C24.9123 13.8724 24.8808 13.5525 24.9421 13.2439C25.0035 12.9353 25.155 12.6518 25.3775 12.4294C25.6 12.2069 25.8835 12.0553 26.1921 11.994C26.5007 11.9326 26.8206 11.9641 27.1113 12.0845C27.402 12.2049 27.6505 12.4088 27.8253 12.6704C28.0001 12.9321 28.0934 13.2396 28.0934 13.5543C28.0934 13.9762 27.9258 14.3809 27.6274 14.6792C27.3291 14.9776 26.9244 15.1452 26.5025 15.1452Z" fill="#F9F9E5"/>
<path d="M39.0089 9.28409C38.1112 5.68182 34.318 1.88864 30.7158 0.990909C27.181 0.337841 23.5944 0.00618398 19.9998 0C16.4053 0.00640788 12.8187 0.338063 9.28394 0.990909C5.68166 1.88864 1.89076 5.68182 0.993028 9.28409C-0.331986 16.3666 -0.331986 23.6334 0.993028 30.7159C1.89076 34.3182 5.68166 38.1136 9.28394 39.0091C12.8187 39.6619 16.4053 39.9936 19.9998 40C21.015 40 22.0301 39.9735 23.0453 39.9205C25.6187 39.7796 28.1807 39.4759 30.7158 39.0114C34.3271 38.1159 38.1112 34.3295 39.0089 30.7182C39.6839 27.0693 40.0156 23.3653 39.9998 19.6545C39.9742 16.1754 39.6426 12.7052 39.0089 9.28409ZM32.4998 25.0659C32.4974 27.0404 31.712 28.9334 30.3158 30.3296C28.9196 31.7258 27.0266 32.5112 25.0521 32.5136H14.9476C12.9731 32.5112 11.0801 31.7258 9.68389 30.3296C8.28769 28.9334 7.50225 27.0404 7.49985 25.0659V14.9614C7.50225 12.9868 8.28769 11.0939 9.68389 9.69768C11.0801 8.30149 12.9731 7.51604 14.9476 7.51364H25.0521C27.0266 7.51604 28.9196 8.30149 30.3158 9.69768C31.712 11.0939 32.4974 12.9868 32.4998 14.9614V25.0659Z" fill="#F9F9E5"/>
</g>
<defs>
<clipPath id="clip0_196_2359">
<rect width="40" height="40" fill="white"/>
</clipPath>
</defs>
</svg>
