<svg width="114" height="114" viewBox="0 0 114 114" fill="none" xmlns="http://www.w3.org/2000/svg">
<g clip-path="url(#clip0_99_111)">
<path d="M25.8476 44.9041C26.7813 44.5147 27.179 43.4594 26.8116 42.5775C26.2029 41.1159 24.1308 41.1172 23.521 42.5775C22.9141 44.0338 24.3915 45.5115 25.8476 44.9041Z" fill="black"/>
<path d="M16.817 63.2965C11.5244 63.2965 6.79818 65.7576 3.71483 69.5928L3.56989 66.1169C3.58926 59.9914 8.56683 55.0588 14.368 55.0588H42.7987L44.9917 72.2055C45.1055 73.0945 45.8622 73.7606 46.7586 73.7606H63.588C64.0446 73.7606 64.4837 73.5854 64.8148 73.2708C71.9829 66.4611 75.6558 56.9018 74.8917 47.044L74.0036 35.5896L78.4737 34.1415L92.2723 51.8951L91.9582 55.0559C91.8544 56.1008 92.674 57.0134 93.7329 57.0134C94.6372 57.0132 95.4118 56.3272 95.5031 55.4081C95.8936 51.4776 96.1042 51.0203 95.5213 50.2705L82.0779 32.974L88.1657 31.0018C89.1224 30.6919 89.6336 29.6508 89.2925 28.7037L85.531 18.2628C85.2387 17.4513 84.4067 16.965 83.5569 17.1106L55.2951 21.913C54.2754 22.0862 53.6208 23.0872 53.8619 24.0868L55.257 29.8659C55.4681 30.7402 56.2981 31.3189 57.1906 31.2176L65.5746 30.2598L67.6764 35.8534C68.0114 36.7448 68.9886 37.2148 69.8925 36.9212L70.5181 36.7186L71.3399 47.3192C72.0027 55.869 68.9198 64.1668 62.8646 70.1984H48.3264L46.3253 54.5528C48.7995 53.5377 50.5473 51.1038 50.5473 48.2683C50.5473 44.5241 47.5011 41.4777 43.7567 41.4777H31.2517C30.2681 41.4777 29.4706 42.2752 29.4706 43.2589C29.4706 44.2425 30.2681 45.04 31.2517 45.04H43.7567C45.5367 45.04 46.985 46.4883 46.985 48.2683C46.985 49.731 46.0063 50.968 44.6698 51.363C44.4928 51.3303 44.308 51.3234 44.1199 51.3474C42.4703 51.5589 49.2789 51.4966 14.5389 51.4966C14.2172 51.4066 14.0115 51.4316 13.8078 51.4447C12.2943 51.1782 11.1397 49.857 11.1397 48.2683C11.1397 46.4883 12.5879 45.04 14.368 45.04H18.8951C19.8788 45.04 20.6763 44.2425 20.6763 43.2589C20.6763 42.2752 19.8788 41.4777 18.8951 41.4777H14.368C8.64454 41.4777 5.5269 48.1396 9.09227 52.5372C3.28379 54.9508 -0.203425 60.8397 0.00919715 66.2267L0.431769 76.3682C-1.97921 86.9407 6.10621 96.9153 16.817 96.9153C26.0858 96.9153 33.6264 89.3746 33.6264 80.1059C33.6264 70.8371 26.0858 63.2965 16.817 63.2965ZM68.4202 27.7061C68.1308 26.9357 67.3551 26.4707 66.5509 26.563L58.3504 27.4997L57.7724 25.1052L82.6846 20.8717L85.3173 28.1799L70.4126 33.0083L68.4202 27.7061ZM16.817 93.353C9.51239 93.353 3.56989 87.4105 3.56989 80.1059C3.56989 72.8013 9.51239 66.8588 16.817 66.8588C24.1216 66.8588 30.0641 72.8013 30.0641 80.1059C30.0641 87.4105 24.1216 93.353 16.817 93.353Z" fill="black"/>
<path d="M16.8168 72.2021C12.4586 72.2021 8.91309 75.7477 8.91309 80.1059C8.91309 84.4641 12.4586 88.0096 16.8168 88.0096C21.175 88.0096 24.7206 84.4641 24.7206 80.1059C24.7206 75.7477 21.175 72.2021 16.8168 72.2021ZM16.8168 84.4474C14.423 84.4474 12.4753 82.4997 12.4753 80.1059C12.4753 77.7121 14.423 75.7644 16.8168 75.7644C19.2107 75.7644 21.1583 77.7121 21.1583 80.1059C21.1583 82.4997 19.2109 84.4474 16.8168 84.4474Z" fill="black"/>
<path d="M113.803 70.7773C104.969 53.5627 78.9822 56.9751 75.214 76.2827L65.6409 79.104H40.3055C39.3219 79.104 38.5244 79.9015 38.5244 80.8852C38.5244 81.8688 39.3219 82.6663 40.3055 82.6663H65.8979C66.2652 82.6663 65.6536 82.8141 74.8313 80.1093C74.8144 83.3747 75.578 86.6184 77.1116 89.6069C77.4271 90.222 78.0509 90.5754 78.6977 90.5754C79.2683 90.5754 79.3983 90.4353 81.5343 89.3393C84.6279 94.0372 89.8575 96.8904 95.5669 96.8904C107.374 96.8904 115.461 84.9927 111.27 74.0793L113.032 73.1751C113.907 72.7261 114.252 71.6525 113.803 70.7773ZM79.2189 74.968C83.614 61.3059 101.934 58.8965 109.739 70.8612C51.3249 100.837 99.2038 76.2676 79.5493 86.3543C78.0901 82.6084 78.0494 78.6031 79.2189 74.968ZM92.7274 83.5951L99.8118 79.9594C100.008 83.7505 95.6246 85.9231 92.7274 83.5951ZM95.5672 93.3279C91.2005 93.3279 87.1903 91.2097 84.7283 87.7002L89.4025 85.3015C90.8881 87.0674 93.082 88.1154 95.4574 88.1154C100.573 88.1154 104.407 83.2935 103.138 78.2524L108.074 75.7192C111.074 84.2904 104.68 93.3279 95.5672 93.3279Z" fill="black"/>
</g>
<defs>
<clipPath id="clip0_99_111">
<rect width="114" height="114" fill="white"/>
</clipPath>
</defs>
</svg>
