<svg width="171" height="61" viewBox="0 0 171 61" fill="none" xmlns="http://www.w3.org/2000/svg">
<rect width="171" height="61" fill="#F87000"/>
<path d="M50.6875 44V17.8182H69.0966V23.5455H57.7955V28.0455H67.9716V33.7727H57.7955V44H50.6875ZM75.2425 44H67.5721L76.2141 17.8182H85.93L94.5721 44H86.9016L81.1744 25.0284H80.9698L75.2425 44ZM73.8107 33.6705H88.2312V38.9886H73.8107V33.6705ZM105.988 34.2841H111.511L113.505 36.7898L116.88 40.625L121.278 45.9432H114.988L111.869 42.3125L109.772 39.2955L105.988 34.2841ZM121.227 30.9091C121.227 33.8239 120.66 36.2827 119.527 38.2855C118.393 40.2798 116.863 41.7926 114.937 42.8239C113.011 43.8466 110.863 44.358 108.494 44.358C106.108 44.358 103.951 43.8423 102.025 42.8111C100.108 41.7713 98.582 40.2543 97.4485 38.2599C96.3235 36.2571 95.761 33.8068 95.761 30.9091C95.761 27.9943 96.3235 25.5398 97.4485 23.5455C98.582 21.5426 100.108 20.0298 102.025 19.0071C103.951 17.9759 106.108 17.4602 108.494 17.4602C110.863 17.4602 113.011 17.9759 114.937 19.0071C116.863 20.0298 118.393 21.5426 119.527 23.5455C120.66 25.5398 121.227 27.9943 121.227 30.9091ZM113.914 30.9091C113.914 29.3409 113.706 28.0199 113.288 26.946C112.879 25.8636 112.27 25.0455 111.46 24.4915C110.659 23.929 109.67 23.6477 108.494 23.6477C107.318 23.6477 106.325 23.929 105.515 24.4915C104.714 25.0455 104.105 25.8636 103.687 26.946C103.278 28.0199 103.074 29.3409 103.074 30.9091C103.074 32.4773 103.278 33.8026 103.687 34.8849C104.105 35.9588 104.714 36.777 105.515 37.3395C106.325 37.8935 107.318 38.1705 108.494 38.1705C109.67 38.1705 110.659 37.8935 111.46 37.3395C112.27 36.777 112.879 35.9588 113.288 34.8849C113.706 33.8026 113.914 32.4773 113.914 30.9091Z" fill="#F9F9E5"/>
</svg>
