<svg width="20" height="20" viewBox="0 0 20 20" fill="none" xmlns="http://www.w3.org/2000/svg">
<g clip-path="url(#clip0_20_6601)">
<path d="M10 20C15.5228 20 20 15.5228 20 10C20 4.47715 15.5228 0 10 0C4.47715 0 0 4.47715 0 10C0 15.5228 4.47715 20 10 20Z" fill="#F0F0F0"/>
<path d="M19.3778 6.52222H0.622225C0.209598 7.63522 -0.00111218 8.81295 4.9558e-06 10C-0.00117829 11.1872 0.209533 12.3652 0.622225 13.4783H19.3778C19.7905 12.3652 20.0012 11.1872 20 10C20.0012 8.81278 19.7905 7.63544 19.3778 6.52222Z" fill="#D80027"/>
<path fill-rule="evenodd" clip-rule="evenodd" d="M2.41937 3.47778C4.25326 1.34833 6.96882 0 9.99993 0C13.031 0 15.7466 1.34833 17.586 3.47778H2.41937ZM2.41382 16.5222H17.5805C15.7466 18.6517 13.031 20 9.99993 20C6.96882 20 4.25326 18.6517 2.41382 16.5222Z" fill="#0052B4"/>
</g>
<defs>
<clipPath id="clip0_20_6601">
<rect width="20" height="20" fill="white"/>
</clipPath>
</defs>
</svg>
