<svg width="161" height="30" viewBox="0 0 161 30" fill="none" xmlns="http://www.w3.org/2000/svg">
<path d="M5.14458 25.1057L2.08053 25.0967C0.939723 25.0928 0.00387913 26.0268 1.20079e-05 27.1716V27.2026C-0.00385512 28.3474 0.926833 29.2866 2.06763 29.2905L5.13169 29.2995C6.27249 29.3034 7.20833 28.3694 7.2122 27.2246V27.1936C7.21607 26.0488 6.28538 25.1096 5.14458 25.1057Z" fill="#004DB4"/>
<path d="M10.1409 20.9456H10.7983C11.9391 20.9508 12.8749 20.0168 12.8788 18.872V18.841C12.8827 17.6961 11.952 16.757 10.8112 16.7531H10.1538C9.01297 16.7479 8.07712 17.6806 8.07325 18.8254V18.8565C8.06939 20.0013 9.00008 20.9404 10.1409 20.9443V20.9456Z" fill="#004DB4"/>
<path d="M6.92872 12.549L15.9868 12.5762C17.1276 12.58 18.0635 11.6461 18.0673 10.5013V10.4702C18.0712 9.32541 17.1405 8.38627 15.9997 8.38239L6.94161 8.35523C5.80081 8.35134 4.86496 9.28531 4.8611 10.4301V10.4612C4.85723 11.606 5.78792 12.5451 6.92872 12.5477V12.549Z" fill="#004DB4"/>
<path d="M17.6226 4.19379L21.0411 4.20414C22.1819 4.20802 23.1177 3.27406 23.1216 2.12924V2.09819C23.1255 0.953379 22.1948 0.0142426 21.054 0.0103619L17.6355 1.30038e-05C16.4947 -0.00386773 15.5588 0.930095 15.5549 2.07491V2.10596C15.5511 3.25077 16.4818 4.18991 17.6226 4.19379Z" fill="#004DB4"/>
<path d="M146.368 0.139717H46.6324C45.3781 0.139717 27.5185 0.031057 27.5185 0.031057C26.3777 0.0271763 25.4418 0.961138 25.438 2.10595V2.137C25.4341 3.28181 26.3648 4.22095 27.5056 4.22483L29.5809 4.2313C30.7217 4.23518 31.6511 5.17432 31.6486 6.31913V6.35018C31.6447 7.49499 30.7088 8.42896 29.568 8.42507L22.3713 8.40308C21.2305 8.3992 20.2947 9.33317 20.2908 10.478V10.509C20.2869 11.6538 21.2176 12.593 22.3584 12.5969L24.9726 12.6046C26.1134 12.6085 27.0441 13.5476 27.0402 14.6925V14.7235C27.0364 15.8683 26.1005 16.8023 24.9597 16.7984L17.1017 16.7751C15.9609 16.7712 15.0251 17.7052 15.0212 18.85V18.8811C15.0173 20.0259 15.948 20.965 17.0888 20.9689L19.0933 20.9754C20.2341 20.9792 21.1648 21.9184 21.1609 23.0632V23.0774C21.157 24.2222 20.2212 25.1562 19.0804 25.1523L10.614 25.1264C9.47317 25.1226 8.53733 26.0565 8.53346 27.2013V27.2324C8.52959 28.3772 9.46028 29.3163 10.6011 29.3202L44.8715 29.4237C44.8045 29.4108 44.7388 29.394 44.673 29.381C45.3137 29.4664 45.9659 29.5155 46.6298 29.5155H146.366C154.448 29.5155 161 22.9403 161 14.8296C161 6.71885 154.448 0.143598 146.366 0.143598L146.368 0.139717Z" fill="#004DB4"/>
<path d="M39.9578 14.5528C40.2246 13.2683 40.6681 12.064 41.2868 10.9373C41.9056 9.81187 42.6622 8.81582 43.5568 7.94912C44.4514 7.08372 45.5162 6.39812 46.7511 5.89363C47.986 5.38913 49.3034 5.13689 50.7046 5.13559C51.603 5.13559 52.4293 5.24296 53.1834 5.45769C53.9362 5.67243 54.5562 5.94925 55.0422 6.28558C55.5281 6.62191 55.9329 6.99964 56.2577 7.41875C56.5826 7.83658 56.7991 8.25311 56.9087 8.66835C57.0183 9.08229 57.0325 9.46907 56.9512 9.8261C56.8301 10.4108 56.5774 10.8648 56.1933 11.1856C55.8092 11.5065 55.3167 11.6682 54.7173 11.6682C54.4015 11.6682 54.1347 11.6099 53.9156 11.4922C53.6964 11.3745 53.525 11.2206 53.3986 11.0291C53.2736 10.8377 53.1576 10.6268 53.0519 10.3953C52.9462 10.1637 52.8224 9.93217 52.6807 9.70062C52.5389 9.46907 52.3687 9.25822 52.1702 9.06677C51.9717 8.87532 51.6881 8.72139 51.3194 8.60367C50.9508 8.48596 50.5151 8.42774 50.0136 8.42774C49.1474 8.42774 48.3147 8.66447 47.5168 9.13662C46.7188 9.60878 46.0073 10.3138 45.3795 11.2529C44.7518 12.1921 44.3058 13.2916 44.0389 14.5515C43.8933 15.2268 43.812 15.8568 43.7966 16.4415C43.7798 17.0261 43.8378 17.5811 43.968 18.1063C44.0982 18.6302 44.3045 19.0791 44.5881 19.4529C44.8716 19.8267 45.2648 20.1217 45.7675 20.3364C46.2703 20.5511 46.8645 20.6585 47.5528 20.6585C48.1432 20.6585 48.6885 20.5408 49.1874 20.3041C49.6849 20.0673 50.1039 19.7815 50.4442 19.4438C50.7845 19.1062 51.1042 18.7686 51.4032 18.431C51.7023 18.0933 52.0207 17.8075 52.3558 17.5707C52.6923 17.3353 53.0377 17.2163 53.3948 17.2163C53.9207 17.2163 54.3525 17.3586 54.689 17.6419C55.0254 17.9265 55.1414 18.3081 55.0357 18.788C54.8578 19.6495 54.3745 20.4774 53.5856 21.2691C52.7967 22.062 51.7989 22.7088 50.5924 23.2094C49.3859 23.7101 48.1432 23.961 46.8632 23.961C44.0286 23.961 42.0048 23.1603 40.7944 21.5563C39.5827 19.9522 39.3043 17.6173 39.9591 14.5528H39.9578Z" fill="white"/>
<path d="M70.1574 13.8801L68.8722 20.0013C68.7433 20.5873 68.6904 21.1125 68.7149 21.5807C68.7394 22.049 68.7394 22.3388 68.7149 22.4526C68.6337 22.8588 68.403 23.1938 68.0227 23.459C67.6424 23.7229 67.2248 23.8549 66.771 23.8561C65.4343 23.8561 64.871 23.1499 65.0811 21.736C63.5188 23.1512 61.7128 23.8587 59.6646 23.86C58.5792 23.86 57.6962 23.5134 57.0156 22.8187C56.335 22.1241 56.1119 21.2289 56.3466 20.1306C56.4677 19.5447 56.6675 19.0246 56.9472 18.5693C57.2257 18.114 57.5415 17.7375 57.8947 17.4413C58.2466 17.1438 58.672 16.8928 59.1696 16.6846C59.6671 16.4776 60.1608 16.3185 60.6507 16.2085C61.1405 16.0986 61.6974 16.0067 62.3213 15.933L64.581 15.6885C65.1069 15.6316 65.522 15.5113 65.8262 15.3276C66.1304 15.1439 66.3302 14.814 66.4269 14.3341C66.5326 13.8387 66.3933 13.4648 66.0131 13.2126C65.6315 12.9616 65.1133 12.8349 64.4572 12.8362C63.9635 12.8362 63.5098 12.906 63.0973 13.0444C62.6835 13.1828 62.3419 13.3497 62.0712 13.5451C61.8005 13.7404 61.5491 13.9357 61.3184 14.131C61.0877 14.3264 60.8466 14.4932 60.5965 14.6317C60.3452 14.7701 60.0899 14.8386 59.8308 14.8399C59.3771 14.8399 59.0342 14.7041 58.8035 14.4324C58.5727 14.1608 58.5018 13.8335 58.5908 13.4519C58.672 13.0781 58.8795 12.7003 59.216 12.3174C59.5524 11.9345 59.9894 11.5814 60.5282 11.2554C61.067 10.9307 61.7322 10.663 62.5262 10.456C63.3203 10.249 64.162 10.1442 65.0527 10.1442C66.8755 10.1442 68.2483 10.4508 69.1712 11.0691C70.0955 11.6862 70.4229 12.6253 70.1561 13.884L70.1574 13.8801ZM65.482 18.8073L65.7849 17.3805C65.4768 17.6328 64.911 17.8242 64.0847 17.9536L62.7479 18.1618C61.9294 18.2757 61.2965 18.471 60.8466 18.7478C60.3967 19.0246 60.1157 19.4269 60.0036 19.9547C59.9146 20.3777 60.0281 20.7335 60.3439 21.0206C60.6597 21.3091 61.1212 21.4527 61.7296 21.4527C62.6848 21.4527 63.5136 21.1901 64.2136 20.6649C64.9135 20.141 65.3363 19.5201 65.482 18.8047V18.8073Z" fill="white"/>
<path d="M72.5614 14.2087C72.7148 13.5011 73.0139 12.875 73.4599 12.3304C73.9046 11.7858 74.4318 11.3589 75.039 11.0497C75.6461 10.7406 76.2739 10.5103 76.9222 10.3603C77.5706 10.2102 78.2268 10.1339 78.8906 10.1339C79.8213 10.1339 80.685 10.2464 81.4777 10.4741C82.2718 10.7018 82.8931 11.0303 83.343 11.4611C83.7928 11.8919 83.9565 12.3757 83.8354 12.9112C83.7464 13.3588 83.5337 13.7365 83.1986 14.0457C82.8634 14.3548 82.4638 14.5088 82.0024 14.5088C81.7433 14.5088 81.519 14.4531 81.3282 14.338C81.1374 14.2242 80.9737 14.0845 80.8358 13.9176C80.6979 13.7507 80.5457 13.5852 80.3795 13.4183C80.2132 13.2514 79.9786 13.1117 79.6744 12.9979C79.3701 12.884 79.0079 12.8271 78.5864 12.8284C77.202 12.8284 76.4247 13.2074 76.2545 13.9629C76.2146 14.166 76.2223 14.3393 76.279 14.4803C76.3357 14.6226 76.4556 14.7416 76.6374 14.8399C76.8191 14.9369 76.9957 15.012 77.1659 15.065C77.336 15.118 77.5874 15.1814 77.9187 15.2539L79.365 15.607C79.6073 15.6639 79.8303 15.7221 80.0327 15.7829C80.2351 15.8437 80.4542 15.9149 80.6888 15.9964C80.9234 16.0779 81.1335 16.1645 81.3205 16.2577C81.5061 16.3508 81.7007 16.4608 81.9044 16.5863C82.1068 16.713 82.2731 16.845 82.402 16.9821C82.5322 17.1205 82.6611 17.2783 82.7913 17.4581C82.9214 17.6366 83.0078 17.8281 83.0529 18.0312C83.0968 18.2343 83.1316 18.4594 83.1561 18.7077C83.1805 18.9561 83.1522 19.2174 83.071 19.4942C82.9253 20.2096 82.6301 20.8525 82.1854 21.4203C81.7407 21.9895 81.2122 22.4462 80.6012 22.7928C79.9902 23.1382 79.3379 23.4021 78.6457 23.5806C77.9535 23.7591 77.2548 23.8497 76.551 23.8497C74.9062 23.8497 73.5617 23.5276 72.5176 22.8821C71.4722 22.2366 71.0429 21.4669 71.2285 20.5718C71.3175 20.1332 71.516 19.7697 71.8241 19.48C72.1322 19.1915 72.5292 19.0466 73.0139 19.0466C73.2975 19.0466 73.5437 19.1242 73.7551 19.2782C73.9652 19.4334 74.1521 19.621 74.3145 19.8448C74.4769 20.0686 74.6548 20.2898 74.8495 20.5084C75.0441 20.7283 75.32 20.9146 75.6757 21.0685C76.0315 21.2224 76.4582 21.3 76.9519 21.3C77.5835 21.3 78.1223 21.1733 78.5671 20.921C79.0118 20.6688 79.2709 20.3519 79.3444 19.9702C79.3843 19.7581 79.3882 19.5835 79.356 19.4463C79.3237 19.3079 79.2039 19.1825 78.9976 19.0686C78.7914 18.9548 78.6328 18.8798 78.5232 18.8435C78.4137 18.8073 78.1571 18.7362 77.7524 18.6301C77.6634 18.6055 77.5938 18.5861 77.5461 18.5693L75.5288 18.0454C75.1717 17.9484 74.8546 17.8488 74.5749 17.7479C74.2952 17.6457 74.0193 17.5189 73.7486 17.3637C73.4766 17.2098 73.2588 17.039 73.0925 16.8514C72.9262 16.6652 72.778 16.4388 72.6491 16.1749C72.5189 15.911 72.457 15.6199 72.4609 15.303C72.4647 14.9861 72.4995 14.62 72.564 14.2061L72.5614 14.2087Z" fill="white"/>
<path d="M84.7711 22.0167L87.9344 7.0319C88.0556 6.4472 88.3147 5.99704 88.7117 5.68399C89.1087 5.37095 89.5857 5.21442 90.1451 5.21313C90.7045 5.21313 91.1106 5.36965 91.3658 5.6814C91.6211 5.99445 91.6881 6.44332 91.5669 7.02931L90.5125 12.0523H90.5731C91.8196 10.7677 93.3007 10.1248 95.019 10.1235C95.3992 10.1235 95.7602 10.1559 96.1005 10.2206C96.4408 10.2852 96.7721 10.3926 97.0969 10.5427C97.4204 10.6927 97.6963 10.8893 97.9232 11.1338C98.15 11.3783 98.3421 11.6758 98.5007 12.0303C98.6592 12.3834 98.7391 12.7987 98.7443 13.2734C98.7494 13.7481 98.694 14.2953 98.5806 14.9137L97.0905 22.0102C96.8159 23.2301 96.0786 23.8393 94.8797 23.8393C93.6564 23.8393 93.1821 23.2301 93.4579 22.0115L94.8037 15.6471C94.9648 14.8749 94.8978 14.2617 94.6026 13.8064C94.3061 13.351 93.7828 13.1246 93.0287 13.1246C92.3403 13.1246 91.6533 13.3898 90.9701 13.9176C90.2856 14.4467 89.8551 15.1413 89.6772 16.0029L88.4049 22.0141C88.1303 23.2339 87.393 23.8432 86.1942 23.8432C84.9709 23.8432 84.4965 23.2339 84.7724 22.0154L84.7711 22.0167Z" fill="white"/>
<path d="M110.4 14.1893L112.26 17.114C112.365 16.9847 112.58 16.6936 112.903 16.2422C113.227 15.7907 113.469 15.4802 113.632 15.3095C114.118 14.7972 114.599 14.5411 115.077 14.5411C115.489 14.5411 115.832 14.6808 116.103 14.9615C116.375 15.2422 116.469 15.5773 116.389 15.9679C116.308 16.3909 116.005 16.9407 115.479 17.6198C114.953 18.2989 114.41 18.8617 113.852 19.3092L114.947 21.1008C115.124 21.3932 115.177 21.7269 115.105 22.1008C115.016 22.516 114.767 22.8808 114.359 23.1977C113.95 23.5146 113.471 23.6738 112.919 23.6738C112.66 23.6738 112.451 23.6168 112.292 23.503C112.134 23.3892 111.974 23.2145 111.813 22.9791L110.974 21.6506C109.152 23.1072 107.071 23.8342 104.731 23.8355C104.099 23.8355 103.524 23.7695 103.006 23.635C102.488 23.5017 102.056 23.3167 101.712 23.0813C101.368 22.8459 101.07 22.569 100.819 22.2521C100.567 21.9352 100.391 21.5924 100.29 21.2224C100.19 20.8525 100.126 20.467 100.102 20.0647C100.077 19.6624 100.117 19.2627 100.223 18.8642C100.481 17.6043 101.058 16.5216 101.953 15.6148C102.848 14.708 103.955 13.9616 105.275 13.3769C105.145 13.1738 105.036 12.9992 104.946 12.853C104.856 12.7068 104.762 12.5348 104.66 12.3356C104.558 12.1363 104.48 11.9475 104.423 11.769C104.366 11.5905 104.317 11.3925 104.277 11.1778C104.236 10.9631 104.22 10.7406 104.228 10.5129C104.236 10.2852 104.268 10.0498 104.325 9.80532C104.519 8.87912 104.919 8.07193 105.526 7.38504C106.133 6.69815 106.844 6.18848 107.657 5.85345C108.47 5.5197 109.331 5.35283 110.238 5.35283C110.78 5.35283 111.277 5.3994 111.727 5.49254C112.176 5.58568 112.557 5.71503 112.869 5.88191C113.181 6.04878 113.45 6.2454 113.677 6.47307C113.904 6.70074 114.079 6.94264 114.205 7.19877C114.33 7.4549 114.424 7.72655 114.485 8.01501C114.546 8.30348 114.574 8.58548 114.571 8.86231C114.568 9.13913 114.537 9.41466 114.48 9.69149C114.278 10.6513 113.804 11.5271 113.059 12.32C112.314 13.113 111.427 13.7365 110.4 14.1931V14.1893ZM109.431 19.4567L106.987 15.5928C106.104 16.0404 105.402 16.497 104.879 16.9653C104.357 17.4335 104.031 17.9639 103.902 18.5564C103.749 19.2795 103.844 19.8655 104.188 20.3118C104.532 20.7593 105.078 20.9818 105.823 20.9818C106.301 20.9818 106.783 20.8926 107.269 20.7128C107.755 20.5342 108.142 20.3531 108.429 20.1695C108.717 19.9871 109.05 19.749 109.431 19.4554V19.4567ZM107.652 9.49745C107.62 9.6682 107.603 9.83508 107.604 9.99807C107.604 10.1611 107.614 10.3046 107.635 10.4314C107.656 10.5569 107.696 10.6875 107.758 10.8208C107.818 10.9553 107.877 11.0704 107.934 11.1688C107.991 11.2658 108.075 11.3783 108.183 11.5038C108.293 11.6293 108.385 11.7328 108.463 11.8142C108.54 11.8957 108.647 12.0057 108.785 12.1428C109.076 11.9876 109.281 11.8763 109.399 11.8078C109.516 11.7379 109.712 11.6099 109.988 11.4236C110.262 11.236 110.471 11.0653 110.613 10.9113C110.755 10.7574 110.902 10.5582 111.056 10.3137C111.211 10.0692 111.315 9.81309 111.372 9.54531C111.461 9.08998 111.362 8.7019 111.074 8.3811C110.787 8.06029 110.379 7.89989 109.854 7.89989C109.319 7.89989 108.843 8.05253 108.427 8.35781C108.009 8.6631 107.752 9.04211 107.656 9.49745H107.652Z" fill="#F87000"/>
<path d="M135.74 15.6769L134.298 22.4436C134.225 22.8252 134.027 23.1512 133.702 23.4189C133.378 23.6867 133.014 23.8212 132.609 23.8212C132.051 23.8212 131.69 23.6453 131.527 23.2922C131.365 22.939 131.308 22.3388 131.356 21.4941C129.72 23.1123 127.774 23.9221 125.514 23.9234C124.485 23.9234 123.564 23.8109 122.75 23.5832C121.937 23.3555 121.26 23.0309 120.721 22.6091C120.183 22.1874 119.737 21.6894 119.385 21.1164C119.033 20.5433 118.789 19.903 118.655 19.1967C118.521 18.4891 118.467 17.7479 118.49 16.9717C118.515 16.1956 118.615 15.3768 118.793 14.5152C119.416 11.54 120.748 9.2271 122.793 7.57649C124.837 5.92589 127.276 5.0993 130.111 5.098C130.977 5.098 131.775 5.19502 132.505 5.38906C133.233 5.58439 133.831 5.83793 134.296 6.14968C134.763 6.46272 135.148 6.81199 135.456 7.19748C135.765 7.58296 135.971 7.96715 136.076 8.34876C136.182 8.73036 136.203 9.0848 136.138 9.40949C136.065 9.751 135.946 10.0433 135.78 10.2878C135.614 10.5323 135.42 10.716 135.197 10.8428C134.974 10.9683 134.754 11.0601 134.535 11.117C134.316 11.1739 134.085 11.2024 133.843 11.2024C133.576 11.2024 133.35 11.1519 133.168 11.0497C132.987 10.9476 132.841 10.8143 132.731 10.6474C132.622 10.4806 132.519 10.2956 132.421 10.0925C132.324 9.88941 132.2 9.6889 132.05 9.48969C131.9 9.29048 131.717 9.10809 131.503 8.94122C131.288 8.77435 130.985 8.64111 130.592 8.53892C130.198 8.43802 129.731 8.38627 129.188 8.38757C128.467 8.38757 127.783 8.51046 127.134 8.75365C126.486 8.99813 125.879 9.37069 125.313 9.87001C124.747 10.3706 124.244 11.0368 123.807 11.8699C123.37 12.7029 123.035 13.6731 122.801 14.7778C122.42 16.5992 122.553 18.0532 123.198 19.1424C123.842 20.2316 124.978 20.7749 126.606 20.7736C127.707 20.7736 128.742 20.4295 129.709 19.7413C130.677 19.0544 131.317 18.1735 131.633 17.1011H128.973C128.738 17.1024 128.525 17.0778 128.334 17.0287C128.144 16.9808 127.965 16.8967 127.794 16.779C127.624 16.6613 127.517 16.5009 127.472 16.2978C127.428 16.0947 127.43 15.8386 127.477 15.5294C127.574 15.034 127.791 14.6472 128.127 14.3717C128.462 14.0948 128.886 13.9564 129.397 13.9564L134.414 13.9538C134.996 13.9538 135.392 14.0961 135.598 14.3794C135.804 14.6627 135.852 15.0948 135.739 15.6717L135.74 15.6769Z" fill="white"/>
<path d="M138.047 16.9433C138.25 15.9757 138.585 15.0792 139.054 14.2539C139.523 13.4286 140.099 12.7055 140.784 12.0833C141.468 11.4611 142.275 10.976 143.207 10.6255C144.138 10.2762 145.138 10.1003 146.208 10.1003C147.067 10.1003 147.836 10.2128 148.517 10.4405C149.198 10.6681 149.754 10.9864 150.187 11.3964C150.621 11.8065 150.97 12.2981 151.233 12.8711C151.496 13.4442 151.64 14.0715 151.666 14.7546C151.69 15.4376 151.63 16.1646 151.484 16.9368C151.282 17.8876 150.976 18.7621 150.569 19.5589C150.16 20.3557 149.632 21.0788 148.985 21.7295C148.338 22.3802 147.529 22.8899 146.563 23.2611C145.595 23.6311 144.512 23.8174 143.313 23.8174C142.504 23.8174 141.782 23.7333 141.15 23.5625C140.518 23.3918 139.994 23.1525 139.576 22.8446C139.158 22.5354 138.813 22.1732 138.537 21.7541C138.261 21.3363 138.07 20.8667 137.966 20.3467C137.86 19.8267 137.815 19.286 137.832 18.7258C137.847 18.1657 137.921 17.572 138.05 16.9459L138.047 16.9433ZM141.68 16.942C141.542 17.4943 141.488 18.0234 141.516 18.5266C141.544 19.0311 141.636 19.4735 141.791 19.8551C141.944 20.2367 142.199 20.542 142.556 20.7684C142.912 20.9961 143.354 21.1099 143.88 21.1086C144.901 21.1086 145.753 20.7141 146.436 19.925C147.121 19.1359 147.591 18.1398 147.85 16.9368C148.11 15.6846 148.058 14.6821 147.697 13.9254C147.336 13.1699 146.649 12.7922 145.637 12.7922C144.616 12.7922 143.767 13.1725 143.086 13.9331C142.407 14.6938 141.938 15.695 141.679 16.9394L141.68 16.942Z" fill="white"/>
</svg>
