<?xml version="1.0" encoding="UTF-8"?>
<svg id="a" data-name="Слой 1" xmlns="http://www.w3.org/2000/svg" viewBox="0 0 1080 1080" >
  <g>
    <g>
      <path d="M37.498,608.648l-20.368-.062c-7.584-.023-13.807,6.164-13.83,13.747v.205c-.023,7.583,6.162,13.808,13.747,13.83l20.368,.062c7.583,.022,13.805-6.163,13.829-13.747v-.206c.022-7.584-6.162-13.807-13.745-13.83Z" style="fill: #20519e;"/>
      <path d="M17.087,608.586h.043l20.368,.062c7.584,.023,13.768,6.246,13.745,13.83v.206c-.024,7.571-6.224,13.747-13.788,13.747h-.041l-20.368-.062c-7.585-.022-13.769-6.247-13.747-13.83v-.205c.023-7.57,6.222-13.747,13.787-13.747m0-3.299C7.693,605.287,.029,612.93,0,622.324v.211c-.014,4.543,1.755,8.835,4.98,12.08,3.225,3.245,7.507,5.04,12.057,5.053l20.367,.062h.051c9.393,0,17.058-7.642,17.088-17.035v-.22c.013-4.535-1.755-8.827-4.98-12.072-3.225-3.245-7.506-5.039-12.055-5.053l-20.368-.062h-.053Z" style="fill: #fff;"/>
    </g>
    <g>
      <path d="M70.714,581.081l4.373,.013c7.583,.023,13.806-6.163,13.829-13.746v-.206c.023-7.583-6.162-13.806-13.744-13.829l-4.375-.013c-7.583-.024-13.806,6.161-13.83,13.745v.206c-.023,7.584,6.163,13.808,13.746,13.831Z" style="fill: #20519e;"/>
      <path d="M70.755,553.3h.043l4.375,.013c7.582,.023,13.768,6.246,13.746,13.829v.207c-.024,7.57-6.223,13.747-13.788,13.747h-.043l-4.373-.013c-7.583-.022-13.77-6.247-13.747-13.831v-.206c.025-7.569,6.224-13.745,13.787-13.745m0-3.299c-9.391,0-17.056,7.641-17.086,17.034v.205c-.014,4.551,1.755,8.843,4.98,12.088,3.226,3.245,7.507,5.04,12.056,5.053l4.373,.013h.052c9.393,0,17.057-7.642,17.086-17.036v-.197c.029-9.431-7.613-17.118-17.034-17.147l-4.375-.013h-.053Z" style="fill: #fff;"/>
    </g>
    <g>
      <path d="M49.353,525.451l60.219,.183c7.583,.022,13.807-6.162,13.83-13.745l.002-.207c.023-7.584-6.164-13.806-13.747-13.83l-60.219-.182c-7.583-.022-13.807,6.162-13.83,13.746v.208c-.023,7.583,6.163,13.805,13.747,13.828Z" style="fill: #20519e;"/>
      <path d="M49.396,497.67h.041l60.219,.182c7.583,.024,13.77,6.246,13.747,13.83l-.002,.207c-.023,7.57-6.224,13.745-13.789,13.745h-.041l-60.219-.183c-7.584-.023-13.77-6.245-13.747-13.828v-.208c.023-7.57,6.226-13.746,13.79-13.746m0-3.299c-9.394,0-17.06,7.642-17.089,17.035v.207c-.028,9.422,7.614,17.11,17.036,17.138l60.219,.183h.051c9.394,0,17.06-7.642,17.088-17.035v-.192c.03-9.436-7.612-17.124-17.035-17.154l-60.22-.182h-.051Z" style="fill: #fff;"/>
    </g>
    <g>
      <path d="M120.455,470.103l22.724,.068c7.583,.023,13.805-6.163,13.828-13.747v-.205c.024-7.584-6.161-13.808-13.745-13.831l-22.724-.067c-7.583-.023-13.806,6.163-13.829,13.746v.205c-.024,7.584,6.161,13.808,13.745,13.831Z" style="fill: #20519e;"/>
      <path d="M120.496,442.321h.043l22.724,.067c7.584,.023,13.77,6.247,13.746,13.831v.205c-.023,7.57-6.222,13.747-13.786,13.747h-.043l-22.724-.068c-7.584-.023-13.77-6.247-13.746-13.831v-.205c.023-7.57,6.222-13.746,13.786-13.746m0-3.299c-9.393,0-17.057,7.642-17.085,17.036v.213c-.015,4.541,1.754,8.833,4.979,12.078,3.225,3.245,7.507,5.04,12.056,5.054l22.725,.068h.053c9.392,0,17.056-7.642,17.085-17.036v-.211c.015-4.543-1.753-8.835-4.978-12.08-3.225-3.245-7.506-5.04-12.056-5.054l-22.724-.067h-.053Z" style="fill: #fff;"/>
    </g>
    <g>
      <path d="M976.403,443.239H313.32c-8.342,0-127.08-.719-127.08-.719-7.584-.024-13.806,6.161-13.83,13.745v.206c-.023,7.583,6.162,13.808,13.746,13.831l13.802,.041c7.583,.022,13.767,6.245,13.745,13.828v.207c-.023,7.584-6.247,13.77-13.83,13.747l-47.849-.145c-7.584-.023-13.807,6.162-13.83,13.746v.208c-.023,7.583,6.163,13.805,13.746,13.828l17.38,.052c7.583,.022,13.77,6.246,13.747,13.83l-.002,.205c-.023,7.584-6.246,13.77-13.829,13.746l-52.24-.158c-7.584-.023-13.805,6.163-13.828,13.746v.207c-.024,7.584,6.161,13.807,13.745,13.83l13.326,.041c7.584,.023,13.769,6.245,13.746,13.828v.092c-.023,7.583-6.246,13.769-13.83,13.746l-56.29-.171c-7.584-.023-13.808,6.164-13.83,13.747v.206c-.023,7.583,6.163,13.807,13.746,13.83l227.847,.689c-.443-.086-.878-.194-1.32-.286,4.259,.57,8.597,.892,13.012,.892H976.403c53.736,0,97.298-43.562,97.298-97.298h0c0-53.736-43.562-97.298-97.298-97.298Z" style="fill: #20519e;"/>
      <path d="M186.196,442.52h.044s118.738,.719,127.08,.719H976.403c53.736,0,97.298,43.562,97.298,97.298h0c0,53.736-43.562,97.298-97.298,97.298H313.32c-4.415,0-8.753-.322-13.012-.892,.441,.092,.876,.2,1.32,.286l-227.847-.689c-7.583-.023-13.769-6.247-13.747-13.83v-.206c.023-7.569,6.224-13.748,13.789-13.747h.042l56.29,.171h.042c7.565,0,13.765-6.177,13.788-13.746v-.093c.023-7.583-6.162-13.805-13.746-13.828l-13.326-.041c-7.583-.023-13.769-6.246-13.746-13.83v-.206c.025-7.57,6.222-13.747,13.788-13.746h.041l52.24,.158h.043c7.563,0,13.763-6.177,13.786-13.746l.002-.205c.023-7.584-6.164-13.808-13.747-13.83l-17.38-.052c-7.583-.023-13.769-6.246-13.747-13.828v-.208c.023-7.57,6.224-13.746,13.789-13.746h.042l47.849,.145h.042c7.563,0,13.764-6.177,13.787-13.747v-.207c.023-7.583-6.162-13.806-13.745-13.828l-13.802-.041c-7.583-.023-13.769-6.248-13.745-13.831v-.206c.023-7.57,6.222-13.746,13.786-13.745m.064-3.299h-.064c-9.392,0-17.056,7.641-17.085,17.034v.221c-.014,4.534,1.754,8.827,4.979,12.072,3.225,3.245,7.507,5.04,12.056,5.054l13.802,.041c2.786,.008,5.412,1.111,7.394,3.105,1.982,1.995,3.07,4.628,3.061,7.414v.212c-.018,5.761-4.723,10.452-10.488,10.452h-.042l-47.839-.145h-.052c-9.394,0-17.059,7.642-17.087,17.035v.203c-.028,9.426,7.614,17.114,17.035,17.143l17.38,.052c2.786,.008,5.413,1.111,7.396,3.106,1.983,1.995,3.07,4.628,3.062,7.415v.191c-.019,5.781-4.723,10.472-10.488,10.472h-.043l-52.23-.158h-.051c-9.392,0-17.057,7.641-17.086,17.035v.195c-.015,4.561,1.754,8.853,4.978,12.098,3.225,3.245,7.507,5.04,12.056,5.053l13.326,.041c2.787,.008,5.413,1.111,7.396,3.106,1.983,1.994,3.07,4.627,3.061,7.413v.088c-.018,5.771-4.723,10.461-10.489,10.461h-.042l-56.28-.171h-.052c-9.394-.001-17.06,7.641-17.088,17.036v.207c-.029,9.42,7.613,17.109,17.035,17.138l227.847,.689,.009-.095c3.972,.465,7.898,.701,11.694,.701H976.403c13.579,0,26.754-2.66,39.158-7.907,11.979-5.067,22.737-12.32,31.975-21.558,9.238-9.238,16.491-19.995,21.557-31.975,5.247-12.404,7.907-25.579,7.907-39.158s-2.66-26.754-7.907-39.158c-5.067-11.979-12.32-22.737-21.557-31.975-9.238-9.238-19.995-16.491-31.975-21.557-12.404-5.247-25.579-7.907-39.158-7.907H313.32c-8.237,0-125.873-.712-127.06-.719h0Z" style="fill: #fff;"/>
    </g>
  </g>
  <g>
    <path d="M268.945,538.732c1.774-8.507,4.718-16.493,8.834-23.952,4.116-7.459,9.145-14.057,15.093-19.796,5.947-5.736,13.024-10.275,21.236-13.619,8.21-3.342,16.971-5.016,26.286-5.022,5.977-.002,11.469,.71,16.479,2.135,5.006,1.424,9.127,3.254,12.358,5.486,3.233,2.232,5.926,4.734,8.081,7.507,2.156,2.772,3.597,5.53,4.325,8.277,.729,2.743,.825,5.302,.286,7.672-.804,3.877-2.486,6.88-5.043,9.007-2.557,2.129-5.828,3.194-9.813,3.196-2.1,.002-3.876-.39-5.331-1.169-1.453-.779-2.597-1.802-3.434-3.066-.835-1.265-1.603-2.666-2.303-4.2-.701-1.536-1.524-3.067-2.465-4.603-.944-1.534-2.077-2.933-3.396-4.198s-3.206-2.288-5.655-3.067c-2.451-.777-5.344-1.169-8.682-1.167-5.762,.004-11.295,1.568-16.596,4.695-5.302,3.125-10.039,7.797-14.207,14.018-4.173,6.221-7.143,13.506-8.916,21.852-.967,4.471-1.505,8.644-1.609,12.519-.107,3.877,.273,7.553,1.136,11.026,.862,3.471,2.236,6.446,4.123,8.922,1.885,2.476,4.498,4.426,7.838,5.853,3.338,1.424,7.296,2.136,11.872,2.133,3.929-.002,7.552-.781,10.863-2.346,3.311-1.564,6.096-3.463,8.356-5.699,2.263-2.234,4.386-4.473,6.379-6.707,1.991-2.236,4.104-4.135,6.336-5.697,2.234-1.563,4.536-2.346,6.907-2.346,3.499-.002,6.367,.939,8.601,2.822,2.236,1.885,3.006,4.415,2.305,7.592-1.181,5.709-4.396,11.189-9.642,16.441-5.248,5.254-11.882,9.536-19.904,12.851-8.022,3.315-16.285,4.977-24.793,4.981-18.846,.008-32.296-5.302-40.351-15.932-8.056-10.63-9.909-26.098-5.557-46.399Z" style="fill: #f1f1f1;"/>
    <path d="M469.722,534.271l-8.542,40.55c-.86,3.879-1.207,7.365-1.044,10.462s.163,5.022,.004,5.774c-.539,2.693-2.071,4.914-4.601,6.667-2.53,1.749-5.304,2.626-8.317,2.628-8.886,.004-12.631-4.678-11.235-14.047-10.387,9.373-22.393,14.063-36.015,14.07-7.216,.004-13.087-2.296-17.612-6.897-4.524-4.601-6.01-10.536-4.45-17.806,.806-3.879,2.136-7.325,3.993-10.341,1.854-3.018,3.954-5.507,6.296-7.475,2.342-1.968,5.167-3.638,8.479-5.012,3.309-1.374,6.594-2.426,9.851-3.156,3.257-.729,6.958-1.336,11.107-1.824l15.02-1.62c3.499-.378,6.26-1.175,8.277-2.388,2.019-1.213,3.352-3.405,3.995-6.586,.699-3.282-.219-5.759-2.749-7.429-2.534-1.666-5.979-2.499-10.341-2.497-3.284,.002-6.3,.461-9.043,1.376-2.747,.918-5.022,2.021-6.826,3.315-1.802,1.294-3.471,2.588-5.006,3.879-1.532,1.294-3.135,2.398-4.803,3.313-1.668,.918-3.365,1.374-5.087,1.376-3.016,0-5.292-.898-6.828-2.703-1.534-1.802-2.008-3.968-1.417-6.5,.537-2.476,1.923-4.983,4.156-7.513,2.234-2.534,5.139-4.878,8.721-7.033,3.578-2.154,8.006-3.922,13.283-5.296,5.277-1.374,10.876-2.065,16.8-2.067,12.114-.006,21.242,2.035,27.382,6.125,6.141,4.089,8.325,10.308,6.551,18.652Zm-31.079,32.646l2.014-9.45c-2.046,1.67-5.812,2.939-11.304,3.801l-8.886,1.378c-5.438,.756-9.65,2.052-12.638,3.883-2.987,1.833-4.858,4.498-5.609,7.999-.591,2.801,.165,5.156,2.265,7.066,2.102,1.91,5.171,2.864,9.21,2.862,6.352-.002,11.857-1.743,16.516-5.217,4.653-3.474,7.467-7.582,8.433-12.322Z" style="fill: #f1f1f1;"/>
    <path d="M485.705,536.446c1.017-4.686,3.008-8.834,5.97-12.441,2.96-3.609,6.459-6.438,10.494-8.486,4.039-2.048,8.21-3.57,12.517-4.57,4.307-.996,8.669-1.499,13.086-1.501,6.191-.002,11.926,.749,17.203,2.254,5.279,1.507,9.412,3.686,12.402,6.536,2.991,2.852,4.083,6.056,3.275,9.609-.591,2.962-2.002,5.467-4.236,7.515-2.232,2.048-4.885,3.069-7.955,3.071-1.724,0-3.217-.372-4.482-1.129-1.265-.752-2.357-1.68-3.273-2.783s-1.925-2.206-3.031-3.309c-1.104-1.104-2.664-2.033-4.684-2.785-2.021-.754-4.432-1.129-7.231-1.127-9.208,.004-14.375,2.509-15.504,7.519-.269,1.346-.213,2.492,.163,3.432,.376,.942,1.173,1.735,2.386,2.382,1.211,.645,2.382,1.144,3.513,1.491,1.131,.351,2.799,.768,5.008,1.25l9.613,2.338c1.614,.376,3.094,.766,4.442,1.167,1.346,.405,2.799,.877,4.363,1.413,1.561,.539,2.96,1.117,4.2,1.733,1.238,.62,2.53,1.348,3.879,2.179,1.346,.837,2.449,1.71,3.311,2.624,.862,.916,1.724,1.966,2.586,3.15,.862,1.182,1.442,2.449,1.739,3.795,.296,1.346,.526,2.839,.689,4.482,.163,1.643-.027,3.378-.562,5.21-.967,4.737-2.931,8.995-5.891,12.765-2.96,3.77-6.471,6.799-10.536,9.089-4.064,2.292-8.396,4.033-13.001,5.217-4.601,1.186-9.246,1.781-13.93,1.783-10.932,.006-19.871-2.131-26.818-6.407-6.949-4.277-9.805-9.375-8.571-15.303,.593-2.906,1.91-5.315,3.956-7.229,2.044-1.912,4.684-2.87,7.914-2.872,1.883,0,3.526,.511,4.926,1.532,1.399,1.025,2.639,2.275,3.718,3.755,1.079,1.482,2.263,2.948,3.555,4.4,1.294,1.453,3.125,2.691,5.494,3.714,2.369,1.021,5.198,1.53,8.482,1.53,4.2-.002,7.78-.839,10.742-2.509,2.96-1.67,4.682-3.77,5.166-6.302,.269-1.401,.294-2.559,.079-3.474-.217-.914-1.01-1.749-2.384-2.503-1.372-.752-2.422-1.25-3.152-1.491-.726-.244-2.436-.712-5.127-1.413-.593-.161-1.05-.294-1.374-.401l-13.408-3.467c-2.371-.645-4.484-1.303-6.34-1.975-1.86-.674-3.691-1.518-5.496-2.543-1.804-1.019-3.259-2.15-4.363-3.39-1.104-1.238-2.088-2.73-2.95-4.48-.864-1.749-1.28-3.676-1.255-5.776,.027-2.1,.253-4.522,.685-7.267Z" style="fill: #f1f1f1;"/>
    <path d="M566.888,588.178l21.031-99.273c.806-3.877,2.528-6.855,5.166-8.928,2.637-2.073,5.812-3.114,9.529-3.115,3.716-.002,6.423,1.037,8.12,3.106,1.697,2.073,2.142,5.048,1.336,8.926l-7.01,33.279,.405-.002c8.287-8.511,18.138-12.769,29.555-12.775,2.53-.002,4.926,.213,7.189,.643,2.261,.43,4.469,1.142,6.622,2.136,2.154,.996,3.985,2.3,5.494,3.914,1.509,1.616,2.789,3.593,3.841,5.935,1.052,2.342,1.589,5.089,1.618,8.239s-.332,6.772-1.085,10.863l-9.911,47.012c-1.827,8.077-6.726,12.118-14.694,12.122-8.131,.004-11.283-4.033-9.456-12.109l8.943-42.167c1.075-5.116,.63-9.181-1.338-12.195-1.968-3.016-5.453-4.521-10.462-4.519-4.576,.002-9.141,1.756-13.688,5.258-4.549,3.503-7.413,8.108-8.594,13.815l-8.461,39.823c-1.827,8.077-6.726,12.118-14.694,12.122-8.131,.004-11.283-4.033-9.456-12.11Z" style="fill: #f1f1f1;"/>
    <path d="M737.273,536.323l12.368,19.378c.697-.86,2.125-2.789,4.277-5.778,2.152-2.989,3.766-5.048,4.843-6.181,3.231-3.394,6.43-5.091,9.609-5.093,2.745-.002,5.02,.927,6.826,2.781,1.804,1.858,2.438,4.079,1.902,6.665-.539,2.801-2.557,6.448-6.054,10.945-3.495,4.499-7.1,8.229-10.817,11.193l7.275,11.869c1.186,1.939,1.536,4.146,1.054,6.622-.591,2.747-2.248,5.169-4.964,7.271-2.72,2.102-5.908,3.154-9.569,3.156-1.724,0-3.11-.378-4.162-1.129-1.05-.752-2.113-1.91-3.192-3.472l-5.576-8.801c-12.11,9.646-25.947,14.47-41.506,14.477-4.2,.004-8.024-.438-11.469-1.326-3.449-.887-6.317-2.11-8.603-3.67-2.292-1.561-4.271-3.39-5.941-5.49-1.67-2.098-2.843-4.373-3.517-6.822-.674-2.449-1.092-5.008-1.255-7.674-.163-2.664,.104-5.315,.804-7.955,1.718-8.346,5.551-15.521,11.498-21.532,5.945-6.004,13.306-10.949,22.082-14.83-.862-1.344-1.589-2.503-2.183-3.472s-1.225-2.112-1.9-3.43c-.674-1.319-1.198-2.57-1.576-3.757-.378-1.182-.701-2.49-.969-3.916-.273-1.426-.38-2.895-.328-4.403,.054-1.507,.269-3.069,.645-4.684,1.29-6.139,3.952-11.483,7.989-16.036,4.035-4.551,8.759-7.932,14.17-10.145,5.409-2.209,11.13-3.315,17.161-3.319,3.607-.002,6.907,.307,9.895,.925s5.519,1.478,7.594,2.58c2.071,1.104,3.862,2.409,5.373,3.914,1.507,1.509,2.678,3.11,3.515,4.805,.835,1.695,1.457,3.499,1.86,5.411,.405,1.912,.593,3.783,.57,5.613-.029,1.831-.228,3.662-.605,5.492-1.342,6.356-4.49,12.158-9.442,17.41-4.951,5.254-10.845,9.389-17.681,12.408Zm-6.444,34.894l-16.247-25.595c-5.868,2.964-10.536,5.995-14.009,9.093-3.472,3.098-5.638,6.615-6.498,10.544-1.021,4.793-.386,8.671,1.904,11.629,2.29,2.962,5.91,4.44,10.865,4.438,3.177-.002,6.381-.595,9.613-1.783,3.229-1.184,5.799-2.384,7.711-3.597,1.908-1.211,4.129-2.789,6.661-4.728Zm-11.824-65.983c-.215,1.133-.322,2.236-.321,3.313,0,1.079,.067,2.033,.202,2.868,.134,.833,.405,1.695,.81,2.582,.403,.889,.793,1.657,1.171,2.303,.378,.645,.931,1.386,1.657,2.221,.728,.833,1.346,1.52,1.86,2.058,.511,.537,1.225,1.265,2.14,2.181,1.939-1.025,3.298-1.766,4.079-2.223,.777-.459,2.085-1.307,3.916-2.547,1.829-1.24,3.215-2.371,4.158-3.396,.941-1.023,1.921-2.342,2.945-3.958s1.722-3.313,2.098-5.091c.591-3.014-.071-5.586-1.981-7.711-1.914-2.127-4.62-3.188-8.12-3.186-3.555,.002-6.718,1.012-9.488,3.033-2.774,2.021-4.48,4.538-5.125,7.553Z" style="fill: #ed7016;"/>
    <path d="M905.746,546.174l-9.588,44.829c-.484,2.532-1.802,4.688-3.956,6.465-2.152,1.778-4.574,2.666-7.267,2.668-3.714,.002-6.112-1.167-7.189-3.509-1.081-2.342-1.459-6.313-1.136-11.915-10.872,10.723-23.82,16.086-38.842,16.093-6.839,.004-12.965-.749-18.378-2.252-5.411-1.505-9.907-3.659-13.491-6.457-3.582-2.797-6.546-6.093-8.889-9.888-2.344-3.797-3.962-8.035-4.853-12.719-.889-4.684-1.255-9.598-1.098-14.74,.161-5.141,.831-10.567,2.012-16.274,4.137-19.71,12.999-35.034,26.591-45.971,13.59-10.938,29.807-16.412,48.655-16.422,5.761-.002,11.064,.643,15.913,1.931,4.845,1.292,8.816,2.973,11.915,5.043,3.098,2.071,5.668,4.388,7.717,6.943,2.046,2.557,3.421,5.1,4.123,7.63,.701,2.532,.837,4.874,.409,7.027-.486,2.261-1.278,4.2-2.382,5.816s-2.394,2.841-3.874,3.678c-1.482,.835-2.948,1.44-4.402,1.818-1.453,.378-2.987,.568-4.603,.568-1.776,0-3.273-.334-4.484-1.008s-2.181-1.559-2.908-2.664c-.728-1.102-1.415-2.328-2.062-3.674-.647-1.344-1.468-2.676-2.465-3.996-.998-1.319-2.211-2.528-3.638-3.632-1.428-1.104-3.448-1.991-6.058-2.662-2.613-.672-5.722-1.008-9.329-1.006-4.793,.002-9.342,.812-13.65,2.428-4.307,1.62-8.344,4.085-12.112,7.398-3.766,3.313-7.102,7.73-10.007,13.251-2.906,5.523-5.137,11.943-6.693,19.267-2.526,12.062-1.647,21.7,2.637,28.914,4.284,7.214,11.838,10.817,22.662,10.811,7.321-.004,14.199-2.28,20.631-6.836,6.432-4.553,10.696-10.383,12.794-17.491l-17.687,.008c-1.563,.002-2.977-.159-4.244-.484-1.265-.321-2.463-.871-3.593-1.653-1.131-.777-1.845-1.843-2.142-3.188-.296-1.346-.284-3.042,.038-5.089,.645-3.284,2.083-5.843,4.317-7.674,2.232-1.833,5.046-2.751,8.438-2.751l33.358-.017c3.876-.002,6.502,.939,7.876,2.824,1.374,1.885,1.685,4.739,.933,8.561Z" style="fill: #f1f1f1;"/>
    <path d="M921.085,554.567c1.344-6.407,3.576-12.347,6.697-17.813,3.117-5.467,6.953-10.262,11.502-14.383,4.547-4.121,9.916-7.338,16.109-9.659,6.189-2.317,12.84-3.478,19.948-3.482,5.707-.002,10.822,.749,15.345,2.254,4.526,1.507,8.227,3.618,11.11,6.335,2.881,2.72,5.198,5.976,6.949,9.77,1.753,3.795,2.71,7.955,2.875,12.477,.163,4.522-.238,9.342-1.205,14.458-1.342,6.3-3.375,12.091-6.089,17.368-2.718,5.279-6.229,10.072-10.534,14.381s-9.675,7.692-16.107,10.145c-6.432,2.453-13.635,3.682-21.603,3.686-5.386,.002-10.177-.559-14.379-1.689-4.2-1.129-7.688-2.714-10.462-4.76-2.774-2.044-5.077-4.451-6.91-7.225-1.831-2.77-3.098-5.88-3.799-9.327-.703-3.446-1.002-7.026-.895-10.742,.106-3.714,.587-7.646,1.447-11.792Zm24.15-.012c-.914,3.662-1.275,7.162-1.085,10.5,.19,3.338,.799,6.273,1.822,8.803,1.023,2.53,2.72,4.549,5.093,6.054,2.369,1.509,5.302,2.259,8.803,2.257,6.786-.004,12.45-2.616,16.998-7.841,4.547-5.225,7.68-11.822,9.4-19.794,1.72-8.292,1.378-14.942-1.019-19.948-2.398-5.008-6.964-7.509-13.694-7.505-6.784,.004-12.437,2.522-16.957,7.559-4.521,5.039-7.64,11.675-9.36,19.915Z" style="fill: #f1f1f1;"/>
  </g>
</svg>