<svg width="92" height="92" viewBox="0 0 92 92" fill="none" xmlns="http://www.w3.org/2000/svg">
<g clip-path="url(#clip0_99_1359)">
<path d="M50.031 41.8338V36.2305C50.031 35.4865 49.4274 34.8828 48.6834 34.8828H23.6682C22.9235 34.8828 22.3206 35.4865 22.3206 36.2305V41.8338C22.3206 42.5778 22.9235 43.1814 23.6682 43.1814H48.6834C49.4274 43.1814 50.031 42.5785 50.031 41.8338ZM47.3357 40.4861H25.0159V37.5781H47.3357V40.4861Z" fill="black"/>
<path d="M51.199 78.0396H68.5901C69.3341 78.0396 69.9377 77.4359 69.9377 76.6919V71.0879C69.9377 70.3439 69.3341 69.7402 68.5901 69.7402H51.199C50.4543 69.7402 49.8513 70.3439 49.8513 71.0879V76.6919C49.8513 77.4359 50.4543 78.0396 51.199 78.0396ZM52.5466 72.4355H67.2424V75.3442H52.5466V72.4355Z" fill="black"/>
<path d="M68.5901 26.7188H23.6682C22.9235 26.7188 22.3206 27.3224 22.3206 28.0664C22.3206 28.8111 22.9235 29.4141 23.6682 29.4141H68.5901C69.3341 29.4141 69.9377 28.8111 69.9377 28.0664C69.9377 27.3224 69.3341 26.7188 68.5901 26.7188Z" fill="black"/>
<path d="M39.9685 49.0898C39.9685 48.3458 39.3649 47.7422 38.6209 47.7422H23.6682C22.9235 47.7422 22.3206 48.3458 22.3206 49.0898C22.3206 49.8346 22.9235 50.4375 23.6682 50.4375H38.6209C39.3649 50.4375 39.9685 49.8346 39.9685 49.0898Z" fill="black"/>
<path d="M36.1754 54.541H23.6682C22.9235 54.541 22.3206 55.144 22.3206 55.8887C22.3206 56.6327 22.9235 57.2363 23.6682 57.2363H36.1754C36.9202 57.2363 37.5231 56.6327 37.5231 55.8887C37.5231 55.144 36.9202 54.541 36.1754 54.541Z" fill="black"/>
<path d="M36.1754 61.3389H23.6682C22.9235 61.3389 22.3206 61.9425 22.3206 62.6865C22.3206 63.4312 22.9235 64.0342 23.6682 64.0342H36.1754C36.9202 64.0342 37.5231 63.4312 37.5231 62.6865C37.5231 61.9425 36.9202 61.3389 36.1754 61.3389Z" fill="black"/>
<path d="M68.5901 61.3389H62.3362C61.5915 61.3389 60.9885 61.9425 60.9885 62.6865C60.9885 63.4312 61.5915 64.0342 62.3362 64.0342H68.5901C69.3342 64.0342 69.9378 63.4312 69.9378 62.6865C69.9378 61.9425 69.3342 61.3389 68.5901 61.3389Z" fill="black"/>
<path d="M68.5901 54.541H62.3362C61.5915 54.541 60.9885 55.1447 60.9885 55.8887C60.9885 56.6327 61.5915 57.2363 62.3362 57.2363H68.5901C69.3342 57.2363 69.9378 56.6327 69.9378 55.8887C69.9378 55.1447 69.3342 54.541 68.5901 54.541Z" fill="black"/>
<path d="M68.5901 47.7422H62.3362C61.5915 47.7422 60.9885 48.3458 60.9885 49.0898C60.9885 49.8346 61.5915 50.4375 62.3362 50.4375H68.5901C69.3342 50.4375 69.9378 49.8346 69.9378 49.0898C69.9378 48.3458 69.3342 47.7422 68.5901 47.7422Z" fill="black"/>
<path d="M74.0193 31.7029C74.7633 31.7029 75.367 31.0993 75.367 30.3553V1.34766C75.367 0.603638 74.7633 0 74.0193 0C69.7475 0 69.3896 5.39062 67.0452 5.39062C64.7022 5.39062 64.3485 0 60.0718 0C55.8014 0 55.442 5.39062 53.0998 5.39062C50.7491 5.39062 50.4108 0 46.1263 0C41.856 0 41.4973 5.39062 39.1543 5.39062C36.8149 5.39062 36.4548 0 32.1823 0C27.9112 0 27.5533 5.39062 25.2103 5.39062C22.8596 5.39062 22.5234 0 18.2383 0C17.4936 0 16.8906 0.603638 16.8906 1.34766V90.6523C16.8906 91.3964 17.4936 92 18.2383 92C22.5094 92 22.868 86.6094 25.2103 86.6094C27.5603 86.6094 27.8979 92 32.1823 92C36.4527 92 36.8114 86.6094 39.1543 86.6094C41.505 86.6094 41.8426 92 46.1263 92C50.3974 92 50.7568 86.6094 53.0998 86.6094C55.4504 86.6094 55.7874 92 60.0718 92C64.3436 92 64.7015 86.6094 67.0452 86.6094C69.3889 86.6094 69.7426 92 74.0193 92C74.7633 92 75.367 91.3964 75.367 90.6523V35.3865C75.367 34.6418 74.7633 34.0388 74.0193 34.0388C73.2746 34.0388 72.6717 34.6418 72.6717 35.3865V88.6245C71.3261 87.1372 70.3456 83.9141 67.0452 83.9141C62.7741 83.9141 62.4161 89.3047 60.0718 89.3047C57.7323 89.3047 57.3723 83.9141 53.0998 83.9141C48.8287 83.9141 48.4693 89.3047 46.1263 89.3047C43.7764 89.3047 43.4388 83.9141 39.1543 83.9141C34.8832 83.9141 34.5246 89.3047 32.1823 89.3047C29.8309 89.3047 29.4947 83.9141 25.2103 83.9141C21.912 83.9141 20.9322 87.1351 19.5859 88.6238V3.37616C20.9294 4.86209 21.9113 8.08594 25.211 8.08594C29.4814 8.08594 29.8401 2.69531 32.1823 2.69531C34.5337 2.69531 34.8699 8.08594 39.1543 8.08594C43.4254 8.08594 43.7841 2.69531 46.127 2.69531C48.4777 2.69531 48.8153 8.08594 53.0998 8.08594C57.3708 8.08594 57.7288 2.69531 60.0725 2.69531C62.4161 2.69531 62.7699 8.08594 67.0459 8.08594C70.3456 8.08594 71.3268 4.86279 72.6717 3.37546V30.3553C72.6717 31.0993 73.2746 31.7029 74.0193 31.7029Z" fill="black"/>
<path d="M69.9377 15.3086C69.9377 14.5646 69.3341 13.9609 68.5901 13.9609H36.1754C35.4307 13.9609 34.8278 14.5646 34.8278 15.3086C34.8278 16.0533 35.4307 16.6562 36.1754 16.6562H67.2424V19.5649H25.0159V16.6562H31.1442C31.8889 16.6562 32.4919 16.0533 32.4919 15.3086C32.4919 14.5646 31.8889 13.9609 31.1442 13.9609H23.6682C22.9235 13.9609 22.3206 14.5646 22.3206 15.3086V20.9126C22.3206 21.6566 22.9235 22.2603 23.6682 22.2603H68.5901C69.3341 22.2603 69.9377 21.6566 69.9377 20.9126V15.3086Z" fill="black"/>
</g>
<defs>
<clipPath id="clip0_99_1359">
<rect width="92" height="92" fill="white"/>
</clipPath>
</defs>
</svg>
