<svg width="530" height="86" viewBox="0 0 530 86" fill="none" xmlns="http://www.w3.org/2000/svg">
<rect y="42" width="530" height="44" fill="#F87000"/>
<path d="M27.7216 7.81818V34H20.7159V13.4432H11.8693V34H4.86364V7.81818H27.7216ZM57.6332 20.9091C57.6332 23.8239 57.0664 26.2827 55.9329 28.2855C54.7994 30.2798 53.2695 31.7926 51.3434 32.8239C49.4173 33.8466 47.2695 34.358 44.9002 34.358C42.5138 34.358 40.3576 33.8423 38.4315 32.8111C36.5138 31.7713 34.9883 30.2543 33.8548 28.2599C32.7298 26.2571 32.1673 23.8068 32.1673 20.9091C32.1673 17.9943 32.7298 15.5398 33.8548 13.5455C34.9883 11.5426 36.5138 10.0298 38.4315 9.0071C40.3576 7.97585 42.5138 7.46023 44.9002 7.46023C47.2695 7.46023 49.4173 7.97585 51.3434 9.0071C53.2695 10.0298 54.7994 11.5426 55.9329 13.5455C57.0664 15.5398 57.6332 17.9943 57.6332 20.9091ZM50.3207 20.9091C50.3207 19.3409 50.1119 18.0199 49.6942 16.946C49.2852 15.8636 48.6758 15.0455 47.8661 14.4915C47.065 13.929 46.0763 13.6477 44.9002 13.6477C43.7241 13.6477 42.7312 13.929 41.9215 14.4915C41.1204 15.0455 40.511 15.8636 40.0934 16.946C39.6843 18.0199 39.4798 19.3409 39.4798 20.9091C39.4798 22.4773 39.6843 23.8026 40.0934 24.8849C40.511 25.9588 41.1204 26.777 41.9215 27.3395C42.7312 27.8935 43.7241 28.1705 44.9002 28.1705C46.0763 28.1705 47.065 27.8935 47.8661 27.3395C48.6758 26.777 49.2852 25.9588 49.6942 24.8849C50.1119 23.8026 50.3207 22.4773 50.3207 20.9091ZM60.0526 34V28.5284L60.7685 28.4261C61.6378 28.2898 62.358 27.9148 62.929 27.3011C63.5085 26.679 63.9517 25.6946 64.2585 24.348C64.5739 22.9929 64.7741 21.1477 64.8594 18.8125L65.2685 7.81818H84.2401V34H77.3878V13.3409H71.8139L71.4048 21.5739C71.2514 24.625 70.8423 27.0582 70.1776 28.8736C69.5128 30.6889 68.5028 31.9972 67.1477 32.7983C65.7926 33.5994 64.0071 34 61.7912 34H60.0526ZM91.3896 34.358V28.8352H92.668C93.418 28.8352 94.0103 28.7756 94.445 28.6562C94.8881 28.5284 95.229 28.3068 95.4677 27.9915C95.7148 27.6676 95.9237 27.2159 96.0941 26.6364L96.3498 25.8693L86.5316 7.81818H93.793L99.2646 18.4545L103.458 7.81818H110.617L101.617 28.2727C101.123 29.3466 100.534 30.348 99.8526 31.277C99.1708 32.1974 98.3228 32.9432 97.3086 33.5142C96.2944 34.0767 95.0373 34.358 93.5373 34.358H91.3896ZM114.503 7.81818H121.355V16.0511C121.355 16.8693 121.496 17.5384 121.777 18.0582C122.067 18.5781 122.549 18.9616 123.222 19.2088C123.904 19.456 124.833 19.5795 126.009 19.5795C126.222 19.5795 126.567 19.5753 127.044 19.5668C127.53 19.5497 128.054 19.5284 128.617 19.5028C129.179 19.4687 129.695 19.4304 130.164 19.3878C130.641 19.3366 130.978 19.2812 131.174 19.2216V24.5909C130.952 24.6676 130.586 24.7358 130.074 24.7955C129.563 24.8466 129.013 24.8935 128.425 24.9361C127.846 24.9702 127.326 25 126.865 25.0256C126.405 25.0426 126.12 25.0511 126.009 25.0511C123.708 25.0511 121.692 24.723 119.962 24.0668C118.232 23.4105 116.89 22.4176 115.935 21.0881C114.98 19.7585 114.503 18.0795 114.503 16.0511V7.81818ZM129.844 7.81818H136.748V34H129.844V7.81818ZM141.641 34V7.81818H160.51V13.5455H148.749V18.0455H159.538V23.7727H148.749V28.2727H160.459V34H141.641ZM164.035 34V7.81818H171.143V18.0455H180.552V7.81818H187.66V34H180.552V23.7727H171.143V34H164.035ZM191.035 7.81818H198.143V21.5227H198.348L207.654 7.81818H213.689V34H206.581V20.2443H206.427L196.967 34H191.035V7.81818ZM217.051 34V7.81818H235.92V13.5455H224.159V18.0455H234.949V23.7727H224.159V28.2727H235.869V34H217.051ZM246.617 34V7.81818H253.725V18.0455H263.134V7.81818H270.242V34H263.134V23.7727H253.725V34H246.617ZM280.418 34H272.748L281.39 7.81818H291.106L299.748 34H292.077L286.35 15.0284H286.146L280.418 34ZM278.987 23.6705H293.407V28.9886H278.987V23.6705ZM301.4 34V28.5284L302.116 28.4261C302.985 28.2898 303.706 27.9148 304.277 27.3011C304.856 26.679 305.299 25.6946 305.606 24.348C305.922 22.9929 306.122 21.1477 306.207 18.8125L306.616 7.81818H325.588V34H318.735V13.3409H313.162L312.752 21.5739C312.599 24.625 312.19 27.0582 311.525 28.8736C310.86 30.6889 309.85 31.9972 308.495 32.7983C307.14 33.5994 305.355 34 303.139 34H301.4ZM328.953 7.81818H336.061V21.5227H336.266L345.572 7.81818H351.607V34H344.499V20.2443H344.345L334.885 34H328.953V7.81818ZM356.554 7.81818H363.406V16.0511C363.406 16.8693 363.547 17.5384 363.828 18.0582C364.118 18.5781 364.599 18.9616 365.273 19.2088C365.955 19.456 366.884 19.5795 368.06 19.5795C368.273 19.5795 368.618 19.5753 369.095 19.5668C369.581 19.5497 370.105 19.5284 370.668 19.5028C371.23 19.4687 371.746 19.4304 372.214 19.3878C372.692 19.3366 373.028 19.2812 373.224 19.2216V24.5909C373.003 24.6676 372.636 24.7358 372.125 24.7955C371.614 24.8466 371.064 24.8935 370.476 24.9361C369.896 24.9702 369.376 25 368.916 25.0256C368.456 25.0426 368.17 25.0511 368.06 25.0511C365.759 25.0511 363.743 24.723 362.013 24.0668C360.283 23.4105 358.94 22.4176 357.986 21.0881C357.031 19.7585 356.554 18.0795 356.554 16.0511V7.81818ZM371.895 7.81818H378.798V34H371.895V7.81818ZM383.691 34V7.81818H390.799V18.0455H400.208V7.81818H407.316V34H400.208V23.7727H390.799V34H383.691ZM415.191 16.6136H420.612C422.819 16.6136 424.745 16.9673 426.39 17.6747C428.044 18.3821 429.326 19.3793 430.238 20.6662C431.159 21.9531 431.615 23.4659 431.606 25.2045C431.615 26.9432 431.159 28.473 430.238 29.794C429.326 31.1151 428.044 32.1463 426.39 32.8878C424.745 33.6293 422.819 34 420.612 34H410.845V7.81818H417.953V28.4261H420.612C421.473 28.4261 422.193 28.2855 422.772 28.0043C423.36 27.723 423.804 27.3352 424.102 26.8409C424.409 26.3466 424.558 25.7841 424.549 25.1534C424.558 24.2585 424.225 23.517 423.552 22.929C422.879 22.3324 421.899 22.0341 420.612 22.0341H415.191V16.6136ZM440.555 7.81818V34H433.447V7.81818H440.555ZM451.533 7.81818L455.829 15.4375H456.033L460.38 7.81818H468.306L460.482 20.9091L468.613 34H460.482L456.033 26.2273H455.829L451.38 34H443.3L451.329 20.9091L443.556 7.81818H451.533Z" fill="#0E1111"/>
<path d="M10.8594 76V49.8182H22.2116C24.206 49.8182 25.8807 50.0866 27.2358 50.6236C28.5994 51.1605 29.6264 51.919 30.3168 52.8991C31.0156 53.8793 31.3651 55.0341 31.3651 56.3636C31.3651 57.3267 31.152 58.2045 30.7259 58.9972C30.3082 59.7898 29.7202 60.4545 28.9616 60.9915C28.2031 61.5199 27.3168 61.8864 26.3026 62.0909V62.3466C27.4276 62.3892 28.4503 62.6747 29.3707 63.2031C30.2912 63.723 31.0241 64.4432 31.5696 65.3636C32.1151 66.2756 32.3878 67.3494 32.3878 68.5852C32.3878 70.017 32.0128 71.2912 31.2628 72.4077C30.5213 73.5241 29.4645 74.402 28.0923 75.0412C26.7202 75.6804 25.0838 76 23.1832 76H10.8594ZM17.9673 70.3239H21.2912C22.4844 70.3239 23.3793 70.1023 23.9759 69.6591C24.5724 69.2074 24.8707 68.5426 24.8707 67.6648C24.8707 67.0511 24.7301 66.5312 24.4489 66.1051C24.1676 65.679 23.767 65.3551 23.2472 65.1335C22.7358 64.9119 22.1179 64.8011 21.3935 64.8011H17.9673V70.3239ZM17.9673 60.4034H20.8821C21.5043 60.4034 22.054 60.3054 22.5312 60.1094C23.0085 59.9134 23.3793 59.6321 23.6435 59.2656C23.9162 58.8906 24.0526 58.4347 24.0526 57.8977C24.0526 57.0881 23.7628 56.4702 23.1832 56.044C22.6037 55.6094 21.8707 55.392 20.9844 55.392H17.9673V60.4034ZM67.4418 62.9091C67.4418 65.8239 66.875 68.2827 65.7415 70.2855C64.608 72.2798 63.0781 73.7926 61.152 74.8239C59.2259 75.8466 57.0781 76.358 54.7088 76.358C52.3224 76.358 50.1662 75.8423 48.2401 74.8111C46.3224 73.7713 44.7969 72.2543 43.6634 70.2599C42.5384 68.2571 41.9759 65.8068 41.9759 62.9091C41.9759 59.9943 42.5384 57.5398 43.6634 55.5455C44.7969 53.5426 46.3224 52.0298 48.2401 51.0071C50.1662 49.9759 52.3224 49.4602 54.7088 49.4602C57.0781 49.4602 59.2259 49.9759 61.152 51.0071C63.0781 52.0298 64.608 53.5426 65.7415 55.5455C66.875 57.5398 67.4418 59.9943 67.4418 62.9091ZM60.1293 62.9091C60.1293 61.3409 59.9205 60.0199 59.5028 58.946C59.0938 57.8636 58.4844 57.0455 57.6747 56.4915C56.8736 55.929 55.8849 55.6477 54.7088 55.6477C53.5327 55.6477 52.5398 55.929 51.7301 56.4915C50.929 57.0455 50.3196 57.8636 49.902 58.946C49.4929 60.0199 49.2884 61.3409 49.2884 62.9091C49.2884 64.4773 49.4929 65.8026 49.902 66.8849C50.3196 67.9588 50.929 68.777 51.7301 69.3395C52.5398 69.8935 53.5327 70.1705 54.7088 70.1705C55.8849 70.1705 56.8736 69.8935 57.6747 69.3395C58.4844 68.777 59.0938 67.9588 59.5028 66.8849C59.9205 65.8026 60.1293 64.4773 60.1293 62.9091ZM81.9805 52.4261H88.9862C91.185 52.4261 93.1325 52.8736 94.8285 53.7685C96.533 54.6634 97.8668 55.9332 98.8299 57.5781C99.8015 59.223 100.287 61.1705 100.287 63.4205C100.287 65.5511 99.8015 67.3963 98.8299 68.956C97.8668 70.5156 96.533 71.7216 94.8285 72.5739C93.1325 73.4261 91.185 73.8523 88.9862 73.8523H81.9805C79.7646 73.8523 77.8001 73.4304 76.087 72.5866C74.3825 71.7429 73.0444 70.5369 72.0728 68.9688C71.1097 67.4006 70.6282 65.5341 70.6282 63.3693C70.6282 61.1193 71.1183 59.1761 72.0984 57.5398C73.087 55.9034 74.4336 54.642 76.1381 53.7557C77.8512 52.8693 79.7987 52.4261 81.9805 52.4261ZM81.9805 58.2557C81.0941 58.2557 80.2759 58.4219 79.5259 58.7543C78.7844 59.0866 78.1879 59.6278 77.7362 60.3778C77.293 61.1278 77.0714 62.125 77.0714 63.3693C77.0714 64.5114 77.3015 65.4233 77.7617 66.1051C78.2305 66.7869 78.8356 67.277 79.5771 67.5753C80.3271 67.8736 81.1282 68.0227 81.9805 68.0227H89.0373C89.9066 68.0227 90.6992 67.8693 91.4151 67.5625C92.1396 67.2472 92.7148 66.7528 93.141 66.0795C93.5756 65.3977 93.793 64.5114 93.793 63.4205C93.793 62.1761 93.5756 61.1747 93.141 60.4162C92.7148 59.6577 92.1396 59.108 91.4151 58.767C90.6992 58.4261 89.9066 58.2557 89.0373 58.2557H81.9805ZM88.7816 49.358V77.0739H82.1339V49.358H88.7816ZM103.566 49.8182H110.674V63.5227H110.879L120.186 49.8182H126.22V76H119.112V62.2443H118.958L109.498 76H103.566V49.8182ZM154.025 59.6364H146.815C146.764 59.0398 146.627 58.4986 146.406 58.0128C146.193 57.527 145.895 57.1094 145.511 56.7599C145.136 56.402 144.68 56.1293 144.143 55.9418C143.606 55.7457 142.997 55.6477 142.315 55.6477C141.122 55.6477 140.112 55.9375 139.285 56.517C138.467 57.0966 137.845 57.9276 137.419 59.0099C137.001 60.0923 136.792 61.392 136.792 62.9091C136.792 64.5114 137.005 65.8537 137.431 66.9361C137.866 68.0099 138.493 68.8196 139.311 69.3651C140.129 69.902 141.113 70.1705 142.264 70.1705C142.92 70.1705 143.508 70.0895 144.028 69.9276C144.548 69.7571 145 69.5142 145.383 69.1989C145.767 68.8835 146.078 68.5043 146.316 68.0611C146.564 67.6094 146.73 67.1023 146.815 66.5398L154.025 66.5909C153.94 67.6989 153.629 68.8281 153.092 69.9787C152.555 71.1207 151.792 72.1776 150.804 73.1491C149.824 74.1122 148.609 74.8878 147.16 75.4759C145.711 76.0639 144.028 76.358 142.11 76.358C139.707 76.358 137.551 75.8423 135.642 74.8111C133.741 73.7798 132.237 72.2628 131.129 70.2599C130.029 68.2571 129.48 65.8068 129.48 62.9091C129.48 59.9943 130.042 57.5398 131.167 55.5455C132.292 53.5426 133.809 52.0298 135.718 51.0071C137.627 49.9759 139.758 49.4602 142.11 49.4602C143.764 49.4602 145.285 49.6861 146.674 50.1378C148.064 50.5895 149.282 51.25 150.331 52.1193C151.379 52.9801 152.223 54.0412 152.862 55.3026C153.501 56.5639 153.889 58.0085 154.025 59.6364ZM157.25 76V49.8182H176.119V55.5455H164.358V60.0455H175.148V65.7727H164.358V70.2727H176.068V76H157.25ZM188.197 62.9091C188.197 59.7642 188.623 56.8707 189.475 54.2287C190.336 51.5866 191.7 49.1278 193.566 46.8523H200.47C199.771 47.696 199.119 48.723 198.514 49.9332C197.917 51.1349 197.397 52.4517 196.954 53.8835C196.52 55.3153 196.179 56.8026 195.931 58.3452C195.684 59.8793 195.561 61.4006 195.561 62.9091C195.561 64.9205 195.774 66.9489 196.2 68.9943C196.626 71.0312 197.21 72.9233 197.951 74.6705C198.693 76.4091 199.532 77.8409 200.47 78.9659H193.566C191.7 76.6903 190.336 74.2315 189.475 71.5895C188.623 68.9474 188.197 66.054 188.197 62.9091ZM202.672 76V49.8182H213.973C215.916 49.8182 217.616 50.2017 219.074 50.9688C220.531 51.7358 221.665 52.8139 222.474 54.2031C223.284 55.5923 223.689 57.2159 223.689 59.0739C223.689 60.9489 223.271 62.5724 222.436 63.9446C221.609 65.3168 220.446 66.3736 218.946 67.1151C217.455 67.8565 215.712 68.2273 213.717 68.2273H206.967V62.7045H212.286C213.121 62.7045 213.832 62.5597 214.42 62.2699C215.017 61.9716 215.473 61.5497 215.788 61.0043C216.112 60.4588 216.274 59.8153 216.274 59.0739C216.274 58.3239 216.112 57.6847 215.788 57.1562C215.473 56.6193 215.017 56.2102 214.42 55.929C213.832 55.6392 213.121 55.4943 212.286 55.4943H209.78V76H202.672ZM229.828 76H222.158L230.8 49.8182H240.516L249.158 76H241.488L235.76 57.0284H235.556L229.828 76ZM228.397 65.6705H242.817V70.9886H228.397V65.6705ZM251.68 49.8182H258.788V63.5227H258.992L268.299 49.8182H274.333V76H267.225V62.2443H267.072L257.612 76H251.68V49.8182ZM265.589 42.7614H270.038C270.029 44.4233 269.394 45.7528 268.133 46.75C266.871 47.7386 265.171 48.233 263.032 48.233C260.876 48.233 259.167 47.7386 257.906 46.75C256.644 45.7528 256.018 44.4233 256.026 42.7614H260.424C260.415 43.2983 260.607 43.7926 260.999 44.2443C261.4 44.6875 262.077 44.9091 263.032 44.9091C263.944 44.9091 264.596 44.6918 264.988 44.2571C265.38 43.8224 265.58 43.3239 265.589 42.7614ZM303.059 62.9091C303.059 65.8239 302.492 68.2827 301.359 70.2855C300.225 72.2798 298.695 73.7926 296.769 74.8239C294.843 75.8466 292.695 76.358 290.326 76.358C287.94 76.358 285.783 75.8423 283.857 74.8111C281.94 73.7713 280.414 72.2543 279.281 70.2599C278.156 68.2571 277.593 65.8068 277.593 62.9091C277.593 59.9943 278.156 57.5398 279.281 55.5455C280.414 53.5426 281.94 52.0298 283.857 51.0071C285.783 49.9759 287.94 49.4602 290.326 49.4602C292.695 49.4602 294.843 49.9759 296.769 51.0071C298.695 52.0298 300.225 53.5426 301.359 55.5455C302.492 57.5398 303.059 59.9943 303.059 62.9091ZM295.746 62.9091C295.746 61.3409 295.538 60.0199 295.12 58.946C294.711 57.8636 294.102 57.0455 293.292 56.4915C292.491 55.929 291.502 55.6477 290.326 55.6477C289.15 55.6477 288.157 55.929 287.347 56.4915C286.546 57.0455 285.937 57.8636 285.519 58.946C285.11 60.0199 284.906 61.3409 284.906 62.9091C284.906 64.4773 285.11 65.8026 285.519 66.8849C285.937 67.9588 286.546 68.777 287.347 69.3395C288.157 69.8935 289.15 70.1705 290.326 70.1705C291.502 70.1705 292.491 69.8935 293.292 69.3395C294.102 68.777 294.711 67.9588 295.12 66.8849C295.538 65.8026 295.746 64.4773 295.746 62.9091ZM306.348 76V49.8182H313.456V60.0455H322.865V49.8182H329.973V76H322.865V65.7727H313.456V76H306.348ZM342.105 49.8182H348.957V58.0511C348.957 58.8693 349.098 59.5384 349.379 60.0582C349.669 60.5781 350.15 60.9616 350.824 61.2088C351.505 61.456 352.434 61.5795 353.61 61.5795C353.824 61.5795 354.169 61.5753 354.646 61.5668C355.132 61.5497 355.656 61.5284 356.218 61.5028C356.781 61.4687 357.297 61.4304 357.765 61.3878C358.243 61.3366 358.579 61.2812 358.775 61.2216V66.5909C358.554 66.6676 358.187 66.7358 357.676 66.7955C357.164 66.8466 356.615 66.8935 356.027 66.9361C355.447 66.9702 354.927 67 354.467 67.0256C354.007 67.0426 353.721 67.0511 353.61 67.0511C351.309 67.0511 349.294 66.723 347.564 66.0668C345.833 65.4105 344.491 64.4176 343.537 63.0881C342.582 61.7585 342.105 60.0795 342.105 58.0511V49.8182ZM357.446 49.8182H364.349V76H357.446V49.8182ZM376.043 76H368.373L377.015 49.8182H386.731L395.373 76H387.702L381.975 57.0284H381.771L376.043 76ZM374.612 65.6705H389.032V70.9886H374.612V65.6705ZM397.025 76V70.5284L397.741 70.4261C398.61 70.2898 399.331 69.9148 399.902 69.3011C400.481 68.679 400.924 67.6946 401.231 66.348C401.547 64.9929 401.747 63.1477 401.832 60.8125L402.241 49.8182H421.213V76H414.36V55.3409H408.787L408.377 63.5739C408.224 66.625 407.815 69.0582 407.15 70.8736C406.485 72.6889 405.475 73.9972 404.12 74.7983C402.765 75.5994 400.98 76 398.764 76H397.025ZM449.942 62.9091C449.942 65.8239 449.375 68.2827 448.241 70.2855C447.108 72.2798 445.578 73.7926 443.652 74.8239C441.726 75.8466 439.578 76.358 437.209 76.358C434.822 76.358 432.666 75.8423 430.74 74.8111C428.822 73.7713 427.297 72.2543 426.163 70.2599C425.038 68.2571 424.476 65.8068 424.476 62.9091C424.476 59.9943 425.038 57.5398 426.163 55.5455C427.297 53.5426 428.822 52.0298 430.74 51.0071C432.666 49.9759 434.822 49.4602 437.209 49.4602C439.578 49.4602 441.726 49.9759 443.652 51.0071C445.578 52.0298 447.108 53.5426 448.241 55.5455C449.375 57.5398 449.942 59.9943 449.942 62.9091ZM442.629 62.9091C442.629 61.3409 442.42 60.0199 442.003 58.946C441.594 57.8636 440.984 57.0455 440.175 56.4915C439.374 55.929 438.385 55.6477 437.209 55.6477C436.033 55.6477 435.04 55.929 434.23 56.4915C433.429 57.0455 432.82 57.8636 432.402 58.946C431.993 60.0199 431.788 61.3409 431.788 62.9091C431.788 64.4773 431.993 65.8026 432.402 66.8849C432.82 67.9588 433.429 68.777 434.23 69.3395C435.04 69.8935 436.033 70.1705 437.209 70.1705C438.385 70.1705 439.374 69.8935 440.175 69.3395C440.984 68.777 441.594 67.9588 442.003 66.8849C442.42 65.8026 442.629 64.4773 442.629 62.9091ZM453.23 76V49.8182H460.338V60.0455H469.748V49.8182H476.855V76H469.748V65.7727H460.338V76H453.23ZM498.64 49.8182V55.5455H487.338V76H480.23V49.8182H498.64ZM512.386 62.9091C512.386 66.054 511.955 68.9474 511.094 71.5895C510.242 74.2315 508.883 76.6903 507.016 78.9659H500.113C500.82 78.1222 501.472 77.0994 502.069 75.8977C502.665 74.6875 503.181 73.3665 503.616 71.9347C504.059 70.5028 504.404 69.0199 504.651 67.4858C504.898 65.9432 505.022 64.4176 505.022 62.9091C505.022 60.8977 504.809 58.8736 504.383 56.8366C503.957 54.7912 503.373 52.8991 502.631 51.1605C501.89 49.4134 501.05 47.9773 500.113 46.8523H507.016C508.883 49.1278 510.242 51.5866 511.094 54.2287C511.955 56.8707 512.386 59.7642 512.386 62.9091Z" fill="#F9F9E5"/>
</svg>
