<svg width="668" height="141" viewBox="0 0 668 141" fill="none" xmlns="http://www.w3.org/2000/svg">
<rect y="48" width="652.859" height="48" fill="#F87000"/>
<path d="M28.1307 20.6364H20.9205C20.8693 20.0398 20.733 19.4986 20.5114 19.0128C20.2983 18.527 20 18.1094 19.6165 17.7599C19.2415 17.402 18.7855 17.1293 18.2486 16.9418C17.7116 16.7457 17.1023 16.6477 16.4205 16.6477C15.2273 16.6477 14.2173 16.9375 13.3906 17.517C12.5724 18.0966 11.9503 18.9276 11.5241 20.0099C11.1065 21.0923 10.8977 22.392 10.8977 23.9091C10.8977 25.5114 11.1108 26.8537 11.5369 27.9361C11.9716 29.0099 12.598 29.8196 13.4162 30.3651C14.2344 30.902 15.2188 31.1705 16.3693 31.1705C17.0256 31.1705 17.6136 31.0895 18.1335 30.9276C18.6534 30.7571 19.1051 30.5142 19.4886 30.1989C19.8722 29.8835 20.1832 29.5043 20.4219 29.0611C20.669 28.6094 20.8352 28.1023 20.9205 27.5398L28.1307 27.5909C28.0455 28.6989 27.7344 29.8281 27.1974 30.9787C26.6605 32.1207 25.8977 33.1776 24.9091 34.1491C23.929 35.1122 22.7145 35.8878 21.2656 36.4759C19.8168 37.0639 18.1335 37.358 16.2159 37.358C13.8125 37.358 11.6562 36.8423 9.74716 35.8111C7.84659 34.7798 6.34233 33.2628 5.23438 31.2599C4.13494 29.2571 3.58523 26.8068 3.58523 23.9091C3.58523 20.9943 4.14773 18.5398 5.27273 16.5455C6.39773 14.5426 7.91477 13.0298 9.82386 12.0071C11.733 10.9759 13.8636 10.4602 16.2159 10.4602C17.8693 10.4602 19.3906 10.6861 20.7798 11.1378C22.169 11.5895 23.3878 12.25 24.4361 13.1193C25.4844 13.9801 26.3281 15.0412 26.9673 16.3026C27.6065 17.5639 27.9943 19.0085 28.1307 20.6364ZM37.348 37H29.6776L38.3196 10.8182H48.0355L56.6776 37H49.0071L43.2798 18.0284H43.0753L37.348 37ZM35.9162 26.6705H50.3366V31.9886H35.9162V26.6705ZM72.2933 19C72.2251 18.1477 71.9055 17.483 71.3345 17.0057C70.772 16.5284 69.9155 16.2898 68.7649 16.2898C68.032 16.2898 67.4311 16.3793 66.9624 16.5582C66.5021 16.7287 66.1612 16.9631 65.9396 17.2614C65.718 17.5597 65.603 17.9006 65.5945 18.2841C65.5774 18.5994 65.6328 18.8849 65.7607 19.1406C65.897 19.3878 66.1101 19.6136 66.3999 19.8182C66.6896 20.0142 67.0604 20.1932 67.5121 20.3551C67.9638 20.517 68.5007 20.6619 69.1229 20.7898L71.2706 21.25C72.7195 21.5568 73.9595 21.9616 74.9908 22.4645C76.022 22.9673 76.8658 23.5597 77.522 24.2415C78.1783 24.9148 78.6598 25.6733 78.9666 26.517C79.282 27.3608 79.4439 28.2812 79.4524 29.2784C79.4439 31 79.0135 32.4574 78.1612 33.6506C77.3089 34.8438 76.0902 35.7514 74.505 36.3736C72.9283 36.9957 71.032 37.3068 68.8161 37.3068C66.5405 37.3068 64.5547 36.9702 62.8587 36.2969C61.1712 35.6236 59.8587 34.5881 58.9212 33.1903C57.9922 31.7841 57.5234 29.9858 57.5149 27.7955H64.2649C64.3075 28.5966 64.5078 29.2699 64.8658 29.8153C65.2237 30.3608 65.7266 30.7741 66.3743 31.0554C67.0305 31.3366 67.8104 31.4773 68.7138 31.4773C69.4723 31.4773 70.1072 31.3835 70.6186 31.196C71.13 31.0085 71.5178 30.7486 71.782 30.4162C72.0462 30.0838 72.1825 29.7045 72.1911 29.2784C72.1825 28.8778 72.0504 28.5284 71.7947 28.2301C71.5476 27.9233 71.1385 27.6506 70.5675 27.4119C69.9964 27.1648 69.2251 26.9347 68.2536 26.7216L65.6456 26.1591C63.3274 25.6562 61.4993 24.8168 60.1612 23.6406C58.8317 22.456 58.1712 20.8409 58.1797 18.7955C58.1712 17.1335 58.6143 15.6804 59.5092 14.4361C60.4126 13.1832 61.6612 12.2074 63.255 11.5085C64.8572 10.8097 66.6939 10.4602 68.7649 10.4602C70.8786 10.4602 72.7067 10.8139 74.2493 11.5213C75.7919 12.2287 76.9808 13.2259 77.8161 14.5128C78.6598 15.7912 79.0859 17.2869 79.0945 19H72.2933ZM82.1562 37V10.8182H89.2642V21.0455H98.6733V10.8182H105.781V37H98.6733V26.7727H89.2642V37H82.1562ZM116.328 37V10.8182H127.629C129.572 10.8182 131.273 11.2017 132.73 11.9688C134.188 12.7358 135.321 13.8139 136.131 15.2031C136.94 16.5923 137.345 18.2159 137.345 20.0739C137.345 21.9489 136.928 23.5724 136.092 24.9446C135.266 26.3168 134.102 27.3736 132.602 28.1151C131.111 28.8565 129.368 29.2273 127.374 29.2273H120.624V23.7045H125.942C126.777 23.7045 127.489 23.5597 128.077 23.2699C128.673 22.9716 129.129 22.5497 129.445 22.0043C129.768 21.4588 129.93 20.8153 129.93 20.0739C129.93 19.3239 129.768 18.6847 129.445 18.1562C129.129 17.6193 128.673 17.2102 128.077 16.929C127.489 16.6392 126.777 16.4943 125.942 16.4943H123.436V37H116.328ZM147.061 10.8182V37H139.953V10.8182H147.061ZM174.873 20.6364H167.663C167.612 20.0398 167.475 19.4986 167.254 19.0128C167.04 18.527 166.742 18.1094 166.359 17.7599C165.984 17.402 165.528 17.1293 164.991 16.9418C164.454 16.7457 163.844 16.6477 163.163 16.6477C161.969 16.6477 160.96 16.9375 160.133 17.517C159.315 18.0966 158.692 18.9276 158.266 20.0099C157.849 21.0923 157.64 22.392 157.64 23.9091C157.64 25.5114 157.853 26.8537 158.279 27.9361C158.714 29.0099 159.34 29.8196 160.158 30.3651C160.977 30.902 161.961 31.1705 163.112 31.1705C163.768 31.1705 164.356 31.0895 164.876 30.9276C165.396 30.7571 165.847 30.5142 166.231 30.1989C166.614 29.8835 166.925 29.5043 167.164 29.0611C167.411 28.6094 167.577 28.1023 167.663 27.5398L174.873 27.5909C174.788 28.6989 174.477 29.8281 173.94 30.9787C173.403 32.1207 172.64 33.1776 171.651 34.1491C170.671 35.1122 169.457 35.8878 168.008 36.4759C166.559 37.0639 164.876 37.358 162.958 37.358C160.555 37.358 158.398 36.8423 156.489 35.8111C154.589 34.7798 153.085 33.2628 151.977 31.2599C150.877 29.2571 150.327 26.8068 150.327 23.9091C150.327 20.9943 150.89 18.5398 152.015 16.5455C153.14 14.5426 154.657 13.0298 156.566 12.0071C158.475 10.9759 160.606 10.4602 162.958 10.4602C164.612 10.4602 166.133 10.6861 167.522 11.1378C168.911 11.5895 170.13 12.25 171.178 13.1193C172.227 13.9801 173.07 15.0412 173.71 16.3026C174.349 17.5639 174.737 19.0085 174.873 20.6364ZM178.098 37V10.8182H185.206V21.4034H185.564L193.439 10.8182H201.723L192.876 22.4773L201.927 37H193.439L187.558 27.1818L185.206 30.25V37H178.098ZM219.326 10.8182H226.434V27.5909C226.434 29.5852 225.957 31.3111 225.002 32.7685C224.056 34.2173 222.735 35.3381 221.039 36.1307C219.343 36.9148 217.375 37.3068 215.133 37.3068C212.875 37.3068 210.897 36.9148 209.201 36.1307C207.505 35.3381 206.184 34.2173 205.238 32.7685C204.301 31.3111 203.832 29.5852 203.832 27.5909V10.8182H210.94V26.9773C210.94 27.7869 211.119 28.5114 211.477 29.1506C211.835 29.7812 212.329 30.2756 212.96 30.6335C213.599 30.9915 214.324 31.1705 215.133 31.1705C215.951 31.1705 216.676 30.9915 217.306 30.6335C217.937 30.2756 218.431 29.7812 218.789 29.1506C219.147 28.5114 219.326 27.7869 219.326 26.9773V10.8182ZM229.812 37V10.8182H241.114C243.057 10.8182 244.757 11.2017 246.214 11.9688C247.672 12.7358 248.805 13.8139 249.615 15.2031C250.425 16.5923 250.83 18.2159 250.83 20.0739C250.83 21.9489 250.412 23.5724 249.577 24.9446C248.75 26.3168 247.587 27.3736 246.087 28.1151C244.595 28.8565 242.852 29.2273 240.858 29.2273H234.108V23.7045H239.426C240.261 23.7045 240.973 23.5597 241.561 23.2699C242.158 22.9716 242.614 22.5497 242.929 22.0043C243.253 21.4588 243.415 20.8153 243.415 20.0739C243.415 19.3239 243.253 18.6847 242.929 18.1562C242.614 17.6193 242.158 17.2102 241.561 16.929C240.973 16.6392 240.261 16.4943 239.426 16.4943H236.92V37H229.812ZM267.411 37H259.74L268.382 10.8182H278.098L286.74 37H279.07L273.342 18.0284H273.138L267.411 37ZM265.979 26.6705H280.399V31.9886H265.979V26.6705ZM285.241 16.5455V10.8182H307.997V16.5455H300.122V37H293.116V16.5455H285.241ZM343.207 23.9091C343.207 26.8239 342.641 29.2827 341.507 31.2855C340.374 33.2798 338.844 34.7926 336.918 35.8239C334.991 36.8466 332.844 37.358 330.474 37.358C328.088 37.358 325.932 36.8423 324.006 35.8111C322.088 34.7713 320.562 33.2543 319.429 31.2599C318.304 29.2571 317.741 26.8068 317.741 23.9091C317.741 20.9943 318.304 18.5398 319.429 16.5455C320.562 14.5426 322.088 13.0298 324.006 12.0071C325.932 10.9759 328.088 10.4602 330.474 10.4602C332.844 10.4602 334.991 10.9759 336.918 12.0071C338.844 13.0298 340.374 14.5426 341.507 16.5455C342.641 18.5398 343.207 20.9943 343.207 23.9091ZM335.895 23.9091C335.895 22.3409 335.686 21.0199 335.268 19.946C334.859 18.8636 334.25 18.0455 333.44 17.4915C332.639 16.929 331.651 16.6477 330.474 16.6477C329.298 16.6477 328.305 16.929 327.496 17.4915C326.695 18.0455 326.085 18.8636 325.668 19.946C325.259 21.0199 325.054 22.3409 325.054 23.9091C325.054 25.4773 325.259 26.8026 325.668 27.8849C326.085 28.9588 326.695 29.777 327.496 30.3395C328.305 30.8935 329.298 31.1705 330.474 31.1705C331.651 31.1705 332.639 30.8935 333.44 30.3395C334.25 29.777 334.859 28.9588 335.268 27.8849C335.686 26.8026 335.895 25.4773 335.895 23.9091ZM361.99 10.8182H369.098V27.5909C369.098 29.5852 368.621 31.3111 367.667 32.7685C366.721 34.2173 365.4 35.3381 363.703 36.1307C362.007 36.9148 360.039 37.3068 357.797 37.3068C355.539 37.3068 353.561 36.9148 351.865 36.1307C350.169 35.3381 348.848 34.2173 347.902 32.7685C346.965 31.3111 346.496 29.5852 346.496 27.5909V10.8182H353.604V26.9773C353.604 27.7869 353.783 28.5114 354.141 29.1506C354.499 29.7812 354.993 30.2756 355.624 30.6335C356.263 30.9915 356.988 31.1705 357.797 31.1705C358.615 31.1705 359.34 30.9915 359.971 30.6335C360.601 30.2756 361.096 29.7812 361.453 29.1506C361.811 28.5114 361.99 27.7869 361.99 26.9773V10.8182ZM372.477 37V10.8182H383.778C385.721 10.8182 387.421 11.1719 388.879 11.8793C390.336 12.5866 391.469 13.6051 392.279 14.9347C393.089 16.2642 393.494 17.858 393.494 19.7159C393.494 21.5909 393.076 23.1719 392.241 24.4588C391.414 25.7457 390.251 26.7173 388.751 27.3736C387.259 28.0298 385.516 28.358 383.522 28.358H376.772V22.8352H382.09C382.925 22.8352 383.637 22.733 384.225 22.5284C384.822 22.3153 385.278 21.9787 385.593 21.5185C385.917 21.0582 386.079 20.4574 386.079 19.7159C386.079 18.9659 385.917 18.3565 385.593 17.8878C385.278 17.4105 384.822 17.0611 384.225 16.8395C383.637 16.6094 382.925 16.4943 382.09 16.4943H379.585V37H372.477ZM387.817 24.983L394.363 37H386.641L380.249 24.983H387.817Z" fill="#0E1111"/>
<path d="M29.0511 70.9091C29.0511 73.8239 28.4844 76.2827 27.3509 78.2855C26.2173 80.2798 24.6875 81.7926 22.7614 82.8239C20.8352 83.8466 18.6875 84.358 16.3182 84.358C13.9318 84.358 11.7756 83.8423 9.84943 82.8111C7.93182 81.7713 6.40625 80.2543 5.27273 78.2599C4.14773 76.2571 3.58523 73.8068 3.58523 70.9091C3.58523 67.9943 4.14773 65.5398 5.27273 63.5455C6.40625 61.5426 7.93182 60.0298 9.84943 59.0071C11.7756 57.9759 13.9318 57.4602 16.3182 57.4602C18.6875 57.4602 20.8352 57.9759 22.7614 59.0071C24.6875 60.0298 26.2173 61.5426 27.3509 63.5455C28.4844 65.5398 29.0511 67.9943 29.0511 70.9091ZM21.7386 70.9091C21.7386 69.3409 21.5298 68.0199 21.1122 66.946C20.7031 65.8636 20.0938 65.0455 19.2841 64.4915C18.483 63.929 17.4943 63.6477 16.3182 63.6477C15.142 63.6477 14.1491 63.929 13.3395 64.4915C12.5384 65.0455 11.929 65.8636 11.5114 66.946C11.1023 68.0199 10.8977 69.3409 10.8977 70.9091C10.8977 72.4773 11.1023 73.8026 11.5114 74.8849C11.929 75.9588 12.5384 76.777 13.3395 77.3395C14.1491 77.8935 15.142 78.1705 16.3182 78.1705C17.4943 78.1705 18.483 77.8935 19.2841 77.3395C20.0938 76.777 20.7031 75.9588 21.1122 74.8849C21.5298 73.8026 21.7386 72.4773 21.7386 70.9091ZM32.3398 84V57.8182H50.7489V63.5455H39.4478V68.0455H49.6239V73.7727H39.4478V84H32.3398ZM53.3633 84V57.8182H71.7724V63.5455H60.4712V68.0455H70.6474V73.7727H60.4712V84H53.3633ZM81.4947 57.8182V84H74.3867V57.8182H81.4947ZM109.306 67.6364H102.096C102.045 67.0398 101.909 66.4986 101.687 66.0128C101.474 65.527 101.176 65.1094 100.792 64.7599C100.417 64.402 99.9613 64.1293 99.4244 63.9418C98.8874 63.7457 98.2781 63.6477 97.5962 63.6477C96.4031 63.6477 95.3931 63.9375 94.5664 64.517C93.7482 65.0966 93.1261 65.9276 92.6999 67.0099C92.2823 68.0923 92.0735 69.392 92.0735 70.9091C92.0735 72.5114 92.2866 73.8537 92.7127 74.9361C93.1474 76.0099 93.7738 76.8196 94.592 77.3651C95.4102 77.902 96.3945 78.1705 97.5451 78.1705C98.2014 78.1705 98.7894 78.0895 99.3093 77.9276C99.8292 77.7571 100.281 77.5142 100.664 77.1989C101.048 76.8835 101.359 76.5043 101.598 76.0611C101.845 75.6094 102.011 75.1023 102.096 74.5398L109.306 74.5909C109.221 75.6989 108.91 76.8281 108.373 77.9787C107.836 79.1207 107.074 80.1776 106.085 81.1491C105.105 82.1122 103.89 82.8878 102.441 83.4759C100.993 84.0639 99.3093 84.358 97.3917 84.358C94.9883 84.358 92.832 83.8423 90.9229 82.8111C89.0224 81.7798 87.5181 80.2628 86.4102 78.2599C85.3107 76.2571 84.761 73.8068 84.761 70.9091C84.761 67.9943 85.3235 65.5398 86.4485 63.5455C87.5735 61.5426 89.0906 60.0298 90.9996 59.0071C92.9087 57.9759 95.0394 57.4602 97.3917 57.4602C99.0451 57.4602 100.566 57.6861 101.956 58.1378C103.345 58.5895 104.564 59.25 105.612 60.1193C106.66 60.9801 107.504 62.0412 108.143 63.3026C108.782 64.5639 109.17 66.0085 109.306 67.6364ZM112.531 84V57.8182H131.401V63.5455H119.639V68.0455H130.429V73.7727H119.639V78.2727H131.349V84H112.531ZM143.478 70.9091C143.478 67.7642 143.904 64.8707 144.757 62.2287C145.618 59.5866 146.981 57.1278 148.848 54.8523H155.751C155.052 55.696 154.4 56.723 153.795 57.9332C153.199 59.1349 152.679 60.4517 152.235 61.8835C151.801 63.3153 151.46 64.8026 151.213 66.3452C150.966 67.8793 150.842 69.4006 150.842 70.9091C150.842 72.9205 151.055 74.9489 151.481 76.9943C151.907 79.0312 152.491 80.9233 153.233 82.6705C153.974 84.4091 154.814 85.8409 155.751 86.9659H148.848C146.981 84.6903 145.618 82.2315 144.757 79.5895C143.904 76.9474 143.478 74.054 143.478 70.9091ZM182.396 67.6364H175.186C175.135 67.0398 174.999 66.4986 174.777 66.0128C174.564 65.527 174.266 65.1094 173.882 64.7599C173.507 64.402 173.051 64.1293 172.514 63.9418C171.977 63.7457 171.368 63.6477 170.686 63.6477C169.493 63.6477 168.483 63.9375 167.656 64.517C166.838 65.0966 166.216 65.9276 165.79 67.0099C165.372 68.0923 165.163 69.392 165.163 70.9091C165.163 72.5114 165.376 73.8537 165.803 74.9361C166.237 76.0099 166.864 76.8196 167.682 77.3651C168.5 77.902 169.484 78.1705 170.635 78.1705C171.291 78.1705 171.879 78.0895 172.399 77.9276C172.919 77.7571 173.371 77.5142 173.754 77.1989C174.138 76.8835 174.449 76.5043 174.688 76.0611C174.935 75.6094 175.101 75.1023 175.186 74.5398L182.396 74.5909C182.311 75.6989 182 76.8281 181.463 77.9787C180.926 79.1207 180.163 80.1776 179.175 81.1491C178.195 82.1122 176.98 82.8878 175.531 83.4759C174.082 84.0639 172.399 84.358 170.482 84.358C168.078 84.358 165.922 83.8423 164.013 82.8111C162.112 81.7798 160.608 80.2628 159.5 78.2599C158.401 76.2571 157.851 73.8068 157.851 70.9091C157.851 67.9943 158.413 65.5398 159.538 63.5455C160.663 61.5426 162.18 60.0298 164.089 59.0071C165.999 57.9759 168.129 57.4602 170.482 57.4602C172.135 57.4602 173.656 57.6861 175.045 58.1378C176.435 58.5895 177.653 59.25 178.702 60.1193C179.75 60.9801 180.594 62.0412 181.233 63.3026C181.872 64.5639 182.26 66.0085 182.396 67.6364ZM185.621 84V57.8182H192.729V68.0455H202.138V57.8182H209.246V84H202.138V73.7727H192.729V84H185.621ZM219.422 84H211.752L220.394 57.8182H230.11L238.752 84H231.081L225.354 65.0284H225.15L219.422 84ZM217.99 73.6705H232.411V78.9886H217.99V73.6705ZM241.273 84V57.8182H248.381V78.2727H258.967V84H241.273ZM286.184 70.9091C286.184 73.8239 285.617 76.2827 284.484 78.2855C283.35 80.2798 281.82 81.7926 279.894 82.8239C277.968 83.8466 275.82 84.358 273.451 84.358C271.065 84.358 268.908 83.8423 266.982 82.8111C265.065 81.7713 263.539 80.2543 262.406 78.2599C261.281 76.2571 260.718 73.8068 260.718 70.9091C260.718 67.9943 261.281 65.5398 262.406 63.5455C263.539 61.5426 265.065 60.0298 266.982 59.0071C268.908 57.9759 271.065 57.4602 273.451 57.4602C275.82 57.4602 277.968 57.9759 279.894 59.0071C281.82 60.0298 283.35 61.5426 284.484 63.5455C285.617 65.5398 286.184 67.9943 286.184 70.9091ZM278.871 70.9091C278.871 69.3409 278.663 68.0199 278.245 66.946C277.836 65.8636 277.227 65.0455 276.417 64.4915C275.616 63.929 274.627 63.6477 273.451 63.6477C272.275 63.6477 271.282 63.929 270.472 64.4915C269.671 65.0455 269.062 65.8636 268.644 66.946C268.235 68.0199 268.031 69.3409 268.031 70.9091C268.031 72.4773 268.235 73.8026 268.644 74.8849C269.062 75.9588 269.671 76.777 270.472 77.3395C271.282 77.8935 272.275 78.1705 273.451 78.1705C274.627 78.1705 275.616 77.8935 276.417 77.3395C277.227 76.777 277.836 75.9588 278.245 74.8849C278.663 73.8026 278.871 72.4773 278.871 70.9091ZM312.126 57.8182V84H306.194L296.734 70.2443H296.581V84H289.473V57.8182H295.507L304.814 71.5227H305.018V57.8182H312.126ZM332.491 66.4602C332.38 66.0085 332.206 65.6122 331.967 65.2713C331.728 64.9219 331.43 64.6278 331.072 64.3892C330.723 64.142 330.314 63.9588 329.845 63.8395C329.385 63.7116 328.877 63.6477 328.324 63.6477C327.13 63.6477 326.112 63.9332 325.268 64.5043C324.433 65.0753 323.794 65.8977 323.35 66.9716C322.916 68.0455 322.699 69.3409 322.699 70.858C322.699 72.392 322.907 73.7045 323.325 74.7955C323.743 75.8864 324.365 76.7216 325.191 77.3011C326.018 77.8807 327.045 78.1705 328.272 78.1705C329.355 78.1705 330.254 78.0128 330.97 77.6974C331.694 77.3821 332.235 76.9347 332.593 76.3551C332.951 75.7756 333.13 75.0937 333.13 74.3097L334.358 74.4375H328.375V69.375H339.983V73.0057C339.983 75.392 339.475 77.4332 338.461 79.1293C337.456 80.8168 336.066 82.1122 334.294 83.0156C332.529 83.9105 330.505 84.358 328.221 84.358C325.673 84.358 323.436 83.8168 321.51 82.7344C319.583 81.652 318.079 80.1094 316.997 78.1065C315.923 76.1037 315.386 73.7216 315.386 70.9602C315.386 68.7955 315.714 66.8778 316.37 65.2074C317.035 63.5369 317.956 62.1264 319.132 60.9759C320.308 59.8168 321.667 58.9432 323.21 58.3551C324.752 57.7585 326.406 57.4602 328.17 57.4602C329.721 57.4602 331.162 57.6818 332.491 58.125C333.829 58.5597 335.01 59.1818 336.032 59.9915C337.064 60.7926 337.895 61.7429 338.525 62.8423C339.156 63.9418 339.539 65.1477 339.676 66.4602H332.491ZM357.27 84H349.599L358.241 57.8182H367.957L376.599 84H368.929L363.202 65.0284H362.997L357.27 84ZM355.838 73.6705H370.259V78.9886H355.838V73.6705ZM379.121 84V57.8182H390.422C392.365 57.8182 394.066 58.1719 395.523 58.8793C396.98 59.5866 398.114 60.6051 398.924 61.9347C399.733 63.2642 400.138 64.858 400.138 66.7159C400.138 68.5909 399.721 70.1719 398.885 71.4588C398.059 72.7457 396.895 73.7173 395.395 74.3736C393.904 75.0298 392.161 75.358 390.167 75.358H383.417V69.8352H388.735C389.57 69.8352 390.282 69.733 390.87 69.5284C391.466 69.3153 391.922 68.9787 392.238 68.5185C392.561 68.0582 392.723 67.4574 392.723 66.7159C392.723 65.9659 392.561 65.3565 392.238 64.8878C391.922 64.4105 391.466 64.0611 390.87 63.8395C390.282 63.6094 389.57 63.4943 388.735 63.4943H386.229V84H379.121ZM394.462 71.983L401.007 84H393.286L386.894 71.983H394.462ZM403.168 84V57.8182H422.037V63.5455H410.276V68.0455H421.066V73.7727H410.276V78.2727H421.986V84H403.168ZM432.364 84H424.693L433.335 57.8182H443.051L451.693 84H444.023L438.295 65.0284H438.091L432.364 84ZM430.932 73.6705H445.352V78.9886H430.932V73.6705ZM461.169 80.4205L461.067 81.8523C460.982 83.0795 460.777 84.2557 460.453 85.3807C460.138 86.5057 459.801 87.5028 459.444 88.3722C459.094 89.2415 458.817 89.9148 458.613 90.392H454.266C454.402 89.9148 454.594 89.2244 454.841 88.321C455.097 87.4261 455.327 86.4119 455.532 85.2784C455.745 84.1534 455.851 83.0114 455.851 81.8523V80.4205H461.169ZM477.98 84V57.8182H489.282C491.225 57.8182 492.925 58.2017 494.382 58.9688C495.84 59.7358 496.973 60.8139 497.783 62.2031C498.593 63.5923 498.998 65.2159 498.998 67.0739C498.998 68.9489 498.58 70.5724 497.745 71.9446C496.918 73.3168 495.755 74.3736 494.255 75.1151C492.763 75.8565 491.02 76.2273 489.026 76.2273H482.276V70.7045H487.594C488.429 70.7045 489.141 70.5597 489.729 70.2699C490.326 69.9716 490.782 69.5497 491.097 69.0043C491.421 68.4588 491.583 67.8153 491.583 67.0739C491.583 66.3239 491.421 65.6847 491.097 65.1562C490.782 64.6193 490.326 64.2102 489.729 63.929C489.141 63.6392 488.429 63.4943 487.594 63.4943H485.088V84H477.98ZM501.605 84V57.8182H508.713V68.0455H518.123V57.8182H525.23V84H518.123V73.7727H508.713V84H501.605ZM544.1 57.8182H551.208V74.5909C551.208 76.5852 550.73 78.3111 549.776 79.7685C548.83 81.2173 547.509 82.3381 545.813 83.1307C544.117 83.9148 542.148 84.3068 539.907 84.3068C537.648 84.3068 535.671 83.9148 533.975 83.1307C532.279 82.3381 530.958 81.2173 530.012 79.7685C529.074 78.3111 528.605 76.5852 528.605 74.5909V57.8182H535.713V73.9773C535.713 74.7869 535.892 75.5114 536.25 76.1506C536.608 76.7812 537.103 77.2756 537.733 77.6335C538.373 77.9915 539.097 78.1705 539.907 78.1705C540.725 78.1705 541.449 77.9915 542.08 77.6335C542.711 77.2756 543.205 76.7812 543.563 76.1506C543.921 75.5114 544.1 74.7869 544.1 73.9773V57.8182ZM554.586 84V57.8182H561.694V68.4034H562.052L569.927 57.8182H578.211L569.364 69.4773L578.415 84H569.927L564.046 74.1818L561.694 77.25V84H554.586ZM580.32 84V57.8182H599.19V63.5455H587.428V68.0455H598.218V73.7727H587.428V78.2727H599.138V84H580.32ZM601.999 63.5455V57.8182H624.755V63.5455H616.88V84H609.874V63.5455H601.999ZM638.526 70.9091C638.526 74.054 638.096 76.9474 637.235 79.5895C636.383 82.2315 635.023 84.6903 633.157 86.9659H626.254C626.961 86.1222 627.613 85.0994 628.21 83.8977C628.806 82.6875 629.322 81.3665 629.756 79.9347C630.2 78.5028 630.545 77.0199 630.792 75.4858C631.039 73.9432 631.163 72.4176 631.163 70.9091C631.163 68.8977 630.95 66.8736 630.523 64.8366C630.097 62.7912 629.513 60.8991 628.772 59.1605C628.031 57.4134 627.191 55.9773 626.254 54.8523H633.157C635.023 57.1278 636.383 59.5866 637.235 62.2287C638.096 64.8707 638.526 67.7642 638.526 70.9091Z" fill="#F9F9E5"/>
</svg>
