<svg width="61" height="56" viewBox="0 0 61 56" fill="none" xmlns="http://www.w3.org/2000/svg">
<path d="M28.8055 29.192C29.941 29.192 30.8615 28.2907 30.8615 27.1788C30.8615 26.0669 29.941 25.1655 28.8055 25.1655C27.67 25.1655 26.7495 26.0669 26.7495 27.1788C26.7495 28.2907 27.67 29.192 28.8055 29.192Z" fill="#FF8A80"/>
<path d="M56.537 28.1855H56.4691C56.4835 27.8493 56.5123 27.5171 56.5123 27.1789C56.5123 12.1681 44.0858 0 28.7561 0C13.4265 0 1 12.1681 1 27.1789C1 42.1897 13.4265 54.3577 28.7561 54.3577C31.9902 54.3577 35.0804 53.788 37.965 52.7934C37.965 52.7934 32.0211 53.3511 28.7561 53.3511C15.1782 53.3511 4.08402 41.3139 4.08402 27.1789C4.08402 13.5894 15.2646 4.0265 28.7561 4.0265C41.8159 4.0265 52.4003 14.3927 52.4003 27.1789C52.4003 27.5191 52.3694 27.8513 52.3509 28.1855H48.3314L54.4994 38.2517L60.6675 28.1855H56.537Z" fill="#F87000"/>
<path d="M26.7805 27.7479C26.5226 27.7479 26.2648 27.6528 26.0674 27.4645L16.4313 18.1791C16.0385 17.8006 16.0385 17.1853 16.4313 16.8068C16.8241 16.4283 17.4626 16.4283 17.8554 16.8068L27.4915 26.0923C27.8843 26.4707 27.8843 27.086 27.4915 27.4645C27.2961 27.6528 27.0383 27.7479 26.7805 27.7479Z" fill="#004DB4"/>
<path d="M29.6189 27.7654C29.3631 27.7654 29.1053 27.6722 28.9079 27.482C28.5151 27.1035 28.5131 26.4902 28.9059 26.1097L35.5428 19.6891C35.9356 19.3106 36.5741 19.3087 36.9669 19.6872C37.3596 20.0657 37.3617 20.679 36.9689 21.0594L30.332 27.48C30.1346 27.6703 29.8767 27.7654 29.6189 27.7654Z" fill="#004DB4"/>
<path d="M28.205 31.0845C26.5392 31.0845 25.1836 29.7783 25.1836 28.1731C25.1836 26.568 26.5392 25.2617 28.205 25.2617C29.8707 25.2617 31.2263 26.568 31.2263 28.1731C31.2263 29.7783 29.8707 31.0845 28.205 31.0845ZM28.205 27.2027C27.649 27.2027 27.1978 27.6374 27.1978 28.1731C27.1978 28.7088 27.649 29.1436 28.205 29.1436C28.7609 29.1436 29.2121 28.7088 29.2121 28.1731C29.2121 27.6374 28.7609 27.2027 28.205 27.2027Z" fill="#004DB4"/>
<path d="M55.392 55.3457C54.8361 55.3457 54.3849 54.9109 54.3849 54.3752V51.4638H50.3564C49.9898 51.4638 49.6534 51.2717 49.4742 50.9631C49.2969 50.6544 49.307 50.2779 49.5024 49.979L54.538 42.2153C54.7756 41.8484 55.2429 41.6776 55.67 41.798C56.101 41.9164 56.3991 42.2968 56.3991 42.7296V49.5229H57.4062C57.9622 49.5229 58.4134 49.9577 58.4134 50.4934C58.4134 51.029 57.9622 51.4638 57.4062 51.4638H56.3991V54.3752C56.3991 54.9109 55.9479 55.3457 55.392 55.3457ZM52.1732 49.5229H54.3849V46.1127L52.1732 49.5229Z" fill="#004DB4"/>
<path d="M47.3342 55.3463H41.2915C40.9188 55.3463 40.5784 55.1483 40.4032 54.8339C40.2279 54.5195 40.2461 54.1352 40.4535 53.8382L45.5999 46.4005C45.9746 45.859 46.0088 45.1933 45.6885 44.6188C45.3683 44.0442 44.7761 43.7007 44.1013 43.7007C43.1063 43.7007 42.2986 44.479 42.2986 45.4378C42.2986 45.9735 41.8474 46.4083 41.2915 46.4083C40.7355 46.4083 40.2843 45.9735 40.2843 45.4378C40.2843 43.4096 41.9964 41.7598 44.1013 41.7598C45.5113 41.7598 46.8004 42.5031 47.4651 43.7026C48.1298 44.9002 48.0573 46.3462 47.2758 47.4758L43.1728 53.4054H47.3342C47.8901 53.4054 48.3413 53.8402 48.3413 54.3759C48.3413 54.9116 47.8901 55.3463 47.3342 55.3463Z" fill="#004DB4"/>
<path d="M16.6179 48.4735C16.4487 48.4735 16.2755 48.4328 16.1184 48.3454C15.6349 48.0795 15.4678 47.4875 15.7457 47.0217L15.8464 46.8528C16.1224 46.387 16.7387 46.2259 17.2201 46.4938C17.7036 46.7597 17.8707 47.3517 17.5928 47.8175L17.4921 47.9863C17.3047 48.2988 16.9664 48.4735 16.6179 48.4735Z" fill="#004DB4"/>
<path d="M8.13943 40.3039C7.79097 40.3039 7.45056 40.1292 7.26525 39.8167C6.98729 39.3509 7.15447 38.7589 7.63789 38.493L7.81313 38.3959C8.29252 38.1319 8.91089 38.2911 9.18684 38.755C9.4648 39.2208 9.29762 39.8128 8.81421 40.0787L8.63897 40.1758C8.48186 40.2631 8.30863 40.3039 8.13943 40.3039Z" fill="#004DB4"/>
<path d="M5.23686 29.1436H5.03544C4.47951 29.1436 4.02832 28.7088 4.02832 28.1731C4.02832 27.6374 4.47951 27.2026 5.03544 27.2026H5.23686C5.79279 27.2026 6.24398 27.6374 6.24398 28.1731C6.24398 28.7088 5.79279 29.1436 5.23686 29.1436Z" fill="#004DB4"/>
<path d="M8.31266 18.0804C8.14346 18.0804 7.97024 18.0397 7.81313 17.9523L7.63789 17.8553C7.15447 17.5894 6.98729 16.9974 7.26525 16.5315C7.5412 16.0657 8.15756 15.9046 8.63897 16.1725L8.81421 16.2695C9.29762 16.5354 9.4648 17.1274 9.18684 17.5932C9.00153 17.9038 8.66112 18.0804 8.31266 18.0804Z" fill="#004DB4"/>
<path d="M16.7182 9.98084C16.3697 9.98084 16.0293 9.80616 15.844 9.49367L15.7433 9.3248C15.4653 8.85898 15.6325 8.26699 16.1159 8.00109C16.5973 7.73324 17.2137 7.89433 17.4916 8.36016L17.5924 8.52902C17.8703 8.99485 17.7031 9.58683 17.2197 9.85274C17.0606 9.94008 16.8894 9.98084 16.7182 9.98084Z" fill="#004DB4"/>
<path d="M28.199 51.4641C27.6431 51.4641 27.1919 51.0294 27.1919 50.4937V50.2996C27.1919 49.7639 27.6431 49.3291 28.199 49.3291C28.7549 49.3291 29.2061 49.7639 29.2061 50.2996V50.4937C29.2061 51.0294 28.7549 51.4641 28.199 51.4641Z" fill="#004DB4"/>
<path d="M28.199 7.01638C27.6431 7.01638 27.1919 6.58161 27.1919 6.04591V5.85182C27.1919 5.31612 27.6431 4.88135 28.199 4.88135C28.7549 4.88135 29.2061 5.31612 29.2061 5.85182V6.04591C29.2061 6.58161 28.7549 7.01638 28.199 7.01638Z" fill="#004DB4"/>
<path d="M53.3766 39.8185C53.0221 39.8185 52.6958 39.6399 52.5125 39.3468L46.4698 29.6421C46.2824 29.3413 46.2784 28.9686 46.4577 28.6639C46.6369 28.3592 46.9713 28.1729 47.3339 28.1729H51.3402C51.8961 28.1729 52.3473 28.6076 52.3473 29.1433C52.3473 29.679 51.8961 30.1138 51.3402 30.1138H49.1145L53.3786 36.9614L57.6407 30.1138H55.3747C54.8188 30.1138 54.3676 29.679 54.3676 29.1433C54.3676 28.6076 54.8188 28.1729 55.3747 28.1729H59.4193C59.7819 28.1729 60.1162 28.3611 60.2955 28.6639C60.4748 28.9667 60.4687 29.3413 60.2834 29.6421L54.2407 39.3468C54.0574 39.6399 53.7311 39.8185 53.3766 39.8185Z" fill="#004DB4"/>
<path d="M51.3431 30.1141C51.329 30.1141 51.3129 30.1141 51.2988 30.1141C50.7429 30.0908 50.3118 29.6366 50.336 29.1028C50.3501 28.7923 50.3561 28.4837 50.3561 28.1731C50.3561 18.1327 43.27 9.5712 33.1243 7.35271C32.5825 7.23237 32.2421 6.71414 32.3649 6.19009C32.4878 5.66603 33.0196 5.33996 33.5715 5.45835C44.6397 7.8787 52.3704 17.2204 52.3704 28.1731C52.3704 28.5128 52.3643 28.8505 52.3482 29.1863C52.324 29.7084 51.8789 30.1141 51.3431 30.1141Z" fill="#004DB4"/>
<path d="M28.1994 55.3462C12.6494 55.3462 0 43.1571 0 28.1731C0 13.1891 12.6494 1 28.1994 1C43.7493 1 56.3987 13.1891 56.3987 28.1731C56.3987 28.5108 56.3927 28.8466 56.3786 29.1805C56.3584 29.7181 55.8509 30.1548 55.3332 30.1121C54.7773 30.0927 54.3442 29.6405 54.3664 29.1048C54.3784 28.7962 54.3845 28.4856 54.3845 28.1731C54.3845 14.2605 42.6374 2.94094 28.1994 2.94094C13.7613 2.94094 2.01424 14.2605 2.01424 28.1731C2.01424 42.0857 13.7613 53.4053 28.1994 53.4053C31.1704 53.4053 34.085 52.9298 36.8606 51.9923C37.3903 51.8118 38.0107 52.0602 38.1981 52.559C38.3854 53.0598 38.1739 53.5936 37.6542 53.7779C34.5362 54.8338 31.398 55.3462 28.1994 55.3462Z" fill="#004DB4"/>
</svg>
