<svg width="17" height="18" viewBox="0 0 17 18" fill="none" xmlns="http://www.w3.org/2000/svg">
<path d="M2.26429 0.355129C1.90814 -0.0669775 1.27724 -0.120444 0.855129 0.235709C0.433022 0.591861 0.379556 1.22276 0.735709 1.64487L2.26429 0.355129ZM14.9156 17.9964C15.4659 18.0431 15.9498 17.6348 15.9964 17.0844L16.7564 8.11659C16.8031 7.56628 16.3947 7.08235 15.8444 7.03572C15.2941 6.98908 14.8102 7.39739 14.7636 7.9477L14.088 15.9191L6.11659 15.2436C5.56628 15.1969 5.08235 15.6053 5.03572 16.1556C4.98908 16.7059 5.39739 17.1898 5.9477 17.2364L14.9156 17.9964ZM0.735709 1.64487L14.2357 17.6449L15.7643 16.3551L2.26429 0.355129L0.735709 1.64487Z" fill="#F9F9E5"/>
</svg>
