<svg width="492" height="95" viewBox="0 0 492 95" fill="none" xmlns="http://www.w3.org/2000/svg">
<rect x="2" width="490" height="52" fill="#F87000"/>
<path d="M1.6875 85V58.8182H8.79545V69.0455H18.2045V58.8182H25.3125V85H18.2045V74.7727H8.79545V85H1.6875ZM35.4886 85H27.8182L36.4602 58.8182H46.1761L54.8182 85H47.1477L41.4205 66.0284H41.2159L35.4886 85ZM34.0568 74.6705H48.4773V79.9886H34.0568V74.6705ZM56.4705 85V79.5284L57.1864 79.4261C58.0558 79.2898 58.7759 78.9148 59.3469 78.3011C59.9265 77.679 60.3697 76.6946 60.6765 75.348C60.9918 73.9929 61.1921 72.1477 61.2773 69.8125L61.6864 58.8182H80.658V85H73.8058V64.3409H68.2319L67.8228 72.5739C67.6694 75.625 67.2603 78.0582 66.5955 79.8736C65.9308 81.6889 64.9208 82.9972 63.5657 83.7983C62.2106 84.5994 60.4251 85 58.2092 85H56.4705ZM84.0234 58.8182H91.1314V72.5227H91.3359L100.643 58.8182H106.677V85H99.5689V71.2443H99.4155L89.9553 85H84.0234V58.8182ZM111.624 58.8182H118.477V67.0511C118.477 67.8693 118.617 68.5384 118.898 69.0582C119.188 69.5781 119.67 69.9616 120.343 70.2088C121.025 70.456 121.954 70.5795 123.13 70.5795C123.343 70.5795 123.688 70.5753 124.165 70.5668C124.651 70.5497 125.175 70.5284 125.738 70.5028C126.3 70.4687 126.816 70.4304 127.285 70.3878C127.762 70.3366 128.099 70.2812 128.295 70.2216V75.5909C128.073 75.6676 127.707 75.7358 127.195 75.7955C126.684 75.8466 126.134 75.8935 125.546 75.9361C124.967 75.9702 124.447 76 123.987 76.0256C123.526 76.0426 123.241 76.0511 123.13 76.0511C120.829 76.0511 118.813 75.723 117.083 75.0668C115.353 74.4105 114.011 73.4176 113.056 72.0881C112.102 70.7585 111.624 69.0795 111.624 67.0511V58.8182ZM126.965 58.8182H133.869V85H126.965V58.8182ZM138.762 85V58.8182H145.87V69.0455H155.279V58.8182H162.387V85H155.279V74.7727H145.87V85H138.762ZM170.262 67.6136H175.682C177.89 67.6136 179.816 67.9673 181.461 68.6747C183.114 69.3821 184.397 70.3793 185.309 71.6662C186.229 72.9531 186.685 74.4659 186.676 76.2045C186.685 77.9432 186.229 79.473 185.309 80.794C184.397 82.1151 183.114 83.1463 181.461 83.8878C179.816 84.6293 177.89 85 175.682 85H165.915V58.8182H173.023V79.4261H175.682C176.543 79.4261 177.263 79.2855 177.843 79.0043C178.431 78.723 178.874 78.3352 179.172 77.8409C179.479 77.3466 179.628 76.7841 179.62 76.1534C179.628 75.2585 179.296 74.517 178.623 73.929C177.949 73.3324 176.969 73.0341 175.682 73.0341H170.262V67.6136ZM195.625 58.8182V85H188.517V58.8182H195.625ZM206.604 58.8182L210.899 66.4375H211.104L215.45 58.8182H223.376L215.553 71.9091L223.683 85H215.553L211.104 77.2273H210.899L206.45 85H198.371L206.399 71.9091L198.626 58.8182H206.604Z" fill="#0E1111"/>
<path d="M24.9929 38L16.9645 27.4148H15.9673V38H8.85938V11.8182H15.9673V21.6875H16.8878L24.4048 11.8182H33.3537L23.3821 24.3977L33.9162 38H24.9929ZM39.6083 38.358V32.8352H40.8867C41.6367 32.8352 42.229 32.7756 42.6637 32.6562C43.1069 32.5284 43.4478 32.3068 43.6864 31.9915C43.9336 31.6676 44.1424 31.2159 44.3129 30.6364L44.5685 29.8693L34.7504 11.8182H42.0117L47.4833 22.4545L51.6765 11.8182H58.8356L49.8356 32.2727C49.3413 33.3466 48.7532 34.348 48.0714 35.277C47.3896 36.1974 46.5415 36.9432 45.5273 37.5142C44.5131 38.0767 43.256 38.358 41.756 38.358H39.6083ZM61.1367 38V11.8182H72.4379C74.381 11.8182 76.0813 12.2017 77.5387 12.9688C78.9961 13.7358 80.1296 14.8139 80.9393 16.2031C81.7489 17.5923 82.1538 19.2159 82.1538 21.0739C82.1538 22.9489 81.7362 24.5724 80.9009 25.9446C80.0742 27.3168 78.9109 28.3736 77.4109 29.1151C75.9194 29.8565 74.1765 30.2273 72.1822 30.2273H65.4322V24.7045H70.7504C71.5856 24.7045 72.2972 24.5597 72.8853 24.2699C73.4819 23.9716 73.9379 23.5497 74.2532 23.0043C74.5771 22.4588 74.739 21.8153 74.739 21.0739C74.739 20.3239 74.5771 19.6847 74.2532 19.1562C73.9379 18.6193 73.4819 18.2102 72.8853 17.929C72.2972 17.6392 71.5856 17.4943 70.7504 17.4943H68.2447V38H61.1367ZM89.2617 20.6136H94.6822C96.8896 20.6136 98.8157 20.9673 100.461 21.6747C102.114 22.3821 103.397 23.3793 104.309 24.6662C105.229 25.9531 105.685 27.4659 105.676 29.2045C105.685 30.9432 105.229 32.473 104.309 33.794C103.397 35.1151 102.114 36.1463 100.461 36.8878C98.8157 37.6293 96.8896 38 94.6822 38H84.9151V11.8182H92.0231V32.4261H94.6822C95.543 32.4261 96.2631 32.2855 96.8427 32.0043C97.4308 31.723 97.8739 31.3352 98.1722 30.8409C98.479 30.3466 98.6282 29.7841 98.6197 29.1534C98.6282 28.2585 98.2958 27.517 97.6225 26.929C96.9492 26.3324 95.9691 26.0341 94.6822 26.0341H89.2617V20.6136ZM109.723 38V11.8182H128.592V17.5455H116.831V22.0455H127.62V27.7727H116.831V32.2727H128.541V38H109.723ZM132.117 38V11.8182H143.418C145.362 11.8182 147.062 12.2017 148.519 12.9688C149.977 13.7358 151.11 14.8139 151.92 16.2031C152.729 17.5923 153.134 19.2159 153.134 21.0739C153.134 22.9489 152.717 24.5724 151.881 25.9446C151.055 27.3168 149.891 28.3736 148.391 29.1151C146.9 29.8565 145.157 30.2273 143.163 30.2273H136.413V24.7045H141.731C142.566 24.7045 143.278 24.5597 143.866 24.2699C144.462 23.9716 144.918 23.5497 145.234 23.0043C145.558 22.4588 145.719 21.8153 145.719 21.0739C145.719 20.3239 145.558 19.6847 145.234 19.1562C144.918 18.6193 144.462 18.2102 143.866 17.929C143.278 17.6392 142.566 17.4943 141.731 17.4943H139.225V38H132.117ZM180.185 21.6364H172.975C172.924 21.0398 172.788 20.4986 172.566 20.0128C172.353 19.527 172.055 19.1094 171.671 18.7599C171.296 18.402 170.84 18.1293 170.303 17.9418C169.766 17.7457 169.157 17.6477 168.475 17.6477C167.282 17.6477 166.272 17.9375 165.445 18.517C164.627 19.0966 164.005 19.9276 163.579 21.0099C163.161 22.0923 162.952 23.392 162.952 24.9091C162.952 26.5114 163.165 27.8537 163.592 28.9361C164.026 30.0099 164.653 30.8196 165.471 31.3651C166.289 31.902 167.273 32.1705 168.424 32.1705C169.08 32.1705 169.668 32.0895 170.188 31.9276C170.708 31.7571 171.16 31.5142 171.543 31.1989C171.927 30.8835 172.238 30.5043 172.477 30.0611C172.724 29.6094 172.89 29.1023 172.975 28.5398L180.185 28.5909C180.1 29.6989 179.789 30.8281 179.252 31.9787C178.715 33.1207 177.952 34.1776 176.964 35.1491C175.984 36.1122 174.769 36.8878 173.32 37.4759C171.871 38.0639 170.188 38.358 168.271 38.358C165.867 38.358 163.711 37.8423 161.802 36.8111C159.901 35.7798 158.397 34.2628 157.289 32.2599C156.19 30.2571 155.64 27.8068 155.64 24.9091C155.64 21.9943 156.202 19.5398 157.327 17.5455C158.452 15.5426 159.969 14.0298 161.879 13.0071C163.788 11.9759 165.918 11.4602 168.271 11.4602C169.924 11.4602 171.445 11.6861 172.835 12.1378C174.224 12.5895 175.442 13.25 176.491 14.1193C177.539 14.9801 178.383 16.0412 179.022 17.3026C179.661 18.5639 180.049 20.0085 180.185 21.6364ZM199.544 38L191.515 27.4148H190.518V38H183.41V11.8182H190.518V21.6875H191.439L198.956 11.8182H207.904L197.933 24.3977L208.467 38H199.544ZM217.176 38H209.506L218.148 11.8182H227.864L236.506 38H228.835L223.108 19.0284H222.903L217.176 38ZM215.744 27.6705H230.165V32.9886H215.744V27.6705ZM260.658 38H253.55V17.4943H251.044C250.218 17.4943 249.506 17.6094 248.909 17.8395C248.313 18.0611 247.853 18.4105 247.529 18.8878C247.213 19.3565 247.056 19.9659 247.056 20.7159C247.056 21.4574 247.213 22.0582 247.529 22.5185C247.853 22.9787 248.313 23.3153 248.909 23.5284C249.506 23.733 250.218 23.8352 251.044 23.8352H256.363V29.358H249.613C247.627 29.358 245.884 29.0298 244.384 28.3736C242.884 27.7173 241.716 26.7457 240.881 25.4588C240.054 24.1719 239.641 22.5909 239.641 20.7159C239.641 18.858 240.046 17.2642 240.855 15.9347C241.665 14.6051 242.799 13.5866 244.256 12.8793C245.722 12.1719 247.422 11.8182 249.357 11.8182H260.658V38ZM245.317 25.983H252.885L246.493 38H238.772L245.317 25.983ZM270.326 44.2898V32.5284H272.167C272.781 32.1534 273.335 31.625 273.829 30.9432C274.332 30.2614 274.758 29.2855 275.107 28.0156C275.465 26.7457 275.729 25.0455 275.9 22.9148L276.769 11.8182H295.281V32.5284H298.042V44.2898H291.19V38H277.178V44.2898H270.326ZM280.298 32.5284H288.428V17.5455H283.161L282.752 22.9148C282.633 24.517 282.45 25.919 282.202 27.1207C281.964 28.3139 281.678 29.3537 281.346 30.2401C281.022 31.1179 280.673 31.8807 280.298 32.5284ZM325.809 24.9091C325.809 27.8239 325.242 30.2827 324.109 32.2855C322.975 34.2798 321.445 35.7926 319.519 36.8239C317.593 37.8466 315.445 38.358 313.076 38.358C310.69 38.358 308.533 37.8423 306.607 36.8111C304.69 35.7713 303.164 34.2543 302.031 32.2599C300.906 30.2571 300.343 27.8068 300.343 24.9091C300.343 21.9943 300.906 19.5398 302.031 17.5455C303.164 15.5426 304.69 14.0298 306.607 13.0071C308.533 11.9759 310.69 11.4602 313.076 11.4602C315.445 11.4602 317.593 11.9759 319.519 13.0071C321.445 14.0298 322.975 15.5426 324.109 17.5455C325.242 19.5398 325.809 21.9943 325.809 24.9091ZM318.496 24.9091C318.496 23.3409 318.288 22.0199 317.87 20.946C317.461 19.8636 316.852 19.0455 316.042 18.4915C315.241 17.929 314.252 17.6477 313.076 17.6477C311.9 17.6477 310.907 17.929 310.097 18.4915C309.296 19.0455 308.687 19.8636 308.269 20.946C307.86 22.0199 307.656 23.3409 307.656 24.9091C307.656 26.4773 307.86 27.8026 308.269 28.8849C308.687 29.9588 309.296 30.777 310.097 31.3395C310.907 31.8935 311.9 32.1705 313.076 32.1705C314.252 32.1705 315.241 31.8935 316.042 31.3395C316.852 30.777 317.461 29.9588 317.87 28.8849C318.288 27.8026 318.496 26.4773 318.496 24.9091ZM353.541 21.6364H346.331C346.279 21.0398 346.143 20.4986 345.922 20.0128C345.708 19.527 345.41 19.1094 345.027 18.7599C344.652 18.402 344.196 18.1293 343.659 17.9418C343.122 17.7457 342.512 17.6477 341.831 17.6477C340.637 17.6477 339.627 17.9375 338.801 18.517C337.983 19.0966 337.36 19.9276 336.934 21.0099C336.517 22.0923 336.308 23.392 336.308 24.9091C336.308 26.5114 336.521 27.8537 336.947 28.9361C337.382 30.0099 338.008 30.8196 338.826 31.3651C339.645 31.902 340.629 32.1705 341.779 32.1705C342.436 32.1705 343.024 32.0895 343.544 31.9276C344.064 31.7571 344.515 31.5142 344.899 31.1989C345.282 30.8835 345.593 30.5043 345.832 30.0611C346.079 29.6094 346.245 29.1023 346.331 28.5398L353.541 28.5909C353.456 29.6989 353.145 30.8281 352.608 31.9787C352.071 33.1207 351.308 34.1776 350.319 35.1491C349.339 36.1122 348.125 36.8878 346.676 37.4759C345.227 38.0639 343.544 38.358 341.626 38.358C339.223 38.358 337.066 37.8423 335.157 36.8111C333.257 35.7798 331.752 34.2628 330.645 32.2599C329.545 30.2571 328.995 27.8068 328.995 24.9091C328.995 21.9943 329.558 19.5398 330.683 17.5455C331.808 15.5426 333.325 14.0298 335.234 13.0071C337.143 11.9759 339.274 11.4602 341.626 11.4602C343.279 11.4602 344.801 11.6861 346.19 12.1378C347.579 12.5895 348.798 13.25 349.846 14.1193C350.895 14.9801 351.738 16.0412 352.377 17.3026C353.017 18.5639 353.404 20.0085 353.541 21.6364ZM356.05 17.5455V11.8182H378.805V17.5455H370.93V38H363.925V17.5455H356.05ZM384.977 38H377.306L385.949 11.8182H395.664L404.306 38H396.636L390.909 19.0284H390.704L384.977 38ZM383.545 27.6705H397.966V32.9886H383.545V27.6705ZM406.828 38V11.8182H418.18C420.175 11.8182 421.849 12.0866 423.205 12.6236C424.568 13.1605 425.595 13.919 426.286 14.8991C426.984 15.8793 427.334 17.0341 427.334 18.3636C427.334 19.3267 427.121 20.2045 426.695 20.9972C426.277 21.7898 425.689 22.4545 424.93 22.9915C424.172 23.5199 423.286 23.8864 422.271 24.0909V24.3466C423.396 24.3892 424.419 24.6747 425.339 25.2031C426.26 25.723 426.993 26.4432 427.538 27.3636C428.084 28.2756 428.357 29.3494 428.357 30.5852C428.357 32.017 427.982 33.2912 427.232 34.4077C426.49 35.5241 425.433 36.402 424.061 37.0412C422.689 37.6804 421.053 38 419.152 38H406.828ZM413.936 32.3239H417.26C418.453 32.3239 419.348 32.1023 419.945 31.6591C420.541 31.2074 420.839 30.5426 420.839 29.6648C420.839 29.0511 420.699 28.5312 420.418 28.1051C420.136 27.679 419.736 27.3551 419.216 27.1335C418.705 26.9119 418.087 26.8011 417.362 26.8011H413.936V32.3239ZM413.936 22.4034H416.851C417.473 22.4034 418.023 22.3054 418.5 22.1094C418.977 21.9134 419.348 21.6321 419.612 21.2656C419.885 20.8906 420.021 20.4347 420.021 19.8977C420.021 19.0881 419.732 18.4702 419.152 18.044C418.572 17.6094 417.839 17.392 416.953 17.392H413.936V22.4034ZM447.009 38L438.98 27.4148H437.983V38H430.875V11.8182H437.983V21.6875H438.903L446.42 11.8182H455.369L445.398 24.3977L455.932 38H447.009ZM464.641 38H456.971L465.613 11.8182H475.328L483.971 38H476.3L470.573 19.0284H470.368L464.641 38ZM463.209 27.6705H477.63V32.9886H463.209V27.6705Z" fill="#F9F9E5"/>
</svg>
