<svg width="181" height="36" viewBox="0 0 181 36" fill="none" xmlns="http://www.w3.org/2000/svg">
<g clip-path="url(#clip0_334_729)">
<path d="M174.792 7.11145L168.616 13.9623V7.11145H164.147V24.4057H168.616V17.1246L175.227 24.4057H181L172.869 15.3442L180.411 7.11145H174.792Z" fill="#EF3124"/>
<path d="M156.267 13.5615H150.091V7.11145H145.62V24.4057H150.091V17.5869H156.267V24.4057H160.736V7.11145H156.267V13.5615Z" fill="#EF3124"/>
<mask id="mask0_334_729" style="mask-type:luminance" maskUnits="userSpaceOnUse" x="0" y="0" width="181" height="36">
<path d="M181 0H0V36H181V0Z" fill="white"/>
</mask>
<g mask="url(#mask0_334_729)">
<path d="M26.5365 16.4803C26.4297 19.7065 26.0099 20.3508 24.1765 20.3508V24.4057H24.8597C29.4281 24.4057 30.5262 22.0696 30.6951 16.8787L30.8814 11.1344H35.1642V24.4057H39.6333V7.11145H26.847L26.5365 16.4803Z" fill="#EF3124"/>
<path d="M50.7425 12.3639H47.5155V7.11145H43.0464V24.4057H50.8046C55.6786 24.4057 57.4151 21.2729 57.4151 18.3221C57.4151 14.5131 54.993 12.3615 50.7425 12.3615M50.4022 20.5942H47.5155V16.2H50.4022C51.9548 16.2 52.8839 16.8762 52.8839 18.3196C52.8839 19.886 51.9846 20.5942 50.4022 20.5942Z" fill="#EF3124"/>
<path d="M71.9702 6.71065V0.290161H67.5011V6.71065C62.3812 7.14098 58.9355 10.7361 58.9355 15.7426C58.9355 20.7492 62.3812 24.3762 67.5011 24.8066V31.3205H71.9702V24.8066C77.0902 24.4082 80.5358 20.7811 80.5358 15.7426C80.5358 10.7041 77.0902 7.10901 71.9702 6.71065ZM67.5011 20.6287C65.0194 20.2893 63.4668 18.4475 63.4668 15.7451C63.4668 13.0426 65.0194 11.1984 67.5011 10.8615V20.6311V20.6287ZM71.9702 20.6287V10.859C74.452 11.1959 76.0046 13.0402 76.0046 15.7426C76.0046 18.4451 74.452 20.2893 71.9702 20.6262" fill="#EF3124"/>
<path d="M97.2968 19.0918V13.2861C97.2968 9.04673 94.5667 6.37378 89.9733 6.37378C85.38 6.37378 82.712 9.20165 82.4934 12.15H87.0246C87.1786 11.5057 87.8618 10.3992 89.9733 10.3992C91.7123 10.3992 92.8277 11.1984 92.8277 13.2861H88.3884C84.4162 13.2861 82.0562 15.3443 82.0562 18.7844C82.0562 22.2246 84.6373 24.8361 88.3561 24.8361C91.0838 24.8361 92.5992 23.5598 93.26 22.5935C93.8487 23.7615 95.1529 24.4057 96.8596 24.4057H98.4122V20.4123C97.6049 20.4123 97.2943 20.0435 97.2943 19.0918M92.8252 17.9557C92.8252 19.9525 91.3968 21.0885 89.5361 21.0885C87.9214 21.0885 86.6495 20.5057 86.6495 18.7844C86.6495 17.0631 88.0456 16.8197 89.2554 16.8197H92.8252V17.9557Z" fill="#EF3124"/>
<path d="M116.448 9.56803H111.452V4.68442H123.028V0.290161H106.767V24.4057H116.45C121.818 24.4057 124.891 21.7648 124.891 16.9107C124.891 12.3344 121.818 9.56803 116.45 9.56803M116.234 20.0434H111.454V13.7754H116.234C118.716 13.7754 120.114 14.9115 120.114 16.9082C120.114 18.9049 118.718 20.041 116.234 20.041" fill="#EF3124"/>
<path d="M141.99 19.0918V13.2861C141.99 9.04673 139.26 6.37378 134.667 6.37378C130.074 6.37378 127.406 9.20165 127.187 12.15H131.718C131.872 11.5057 132.555 10.3992 134.667 10.3992C136.406 10.3992 137.521 11.1984 137.521 13.2861H133.082C129.11 13.2861 126.75 15.3443 126.75 18.7844C126.75 22.2246 129.331 24.8361 133.05 24.8361C135.777 24.8361 137.293 23.5598 137.954 22.5935C138.542 23.7615 139.847 24.4057 141.553 24.4057H143.106V20.4123C142.298 20.4123 141.988 20.0435 141.988 19.0918M137.519 17.9557C137.519 19.9525 136.09 21.0885 134.23 21.0885C132.615 21.0885 131.343 20.5057 131.343 18.7844C131.343 17.0631 132.739 16.8197 133.949 16.8197H137.519V17.9557Z" fill="#EF3124"/>
<path d="M23.8982 31.0845H0V36H23.8982V31.0845Z" fill="#EF3124"/>
<path d="M16.294 3.6C15.6108 1.58852 14.8258 0 12.1354 0C9.44497 0 8.60779 1.58115 7.89234 3.6L0.496826 24.4057H5.40067L7.10733 19.4607H16.5424L18.1248 24.4057H23.3392L16.294 3.6ZM8.53575 15.2828L11.887 5.42213H12.0112L15.1761 15.2828H8.53327H8.53575Z" fill="#EF3124"/>
</g>
</g>
<defs>
<clipPath id="clip0_334_729">
<rect width="181" height="36" fill="white"/>
</clipPath>
</defs>
</svg>
