<svg width="170" height="46" viewBox="0 0 170 46" fill="none" xmlns="http://www.w3.org/2000/svg">
<g clip-path="url(#clip0_334_780)">
<path d="M54.9875 24.9204H63.4825V27.5309H58.1687V30.2104H59.9361C61.1261 30.2104 62.6577 30.3484 63.8124 31.4524C64.3073 31.9354 64.9199 32.8209 64.9199 34.2469C64.9199 35.3969 64.5311 36.4204 63.8124 37.1219C62.7991 38.1109 61.3381 38.3294 59.6651 38.3294H54.9875V24.9204ZM59.4176 35.8339C59.8536 35.8339 60.6312 35.7994 61.1261 35.4084C61.291 35.2704 61.6563 34.9024 61.6563 34.2239C61.6563 33.5799 61.3264 33.1774 61.0436 32.9819C60.5487 32.6369 59.7475 32.6254 59.4176 32.6254H58.157V35.8454H59.4176V35.8339Z" fill="#2B2D33"/>
<path d="M73.4738 29.3595H76.4429V38.3295H73.4738V37.2485C72.6726 38.456 71.5179 38.64 70.7521 38.64C69.4325 38.64 68.3249 38.318 67.3117 37.2715C66.3455 36.271 65.9685 35.098 65.9685 33.9135C65.9685 32.407 66.5458 31.119 67.3941 30.291C68.1953 29.509 69.3146 29.0605 70.5871 29.0605C71.3647 29.0605 72.6254 29.2445 73.4738 30.3715V29.3595ZM69.7035 32.2C69.3971 32.499 69.0201 33.028 69.0201 33.833C69.0201 34.638 69.3736 35.1555 69.6328 35.443C70.0451 35.8685 70.6814 36.1445 71.3883 36.1445C71.9892 36.1445 72.543 35.903 72.9318 35.5235C73.3206 35.167 73.6505 34.6035 73.6505 33.833C73.6505 33.189 73.4031 32.591 72.9671 32.1885C72.5194 31.763 71.8596 31.5675 71.3176 31.5675C70.6814 31.556 70.0923 31.8205 69.7035 32.2Z" fill="#2B2D33"/>
<path d="M78.2339 29.3595H81.203V32.476H84.5254V29.3595H87.4945V38.3295H84.5254V34.8105H81.203V38.3295H78.2339V29.3595Z" fill="#2B2D33"/>
<path d="M89.2737 29.3595H92.2428V32.9245L95.2472 29.3595H98.9351L94.9998 33.5225L99.2061 38.3295H95.3768L92.2428 34.3505V38.3295H89.2737V29.3595Z" fill="#2B2D33"/>
<path d="M59.83 7.67041C61.02 7.67041 62.3396 7.83141 63.4353 8.77442C64.6135 9.77492 64.7785 11.1089 64.7785 12.0289C64.7785 13.7194 64.1187 14.6624 63.6003 15.1914C62.5045 16.2724 61.0671 16.3759 60.101 16.3759H58.1687V21.0794H54.9993V7.67041H59.83ZM58.1569 13.8459H59.288C59.7239 13.8459 60.478 13.8229 60.9964 13.3399C61.2792 13.0639 61.5148 12.5924 61.5148 12.0174C61.5148 11.4539 61.3145 10.9939 60.9964 10.7064C60.5251 10.2694 59.8417 10.2004 59.2291 10.2004H58.1569V13.8459Z" fill="#2B2D33"/>
<path d="M72.5194 12.1095H75.4885V21.0795H72.5194V19.9985C71.7182 21.206 70.5636 21.39 69.7977 21.39C68.4781 21.39 67.3706 21.068 66.3573 20.0215C65.3912 19.021 65.0142 17.848 65.0142 16.6635C65.0142 15.157 65.5915 13.869 66.4398 13.041C67.241 12.259 68.3603 11.8105 69.6328 11.8105C70.4104 11.8105 71.6711 11.9945 72.5194 13.1215V12.1095ZM68.7491 14.95C68.4428 15.249 68.0657 15.778 68.0657 16.583C68.0657 17.388 68.4192 17.9055 68.6784 18.193C69.0908 18.6185 69.727 18.8945 70.434 18.8945C71.0349 18.8945 71.5886 18.653 71.9774 18.2735C72.3662 17.917 72.6961 17.3535 72.6961 16.583C72.6961 15.939 72.4487 15.341 72.0128 14.9385C71.5651 14.513 70.9053 14.3175 70.3633 14.3175C69.7388 14.306 69.1379 14.5705 68.7491 14.95Z" fill="#2B2D33"/>
<path d="M80.2486 12.1095V17.2385L84.1602 12.1095H86.9172V21.0795H83.9483V15.87L80.0366 21.0795H77.2795V12.1095H80.2486ZM85.8332 8.48697C85.5858 9.21147 85.091 9.83247 84.5136 10.2005C83.7362 10.7065 82.7818 10.764 82.0985 10.764C81.4151 10.764 80.4725 10.7065 79.6831 10.2005C79.1058 9.84397 78.6109 9.21147 78.3635 8.48697L80.4254 7.70496C80.5079 8.10746 80.7082 8.42947 80.9556 8.62497C81.2266 8.84347 81.5683 8.98147 82.0867 8.98147C82.6051 8.98147 82.9468 8.84347 83.2178 8.62497C83.4652 8.42947 83.6655 8.10746 83.748 7.70496L85.8332 8.48697Z" fill="#2B2D33"/>
<path d="M93.4797 25.5529V21.2174H93.3619C91.2764 21.2174 90.1218 20.3779 89.5916 19.8719C88.9318 19.2509 88.272 18.1814 88.272 16.5484C88.272 14.7774 89.0967 13.6504 89.8626 13.0524C90.7698 12.3509 92.1247 11.9714 93.3501 11.9714H93.4915V7.67041H96.4606V11.9714H96.602C97.8155 11.9714 99.1823 12.3509 100.089 13.0524C100.855 13.6504 101.68 14.7774 101.68 16.5484C101.68 18.1814 101.02 19.2394 100.36 19.8719C99.8303 20.3779 98.6756 21.2174 96.5902 21.2174H96.4724V25.5529H93.4797ZM93.6211 14.3059C92.9259 14.2714 92.1954 14.5014 91.7713 14.9269C91.4178 15.2719 91.1704 15.8469 91.1704 16.5599C91.1704 17.2614 91.4178 17.8479 91.7713 18.2044C92.1601 18.6299 92.867 18.9059 93.6211 18.8829V14.3059ZM96.3074 18.8944C97.0733 18.9174 97.7684 18.6299 98.1572 18.2159C98.5107 17.8594 98.7581 17.2729 98.7581 16.5714C98.7581 15.8699 98.5107 15.2834 98.1572 14.9384C97.7213 14.5129 97.0026 14.2714 96.3074 14.3174V18.8944Z" fill="#2B2D33"/>
<path d="M107.76 25.5529V21.2174H107.642C105.556 21.2174 104.402 20.3779 103.872 19.8719C103.212 19.2509 102.552 18.1814 102.552 16.5484C102.552 14.7774 103.377 13.6504 104.143 13.0524C105.05 12.3509 106.405 11.9714 107.63 11.9714H107.772V7.67041H110.741V11.9714H110.882C112.096 11.9714 113.462 12.3509 114.37 13.0524C115.135 13.6504 115.96 14.7774 115.96 16.5484C115.96 18.1814 115.3 19.2394 114.641 19.8719C114.11 20.3779 112.956 21.2174 110.87 21.2174H110.752V25.5529H107.76ZM107.901 14.3059C107.206 14.2714 106.475 14.5014 106.051 14.9269C105.698 15.2719 105.45 15.8469 105.45 16.5599C105.45 17.2614 105.698 17.8479 106.051 18.2044C106.44 18.6299 107.147 18.9059 107.901 18.8829V14.3059ZM110.587 18.8944C111.353 18.9174 112.048 18.6299 112.437 18.2159C112.791 17.8594 113.038 17.2729 113.038 16.5714C113.038 15.8699 112.791 15.2834 112.437 14.9384C112.001 14.5129 111.283 14.2714 110.587 14.3174V18.8944Z" fill="#2B2D33"/>
<path d="M124.326 12.1095H127.295V21.0795H124.326V19.9985C123.524 21.206 122.37 21.39 121.604 21.39C120.284 21.39 119.177 21.068 118.163 20.0215C117.197 19.021 116.82 17.848 116.82 16.6635C116.82 15.157 117.398 13.869 118.246 13.041C119.047 12.259 120.166 11.8105 121.439 11.8105C122.217 11.8105 123.477 11.9945 124.326 13.1215V12.1095ZM120.555 14.95C120.249 15.249 119.872 15.778 119.872 16.583C119.872 17.388 120.225 17.9055 120.485 18.193C120.897 18.6185 121.533 18.8945 122.24 18.8945C122.841 18.8945 123.395 18.653 123.784 18.2735C124.172 17.917 124.502 17.3535 124.502 16.583C124.502 15.939 124.255 15.341 123.819 14.9385C123.371 14.513 122.711 14.3175 122.169 14.3175C121.545 14.306 120.944 14.5705 120.555 14.95Z" fill="#2B2D33"/>
<path d="M132.055 12.1095V17.2385L135.966 12.1095H138.723V21.0795H135.754V15.87L131.842 21.0795H129.085V12.1095H132.055ZM137.639 8.48697C137.392 9.21147 136.897 9.83247 136.32 10.2005C135.542 10.7065 134.588 10.764 133.904 10.764C133.221 10.764 132.278 10.7065 131.489 10.2005C130.912 9.84397 130.417 9.21147 130.169 8.48697L132.231 7.70496C132.314 8.10746 132.514 8.42947 132.761 8.62497C133.032 8.84347 133.374 8.98147 133.893 8.98147C134.411 8.98147 134.753 8.84347 135.024 8.62497C135.271 8.42947 135.471 8.10746 135.554 7.70496L137.639 8.48697Z" fill="#2B2D33"/>
<path d="M140.22 12.88C140.608 12.6385 141.245 12.3165 141.74 12.1325C142.435 11.891 143.201 11.8105 143.907 11.8105C144.402 11.8105 146.087 11.845 147.018 12.7305C147.536 13.2135 147.701 13.777 147.701 14.375C147.701 14.9385 147.595 15.4445 147.148 15.9045C146.924 16.123 146.653 16.307 146.37 16.4105C147.053 16.5715 147.477 16.928 147.607 17.0545C148.055 17.48 148.22 17.963 148.22 18.538C148.22 19.159 148.019 19.826 147.419 20.4125C146.641 21.16 145.569 21.3785 144.037 21.3785C143.212 21.3785 142.352 21.275 141.527 20.976C140.726 20.677 140.125 20.2285 139.878 20.033L141.139 18.124C141.469 18.4 141.904 18.6875 142.27 18.8485C142.659 19.0095 143.212 19.1245 143.695 19.1245C144.025 19.1245 144.473 19.067 144.768 18.906C145.121 18.7105 145.18 18.423 145.18 18.2275C145.18 17.9285 145.015 17.7445 144.744 17.6295C144.497 17.526 144.002 17.4685 143.672 17.4685H142.564V15.502H143.413C143.684 15.502 144.237 15.4675 144.52 15.341C144.874 15.18 144.956 14.9155 144.956 14.743C144.956 14.582 144.874 14.3175 144.508 14.1565C144.367 14.099 144.072 13.9955 143.578 13.9955C143.106 13.9955 142.753 14.076 142.364 14.237C141.975 14.398 141.669 14.582 141.374 14.8235L140.22 12.88Z" fill="#2B2D33"/>
<path d="M158.965 17.1005H152.108C152.108 17.5835 152.297 18.2275 152.662 18.63C153.11 19.113 153.734 19.1934 154.182 19.1934C154.618 19.1934 155.065 19.113 155.372 18.929C155.407 18.906 155.76 18.6875 156.008 18.1815L158.812 18.4574C158.4 19.7224 157.575 20.3895 157.045 20.7115C156.161 21.229 155.171 21.3784 154.135 21.3784C152.756 21.3784 151.542 21.137 150.47 20.0905C149.669 19.3085 149.092 18.1239 149.092 16.6289C149.092 15.3409 149.563 14.0185 150.494 13.087C151.601 12.006 152.992 11.799 154.017 11.799C155.042 11.799 156.526 11.983 157.669 13.1445C158.765 14.2715 158.965 15.6745 158.965 16.79V17.1005ZM156.232 15.3755C156.208 15.295 156.067 14.7315 155.631 14.329C155.301 14.03 154.83 13.8229 154.229 13.8229C153.463 13.8229 153.015 14.1219 152.721 14.4094C152.497 14.6509 152.285 14.973 152.202 15.3755H156.232Z" fill="#2B2D33"/>
<path d="M160.308 12.1095H163.277V15.226H166.6V12.1095H169.569V21.0795H166.6V17.5605H163.277V21.0795H160.308V12.1095Z" fill="#2B2D33"/>
<path d="M47.1287 37.306C47.1287 42.895 43.9475 46 38.2214 46H8.90733C3.18119 46 0 42.895 0 37.306V8.694C0 3.105 3.18119 0 8.90733 0H38.2332C43.9475 0 47.1287 3.105 47.1287 8.694V37.306Z" fill="#FEE600"/>
<path d="M30.3036 20.7573V16.3643L31.9296 14.7773V18.5838L33.3434 19.9638L39.0342 14.4093L40.4363 15.7778C40.4245 14.7428 40.2124 11.7413 37.6086 9.24583C34.8044 6.60085 31.7646 7.79685 30.7278 8.80883L25.0488 14.3518L26.498 15.7663L23.5642 18.6528L20.6305 15.7893L22.0797 14.3748L16.4007 8.83183C15.3638 7.81985 12.324 6.62385 9.51986 9.26883C6.916 11.7643 6.70392 14.7658 6.69214 15.8008L8.09422 14.4323L13.785 19.9868L15.1989 18.6068V14.8003L16.8248 16.3873V20.7803L19.1106 22.9998L7.84679 33.9938L12.3005 38.3293L23.5642 27.3468L34.828 38.3408L39.2816 34.0053L28.0179 22.9998L30.3036 20.7573Z" fill="#2B2D33"/>
</g>
<defs>
<clipPath id="clip0_334_780">
<rect width="170" height="46" fill="white"/>
</clipPath>
</defs>
</svg>
