<svg width="327" height="38" viewBox="0 0 327 38" fill="none" xmlns="http://www.w3.org/2000/svg">
<path d="M23.0952 0.399902V10.2003H19.2239C14.3334 10.2003 10.3931 14.0672 10.3931 18.8679C10.3931 23.6668 14.3334 27.5337 19.2221 27.5337H23.0952V37.3341C31.9242 35.6675 38.5151 28.0675 38.5151 18.8661C38.5151 9.73343 31.926 2.13343 23.0952 0.399902Z" fill="#003791"/>
<path d="M19.224 30.599C12.6349 30.599 7.26667 25.3333 7.26667 18.8679C7.26667 12.4025 12.6331 7.13495 19.2203 7.13495H19.9688V0H19.2222C8.62735 0 0 8.46676 0 18.8661C0 29.3342 8.62735 37.801 19.224 37.801H19.9706V30.6027H19.224V30.599ZM65.6852 25.4672C64.1288 26.7214 62.1864 27.4038 60.1843 27.3998C55.3611 27.3998 51.4898 23.5998 51.4898 18.8661C51.4898 14.1342 55.3593 10.3342 60.1843 10.3342C62.2837 10.3252 64.3133 11.0837 65.8887 12.4658L68.9461 9.46743C66.542 7.31163 63.4192 6.123 60.1843 6.13248C52.9831 6.13248 47.2097 11.8669 47.2097 18.8661C47.2097 25.8671 52.9831 31.6667 60.1843 31.6667C63.5125 31.6667 66.5009 30.467 68.7427 28.4674L65.6852 25.4672ZM203.919 7.13314L194.342 18.4662L184.695 7.13314L184.628 7.26705V7.13314H180.755V30.6009H184.628V13.3995L194.342 24.7326L203.919 13.6673V30.6009H207.723V7.13314H203.919ZM97.7476 18.8661C97.7476 25.9341 91.9052 31.5997 84.7729 31.5997C77.5735 31.5997 71.8001 25.8671 71.8001 18.8661C71.8001 11.8669 77.6407 6.13248 84.7729 6.13248C91.9052 6.13248 97.7476 11.8669 97.7476 18.8661ZM93.4003 18.8661C93.4003 14.1342 89.529 10.3342 84.7057 10.3342C79.8825 10.3342 76.0111 14.1342 76.0111 18.8661C76.0111 23.5998 79.8825 27.3998 84.7057 27.3998C89.529 27.3998 93.4003 23.5998 93.4003 18.8661ZM176.816 18.8661C176.816 25.9341 170.974 31.5997 163.842 31.5997C156.64 31.5997 150.867 25.8671 150.867 18.8661C150.867 11.8669 156.709 6.13248 163.842 6.13248C171.041 6.13248 176.816 11.8669 176.816 18.8661ZM172.536 18.8661C172.536 14.1342 168.665 10.3342 163.842 10.3342C159.018 10.3342 155.147 14.1342 155.147 18.8661C155.147 23.5998 159.018 27.3998 163.842 27.3998C168.596 27.3998 172.536 23.5998 172.536 18.8661ZM150.8 7.13314H145.568L135.72 17.0005H131.712V7.13314H127.908V30.6009H131.712V20.8005H135.65L145.5 30.6009H150.663L138.98 18.9331L150.8 7.13314Z" fill="#FF4B5F"/>
<path d="M311.922 7.13318H306.762L296.843 17.0005H292.836V7.13318H289.032V30.6009H292.836V20.8005H296.843L306.624 30.6009H311.787L300.172 18.9331L311.922 7.13318ZM255.678 30.5991H259.892L249.361 7.13318H245.014L234.486 30.6009H238.697L241.006 25.5342H253.371L255.678 30.5991ZM242.707 21.7994L247.188 11.9338L251.672 21.7994H242.705H242.707Z" fill="#003791"/>
<path d="M123.017 23.8007C123.017 22.8731 122.824 21.9555 122.45 21.1061C122.076 20.2567 121.528 19.494 120.843 18.8661C122.133 17.5995 123.017 15.866 123.017 13.9334C123.012 12.1257 122.286 10.3941 120.999 9.11912C119.713 7.84409 117.971 7.12982 116.156 7.13319H102.164V30.666H116.156C119.96 30.6009 123.017 27.5338 123.017 23.8007ZM106.035 10.935H116.089C117.787 10.935 119.144 12.2668 119.144 13.9334C119.144 15.6 117.787 16.9336 116.089 16.9336H106.035V10.9332V10.935ZM116.089 26.866H106.035V20.8005H116.156C117.854 20.8005 119.213 22.1993 119.213 23.8007C119.144 25.4655 117.787 26.866 116.089 26.866Z" fill="#FF4B5F"/>
<path d="M280.404 7.20013V17.0005H266.48V7.20013H262.608V30.5339H266.48V20.7987H280.404V30.5339H284.278V7.20013H280.404ZM233.127 23.8007C233.127 20.0658 230.003 17.0005 226.199 17.0005H216.145V10.9332H230.818V7.13318H212.274V30.666H226.199C230.003 30.6009 233.127 27.5338 233.127 23.8007ZM226.199 26.866H216.145V20.8005H226.199C227.897 20.8005 229.256 22.1993 229.256 23.8007C229.256 25.4655 227.897 26.866 226.199 26.866Z" fill="#003791"/>
</svg>
