<svg width="104" height="37" viewBox="0 0 104 37" fill="none" xmlns="http://www.w3.org/2000/svg">
<g clip-path="url(#clip0_334_726)">
<path d="M29.9572 4.73182H5.35856L7.13064 0H31.7293L29.9572 4.73182ZM29.0712 7.09773H4.46144L2.68937 11.8296H27.288L29.0712 7.09773ZM26.4131 14.174H1.80333L0.03125 18.9058H24.6078L26.4131 14.174Z" fill="#009FDF"/>
<path d="M88.5687 30.7461H92.9989C93.6286 30.8191 94.2671 30.7406 94.8581 30.5174C95.4491 30.2942 95.9745 29.9333 96.388 29.4664C96.9957 28.6942 97.3018 27.7378 97.2519 26.7671C97.2935 26.1494 97.1766 25.5314 96.9118 24.9684C96.647 24.4053 96.2425 23.9148 95.7345 23.5409C94.9122 23.0184 93.9342 22.7763 92.9546 22.8526H88.5687V30.7461ZM82.7541 35.5102V7.09778H101.793L100.12 11.8619H88.5687V18.153H93.2758C97.0747 18.153 99.0461 19.0349 100.408 20.1641C101.382 21.0015 102.148 22.0422 102.649 23.2081C103.15 24.3741 103.372 25.6349 103.299 26.8961C103.374 28.2543 103.098 29.6091 102.496 30.8374C101.895 32.0656 100.987 33.1285 99.8546 33.9294C98.0272 35.1553 96.1111 35.4995 92.2125 35.4995L82.7541 35.5102ZM65.8972 35.5102V11.8511H57.4355V7.09778H80.9266L79.2542 11.8619H71.7672V35.521L65.8972 35.5102ZM42.4504 18.4757H45.773C46.4526 18.5207 47.1353 18.47 47.7998 18.3251C48.491 18.1107 49.0866 17.6747 49.4891 17.0885C49.8915 16.5023 50.077 15.8008 50.0149 15.0989C50.1071 14.4014 49.9325 13.6953 49.5242 13.1145C49.116 12.5337 48.5024 12.1186 47.7998 11.9479C47.0742 11.7843 46.3288 11.7192 45.5847 11.7543H42.4504V18.4757ZM42.4504 23.3903V30.8429H46.504C47.6212 30.9669 48.7444 30.6663 49.6384 30.0041C50.0504 29.6334 50.3731 29.1791 50.5837 28.6735C50.7943 28.168 50.8875 27.6235 50.8567 27.079C50.8743 26.2089 50.6024 25.3566 50.0814 24.6485C49.2175 23.5731 48.1543 23.3688 46.3379 23.3688L42.4504 23.3903ZM51.8202 20.3899V20.4867C52.8077 20.8558 53.7305 21.3709 54.5559 22.0138C55.3902 22.6861 56.0496 23.5398 56.4806 24.5058C56.9117 25.4718 57.1022 26.5228 57.0368 27.5737C57.0368 31.4559 54.9103 34.2627 51.4215 35.1016C50.0309 35.4316 48.5985 35.5657 47.1685 35.4995H36.6357V7.09778H46.0056C47.4938 7.04495 48.9828 7.17869 50.4358 7.49568C53.8249 8.37752 56.0511 10.6466 56.0511 14.2278C56.0788 15.0816 55.9271 15.9319 55.6053 16.7269C55.2835 17.522 54.7983 18.245 54.1793 18.8521C53.522 19.5001 52.739 20.0155 51.8756 20.3684L51.8202 20.3899Z" fill="#0A2973"/>
</g>
<defs>
<clipPath id="clip0_334_726">
<rect width="104" height="37" fill="white"/>
</clipPath>
</defs>
</svg>
