<svg width="283" height="61" viewBox="0 0 283 61" fill="none" xmlns="http://www.w3.org/2000/svg">
<rect width="283" height="61" fill="#F87000"/>
<path d="M50.6875 44V17.8182H61.9886C63.9318 17.8182 65.6321 18.1719 67.0895 18.8793C68.5469 19.5866 69.6804 20.6051 70.4901 21.9347C71.2997 23.2642 71.7045 24.858 71.7045 26.7159C71.7045 28.5909 71.2869 30.1719 70.4517 31.4588C69.625 32.7457 68.4616 33.7173 66.9616 34.3736C65.4702 35.0298 63.7273 35.358 61.733 35.358H54.983V29.8352H60.3011C61.1364 29.8352 61.848 29.733 62.4361 29.5284C63.0327 29.3153 63.4886 28.9787 63.804 28.5185C64.1278 28.0582 64.2898 27.4574 64.2898 26.7159C64.2898 25.9659 64.1278 25.3565 63.804 24.8878C63.4886 24.4105 63.0327 24.0611 62.4361 23.8395C61.848 23.6094 61.1364 23.4943 60.3011 23.4943H57.7955V44H50.6875ZM66.0284 31.983L72.5739 44H64.8523L58.4602 31.983H66.0284ZM74.7344 44V17.8182H93.6037V23.5455H81.8423V28.0455H92.6321V33.7727H81.8423V38.2727H93.5526V44H74.7344ZM104.288 17.8182L109.657 36.2784H109.862L115.231 17.8182H123.26L114.618 44H104.902L96.2596 17.8182H104.288ZM132.889 17.8182V44H125.781V17.8182H132.889ZM136.258 44V17.8182H155.127V23.5455H143.366V28.0455H154.156V33.7727H143.366V38.2727H155.076V44H136.258ZM165.3 44L157.578 17.8182H165.505L169.084 33.9261H169.289L173.533 17.8182H179.772L184.016 33.9773H184.221L187.8 17.8182H195.726L188.005 44H181.203L176.755 29.375H176.55L172.101 44H165.3ZM211.719 26C211.651 25.1477 211.331 24.483 210.76 24.0057C210.198 23.5284 209.341 23.2898 208.191 23.2898C207.458 23.2898 206.857 23.3793 206.388 23.5582C205.928 23.7287 205.587 23.9631 205.365 24.2614C205.144 24.5597 205.029 24.9006 205.02 25.2841C205.003 25.5994 205.059 25.8849 205.186 26.1406C205.323 26.3878 205.536 26.6136 205.826 26.8182C206.115 27.0142 206.486 27.1932 206.938 27.3551C207.39 27.517 207.926 27.6619 208.549 27.7898L210.696 28.25C212.145 28.5568 213.385 28.9616 214.417 29.4645C215.448 29.9673 216.292 30.5597 216.948 31.2415C217.604 31.9148 218.086 32.6733 218.392 33.517C218.708 34.3608 218.87 35.2812 218.878 36.2784C218.87 38 218.439 39.4574 217.587 40.6506C216.735 41.8438 215.516 42.7514 213.931 43.3736C212.354 43.9957 210.458 44.3068 208.242 44.3068C205.966 44.3068 203.98 43.9702 202.284 43.2969C200.597 42.6236 199.284 41.5881 198.347 40.1903C197.418 38.7841 196.949 36.9858 196.941 34.7955H203.691C203.733 35.5966 203.934 36.2699 204.292 36.8153C204.65 37.3608 205.152 37.7741 205.8 38.0554C206.456 38.3366 207.236 38.4773 208.14 38.4773C208.898 38.4773 209.533 38.3835 210.044 38.196C210.556 38.0085 210.944 37.7486 211.208 37.4162C211.472 37.0838 211.608 36.7045 211.617 36.2784C211.608 35.8778 211.476 35.5284 211.221 35.2301C210.973 34.9233 210.564 34.6506 209.993 34.4119C209.422 34.1648 208.651 33.9347 207.679 33.7216L205.071 33.1591C202.753 32.6562 200.925 31.8168 199.587 30.6406C198.257 29.456 197.597 27.8409 197.605 25.7955C197.597 24.1335 198.04 22.6804 198.935 21.4361C199.838 20.1832 201.087 19.2074 202.681 18.5085C204.283 17.8097 206.12 17.4602 208.191 17.4602C210.304 17.4602 212.132 17.8139 213.675 18.5213C215.218 19.2287 216.407 20.2259 217.242 21.5128C218.086 22.7912 218.512 24.2869 218.52 26H211.719Z" fill="#F9F9E5"/>
</svg>
