<svg width="283" height="61" viewBox="0 0 283 61" fill="none" xmlns="http://www.w3.org/2000/svg">
<rect width="283" height="61" fill="#F87000"/>
<path d="M76.0511 30.9091C76.0511 33.8239 75.4844 36.2827 74.3509 38.2855C73.2173 40.2798 71.6875 41.7926 69.7614 42.8239C67.8352 43.8466 65.6875 44.358 63.3182 44.358C60.9318 44.358 58.7756 43.8423 56.8494 42.8111C54.9318 41.7713 53.4062 40.2543 52.2727 38.2599C51.1477 36.2571 50.5852 33.8068 50.5852 30.9091C50.5852 27.9943 51.1477 25.5398 52.2727 23.5455C53.4062 21.5426 54.9318 20.0298 56.8494 19.0071C58.7756 17.9759 60.9318 17.4602 63.3182 17.4602C65.6875 17.4602 67.8352 17.9759 69.7614 19.0071C71.6875 20.0298 73.2173 21.5426 74.3509 23.5455C75.4844 25.5398 76.0511 27.9943 76.0511 30.9091ZM68.7386 30.9091C68.7386 29.3409 68.5298 28.0199 68.1122 26.946C67.7031 25.8636 67.0938 25.0455 66.2841 24.4915C65.483 23.929 64.4943 23.6477 63.3182 23.6477C62.142 23.6477 61.1491 23.929 60.3395 24.4915C59.5384 25.0455 58.929 25.8636 58.5114 26.946C58.1023 28.0199 57.8977 29.3409 57.8977 30.9091C57.8977 32.4773 58.1023 33.8026 58.5114 34.8849C58.929 35.9588 59.5384 36.777 60.3395 37.3395C61.1491 37.8935 62.142 38.1705 63.3182 38.1705C64.4943 38.1705 65.483 37.8935 66.2841 37.3395C67.0938 36.777 67.7031 35.9588 68.1122 34.8849C68.5298 33.8026 68.7386 32.4773 68.7386 30.9091ZM77.3935 23.5455V17.8182H100.149V23.5455H92.2741V44H85.2685V23.5455H77.3935ZM113.103 44.358C111.04 44.358 109.208 44.0043 107.605 43.2969C106.012 42.581 104.759 41.5966 103.847 40.3438C102.935 39.0909 102.475 37.6506 102.466 36.0227H109.625C109.634 36.5256 109.787 36.9773 110.086 37.3778C110.392 37.7699 110.81 38.0767 111.338 38.2983C111.867 38.5199 112.472 38.6307 113.154 38.6307C113.81 38.6307 114.39 38.5156 114.892 38.2855C115.395 38.0469 115.787 37.7187 116.069 37.3011C116.35 36.8835 116.486 36.4062 116.478 35.8693C116.486 35.3409 116.324 34.8722 115.992 34.4631C115.668 34.054 115.212 33.7344 114.624 33.5043C114.036 33.2741 113.358 33.1591 112.591 33.1591H109.932V28.25H112.591C113.299 28.25 113.921 28.1349 114.458 27.9048C115.003 27.6747 115.425 27.3551 115.723 26.946C116.03 26.5369 116.179 26.0682 116.171 25.5398C116.179 25.0284 116.056 24.5767 115.8 24.1847C115.544 23.7926 115.186 23.4858 114.726 23.2642C114.275 23.0426 113.75 22.9318 113.154 22.9318C112.506 22.9318 111.926 23.0469 111.415 23.277C110.912 23.5071 110.516 23.8267 110.226 24.2358C109.936 24.6449 109.787 25.1136 109.779 25.642H102.978C102.986 24.0398 103.425 22.625 104.294 21.3977C105.172 20.1705 106.374 19.2074 107.9 18.5085C109.425 17.8097 111.176 17.4602 113.154 17.4602C115.088 17.4602 116.797 17.7884 118.28 18.4446C119.772 19.1009 120.935 20.0043 121.77 21.1548C122.614 22.2969 123.032 23.6051 123.023 25.0795C123.04 26.5455 122.537 27.7472 121.515 28.6847C120.5 29.6222 119.213 30.1761 117.654 30.3466V30.5511C119.767 30.7812 121.357 31.429 122.422 32.4943C123.488 33.5511 124.012 34.8807 123.995 36.483C124.003 38.017 123.543 39.3764 122.614 40.5611C121.694 41.7457 120.411 42.6747 118.766 43.348C117.13 44.0213 115.242 44.358 113.103 44.358ZM131.617 26.6136H137.038C139.245 26.6136 141.171 26.9673 142.816 27.6747C144.469 28.3821 145.752 29.3793 146.664 30.6662C147.585 31.9531 148.04 33.4659 148.032 35.2045C148.04 36.9432 147.585 38.473 146.664 39.794C145.752 41.1151 144.469 42.1463 142.816 42.8878C141.171 43.6293 139.245 44 137.038 44H127.271V17.8182H134.379V38.4261H137.038C137.898 38.4261 138.619 38.2855 139.198 38.0043C139.786 37.723 140.229 37.3352 140.528 36.8409C140.835 36.3466 140.984 35.7841 140.975 35.1534C140.984 34.2585 140.651 33.517 139.978 32.929C139.305 32.3324 138.325 32.0341 137.038 32.0341H131.617V26.6136ZM156.981 17.8182V44H149.873V17.8182H156.981ZM160.34 44V17.8182H171.692C173.686 17.8182 175.361 18.0866 176.716 18.6236C178.08 19.1605 179.107 19.919 179.797 20.8991C180.496 21.8793 180.846 23.0341 180.846 24.3636C180.846 25.3267 180.632 26.2045 180.206 26.9972C179.789 27.7898 179.201 28.4545 178.442 28.9915C177.684 29.5199 176.797 29.8864 175.783 30.0909V30.3466C176.908 30.3892 177.931 30.6747 178.851 31.2031C179.772 31.723 180.505 32.4432 181.05 33.3636C181.596 34.2756 181.868 35.3494 181.868 36.5852C181.868 38.017 181.493 39.2912 180.743 40.4077C180.002 41.5241 178.945 42.402 177.573 43.0412C176.201 43.6804 174.564 44 172.664 44H160.34ZM167.448 38.3239H170.772C171.965 38.3239 172.86 38.1023 173.456 37.6591C174.053 37.2074 174.351 36.5426 174.351 35.6648C174.351 35.0511 174.211 34.5312 173.929 34.1051C173.648 33.679 173.248 33.3551 172.728 33.1335C172.216 32.9119 171.598 32.8011 170.874 32.8011H167.448V38.3239ZM167.448 28.4034H170.363C170.985 28.4034 171.534 28.3054 172.012 28.1094C172.489 27.9134 172.86 27.6321 173.124 27.2656C173.397 26.8906 173.533 26.4347 173.533 25.8977C173.533 25.0881 173.243 24.4702 172.664 24.044C172.084 23.6094 171.351 23.392 170.465 23.392H167.448V28.4034ZM188.887 26.6136H194.307C196.515 26.6136 198.441 26.9673 200.086 27.6747C201.739 28.3821 203.022 29.3793 203.934 30.6662C204.854 31.9531 205.31 33.4659 205.301 35.2045C205.31 36.9432 204.854 38.473 203.934 39.794C203.022 41.1151 201.739 42.1463 200.086 42.8878C198.441 43.6293 196.515 44 194.307 44H184.54V17.8182H191.648V38.4261H194.307C195.168 38.4261 195.888 38.2855 196.468 38.0043C197.056 37.723 197.499 37.3352 197.797 36.8409C198.104 36.3466 198.253 35.7841 198.245 35.1534C198.253 34.2585 197.921 33.517 197.248 32.929C196.574 32.3324 195.594 32.0341 194.307 32.0341H188.887V26.6136ZM214.25 17.8182V44H207.142V17.8182H214.25Z" fill="#F9F9E5"/>
</svg>
