<svg width="169" height="65" viewBox="0 0 169 65" fill="none" xmlns="http://www.w3.org/2000/svg">
<rect y="32" width="109" height="33" fill="#F87000"/>
<path d="M18.9224 13.0909H14.1156C14.0815 12.6932 13.9906 12.3324 13.8429 12.0085C13.7008 11.6847 13.502 11.4062 13.2463 11.1733C12.9963 10.9347 12.6923 10.7528 12.3343 10.6278C11.9764 10.4972 11.5701 10.4318 11.1156 10.4318C10.3201 10.4318 9.64684 10.625 9.0957 11.0114C8.55025 11.3977 8.13548 11.9517 7.85138 12.6733C7.57298 13.3949 7.43377 14.2614 7.43377 15.2727C7.43377 16.3409 7.57582 17.2358 7.85991 17.9574C8.14968 18.6733 8.56729 19.2131 9.11275 19.5767C9.6582 19.9347 10.3145 20.1136 11.0815 20.1136C11.519 20.1136 11.911 20.0597 12.2576 19.9517C12.6042 19.8381 12.9054 19.6761 13.161 19.4659C13.4167 19.2557 13.6241 19.0028 13.7832 18.7074C13.948 18.4062 14.0588 18.0682 14.1156 17.6932L18.9224 17.7273C18.8656 18.4659 18.6582 19.2187 18.3002 19.9858C17.9423 20.7472 17.4338 21.4517 16.7747 22.0994C16.1213 22.7415 15.3116 23.2585 14.3457 23.6506C13.3798 24.0426 12.2576 24.2386 10.9792 24.2386C9.37695 24.2386 7.93945 23.8949 6.66673 23.2074C5.39968 22.5199 4.39684 21.5085 3.6582 20.1733C2.92525 18.8381 2.55877 17.2045 2.55877 15.2727C2.55877 13.3295 2.93377 11.6932 3.68377 10.3636C4.43377 9.02841 5.44513 8.01989 6.71786 7.33807C7.99059 6.65057 9.41104 6.30682 10.9792 6.30682C12.0815 6.30682 13.0957 6.45739 14.0218 6.75852C14.948 7.05966 15.7605 7.5 16.4593 8.07954C17.1582 8.65341 17.7207 9.3608 18.1468 10.2017C18.573 11.0426 18.8315 12.0057 18.9224 13.0909ZM25.0673 24H19.9537L25.715 6.54545H32.1923L37.9537 24H32.84L29.0218 11.3523H28.8855L25.0673 24ZM24.1127 17.1136H33.7264V20.6591H24.1127V17.1136ZM48.3642 12C48.3187 11.4318 48.1056 10.9886 47.725 10.6705C47.35 10.3523 46.7789 10.1932 46.0119 10.1932C45.5233 10.1932 45.1227 10.2528 44.8102 10.3722C44.5034 10.4858 44.2761 10.642 44.1284 10.8409C43.9806 11.0398 43.9039 11.267 43.8983 11.5227C43.8869 11.733 43.9238 11.9233 44.0091 12.0938C44.1 12.2585 44.242 12.4091 44.4352 12.5455C44.6284 12.6761 44.8755 12.7955 45.1767 12.9034C45.4778 13.0114 45.8358 13.108 46.2505 13.1932L47.6824 13.5C48.6483 13.7045 49.475 13.9744 50.1625 14.3097C50.85 14.6449 51.4125 15.0398 51.85 15.4943C52.2875 15.9432 52.6085 16.4489 52.813 17.0114C53.0233 17.5739 53.1312 18.1875 53.1369 18.8523C53.1312 20 52.8443 20.9716 52.2761 21.767C51.7079 22.5625 50.8954 23.1676 49.8386 23.5824C48.7875 23.9972 47.5233 24.2045 46.046 24.2045C44.5289 24.2045 43.2051 23.9801 42.0744 23.5312C40.9494 23.0824 40.0744 22.392 39.4494 21.4602C38.8301 20.5227 38.5176 19.3239 38.5119 17.8636H43.0119C43.0403 18.3977 43.1738 18.8466 43.4125 19.2102C43.6511 19.5739 43.9863 19.8494 44.4181 20.0369C44.8556 20.2244 45.3755 20.3182 45.9778 20.3182C46.4835 20.3182 46.9068 20.2557 47.2477 20.1307C47.5886 20.0057 47.8471 19.8324 48.0233 19.6108C48.1994 19.3892 48.2903 19.1364 48.296 18.8523C48.2903 18.5852 48.2022 18.3523 48.0318 18.1534C47.867 17.9489 47.5943 17.767 47.2136 17.608C46.8329 17.4432 46.3187 17.2898 45.671 17.1477L43.9324 16.7727C42.3869 16.4375 41.1681 15.8778 40.2761 15.0938C39.3897 14.304 38.9494 13.2273 38.9551 11.8636C38.9494 10.7557 39.2449 9.78693 39.8414 8.95739C40.4437 8.12216 41.2761 7.47159 42.3386 7.00568C43.4068 6.53977 44.6312 6.30682 46.0119 6.30682C47.421 6.30682 48.6397 6.54261 49.6681 7.0142C50.6966 7.4858 51.4892 8.15057 52.046 9.00852C52.6085 9.8608 52.8926 10.858 52.8983 12H48.3642ZM54.9395 24V6.54545H59.6781V13.3636H65.9508V6.54545H70.6895V24H65.9508V17.1818H59.6781V24H54.9395ZM77.7207 24V6.54545H85.2548C86.5502 6.54545 87.6838 6.80114 88.6554 7.3125C89.627 7.82386 90.3826 8.54261 90.9224 9.46875C91.4622 10.3949 91.7321 11.4773 91.7321 12.7159C91.7321 13.9659 91.4537 15.0483 90.8968 15.9631C90.3457 16.8778 89.5701 17.5824 88.5701 18.0767C87.5758 18.571 86.4139 18.8182 85.0843 18.8182H80.5843V15.1364H84.1298C84.6866 15.1364 85.161 15.0398 85.5531 14.8466C85.9508 14.6477 86.2548 14.3665 86.465 14.0028C86.6809 13.6392 86.7889 13.2102 86.7889 12.7159C86.7889 12.2159 86.6809 11.7898 86.465 11.4375C86.2548 11.0795 85.9508 10.8068 85.5531 10.6193C85.161 10.4261 84.6866 10.3295 84.1298 10.3295H82.4593V24H77.7207ZM98.2093 6.54545V24H93.4707V6.54545H98.2093ZM116.751 13.0909H111.944C111.91 12.6932 111.819 12.3324 111.671 12.0085C111.529 11.6847 111.33 11.4062 111.074 11.1733C110.824 10.9347 110.52 10.7528 110.162 10.6278C109.805 10.4972 109.398 10.4318 108.944 10.4318C108.148 10.4318 107.475 10.625 106.924 11.0114C106.378 11.3977 105.964 11.9517 105.68 12.6733C105.401 13.3949 105.262 14.2614 105.262 15.2727C105.262 16.3409 105.404 17.2358 105.688 17.9574C105.978 18.6733 106.395 19.2131 106.941 19.5767C107.486 19.9347 108.143 20.1136 108.91 20.1136C109.347 20.1136 109.739 20.0597 110.086 19.9517C110.432 19.8381 110.733 19.6761 110.989 19.4659C111.245 19.2557 111.452 19.0028 111.611 18.7074C111.776 18.4062 111.887 18.0682 111.944 17.6932L116.751 17.7273C116.694 18.4659 116.486 19.2187 116.128 19.9858C115.77 20.7472 115.262 21.4517 114.603 22.0994C113.949 22.7415 113.14 23.2585 112.174 23.6506C111.208 24.0426 110.086 24.2386 108.807 24.2386C107.205 24.2386 105.768 23.8949 104.495 23.2074C103.228 22.5199 102.225 21.5085 101.486 20.1733C100.753 18.8381 100.387 17.2045 100.387 15.2727C100.387 13.3295 100.762 11.6932 101.512 10.3636C102.262 9.02841 103.273 8.01989 104.546 7.33807C105.819 6.65057 107.239 6.30682 108.807 6.30682C109.91 6.30682 110.924 6.45739 111.85 6.75852C112.776 7.05966 113.589 7.5 114.287 8.07954C114.986 8.65341 115.549 9.3608 115.975 10.2017C116.401 11.0426 116.66 12.0057 116.751 13.0909ZM118.9 24V6.54545H123.639V13.6023H123.878L129.128 6.54545H134.65L128.753 14.3182L134.787 24H129.128L125.207 17.4545L123.639 19.5V24H118.9ZM146.386 6.54545H151.125V17.7273C151.125 19.0568 150.807 20.2074 150.17 21.179C149.54 22.1449 148.659 22.892 147.528 23.4205C146.398 23.9432 145.085 24.2045 143.591 24.2045C142.085 24.2045 140.767 23.9432 139.636 23.4205C138.506 22.892 137.625 22.1449 136.994 21.179C136.369 20.2074 136.057 19.0568 136.057 17.7273V6.54545H140.795V17.3182C140.795 17.858 140.915 18.3409 141.153 18.767C141.392 19.1875 141.721 19.517 142.142 19.7557C142.568 19.9943 143.051 20.1136 143.591 20.1136C144.136 20.1136 144.619 19.9943 145.04 19.7557C145.46 19.517 145.79 19.1875 146.028 18.767C146.267 18.3409 146.386 17.858 146.386 17.3182V6.54545ZM153.377 24V6.54545H160.911C162.206 6.54545 163.34 6.80114 164.312 7.3125C165.283 7.82386 166.039 8.54261 166.579 9.46875C167.118 10.3949 167.388 11.4773 167.388 12.7159C167.388 13.9659 167.11 15.0483 166.553 15.9631C166.002 16.8778 165.226 17.5824 164.226 18.0767C163.232 18.571 162.07 18.8182 160.741 18.8182H156.241V15.1364H159.786C160.343 15.1364 160.817 15.0398 161.209 14.8466C161.607 14.6477 161.911 14.3665 162.121 14.0028C162.337 13.6392 162.445 13.2102 162.445 12.7159C162.445 12.2159 162.337 11.7898 162.121 11.4375C161.911 11.0795 161.607 10.8068 161.209 10.6193C160.817 10.4261 160.343 10.3295 159.786 10.3295H158.116V24H153.377Z" fill="#0E1111"/>
<path d="M7.39968 38.5455L10.9792 50.8523H11.1156L14.6951 38.5455H20.0474L14.286 56H7.80877L2.04741 38.5455H7.39968ZM26.4672 38.5455V56H21.7285V38.5455H26.4672ZM33.247 56H28.1333L33.8947 38.5455H40.372L46.1333 56H41.0197L37.2015 43.3523H37.0652L33.247 56ZM32.2924 49.1136H41.9061V52.6591H32.2924V49.1136ZM57.1298 56H52.0162L57.7775 38.5455H64.2548L70.0162 56H64.9025L61.0843 43.3523H60.948L57.1298 56ZM56.1752 49.1136H65.7889V52.6591H56.1752V49.1136ZM69.0169 42.3636V38.5455H84.1873V42.3636H78.9373V56H74.2669V42.3636H69.0169ZM85.9707 38.5455H91.8684L95.9252 48.4318H96.1298L100.187 38.5455H106.084V56H101.448V45.9091H101.312L97.4252 55.8636H94.6298L90.7434 45.8409H90.6071V56H85.9707V38.5455Z" fill="#F9F9E5"/>
</svg>
