<svg width="623" height="687" viewBox="0 0 623 687" fill="none" xmlns="http://www.w3.org/2000/svg">
<path d="M67.9112 189.977L0.349626 188.53L0.262329 646.116H133.166V421.788C133.166 395.262 95.8213 205.466 67.9112 189.977Z" fill="#162E51"/>
<path d="M121.493 645.953H-16.0686V286.253C-16.0686 281.651 -12.3398 277.922 -7.73798 277.922H121.493V645.953Z" fill="#5884C6"/>
<path d="M62.1557 188.412L-13.6929 188.387C-18.0764 188.387 -21.6307 191.941 -21.6307 196.324V223.736C-21.6307 228.119 -18.0764 231.673 -13.6929 231.673H79.0289C73.3546 209.207 67.5057 192.708 62.1557 188.412Z" fill="#5884C6"/>
<path d="M-15.4821 245.422C-18.6186 245.422 -21.1564 247.966 -21.1564 251.096V255.58C-21.1564 258.716 -18.6186 261.254 -15.4821 261.254H85.7636C84.635 255.811 83.4814 250.51 82.3216 245.416H-15.4821V245.422Z" fill="#5884C6"/>
<path d="M285.686 645.903H-10.1949V683.273H285.686V645.903Z" fill="#5884C6"/>
<path d="M119.167 645.903H-21.0881V683.21H119.167V645.903Z" fill="#7394E8"/>
<path d="M189.84 189.995L62.1553 188.411C62.1553 188.411 109.389 395.261 109.389 421.781V646.109H274.081V421.781C274.081 394.27 239.611 191.872 189.84 189.995Z" fill="#7394E8"/>
<path d="M223.026 375.122L226.58 405.881C227.023 409.722 230.215 412.653 234.075 412.778L254.465 413.42C259.254 413.57 263.045 409.398 262.44 404.647L258.574 374.342C258.1 370.613 255.026 367.751 251.273 367.545L231.194 366.448C226.374 366.18 222.471 370.32 223.026 375.122Z" fill="#5884C6"/>
<path d="M223.998 383.52C225.962 382.31 257.782 384.617 259.977 385.322L258.574 374.335C258.1 370.606 255.026 367.744 251.272 367.538L231.194 366.44C226.374 366.179 222.477 370.319 223.025 375.114L223.998 383.52Z" fill="#A4E5FF"/>
<path d="M129.119 417.322C123.183 417.322 118.226 412.889 117.59 407.002C114.497 378.581 107.469 327.306 97.8418 276.35L96.7194 270.42H183.617C194.804 270.42 204.519 278.451 206.713 289.526C216.703 339.746 220.937 395.959 221.997 411.984L222.346 417.316H129.119V417.322Z" fill="#A4E5FF"/>
<path d="M122.566 406.467C118.961 373.369 111.604 322.238 102.755 275.428H183.617C192.522 275.428 200.079 281.769 201.819 290.505C210.33 333.331 215.038 382.416 217.015 412.328H129.119C125.746 412.322 122.927 409.821 122.566 406.467Z" fill="#E9FAFF"/>
<path d="M119.51 381.069C120.707 390.304 121.73 398.859 122.559 406.466C122.927 409.821 125.739 412.322 129.119 412.322H217.002C216.41 403.386 215.58 392.742 214.47 381.069H119.51Z" fill="#7394E8"/>
<path d="M166.426 292.613C175.33 292.613 182.888 298.955 184.627 307.691C191.661 343.077 193.151 351.464 195.596 381.051L217.015 412.322C215.038 382.411 210.336 333.325 201.819 290.499C200.085 281.77 192.522 275.422 183.617 275.422H102.755C103.828 281.102 104.882 286.845 105.904 292.613H166.426Z" fill="#162E51"/>
<path d="M175.667 314.6H115.656C114.971 314.6 114.409 314.038 114.409 313.353C114.409 312.667 114.971 312.105 115.656 312.105H175.667C176.353 312.105 176.914 312.667 176.914 313.353C176.914 314.038 176.359 314.6 175.667 314.6Z" fill="#A4E5FF"/>
<path d="M174.002 307.098H113.992C113.306 307.098 112.738 306.537 112.738 305.851C112.738 305.165 113.3 304.604 113.992 304.604H174.002C174.688 304.604 175.256 305.165 175.256 305.851C175.256 306.537 174.688 307.098 174.002 307.098Z" fill="#A4E5FF"/>
<path d="M219.771 442.988H131.476C129.418 442.988 127.753 441.323 127.753 439.266C127.753 437.208 129.418 435.543 131.476 435.543H219.771C221.828 435.543 223.493 437.208 223.493 439.266C223.493 441.323 221.828 442.988 219.771 442.988Z" fill="#5884C6"/>
<path d="M131.482 440.369H219.777C220.912 440.369 221.928 440.881 222.614 441.679C223.169 441.03 223.506 440.182 223.506 439.266C223.506 437.208 221.835 435.543 219.783 435.543H131.489C129.431 435.543 127.766 437.208 127.766 439.266C127.766 440.188 128.103 441.03 128.652 441.679C129.325 440.874 130.341 440.369 131.482 440.369Z" fill="#A4E5FF"/>
<path d="M256.884 336.012L218.723 337.477C217.831 337.515 217.046 335.875 216.971 333.817C216.89 331.76 217.551 330.07 218.436 330.032L256.591 328.567C257.483 328.536 258.269 330.169 258.343 332.227C258.431 334.279 257.776 335.975 256.884 336.012Z" fill="#6568FF"/>
<path d="M221.429 362.189C214.183 353.322 227.284 343.676 220.038 334.809C231.462 334.372 242.879 333.93 254.302 333.493C261.323 342.366 247.992 352.025 255.013 360.904C243.82 361.328 232.628 361.759 221.429 362.189Z" fill="#E9FAFF"/>
<path d="M218.623 334.859L256.784 333.393C257.277 333.375 257.732 333.867 258.062 334.653C258.274 333.992 258.387 333.144 258.355 332.227C258.274 330.17 257.489 328.53 256.603 328.567L218.448 330.032C217.557 330.064 216.902 331.76 216.983 333.817C217.02 334.74 217.195 335.576 217.457 336.218C217.713 335.401 218.137 334.877 218.623 334.859Z" fill="#A4E5FF"/>
<path d="M251.927 336.448L225.382 337.471C224.989 337.483 224.659 337.178 224.646 336.791C224.634 336.398 224.939 336.068 225.326 336.055L251.871 335.033C252.263 335.02 252.594 335.326 252.606 335.712C252.625 336.105 252.319 336.436 251.927 336.448Z" fill="#A4E5FF"/>
<path d="M251.447 358.454L224.902 359.476C224.509 359.489 224.179 359.184 224.166 358.797C224.154 358.404 224.459 358.073 224.846 358.061L251.39 357.038C251.783 357.026 252.114 357.331 252.126 357.718C252.145 358.111 251.839 358.441 251.447 358.454Z" fill="#A4E5FF"/>
<path d="M246.963 340.483L224.964 341.331C224.572 341.344 224.241 341.038 224.229 340.652C224.216 340.259 224.522 339.928 224.908 339.916L246.907 339.068C247.3 339.055 247.63 339.361 247.643 339.747C247.662 340.134 247.356 340.465 246.963 340.483Z" fill="#A4E5FF"/>
<path d="M250.755 342.896L230.602 343.67C230.209 343.682 229.878 343.376 229.866 342.99C229.853 342.597 230.159 342.267 230.546 342.254L250.705 341.481C251.098 341.468 251.428 341.774 251.441 342.16C251.453 342.547 251.148 342.878 250.755 342.896Z" fill="#A4E5FF"/>
<path d="M415.228 237.572C415.228 237.572 405.089 236.899 391.066 250.923C377.042 264.946 381.768 311.588 364.87 318.347C347.972 325.106 349.325 343.021 361.491 350.454C373.656 357.892 362.844 363.299 378.052 382.392C393.26 401.485 467.681 427.636 479.847 403.137C492.012 378.632 498.154 383.963 512.857 376.356C527.561 368.748 527.442 330.512 497.867 311.924C468.292 293.336 482.154 271.705 464.576 251.428C446.998 231.15 415.228 237.572 415.228 237.572Z" fill="#271651"/>
<path opacity="0.6" d="M459.625 282.805C452.342 251.665 387.43 256.46 383.801 275.085C382.118 283.74 380.814 300.183 381.937 308.925C383.614 321.988 385.94 329.702 398.062 337.459C402.601 340.364 406.118 345.166 405.494 350.204C400.338 391.982 441.112 398.28 456.619 387.05C477.04 352.941 463.447 323.242 457.798 304.691C454.512 293.923 461.414 290.468 459.625 282.805Z" fill="#271651"/>
<path d="M362.669 429.545C362.669 429.545 334.278 487.678 334.278 507.283C334.278 526.887 343.544 534.339 351.407 533.727C364.19 532.736 392.069 452.722 392.069 452.722L362.669 429.545Z" fill="#FFC0BB"/>
<path d="M392.076 452.722C389.924 451.026 372.708 437.451 370.339 435.587C368.212 447.927 366.473 460.036 366.473 466.509C366.473 470.805 370.887 484.336 375.383 495.535C384.468 474.546 392.076 452.722 392.076 452.722Z" fill="#F99893"/>
<path d="M397.158 377.909C397.158 377.909 380.509 382.455 366.392 396.572C352.275 410.689 347.467 455.566 347.467 455.566C347.467 455.566 345.44 462.325 385.323 466.378C425.199 470.438 397.158 377.909 397.158 377.909Z" fill="#7398E8"/>
<path d="M397.158 377.909C397.158 377.909 397.145 377.915 397.114 377.922C392.55 379.312 379.393 384.35 377.877 396.572C377.877 396.572 367.57 444.797 366.554 463.791C371.449 464.707 377.597 465.593 385.316 466.378C425.199 470.438 397.158 377.909 397.158 377.909Z" fill="#5884C6"/>
<path d="M341.213 478.393C331.186 465.18 294.297 425.435 290.992 419.306C287.687 413.17 275.971 433.947 277.093 434.639C280.23 436.584 324.47 551.635 353.559 532.804C367.364 523.869 351.239 491.606 341.213 478.393Z" fill="#FFC0BB"/>
<path d="M410.664 522.491C410.664 522.491 395.118 567.443 392.412 601.239C389.706 635.036 388.122 683.473 388.122 683.473L539.196 683.086C539.196 683.086 540.786 635.709 539.433 592.111C538.08 548.512 498.54 518.769 498.54 518.769L410.664 522.491Z" fill="#FF862D"/>
<path d="M539.433 592.11C539.077 580.568 536.041 569.999 531.769 560.689L440.619 582.988C440.619 582.988 434.508 602.617 498.148 608.865C515.046 610.524 528.783 610.823 539.838 610.362C539.751 604.301 539.626 598.171 539.433 592.11Z" fill="#E27023"/>
<path d="M410.664 522.491C410.664 522.491 409.716 525.235 408.244 529.88C432.176 539.564 501.29 547.982 520.028 541.11C509.465 526.987 498.541 518.769 498.541 518.769L410.664 522.491Z" fill="#E27023"/>
<path d="M452.285 600.255L451.344 599.906C442.171 596.513 424.481 583.886 424.307 583.756C423.59 583.244 422.654 583.494 422.212 584.317C421.769 585.14 421.987 586.219 422.698 586.73C423.415 587.241 439.777 598.927 449.473 602.874L457.211 683.299L460.273 683.293L452.285 600.255Z" fill="#E27023"/>
<path d="M377.877 396.572C377.877 396.572 373.481 428.529 373.481 445.09C373.481 461.652 395.53 520.203 401.198 525.865C413.133 537.799 490.596 533.129 502.257 521.469C513.917 509.808 517.97 398.274 503.947 384.25C489.923 370.227 458.016 371.48 458.016 371.48L398.666 377.491C398.666 377.497 379.717 381.756 377.877 396.572Z" fill="#7398E8"/>
<path d="M503.947 384.256C500.13 380.44 494.999 377.759 489.543 375.87C489.53 375.87 489.524 375.87 489.511 375.863C478.811 374.722 474.852 387.873 472.85 398.448C467.481 426.839 475.02 468.959 478.593 481.256C480.676 488.42 497.175 498.098 512.851 494.456C516.723 456.813 513.474 393.778 503.947 384.256Z" fill="#5884C6"/>
<path d="M488.931 450.184C488.931 450.184 517.103 508.424 532.518 520.533C547.932 532.642 561.862 535.037 565.322 527.953C570.523 517.303 536.315 435.587 536.315 435.587L488.931 450.184Z" fill="#FFC0BB"/>
<path d="M536.309 435.593L488.931 450.19C488.931 450.19 495.13 463.004 503.298 477.857C515.526 478.275 534.108 471.802 547.476 463.628C541.472 447.92 536.309 435.593 536.309 435.593Z" fill="#F99893"/>
<path d="M416.793 477.24C416.793 477.24 417.124 477.071 417.348 476.778L416.793 477.24Z" fill="#DC7A63"/>
<path d="M400.07 466.459C399.583 470.711 402.408 471.84 408.93 472.931C417.816 474.415 417.947 476.018 417.348 476.785L427.824 468.068C421.912 464.663 400.55 462.206 400.07 466.459Z" fill="#FFC0BB"/>
<path d="M420.304 474.017C419.219 483.987 415.633 489.431 408.444 491.501C398.785 477.44 388.428 460.186 378.544 439.341C377.092 436.192 378.058 435.912 380.883 437.776C389.444 443.369 399.926 442.035 405.463 436.111C408.138 433.355 409.622 432.326 410.589 435.182C414.829 447.659 416.063 461.546 420.304 474.017Z" fill="#E9FAFF"/>
<path d="M520.134 492.467C510.475 490.154 430.623 469.676 427.824 468.068L422.249 472.707C417.978 476.261 413.07 478.98 407.77 480.638C407.402 480.757 407.053 480.857 406.729 480.944C403.293 481.879 401.822 478.743 400.038 477.714C398.255 476.691 398.86 471.69 398.623 469.19C398.211 464.875 393.173 464.862 391.14 468.435C389.107 472.008 390.517 479.086 390.517 479.086C390.517 479.086 388.421 481.443 388.309 483.531C388.197 485.62 389.631 488.389 389.631 488.389C389.631 488.389 388.671 492.904 389.968 495.161C391.265 497.418 400.15 502.961 402.42 504.271C404.69 505.574 419.462 499.975 426.714 499.682C437.913 499.22 556.256 546.597 564.836 530.703C574.183 513.4 538.242 496.801 520.134 492.467Z" fill="#FFC0BB"/>
<path d="M489.511 375.863C478.811 374.722 471.746 387.742 472.85 398.448C474.958 418.807 484.822 450.171 488.395 462.468C493.801 481.056 555.651 452.865 550.245 436.977C544.845 421.095 508.679 377.908 489.511 375.863Z" fill="#7398E8"/>
<path d="M409.822 332.545C409.822 332.545 411.68 362.12 409.822 368.879C407.964 375.639 398.667 377.497 398.667 377.497C398.667 377.497 389.369 407.745 416.918 417.211C444.466 426.676 458.016 371.486 458.016 371.486C458.016 371.486 450.465 371.879 448.856 371.411C441.966 369.403 443.113 324.433 443.113 324.433L409.822 332.545Z" fill="#FFC0BB"/>
<path d="M433.903 342.416C437.345 340.439 443.182 330.543 443.151 328.486C443.119 325.967 443.113 324.433 443.113 324.433L409.822 332.545C409.822 332.545 410.215 338.78 410.458 346.176C417.66 348.046 425.729 347.099 433.903 342.416Z" fill="#F99893"/>
<path d="M392.076 253.791C392.076 253.791 384.724 259.117 384.724 265.707C384.724 272.298 380.671 306.774 389.538 321.471C398.411 336.175 415.901 343.271 433.897 333.893C451.893 324.514 462.032 315.386 454.68 283.959C447.335 252.526 416.413 240.865 392.076 253.791Z" fill="#FFC0BB"/>
<path d="M384.724 265.707C384.724 267.921 384.263 273.296 383.995 280.005C387.817 279.481 428.279 273.932 434.614 271.076C435.812 279.724 444.124 300.015 461.614 305.34C463.828 298.393 457.704 296.866 454.686 283.965C447.335 252.532 416.413 240.871 392.076 253.797C392.076 253.791 384.724 259.116 384.724 265.707Z" fill="#F99893"/>
<path d="M464.57 251.428C458.06 243.92 449.604 240.073 441.536 238.202C420.447 232.166 402.763 234.579 388.74 248.603C383.739 253.604 377.622 262.92 381.376 275.085H383.795C383.963 275.06 429.264 269.773 436.086 267.104C437.682 277.118 459.899 307.379 461.527 310.066L469.845 259.11C468.486 256.535 466.777 253.972 464.57 251.428Z" fill="#271651"/>
<path d="M449.274 299.946C449.274 299.946 449.48 285.642 457.125 290.287C464.769 294.933 462.674 313.646 454.088 311.638C445.502 309.63 449.274 299.946 449.274 299.946Z" fill="#FFC0BB"/>
<path d="M440.6 582.926C437.657 574.283 438.275 564.812 444.766 558.395C447.272 555.92 450.59 554.099 453.234 552.359C458.241 549.061 518.108 535.779 528.558 539.383C539.009 542.987 541.173 545.694 543.698 550.738C546.223 555.783 544.602 569.482 543.156 573.803C541.709 578.124 491.233 596.438 464.046 594.524C442.24 592.99 441.342 585.152 440.619 582.988C440.613 582.976 440.607 582.951 440.6 582.926Z" fill="#271651"/>
<path d="M543.155 573.803C545.98 570.018 546.217 555.783 543.698 550.738C541.172 545.694 539.015 542.988 528.558 539.383C520.782 536.702 485.689 543.393 466.141 548.331C455.721 550.963 448.706 561.139 450.664 571.708C450.864 572.775 453.676 584.622 455.927 589.111C457.48 592.204 460.535 594.274 463.989 594.524C464.008 594.524 464.027 594.524 464.046 594.53C491.232 596.438 540.43 577.457 543.155 573.803Z" fill="#5884C6"/>
<path d="M461.471 564.886C461.471 564.886 474.447 556.78 489.848 553.263C505.256 549.753 533.091 551.1 533.091 551.1C533.091 551.1 495.797 562.18 461.471 564.886Z" fill="#7398E8"/>
<path d="M533.098 551.1C526.095 553.482 515.557 557.036 502.475 559.842C488.046 562.903 479.298 563.471 468.317 564.487C466.871 564.612 461.502 564.886 461.471 564.886C489.524 561.288 508.405 557.061 533.098 551.1Z" fill="#E9FAFF"/>
<path d="M461.471 564.887C465.567 562.137 471.784 558.838 477.988 556.394C486.986 552.796 495.965 550.52 514.547 550.42C520.739 550.389 526.931 550.576 533.098 551.1C520.072 551.1 499.632 551.293 487.13 554.555C478.157 556.899 467.868 561.307 461.471 564.887Z" fill="#E9FAFF"/>
<path d="M459.631 573.179C455.896 573.179 453.67 573.086 453.608 573.086C453.258 573.073 452.99 572.774 453.003 572.431C453.015 572.082 453.315 571.814 453.657 571.826C453.82 571.833 469.913 572.493 488.639 570.193C505.855 568.079 528.882 562.959 540.811 550.576C541.054 550.326 541.453 550.32 541.703 550.557C541.952 550.8 541.958 551.199 541.721 551.449C536.328 557.048 528.321 561.669 517.933 565.186C509.658 567.985 499.85 570.093 488.776 571.452C476.878 572.905 466.041 573.179 459.631 573.179Z" fill="#271651"/>
<path d="M487.291 588.313C487.036 588.313 486.799 588.157 486.699 587.908L480.663 571.957C480.538 571.633 480.707 571.265 481.031 571.147C481.355 571.022 481.723 571.19 481.842 571.515L487.878 587.465C488.002 587.789 487.834 588.157 487.51 588.276C487.441 588.294 487.366 588.313 487.291 588.313Z" fill="#271651"/>
<path d="M526.937 578.399C526.912 578.399 526.887 578.399 526.862 578.393C526.519 578.349 526.27 578.038 526.313 577.688L528.477 559.849C528.521 559.506 528.832 559.256 529.182 559.3C529.525 559.344 529.774 559.655 529.73 559.998L527.567 577.838C527.523 578.162 527.255 578.399 526.937 578.399Z" fill="#271651"/>
<path d="M535.274 551.879L531.096 552.946C530.947 552.983 530.797 552.896 530.76 552.746L530.298 550.925C530.261 550.776 530.348 550.626 530.498 550.589L534.676 549.522C534.825 549.485 534.975 549.572 535.012 549.722L535.48 551.543C535.511 551.692 535.424 551.842 535.274 551.879Z" fill="#E9FAFF"/>
<path d="M531.115 551.343L530.248 556.737C530.235 556.812 530.292 556.88 530.373 556.88H532.966C533.041 556.88 533.097 556.812 533.091 556.737L532.225 551.343C532.2 551.187 532.069 551.075 531.913 551.075H531.439C531.27 551.075 531.14 551.194 531.115 551.343ZM532.331 556.338H531.009C530.934 556.338 530.878 556.269 530.884 556.195L531.545 552.067C531.57 551.93 531.769 551.93 531.788 552.067L532.449 556.195C532.461 556.276 532.405 556.338 532.331 556.338Z" fill="#E9FAFF"/>
<path d="M533.26 551.344L531.345 551.824C531.196 551.861 531.046 551.774 531.009 551.624L530.959 551.431C530.921 551.281 531.009 551.132 531.158 551.094L533.073 550.614C533.222 550.577 533.372 550.664 533.409 550.814L533.459 551.007C533.497 551.157 533.403 551.306 533.26 551.344Z" fill="#C9EDF9"/>
<path d="M441.436 577.894C413.526 576.092 398.417 564.313 398.149 563.346C397.226 560.073 398.891 551.281 402.165 550.352C402.371 550.296 417.922 566.414 442.084 567.973L441.436 577.894Z" fill="#271651"/>
<path d="M318.104 451.425C318.104 451.425 323.647 472.264 300.027 469.558C300.027 469.558 287.569 446.58 281.19 443.026C274.811 439.472 258.859 444.129 253.205 440.787C251.602 438.405 245.467 428.609 245.068 425.585C244.669 422.561 247.088 417.978 247.088 417.978C247.088 417.978 246.739 414.33 247.562 412.073C248.385 409.816 251.085 408.088 251.085 408.088C251.085 408.088 251.047 398.991 254.115 395.892C257.183 392.793 262.92 395.611 261.816 400.537C261.174 403.399 263.144 410.701 264.404 412.572C265.663 414.442 266.299 416.157 269.729 416.55C273.159 416.943 283.647 417.629 273.196 410.47C262.745 403.312 260.257 402.52 262.153 398.031C264.049 393.541 284.252 401.94 290.362 414.081C293.811 420.915 318.104 451.425 318.104 451.425Z" fill="#FFC0BB"/>
<path d="M167.673 145.68H-8.05601C-14.8714 145.68 -20.3961 140.155 -20.3961 133.34V12.3401C-20.3961 5.52467 -14.8714 0 -8.05601 0H167.673C174.488 0 180.013 5.52467 180.013 12.3401V133.34C180.013 140.155 174.488 145.68 167.673 145.68Z" fill="#7473E8"/>
<path d="M187.502 145.68H5.25682C-1.67082 145.68 -7.29523 140.062 -7.29523 133.128V12.5589C-7.29523 5.62502 -1.67705 0.00683594 5.25682 0.00683594H187.502C194.435 0.00683594 200.054 5.62502 200.054 12.5589V133.135C200.054 140.062 194.435 145.68 187.502 145.68Z" fill="#FF862D"/>
<path opacity="0.47" d="M185.525 0.0126953H7.23348C-0.791604 0.0126953 -7.29523 6.51635 -7.29523 14.5414V24.6804H40.4998C107.332 24.6804 161.506 78.8543 161.506 145.686H185.519C193.544 145.686 200.047 139.183 200.047 131.158V14.5414C200.054 6.51635 193.544 0.0126953 185.525 0.0126953Z" fill="white"/>
<path d="M42.0401 145.605H23.5394V188.431H42.0401V145.605Z" fill="#7473E8"/>
<path d="M42.0401 145.605H23.5394V151.966H42.0401V145.605Z" fill="#5858C6"/>
<path d="M165.465 145.605H146.965V189.796H165.465V145.605Z" fill="#7473E8"/>
<path d="M165.465 145.605H146.965V151.966H165.465V145.605Z" fill="#5858C6"/>
<path d="M29.002 88.7809L24.5935 105.642H10.0773L29.0082 39.957H47.3842L66.5896 105.642H51.5184L46.742 88.7809H29.002ZM44.7092 77.6693C40.2446 60.9582 41.7099 67.9544 37.7254 51.0624H37.5446C36.628 54.9596 35.7051 59.9293 34.695 63.733L31.0223 77.6693H44.7092Z" fill="white"/>
<path d="M79.1665 52.428H62.5364V39.957H110.132V52.428H93.2275V105.635H79.1665V52.428Z" fill="white"/>
<path d="M169.027 53.5005H168.752C165.715 66.6948 163.864 71.9888 154.329 104.569H143.399C138.173 83.9048 134.164 70.9162 131.177 53.5005H130.996C128.92 103.603 128.789 105.629 128.789 105.642H115.832L119.785 39.957H138.435C140.942 49.4849 146.442 66.9505 149.734 85.3701H150.008C156.337 57.8092 158.613 53.6315 162.504 39.957H180.787L184.185 105.642H170.498C169.825 86.056 169.027 70.0994 169.027 53.5005Z" fill="white"/>
<rect x="188" y="597" width="433" height="86" fill="#004DB4"/>
<path d="M218.722 633V615.545H225.403C226.665 615.545 227.713 615.744 228.548 616.142C229.389 616.534 230.017 617.071 230.432 617.753C230.852 618.435 231.062 619.207 231.062 620.071C231.062 620.781 230.926 621.389 230.653 621.895C230.381 622.395 230.014 622.801 229.554 623.114C229.094 623.426 228.58 623.651 228.011 623.787V623.957C228.631 623.991 229.224 624.182 229.793 624.528C230.366 624.869 230.835 625.352 231.199 625.977C231.563 626.602 231.744 627.358 231.744 628.244C231.744 629.148 231.526 629.96 231.088 630.682C230.651 631.398 229.991 631.963 229.111 632.378C228.23 632.793 227.122 633 225.787 633H218.722ZM221.884 630.358H225.284C226.432 630.358 227.259 630.139 227.764 629.702C228.276 629.259 228.531 628.69 228.531 627.997C228.531 627.48 228.403 627.014 228.148 626.599C227.892 626.179 227.528 625.849 227.057 625.611C226.585 625.366 226.023 625.244 225.369 625.244H221.884V630.358ZM221.884 622.969H225.011C225.557 622.969 226.048 622.869 226.486 622.67C226.923 622.466 227.267 622.179 227.517 621.81C227.773 621.435 227.901 620.991 227.901 620.48C227.901 619.804 227.662 619.247 227.185 618.81C226.713 618.372 226.011 618.153 225.08 618.153H221.884V622.969ZM238.126 633.264C237.296 633.264 236.549 633.116 235.884 632.821C235.225 632.52 234.702 632.077 234.316 631.491C233.935 630.906 233.745 630.185 233.745 629.327C233.745 628.588 233.881 627.977 234.154 627.494C234.427 627.011 234.799 626.625 235.271 626.335C235.742 626.045 236.273 625.827 236.864 625.679C237.461 625.526 238.077 625.415 238.714 625.347C239.481 625.267 240.103 625.196 240.58 625.134C241.058 625.065 241.404 624.963 241.62 624.827C241.842 624.685 241.952 624.466 241.952 624.17V624.119C241.952 623.477 241.762 622.98 241.381 622.628C241.001 622.276 240.452 622.099 239.737 622.099C238.981 622.099 238.381 622.264 237.938 622.594C237.501 622.923 237.205 623.312 237.052 623.761L234.171 623.352C234.398 622.557 234.773 621.892 235.296 621.358C235.819 620.818 236.458 620.415 237.214 620.148C237.969 619.875 238.805 619.739 239.719 619.739C240.35 619.739 240.978 619.812 241.603 619.96C242.228 620.108 242.799 620.352 243.316 620.693C243.833 621.028 244.248 621.486 244.56 622.065C244.879 622.645 245.038 623.369 245.038 624.239V633H242.072V631.202H241.969C241.782 631.565 241.518 631.906 241.177 632.224C240.842 632.537 240.418 632.79 239.907 632.983C239.401 633.17 238.808 633.264 238.126 633.264ZM238.927 630.997C239.546 630.997 240.083 630.875 240.538 630.631C240.992 630.381 241.342 630.051 241.586 629.642C241.836 629.233 241.961 628.787 241.961 628.304V626.761C241.864 626.841 241.7 626.915 241.467 626.983C241.239 627.051 240.984 627.111 240.7 627.162C240.415 627.213 240.134 627.259 239.856 627.298C239.577 627.338 239.336 627.372 239.131 627.401C238.671 627.463 238.259 627.565 237.896 627.707C237.532 627.849 237.245 628.048 237.035 628.304C236.825 628.554 236.719 628.878 236.719 629.276C236.719 629.844 236.927 630.273 237.342 630.562C237.756 630.852 238.285 630.997 238.927 630.997ZM247.288 633L252.12 626.241L247.33 619.909H250.893L254.617 625.185H255.35V619.909H258.435V625.185H259.151L262.876 619.909H266.438L261.674 626.241L266.481 633H262.842L259.117 627.716H258.435V633H255.35V627.716H254.668L250.927 633H247.288ZM277.78 625.176V627.707H270.808V625.176H277.78ZM271.763 619.909V633H268.788V619.909H271.763ZM279.8 619.909V633H276.834V619.909H279.8ZM288.631 633.256C287.353 633.256 286.245 632.974 285.308 632.412C284.37 631.849 283.643 631.062 283.126 630.051C282.614 629.04 282.359 627.858 282.359 626.506C282.359 625.153 282.614 623.969 283.126 622.952C283.643 621.935 284.37 621.145 285.308 620.582C286.245 620.02 287.353 619.739 288.631 619.739C289.91 619.739 291.018 620.02 291.955 620.582C292.893 621.145 293.617 621.935 294.129 622.952C294.646 623.969 294.904 625.153 294.904 626.506C294.904 627.858 294.646 629.04 294.129 630.051C293.617 631.062 292.893 631.849 291.955 632.412C291.018 632.974 289.91 633.256 288.631 633.256ZM288.648 630.784C289.342 630.784 289.921 630.594 290.387 630.213C290.853 629.827 291.2 629.31 291.427 628.662C291.66 628.014 291.776 627.293 291.776 626.497C291.776 625.696 291.66 624.972 291.427 624.324C291.2 623.67 290.853 623.151 290.387 622.764C289.921 622.378 289.342 622.185 288.648 622.185C287.938 622.185 287.347 622.378 286.876 622.764C286.41 623.151 286.06 623.67 285.827 624.324C285.6 624.972 285.487 625.696 285.487 626.497C285.487 627.293 285.6 628.014 285.827 628.662C286.06 629.31 286.41 629.827 286.876 630.213C287.347 630.594 287.938 630.784 288.648 630.784ZM326.615 624.273C326.615 626.153 326.263 627.764 325.558 629.105C324.859 630.44 323.905 631.463 322.695 632.173C321.49 632.884 320.124 633.239 318.595 633.239C317.067 633.239 315.697 632.884 314.487 632.173C313.283 631.457 312.328 630.432 311.624 629.097C310.925 627.756 310.575 626.148 310.575 624.273C310.575 622.392 310.925 620.784 311.624 619.449C312.328 618.108 313.283 617.082 314.487 616.372C315.697 615.662 317.067 615.307 318.595 615.307C320.124 615.307 321.49 615.662 322.695 616.372C323.905 617.082 324.859 618.108 325.558 619.449C326.263 620.784 326.615 622.392 326.615 624.273ZM323.436 624.273C323.436 622.949 323.229 621.832 322.814 620.923C322.405 620.009 321.837 619.318 321.109 618.852C320.382 618.381 319.544 618.145 318.595 618.145C317.646 618.145 316.808 618.381 316.081 618.852C315.354 619.318 314.783 620.009 314.368 620.923C313.959 621.832 313.754 622.949 313.754 624.273C313.754 625.597 313.959 626.716 314.368 627.631C314.783 628.54 315.354 629.23 316.081 629.702C316.808 630.168 317.646 630.401 318.595 630.401C319.544 630.401 320.382 630.168 321.109 629.702C321.837 629.23 322.405 628.54 322.814 627.631C323.229 626.716 323.436 625.597 323.436 624.273ZM339.96 615.068L341.033 617.062C340.653 617.392 340.227 617.631 339.755 617.778C339.283 617.926 338.729 618.023 338.093 618.068C337.462 618.108 336.712 618.136 335.843 618.153C334.866 618.176 334.067 618.361 333.448 618.707C332.829 619.054 332.354 619.58 332.025 620.284C331.695 620.983 331.479 621.875 331.377 622.96H331.522C331.931 622.159 332.505 621.548 333.244 621.128C333.982 620.707 334.849 620.497 335.843 620.497C336.928 620.497 337.886 620.741 338.715 621.23C339.55 621.713 340.201 622.415 340.667 623.335C341.138 624.256 341.374 625.369 341.374 626.676C341.374 628.023 341.121 629.19 340.616 630.179C340.11 631.162 339.391 631.92 338.46 632.455C337.533 632.989 336.434 633.256 335.161 633.256C333.894 633.256 332.792 632.98 331.854 632.429C330.923 631.872 330.201 631.051 329.69 629.966C329.184 628.875 328.931 627.531 328.931 625.935V624.759C328.931 621.679 329.505 619.381 330.653 617.864C331.8 616.347 333.502 615.574 335.758 615.545C336.428 615.534 337.028 615.531 337.556 615.537C338.09 615.543 338.556 615.517 338.954 615.46C339.352 615.403 339.687 615.273 339.96 615.068ZM335.178 630.784C335.809 630.784 336.354 630.622 336.815 630.298C337.275 629.969 337.627 629.503 337.871 628.901C338.121 628.298 338.246 627.585 338.246 626.761C338.246 625.949 338.121 625.259 337.871 624.69C337.621 624.116 337.266 623.679 336.806 623.378C336.346 623.077 335.798 622.926 335.161 622.926C334.684 622.926 334.255 623.011 333.874 623.182C333.494 623.352 333.17 623.602 332.903 623.932C332.636 624.261 332.431 624.662 332.289 625.134C332.147 625.605 332.07 626.148 332.059 626.761C332.059 627.994 332.337 628.974 332.894 629.702C333.451 630.423 334.212 630.784 335.178 630.784ZM351.533 629.412L355.42 619.909H357.908L352.616 633H350.46L345.286 619.909H347.749L351.533 629.412ZM346.974 619.909V633H343.999V619.909H346.974ZM356.221 633V619.909H359.17V633H356.221ZM368.076 633.256C366.763 633.256 365.63 632.983 364.675 632.438C363.727 631.886 362.996 631.108 362.485 630.102C361.974 629.091 361.718 627.901 361.718 626.531C361.718 625.185 361.974 624.003 362.485 622.986C363.002 621.963 363.724 621.168 364.65 620.599C365.576 620.026 366.664 619.739 367.914 619.739C368.721 619.739 369.482 619.869 370.198 620.131C370.92 620.386 371.556 620.784 372.107 621.324C372.664 621.864 373.102 622.551 373.42 623.386C373.738 624.216 373.897 625.205 373.897 626.352V627.298H363.167V625.219H370.94C370.934 624.628 370.806 624.102 370.556 623.642C370.306 623.176 369.957 622.81 369.508 622.543C369.065 622.276 368.548 622.142 367.957 622.142C367.326 622.142 366.772 622.295 366.295 622.602C365.817 622.903 365.445 623.301 365.178 623.795C364.917 624.284 364.783 624.821 364.778 625.406V627.222C364.778 627.983 364.917 628.636 365.195 629.182C365.474 629.722 365.863 630.136 366.363 630.426C366.863 630.71 367.448 630.852 368.119 630.852C368.567 630.852 368.974 630.79 369.337 630.665C369.701 630.534 370.016 630.344 370.283 630.094C370.55 629.844 370.752 629.534 370.888 629.165L373.769 629.489C373.587 630.25 373.241 630.915 372.729 631.483C372.224 632.045 371.576 632.483 370.786 632.795C369.996 633.102 369.093 633.256 368.076 633.256ZM385.499 625.176V627.707H378.527V625.176H385.499ZM379.482 619.909V633H376.507V619.909H379.482ZM387.518 619.909V633H384.553V619.909H387.518ZM407.528 619.909V633H404.562V619.909H407.528ZM406.138 625.824V628.347C405.803 628.494 405.423 628.628 404.996 628.747C404.576 628.861 404.13 628.952 403.658 629.02C403.192 629.088 402.727 629.122 402.261 629.122C400.511 629.122 399.127 628.73 398.11 627.946C397.099 627.156 396.593 625.926 396.593 624.256V619.892H399.542V624.256C399.542 624.818 399.641 625.27 399.84 625.611C400.039 625.952 400.34 626.202 400.744 626.361C401.147 626.514 401.653 626.591 402.261 626.591C402.942 626.591 403.59 626.523 404.204 626.386C404.817 626.25 405.462 626.062 406.138 625.824ZM416.428 633.256C415.115 633.256 413.982 632.983 413.027 632.438C412.078 631.886 411.348 631.108 410.837 630.102C410.325 629.091 410.07 627.901 410.07 626.531C410.07 625.185 410.325 624.003 410.837 622.986C411.354 621.963 412.075 621.168 413.001 620.599C413.928 620.026 415.016 619.739 416.266 619.739C417.072 619.739 417.834 619.869 418.55 620.131C419.271 620.386 419.908 620.784 420.459 621.324C421.016 621.864 421.453 622.551 421.771 623.386C422.089 624.216 422.249 625.205 422.249 626.352V627.298H411.518V625.219H419.291C419.286 624.628 419.158 624.102 418.908 623.642C418.658 623.176 418.308 622.81 417.859 622.543C417.416 622.276 416.899 622.142 416.308 622.142C415.678 622.142 415.124 622.295 414.646 622.602C414.169 622.903 413.797 623.301 413.53 623.795C413.268 624.284 413.135 624.821 413.129 625.406V627.222C413.129 627.983 413.268 628.636 413.547 629.182C413.825 629.722 414.214 630.136 414.714 630.426C415.214 630.71 415.8 630.852 416.47 630.852C416.919 630.852 417.325 630.79 417.689 630.665C418.053 630.534 418.368 630.344 418.635 630.094C418.902 629.844 419.104 629.534 419.24 629.165L422.121 629.489C421.939 630.25 421.592 630.915 421.081 631.483C420.575 632.045 419.928 632.483 419.138 632.795C418.348 633.102 417.445 633.256 416.428 633.256ZM424.859 637.909V619.909H427.893V622.074H428.072C428.231 621.756 428.455 621.418 428.745 621.06C429.035 620.696 429.427 620.386 429.921 620.131C430.415 619.869 431.046 619.739 431.813 619.739C432.825 619.739 433.737 619.997 434.549 620.514C435.367 621.026 436.015 621.784 436.492 622.79C436.975 623.79 437.217 625.017 437.217 626.472C437.217 627.909 436.981 629.131 436.509 630.136C436.038 631.142 435.396 631.909 434.583 632.438C433.771 632.966 432.85 633.23 431.822 633.23C431.072 633.23 430.45 633.105 429.955 632.855C429.461 632.605 429.063 632.304 428.762 631.952C428.467 631.594 428.237 631.256 428.072 630.938H427.944V637.909H424.859ZM427.884 626.455C427.884 627.301 428.004 628.043 428.242 628.679C428.487 629.315 428.836 629.812 429.29 630.17C429.751 630.523 430.308 630.699 430.961 630.699C431.643 630.699 432.214 630.517 432.674 630.153C433.134 629.784 433.481 629.281 433.714 628.645C433.952 628.003 434.072 627.273 434.072 626.455C434.072 625.642 433.955 624.92 433.722 624.29C433.489 623.659 433.143 623.165 432.683 622.807C432.222 622.449 431.648 622.27 430.961 622.27C430.302 622.27 429.742 622.443 429.282 622.79C428.822 623.136 428.472 623.622 428.234 624.247C428.001 624.872 427.884 625.608 427.884 626.455ZM445.654 633.256C444.342 633.256 443.208 632.983 442.254 632.438C441.305 631.886 440.575 631.108 440.063 630.102C439.552 629.091 439.296 627.901 439.296 626.531C439.296 625.185 439.552 624.003 440.063 622.986C440.58 621.963 441.302 621.168 442.228 620.599C443.154 620.026 444.242 619.739 445.492 619.739C446.299 619.739 447.06 619.869 447.776 620.131C448.498 620.386 449.134 620.784 449.685 621.324C450.242 621.864 450.68 622.551 450.998 623.386C451.316 624.216 451.475 625.205 451.475 626.352V627.298H440.745V625.219H448.518C448.512 624.628 448.384 624.102 448.134 623.642C447.884 623.176 447.535 622.81 447.086 622.543C446.643 622.276 446.126 622.142 445.535 622.142C444.904 622.142 444.35 622.295 443.873 622.602C443.396 622.903 443.023 623.301 442.756 623.795C442.495 624.284 442.362 624.821 442.356 625.406V627.222C442.356 627.983 442.495 628.636 442.773 629.182C443.052 629.722 443.441 630.136 443.941 630.426C444.441 630.71 445.026 630.852 445.697 630.852C446.146 630.852 446.552 630.79 446.915 630.665C447.279 630.534 447.594 630.344 447.862 630.094C448.129 629.844 448.33 629.534 448.467 629.165L451.347 629.489C451.165 630.25 450.819 630.915 450.308 631.483C449.802 632.045 449.154 632.483 448.364 632.795C447.575 633.102 446.671 633.256 445.654 633.256ZM453.361 629.412H456.42C456.449 629.901 456.668 630.278 457.077 630.545C457.486 630.812 458.017 630.946 458.67 630.946C459.335 630.946 459.895 630.801 460.349 630.511C460.81 630.216 461.04 629.77 461.04 629.173C461.04 628.821 460.952 628.511 460.776 628.244C460.599 627.972 460.352 627.761 460.034 627.614C459.716 627.466 459.341 627.392 458.909 627.392H456.906V625.202H458.909C459.551 625.202 460.037 625.054 460.366 624.759C460.702 624.463 460.869 624.091 460.869 623.642C460.869 623.159 460.693 622.767 460.341 622.466C459.994 622.165 459.514 622.014 458.901 622.014C458.287 622.014 457.776 622.153 457.366 622.432C456.963 622.71 456.753 623.068 456.736 623.506H453.693C453.705 622.744 453.932 622.082 454.375 621.52C454.824 620.957 455.426 620.52 456.182 620.207C456.943 619.895 457.801 619.739 458.756 619.739C459.778 619.739 460.662 619.892 461.406 620.199C462.151 620.506 462.724 620.935 463.128 621.486C463.531 622.031 463.733 622.673 463.733 623.412C463.733 624.122 463.511 624.71 463.068 625.176C462.625 625.636 462.028 625.966 461.278 626.165V626.301C461.795 626.33 462.261 626.477 462.676 626.744C463.091 627.006 463.42 627.361 463.665 627.81C463.909 628.259 464.031 628.778 464.031 629.369C464.031 630.17 463.801 630.864 463.341 631.449C462.881 632.028 462.247 632.474 461.44 632.787C460.639 633.099 459.722 633.256 458.688 633.256C457.682 633.256 456.781 633.105 455.986 632.804C455.196 632.497 454.568 632.057 454.102 631.483C453.636 630.909 453.389 630.219 453.361 629.412ZM482.905 615.068L483.979 617.062C483.598 617.392 483.172 617.631 482.7 617.778C482.229 617.926 481.675 618.023 481.038 618.068C480.408 618.108 479.658 618.136 478.788 618.153C477.811 618.176 477.013 618.361 476.393 618.707C475.774 619.054 475.3 619.58 474.97 620.284C474.641 620.983 474.425 621.875 474.322 622.96H474.467C474.876 622.159 475.45 621.548 476.189 621.128C476.928 620.707 477.794 620.497 478.788 620.497C479.874 620.497 480.831 620.741 481.661 621.23C482.496 621.713 483.146 622.415 483.612 623.335C484.084 624.256 484.32 625.369 484.32 626.676C484.32 628.023 484.067 629.19 483.561 630.179C483.055 631.162 482.337 631.92 481.405 632.455C480.479 632.989 479.379 633.256 478.107 633.256C476.839 633.256 475.737 632.98 474.8 632.429C473.868 631.872 473.146 631.051 472.635 629.966C472.129 628.875 471.876 627.531 471.876 625.935V624.759C471.876 621.679 472.45 619.381 473.598 617.864C474.746 616.347 476.447 615.574 478.703 615.545C479.374 615.534 479.973 615.531 480.501 615.537C481.036 615.543 481.501 615.517 481.899 615.46C482.297 615.403 482.632 615.273 482.905 615.068ZM478.124 630.784C478.754 630.784 479.3 630.622 479.76 630.298C480.22 629.969 480.572 629.503 480.817 628.901C481.067 628.298 481.192 627.585 481.192 626.761C481.192 625.949 481.067 625.259 480.817 624.69C480.567 624.116 480.212 623.679 479.751 623.378C479.291 623.077 478.743 622.926 478.107 622.926C477.629 622.926 477.2 623.011 476.82 623.182C476.439 623.352 476.115 623.602 475.848 623.932C475.581 624.261 475.376 624.662 475.234 625.134C475.092 625.605 475.016 626.148 475.004 626.761C475.004 627.994 475.283 628.974 475.839 629.702C476.396 630.423 477.158 630.784 478.124 630.784ZM490.712 633.264C489.882 633.264 489.135 633.116 488.47 632.821C487.811 632.52 487.288 632.077 486.902 631.491C486.521 630.906 486.331 630.185 486.331 629.327C486.331 628.588 486.467 627.977 486.74 627.494C487.013 627.011 487.385 626.625 487.857 626.335C488.328 626.045 488.859 625.827 489.45 625.679C490.047 625.526 490.663 625.415 491.3 625.347C492.067 625.267 492.689 625.196 493.166 625.134C493.643 625.065 493.99 624.963 494.206 624.827C494.428 624.685 494.538 624.466 494.538 624.17V624.119C494.538 623.477 494.348 622.98 493.967 622.628C493.587 622.276 493.038 622.099 492.322 622.099C491.567 622.099 490.967 622.264 490.524 622.594C490.087 622.923 489.791 623.312 489.638 623.761L486.757 623.352C486.984 622.557 487.359 621.892 487.882 621.358C488.405 620.818 489.044 620.415 489.8 620.148C490.555 619.875 491.391 619.739 492.305 619.739C492.936 619.739 493.564 619.812 494.189 619.96C494.814 620.108 495.385 620.352 495.902 620.693C496.419 621.028 496.834 621.486 497.146 622.065C497.464 622.645 497.624 623.369 497.624 624.239V633H494.658V631.202H494.555C494.368 631.565 494.104 631.906 493.763 632.224C493.428 632.537 493.004 632.79 492.493 632.983C491.987 633.17 491.393 633.264 490.712 633.264ZM491.513 630.997C492.132 630.997 492.669 630.875 493.124 630.631C493.578 630.381 493.928 630.051 494.172 629.642C494.422 629.233 494.547 628.787 494.547 628.304V626.761C494.45 626.841 494.286 626.915 494.053 626.983C493.825 627.051 493.57 627.111 493.286 627.162C493.001 627.213 492.72 627.259 492.442 627.298C492.163 627.338 491.922 627.372 491.717 627.401C491.257 627.463 490.845 627.565 490.482 627.707C490.118 627.849 489.831 628.048 489.621 628.304C489.411 628.554 489.305 628.878 489.305 629.276C489.305 629.844 489.513 630.273 489.928 630.562C490.342 630.852 490.871 630.997 491.513 630.997ZM509.717 625.176V627.707H502.746V625.176H509.717ZM503.7 619.909V633H500.726V619.909H503.7ZM511.737 619.909V633H508.771V619.909H511.737ZM514.859 633V619.909H517.944V625.193H519.069L523.006 619.909H526.722L521.873 626.335L526.773 633H523.04L519.452 628.065H517.944V633H514.859ZM533.694 633.256C532.415 633.256 531.308 632.974 530.37 632.412C529.433 631.849 528.705 631.062 528.188 630.051C527.677 629.04 527.421 627.858 527.421 626.506C527.421 625.153 527.677 623.969 528.188 622.952C528.705 621.935 529.433 621.145 530.37 620.582C531.308 620.02 532.415 619.739 533.694 619.739C534.972 619.739 536.08 620.02 537.018 620.582C537.955 621.145 538.68 621.935 539.191 622.952C539.708 623.969 539.967 625.153 539.967 626.506C539.967 627.858 539.708 629.04 539.191 630.051C538.68 631.062 537.955 631.849 537.018 632.412C536.08 632.974 534.972 633.256 533.694 633.256ZM533.711 630.784C534.404 630.784 534.984 630.594 535.45 630.213C535.915 629.827 536.262 629.31 536.489 628.662C536.722 628.014 536.839 627.293 536.839 626.497C536.839 625.696 536.722 624.972 536.489 624.324C536.262 623.67 535.915 623.151 535.45 622.764C534.984 622.378 534.404 622.185 533.711 622.185C533.001 622.185 532.41 622.378 531.938 622.764C531.472 623.151 531.123 623.67 530.89 624.324C530.663 624.972 530.549 625.696 530.549 626.497C530.549 627.293 530.663 628.014 530.89 628.662C531.123 629.31 531.472 629.827 531.938 630.213C532.41 630.594 533.001 630.784 533.711 630.784ZM550.119 629.412L554.006 619.909H556.494L551.202 633H549.045L543.872 619.909H546.335L550.119 629.412ZM545.56 619.909V633H542.585V619.909H545.56ZM554.807 633V619.909H557.756V633H554.807ZM564.634 633.264C563.804 633.264 563.057 633.116 562.392 632.821C561.733 632.52 561.21 632.077 560.824 631.491C560.443 630.906 560.253 630.185 560.253 629.327C560.253 628.588 560.389 627.977 560.662 627.494C560.935 627.011 561.307 626.625 561.778 626.335C562.25 626.045 562.781 625.827 563.372 625.679C563.969 625.526 564.585 625.415 565.222 625.347C565.989 625.267 566.611 625.196 567.088 625.134C567.565 625.065 567.912 624.963 568.128 624.827C568.349 624.685 568.46 624.466 568.46 624.17V624.119C568.46 623.477 568.27 622.98 567.889 622.628C567.509 622.276 566.96 622.099 566.244 622.099C565.489 622.099 564.889 622.264 564.446 622.594C564.009 622.923 563.713 623.312 563.56 623.761L560.679 623.352C560.906 622.557 561.281 621.892 561.804 621.358C562.327 620.818 562.966 620.415 563.722 620.148C564.477 619.875 565.313 619.739 566.227 619.739C566.858 619.739 567.486 619.812 568.111 619.96C568.736 620.108 569.307 620.352 569.824 620.693C570.341 621.028 570.756 621.486 571.068 622.065C571.386 622.645 571.545 623.369 571.545 624.239V633H568.58V631.202H568.477C568.29 631.565 568.026 631.906 567.685 632.224C567.349 632.537 566.926 632.79 566.415 632.983C565.909 633.17 565.315 633.264 564.634 633.264ZM565.435 630.997C566.054 630.997 566.591 630.875 567.045 630.631C567.5 630.381 567.849 630.051 568.094 629.642C568.344 629.233 568.469 628.787 568.469 628.304V626.761C568.372 626.841 568.207 626.915 567.974 626.983C567.747 627.051 567.491 627.111 567.207 627.162C566.923 627.213 566.642 627.259 566.364 627.298C566.085 627.338 565.844 627.372 565.639 627.401C565.179 627.463 564.767 627.565 564.403 627.707C564.04 627.849 563.753 628.048 563.543 628.304C563.332 628.554 563.227 628.878 563.227 629.276C563.227 629.844 563.435 630.273 563.849 630.562C564.264 630.852 564.793 630.997 565.435 630.997ZM573.182 622.44V619.909H584.636V622.44H580.401V633H577.418V622.44H573.182ZM218.585 664V650.909H229.639V664H226.665V653.44H221.534V664H218.585ZM232.812 668.909V650.909H235.846V653.074H236.025C236.184 652.756 236.408 652.418 236.698 652.06C236.988 651.696 237.38 651.386 237.874 651.131C238.369 650.869 238.999 650.739 239.766 650.739C240.778 650.739 241.69 650.997 242.502 651.514C243.32 652.026 243.968 652.784 244.445 653.79C244.928 654.79 245.17 656.017 245.17 657.472C245.17 658.909 244.934 660.131 244.462 661.136C243.991 662.142 243.349 662.909 242.536 663.438C241.724 663.966 240.803 664.23 239.775 664.23C239.025 664.23 238.403 664.105 237.908 663.855C237.414 663.605 237.016 663.304 236.715 662.952C236.42 662.594 236.19 662.256 236.025 661.938H235.897V668.909H232.812ZM235.837 657.455C235.837 658.301 235.957 659.043 236.195 659.679C236.44 660.315 236.789 660.812 237.244 661.17C237.704 661.523 238.261 661.699 238.914 661.699C239.596 661.699 240.167 661.517 240.627 661.153C241.087 660.784 241.434 660.281 241.667 659.645C241.906 659.003 242.025 658.273 242.025 657.455C242.025 656.642 241.908 655.92 241.675 655.29C241.442 654.659 241.096 654.165 240.636 653.807C240.175 653.449 239.602 653.27 238.914 653.27C238.255 653.27 237.695 653.443 237.235 653.79C236.775 654.136 236.425 654.622 236.187 655.247C235.954 655.872 235.837 656.608 235.837 657.455ZM253.522 664.256C252.244 664.256 251.136 663.974 250.198 663.412C249.261 662.849 248.533 662.062 248.016 661.051C247.505 660.04 247.249 658.858 247.249 657.506C247.249 656.153 247.505 654.969 248.016 653.952C248.533 652.935 249.261 652.145 250.198 651.582C251.136 651.02 252.244 650.739 253.522 650.739C254.8 650.739 255.908 651.02 256.846 651.582C257.783 652.145 258.508 652.935 259.019 653.952C259.536 654.969 259.795 656.153 259.795 657.506C259.795 658.858 259.536 660.04 259.019 661.051C258.508 662.062 257.783 662.849 256.846 663.412C255.908 663.974 254.8 664.256 253.522 664.256ZM253.539 661.784C254.232 661.784 254.812 661.594 255.278 661.213C255.744 660.827 256.09 660.31 256.317 659.662C256.55 659.014 256.667 658.293 256.667 657.497C256.667 656.696 256.55 655.972 256.317 655.324C256.09 654.67 255.744 654.151 255.278 653.764C254.812 653.378 254.232 653.185 253.539 653.185C252.829 653.185 252.238 653.378 251.766 653.764C251.3 654.151 250.951 654.67 250.718 655.324C250.491 655.972 250.377 656.696 250.377 657.497C250.377 658.293 250.491 659.014 250.718 659.662C250.951 660.31 251.3 660.827 251.766 661.213C252.238 661.594 252.829 661.784 253.539 661.784ZM265.388 659.824L270.629 650.909H273.8V664H270.817V655.077L265.592 664H262.413V650.909H265.388V659.824ZM276.244 660.412H279.303C279.332 660.901 279.55 661.278 279.96 661.545C280.369 661.812 280.9 661.946 281.553 661.946C282.218 661.946 282.778 661.801 283.232 661.511C283.692 661.216 283.923 660.77 283.923 660.173C283.923 659.821 283.835 659.511 283.658 659.244C283.482 658.972 283.235 658.761 282.917 658.614C282.599 658.466 282.224 658.392 281.792 658.392H279.789V656.202H281.792C282.434 656.202 282.92 656.054 283.249 655.759C283.585 655.463 283.752 655.091 283.752 654.642C283.752 654.159 283.576 653.767 283.224 653.466C282.877 653.165 282.397 653.014 281.783 653.014C281.17 653.014 280.658 653.153 280.249 653.432C279.846 653.71 279.636 654.068 279.619 654.506H276.576C276.587 653.744 276.815 653.082 277.258 652.52C277.707 651.957 278.309 651.52 279.065 651.207C279.826 650.895 280.684 650.739 281.638 650.739C282.661 650.739 283.545 650.892 284.289 651.199C285.033 651.506 285.607 651.935 286.011 652.486C286.414 653.031 286.616 653.673 286.616 654.412C286.616 655.122 286.394 655.71 285.951 656.176C285.508 656.636 284.911 656.966 284.161 657.165V657.301C284.678 657.33 285.144 657.477 285.559 657.744C285.974 658.006 286.303 658.361 286.548 658.81C286.792 659.259 286.914 659.778 286.914 660.369C286.914 661.17 286.684 661.864 286.224 662.449C285.763 663.028 285.13 663.474 284.323 663.787C283.522 664.099 282.604 664.256 281.57 664.256C280.565 664.256 279.664 664.105 278.869 663.804C278.079 663.497 277.451 663.057 276.985 662.483C276.519 661.909 276.272 661.219 276.244 660.412ZM289.343 664V650.909H294.84C296.391 650.909 297.616 651.219 298.513 651.838C299.417 652.457 299.869 653.321 299.869 654.429C299.869 655.162 299.613 655.761 299.102 656.227C298.596 656.687 297.906 656.997 297.031 657.156C297.718 657.213 298.32 657.386 298.837 657.676C299.36 657.966 299.769 658.347 300.065 658.818C300.36 659.29 300.508 659.832 300.508 660.446C300.508 661.168 300.317 661.795 299.937 662.33C299.562 662.858 299.013 663.27 298.292 663.565C297.576 663.855 296.707 664 295.684 664H289.343ZM292.232 661.571H295.684C296.252 661.571 296.698 661.437 297.022 661.17C297.346 660.898 297.508 660.528 297.508 660.062C297.508 659.523 297.346 659.099 297.022 658.793C296.698 658.48 296.252 658.324 295.684 658.324H292.232V661.571ZM292.232 656.33H294.9C295.32 656.33 295.681 656.27 295.982 656.151C296.283 656.026 296.513 655.852 296.673 655.631C296.832 655.403 296.911 655.134 296.911 654.821C296.911 654.372 296.727 654.02 296.357 653.764C295.994 653.509 295.488 653.381 294.84 653.381H292.232V656.33ZM308.764 664.256C307.486 664.256 306.378 663.974 305.44 663.412C304.503 662.849 303.776 662.062 303.259 661.051C302.747 660.04 302.491 658.858 302.491 657.506C302.491 656.153 302.747 654.969 303.259 653.952C303.776 652.935 304.503 652.145 305.44 651.582C306.378 651.02 307.486 650.739 308.764 650.739C310.043 650.739 311.151 651.02 312.088 651.582C313.026 652.145 313.75 652.935 314.261 653.952C314.778 654.969 315.037 656.153 315.037 657.506C315.037 658.858 314.778 660.04 314.261 661.051C313.75 662.062 313.026 662.849 312.088 663.412C311.151 663.974 310.043 664.256 308.764 664.256ZM308.781 661.784C309.474 661.784 310.054 661.594 310.52 661.213C310.986 660.827 311.332 660.31 311.56 659.662C311.793 659.014 311.909 658.293 311.909 657.497C311.909 656.696 311.793 655.972 311.56 655.324C311.332 654.67 310.986 654.151 310.52 653.764C310.054 653.378 309.474 653.185 308.781 653.185C308.071 653.185 307.48 653.378 307.009 653.764C306.543 654.151 306.193 654.67 305.96 655.324C305.733 655.972 305.619 656.696 305.619 657.497C305.619 658.293 305.733 659.014 305.96 659.662C306.193 660.31 306.543 660.827 307.009 661.213C307.48 661.594 308.071 661.784 308.781 661.784ZM316.496 667.801V661.46H317.536C317.815 661.244 318.048 660.952 318.235 660.582C318.423 660.207 318.576 659.767 318.695 659.261C318.82 658.75 318.923 658.179 319.002 657.548C319.082 656.912 319.153 656.227 319.215 655.494L319.59 650.909H329.05V661.46H331.079V667.801H328.096V664H319.531V667.801H316.496ZM320.707 661.46H326.102V653.398H322.266L322.062 655.494C321.948 656.881 321.798 658.068 321.61 659.057C321.423 660.045 321.121 660.847 320.707 661.46ZM336.357 659.824L341.598 650.909H344.768V664H341.786V655.077L336.561 664H333.382V650.909H336.357V659.824ZM346.471 653.44V650.909H357.925V653.44H353.69V664H350.707V653.44H346.471ZM365.553 664.256C364.246 664.256 363.124 663.969 362.187 663.395C361.255 662.821 360.536 662.028 360.031 661.017C359.531 660 359.281 658.83 359.281 657.506C359.281 656.176 359.536 655.003 360.048 653.986C360.559 652.963 361.281 652.168 362.212 651.599C363.15 651.026 364.258 650.739 365.536 650.739C366.599 650.739 367.539 650.935 368.357 651.327C369.181 651.713 369.837 652.261 370.326 652.972C370.815 653.676 371.093 654.5 371.161 655.443H368.212C368.093 654.812 367.809 654.287 367.36 653.866C366.917 653.44 366.323 653.227 365.579 653.227C364.948 653.227 364.394 653.398 363.917 653.739C363.44 654.074 363.067 654.557 362.8 655.188C362.539 655.818 362.408 656.574 362.408 657.455C362.408 658.347 362.539 659.114 362.8 659.756C363.062 660.392 363.428 660.884 363.9 661.23C364.377 661.571 364.937 661.741 365.579 661.741C366.033 661.741 366.44 661.656 366.798 661.486C367.161 661.31 367.465 661.057 367.71 660.727C367.954 660.398 368.121 659.997 368.212 659.526H371.161C371.087 660.452 370.815 661.273 370.343 661.989C369.871 662.699 369.229 663.256 368.417 663.659C367.604 664.057 366.65 664.256 365.553 664.256ZM381.433 664V653.415H378.638C377.928 653.415 377.382 653.58 377.001 653.909C376.621 654.239 376.433 654.648 376.439 655.136C376.433 655.625 376.612 656.028 376.976 656.347C377.339 656.665 377.859 656.824 378.536 656.824H382.405V659.074H378.536C377.49 659.074 376.587 658.909 375.825 658.58C375.064 658.25 374.479 657.784 374.07 657.182C373.661 656.58 373.456 655.875 373.456 655.068C373.456 654.227 373.663 653.497 374.078 652.878C374.499 652.253 375.095 651.77 375.868 651.429C376.646 651.082 377.57 650.909 378.638 650.909H384.322V664H381.433ZM372.979 664L376.635 657.284H379.678L376.013 664H372.979ZM393.382 664V650.909H404.436V664H401.462V653.44H396.331V664H393.382ZM413.319 664.256C412.04 664.256 410.933 663.974 409.995 663.412C409.058 662.849 408.33 662.062 407.813 661.051C407.302 660.04 407.046 658.858 407.046 657.506C407.046 656.153 407.302 654.969 407.813 653.952C408.33 652.935 409.058 652.145 409.995 651.582C410.933 651.02 412.04 650.739 413.319 650.739C414.597 650.739 415.705 651.02 416.643 651.582C417.58 652.145 418.305 652.935 418.816 653.952C419.333 654.969 419.592 656.153 419.592 657.506C419.592 658.858 419.333 660.04 418.816 661.051C418.305 662.062 417.58 662.849 416.643 663.412C415.705 663.974 414.597 664.256 413.319 664.256ZM413.336 661.784C414.029 661.784 414.609 661.594 415.075 661.213C415.54 660.827 415.887 660.31 416.114 659.662C416.347 659.014 416.464 658.293 416.464 657.497C416.464 656.696 416.347 655.972 416.114 655.324C415.887 654.67 415.54 654.151 415.075 653.764C414.609 653.378 414.029 653.185 413.336 653.185C412.626 653.185 412.035 653.378 411.563 653.764C411.097 654.151 410.748 654.67 410.515 655.324C410.288 655.972 410.174 656.696 410.174 657.497C410.174 658.293 410.288 659.014 410.515 659.662C410.748 660.31 411.097 660.827 411.563 661.213C412.035 661.594 412.626 661.784 413.336 661.784ZM428.163 664V650.909H439.217V664H436.243V653.44H431.112V664H428.163ZM442.39 668.909V650.909H445.424V653.074H445.603C445.762 652.756 445.987 652.418 446.276 652.06C446.566 651.696 446.958 651.386 447.452 651.131C447.947 650.869 448.577 650.739 449.344 650.739C450.356 650.739 451.268 650.997 452.08 651.514C452.898 652.026 453.546 652.784 454.023 653.79C454.506 654.79 454.748 656.017 454.748 657.472C454.748 658.909 454.512 660.131 454.04 661.136C453.569 662.142 452.927 662.909 452.114 663.438C451.302 663.966 450.381 664.23 449.353 664.23C448.603 664.23 447.981 664.105 447.487 663.855C446.992 663.605 446.594 663.304 446.293 662.952C445.998 662.594 445.768 662.256 445.603 661.938H445.475V668.909H442.39ZM445.415 657.455C445.415 658.301 445.535 659.043 445.773 659.679C446.018 660.315 446.367 660.812 446.822 661.17C447.282 661.523 447.839 661.699 448.492 661.699C449.174 661.699 449.745 661.517 450.205 661.153C450.665 660.784 451.012 660.281 451.245 659.645C451.484 659.003 451.603 658.273 451.603 657.455C451.603 656.642 451.487 655.92 451.254 655.29C451.021 654.659 450.674 654.165 450.214 653.807C449.754 653.449 449.18 653.27 448.492 653.27C447.833 653.27 447.273 653.443 446.813 653.79C446.353 654.136 446.004 654.622 445.765 655.247C445.532 655.872 445.415 656.608 445.415 657.455ZM463.185 664.256C461.873 664.256 460.739 663.983 459.785 663.438C458.836 662.886 458.106 662.108 457.594 661.102C457.083 660.091 456.827 658.901 456.827 657.531C456.827 656.185 457.083 655.003 457.594 653.986C458.112 652.963 458.833 652.168 459.759 651.599C460.685 651.026 461.773 650.739 463.023 650.739C463.83 650.739 464.592 650.869 465.308 651.131C466.029 651.386 466.665 651.784 467.217 652.324C467.773 652.864 468.211 653.551 468.529 654.386C468.847 655.216 469.006 656.205 469.006 657.352V658.298H458.276V656.219H466.049C466.043 655.628 465.915 655.102 465.665 654.642C465.415 654.176 465.066 653.81 464.617 653.543C464.174 653.276 463.657 653.142 463.066 653.142C462.435 653.142 461.881 653.295 461.404 653.602C460.927 653.903 460.555 654.301 460.288 654.795C460.026 655.284 459.893 655.821 459.887 656.406V658.222C459.887 658.983 460.026 659.636 460.305 660.182C460.583 660.722 460.972 661.136 461.472 661.426C461.972 661.71 462.558 661.852 463.228 661.852C463.677 661.852 464.083 661.79 464.447 661.665C464.81 661.534 465.126 661.344 465.393 661.094C465.66 660.844 465.862 660.534 465.998 660.165L468.879 660.489C468.697 661.25 468.35 661.915 467.839 662.483C467.333 663.045 466.685 663.483 465.896 663.795C465.106 664.102 464.202 664.256 463.185 664.256ZM470.457 667.801V661.46H471.497C471.776 661.244 472.009 660.952 472.196 660.582C472.384 660.207 472.537 659.767 472.656 659.261C472.781 658.75 472.884 658.179 472.963 657.548C473.043 656.912 473.114 656.227 473.176 655.494L473.551 650.909H483.011V661.46H485.04V667.801H482.057V664H473.491V667.801H470.457ZM474.668 661.46H480.062V653.398H476.227L476.023 655.494C475.909 656.881 475.759 658.068 475.571 659.057C475.384 660.045 475.082 660.847 474.668 661.46ZM493.053 664.256C491.775 664.256 490.667 663.974 489.729 663.412C488.792 662.849 488.065 662.062 487.548 661.051C487.036 660.04 486.781 658.858 486.781 657.506C486.781 656.153 487.036 654.969 487.548 653.952C488.065 652.935 488.792 652.145 489.729 651.582C490.667 651.02 491.775 650.739 493.053 650.739C494.332 650.739 495.44 651.02 496.377 651.582C497.315 652.145 498.039 652.935 498.55 653.952C499.067 654.969 499.326 656.153 499.326 657.506C499.326 658.858 499.067 660.04 498.55 661.051C498.039 662.062 497.315 662.849 496.377 663.412C495.44 663.974 494.332 664.256 493.053 664.256ZM493.07 661.784C493.763 661.784 494.343 661.594 494.809 661.213C495.275 660.827 495.621 660.31 495.849 659.662C496.082 659.014 496.198 658.293 496.198 657.497C496.198 656.696 496.082 655.972 495.849 655.324C495.621 654.67 495.275 654.151 494.809 653.764C494.343 653.378 493.763 653.185 493.07 653.185C492.36 653.185 491.769 653.378 491.298 653.764C490.832 654.151 490.482 654.67 490.249 655.324C490.022 655.972 489.908 656.696 489.908 657.497C489.908 658.293 490.022 659.014 490.249 659.662C490.482 660.31 490.832 660.827 491.298 661.213C491.769 661.594 492.36 661.784 493.07 661.784ZM501.945 664V650.909H512.999V664H510.024V653.44H504.893V664H501.945ZM515.268 664L515.251 661.46H515.702C516.043 661.46 516.33 661.384 516.563 661.23C516.796 661.077 516.989 660.821 517.143 660.463C517.296 660.099 517.415 659.611 517.501 658.997C517.586 658.384 517.646 657.619 517.68 656.705L517.91 650.909H527.455V664H524.472V653.44H520.714L520.509 657.659C520.458 658.75 520.336 659.696 520.143 660.497C519.955 661.293 519.688 661.949 519.342 662.466C519.001 662.983 518.572 663.369 518.055 663.625C517.538 663.875 516.927 664 516.222 664H515.268ZM534.329 664.264C533.499 664.264 532.752 664.116 532.087 663.821C531.428 663.52 530.906 663.077 530.519 662.491C530.138 661.906 529.948 661.185 529.948 660.327C529.948 659.588 530.085 658.977 530.357 658.494C530.63 658.011 531.002 657.625 531.474 657.335C531.945 657.045 532.477 656.827 533.067 656.679C533.664 656.526 534.281 656.415 534.917 656.347C535.684 656.267 536.306 656.196 536.783 656.134C537.261 656.065 537.607 655.963 537.823 655.827C538.045 655.685 538.156 655.466 538.156 655.17V655.119C538.156 654.477 537.965 653.98 537.585 653.628C537.204 653.276 536.656 653.099 535.94 653.099C535.184 653.099 534.585 653.264 534.141 653.594C533.704 653.923 533.408 654.312 533.255 654.761L530.374 654.352C530.602 653.557 530.977 652.892 531.499 652.358C532.022 651.818 532.661 651.415 533.417 651.148C534.173 650.875 535.008 650.739 535.923 650.739C536.553 650.739 537.181 650.812 537.806 650.96C538.431 651.108 539.002 651.352 539.519 651.693C540.036 652.028 540.451 652.486 540.763 653.065C541.082 653.645 541.241 654.369 541.241 655.239V664H538.275V662.202H538.173C537.985 662.565 537.721 662.906 537.38 663.224C537.045 663.537 536.621 663.79 536.11 663.983C535.604 664.17 535.011 664.264 534.329 664.264ZM535.13 661.997C535.749 661.997 536.286 661.875 536.741 661.631C537.195 661.381 537.545 661.051 537.789 660.642C538.039 660.233 538.164 659.787 538.164 659.304V657.761C538.067 657.841 537.903 657.915 537.67 657.983C537.442 658.051 537.187 658.111 536.903 658.162C536.619 658.213 536.337 658.259 536.059 658.298C535.781 658.338 535.539 658.372 535.335 658.401C534.874 658.463 534.462 658.565 534.099 658.707C533.735 658.849 533.448 659.048 533.238 659.304C533.028 659.554 532.923 659.878 532.923 660.276C532.923 660.844 533.13 661.273 533.545 661.562C533.96 661.852 534.488 661.997 535.13 661.997ZM542.877 653.44V650.909H554.332V653.44H550.096V664H547.113V653.44H542.877ZM562.045 664.256C560.732 664.256 559.599 663.983 558.644 663.438C557.695 662.886 556.965 662.108 556.454 661.102C555.942 660.091 555.687 658.901 555.687 657.531C555.687 656.185 555.942 655.003 556.454 653.986C556.971 652.963 557.692 652.168 558.619 651.599C559.545 651.026 560.633 650.739 561.883 650.739C562.69 650.739 563.451 650.869 564.167 651.131C564.888 651.386 565.525 651.784 566.076 652.324C566.633 652.864 567.07 653.551 567.388 654.386C567.707 655.216 567.866 656.205 567.866 657.352V658.298H557.136V656.219H564.908C564.903 655.628 564.775 655.102 564.525 654.642C564.275 654.176 563.925 653.81 563.477 653.543C563.033 653.276 562.516 653.142 561.925 653.142C561.295 653.142 560.741 653.295 560.263 653.602C559.786 653.903 559.414 654.301 559.147 654.795C558.886 655.284 558.752 655.821 558.746 656.406V658.222C558.746 658.983 558.886 659.636 559.164 660.182C559.442 660.722 559.832 661.136 560.332 661.426C560.832 661.71 561.417 661.852 562.087 661.852C562.536 661.852 562.942 661.79 563.306 661.665C563.67 661.534 563.985 661.344 564.252 661.094C564.519 660.844 564.721 660.534 564.857 660.165L567.738 660.489C567.556 661.25 567.21 661.915 566.698 662.483C566.192 663.045 565.545 663.483 564.755 663.795C563.965 664.102 563.062 664.256 562.045 664.256Z" fill="#F9F9E5"/>
<path d="M301.298 615.545L301.017 627.869H298.273L298 615.545H301.298ZM299.645 633.188C299.128 633.188 298.685 633.006 298.315 632.642C297.952 632.278 297.77 631.835 297.77 631.312C297.77 630.801 297.952 630.364 298.315 630C298.685 629.636 299.128 629.455 299.645 629.455C300.151 629.455 300.588 629.636 300.957 630C301.332 630.364 301.52 630.801 301.52 631.312C301.52 631.659 301.432 631.974 301.256 632.259C301.085 632.543 300.858 632.77 300.574 632.94C300.295 633.105 299.986 633.188 299.645 633.188Z" fill="#F87000"/>
<path d="M-74 683H621" stroke="black" stroke-width="5"/>
</svg>
