<svg width="97" height="97" viewBox="0 0 97 97" fill="none" xmlns="http://www.w3.org/2000/svg">
<g clip-path="url(#clip0_99_1329)">
<path d="M25.3245 68.4376C24.7436 69.1153 24.8222 70.1359 25.4999 70.7169C31.8962 76.199 40.0644 79.218 48.4999 79.218C67.9979 79.218 83.8609 63.3551 83.8609 43.8571C83.8609 24.359 67.9979 8.49609 48.4999 8.49609C29.0018 8.49609 13.1389 24.359 13.1389 43.8571C13.1389 50.0594 14.7681 56.1617 17.8506 61.5044C18.2968 62.2775 19.2857 62.5432 20.0588 62.0969C20.832 61.6507 21.0974 60.662 20.6512 59.8887C17.8518 55.0366 16.3719 49.493 16.3719 43.8571C16.3719 26.1416 30.7844 11.7291 48.4999 11.7291C66.2153 11.7291 80.6279 26.1416 80.6279 43.8571C80.6279 61.5725 66.2153 75.985 48.4999 75.985C40.8357 75.985 33.4147 73.2422 27.6038 68.262C26.9257 67.6811 25.9052 67.7601 25.3245 68.4376Z" fill="black"/>
<path d="M79.505 12.8525C62.369 -4.28305 34.6331 -4.28527 17.4949 12.8525C1.18929 29.1587 0.730602 54.4307 14.3161 71.3199C20.3487 78.8195 28.764 84.1796 38.056 86.4526L44.8078 93.7671H36.5783C35.6856 93.7671 34.9618 94.4909 34.9618 95.3836C34.9618 96.2763 35.6856 97.0001 36.5783 97.0001H60.4217C61.3145 97.0001 62.0382 96.2763 62.0382 95.3836C62.0382 94.4909 61.3145 93.7671 60.4217 93.7671H52.1919L59.2775 86.0909C59.8828 85.435 59.842 84.4122 59.1859 83.8066C58.53 83.201 57.5072 83.242 56.9016 83.8981L48.4998 93.0002L40.0979 83.8979C39.8778 83.6595 39.5913 83.493 39.2757 83.4196C20.7936 79.1282 7.88544 62.8598 7.88544 43.8576C7.88544 21.4626 26.105 3.24298 48.5 3.24298C70.8951 3.24298 89.1146 21.4626 89.1146 43.8576C89.1146 58.5886 81.1105 72.1955 68.2256 79.3683C67.4456 79.8025 67.1654 80.787 67.5994 81.5671C68.0339 82.3469 69.0181 82.6267 69.7983 82.1933C95.1068 68.1041 100.197 33.5447 79.505 12.8525Z" fill="black"/>
<path d="M68.0756 24.9265L49.1955 15.9277C48.7554 15.7181 48.2444 15.7181 47.8043 15.9277L28.9242 24.9265C28.3616 25.1947 28.0032 25.7625 28.0032 26.3858V31.3293C28.0032 32.222 28.727 32.9458 29.6197 32.9458H42.7709L42.1601 47.1171C42.1205 48.0336 42.8518 48.8033 43.7762 48.8033C44.637 48.8033 45.3527 48.1247 45.3899 47.2565L46.0068 32.946H61.1611L62.4151 47.4905C62.4908 48.3698 63.2625 49.0377 64.1645 48.9621C65.0538 48.8853 65.7127 48.1021 65.6361 47.2126L64.2548 31.1905C64.1797 30.3646 63.4888 29.7128 62.6442 29.7128H31.2364V27.406L48.5 19.1776L66.6844 27.8451C67.4911 28.2294 68.4555 27.8871 68.8392 27.0815C69.2234 26.2755 68.8815 25.3108 68.0756 24.9265Z" fill="black"/>
<path d="M25.4648 61.639C25.4648 62.5317 26.1886 63.2555 27.0813 63.2555H69.9186C70.8114 63.2555 71.5351 62.5317 71.5351 61.639C71.5351 60.7462 70.8114 60.0225 69.9186 60.0225H27.0813C26.1886 60.0225 25.4648 60.7462 25.4648 61.639Z" fill="black"/>
<path d="M33.899 36.6267C33.0087 36.5535 32.2263 37.209 32.1495 38.0983L30.8519 53.1528H29.7082C28.8155 53.1528 28.0917 53.8766 28.0917 54.7693C28.0917 55.662 28.8155 56.3858 29.7082 56.3858H67.2918C68.1846 56.3858 68.9083 55.662 68.9083 54.7693C68.9083 53.8766 68.1846 53.1528 67.2918 53.1528H55.0998L54.5362 40.0793C54.498 39.1874 53.7409 38.4895 52.8516 38.5341C51.9597 38.5723 51.2679 39.3268 51.3065 40.2187L51.8639 53.153H34.097L35.3708 38.3763C35.4472 37.4864 34.7882 36.7032 33.899 36.6267Z" fill="black"/>
</g>
<defs>
<clipPath id="clip0_99_1329">
<rect width="97" height="97" fill="white"/>
</clipPath>
</defs>
</svg>
