<svg width="413" height="94" viewBox="0 0 413 94" fill="none" xmlns="http://www.w3.org/2000/svg">
<rect y="49" width="366" height="44" fill="#F87000"/>
<path d="M2.6875 37V10.8182H14.0398C16.0341 10.8182 17.7088 11.0866 19.0639 11.6236C20.4276 12.1605 21.4545 12.919 22.1449 13.8991C22.8438 14.8793 23.1932 16.0341 23.1932 17.3636C23.1932 18.3267 22.9801 19.2045 22.554 19.9972C22.1364 20.7898 21.5483 21.4545 20.7898 21.9915C20.0313 22.5199 19.1449 22.8864 18.1307 23.0909V23.3466C19.2557 23.3892 20.2784 23.6747 21.1989 24.2031C22.1193 24.723 22.8523 25.4432 23.3977 26.3636C23.9432 27.2756 24.2159 28.3494 24.2159 29.5852C24.2159 31.017 23.8409 32.2912 23.0909 33.4077C22.3494 34.5241 21.2926 35.402 19.9205 36.0412C18.5483 36.6804 16.9119 37 15.0114 37H2.6875ZM9.79545 31.3239H13.1193C14.3125 31.3239 15.2074 31.1023 15.804 30.6591C16.4006 30.2074 16.6989 29.5426 16.6989 28.6648C16.6989 28.0511 16.5582 27.5312 16.277 27.1051C15.9957 26.679 15.5952 26.3551 15.0753 26.1335C14.5639 25.9119 13.946 25.8011 13.2216 25.8011H9.79545V31.3239ZM9.79545 21.4034H12.7102C13.3324 21.4034 13.8821 21.3054 14.3594 21.1094C14.8366 20.9134 15.2074 20.6321 15.4716 20.2656C15.7443 19.8906 15.8807 19.4347 15.8807 18.8977C15.8807 18.0881 15.5909 17.4702 15.0114 17.044C14.4318 16.6094 13.6989 16.392 12.8125 16.392H9.79545V21.4034ZM31.2344 19.6136H36.6548C38.8622 19.6136 40.7884 19.9673 42.4332 20.6747C44.0866 21.3821 45.3693 22.3793 46.2812 23.6662C47.2017 24.9531 47.6577 26.4659 47.6491 28.2045C47.6577 29.9432 47.2017 31.473 46.2812 32.794C45.3693 34.1151 44.0866 35.1463 42.4332 35.8878C40.7884 36.6293 38.8622 37 36.6548 37H26.8878V10.8182H33.9957V31.4261H36.6548C37.5156 31.4261 38.2358 31.2855 38.8153 31.0043C39.4034 30.723 39.8466 30.3352 40.1449 29.8409C40.4517 29.3466 40.6009 28.7841 40.5923 28.1534C40.6009 27.2585 40.2685 26.517 39.5952 25.929C38.9219 25.3324 37.9418 25.0341 36.6548 25.0341H31.2344V19.6136ZM56.598 10.8182V37H49.4901V10.8182H56.598ZM59.0877 43.2898V31.5284H60.9286C61.5423 31.1534 62.0962 30.625 62.5906 29.9432C63.0934 29.2614 63.5195 28.2855 63.869 27.0156C64.2269 25.7457 64.4911 24.0455 64.6616 21.9148L65.5309 10.8182H84.0423V31.5284H86.8036V43.2898H79.9514V37H65.94V43.2898H59.0877ZM69.0593 31.5284H77.19V16.5455H71.9229L71.5139 21.9148C71.3945 23.517 71.2113 24.919 70.9641 26.1207C70.7255 27.3139 70.44 28.3537 70.1076 29.2401C69.7837 30.1179 69.4343 30.8807 69.0593 31.5284ZM96.0082 37H88.3377L96.9798 10.8182H106.696L115.338 37H107.667L101.94 18.0284H101.735L96.0082 37ZM94.5763 26.6705H108.997V31.9886H94.5763V26.6705ZM119.445 10.8182H126.297V19.0511C126.297 19.8693 126.438 20.5384 126.719 21.0582C127.009 21.5781 127.49 21.9616 128.163 22.2088C128.845 22.456 129.774 22.5795 130.95 22.5795C131.163 22.5795 131.509 22.5753 131.986 22.5668C132.472 22.5497 132.996 22.5284 133.558 22.5028C134.121 22.4687 134.636 22.4304 135.105 22.3878C135.582 22.3366 135.919 22.2812 136.115 22.2216V27.5909C135.893 27.6676 135.527 27.7358 135.016 27.7955C134.504 27.8466 133.955 27.8935 133.366 27.9361C132.787 27.9702 132.267 28 131.807 28.0256C131.347 28.0426 131.061 28.0511 130.95 28.0511C128.649 28.0511 126.634 27.723 124.903 27.0668C123.173 26.4105 121.831 25.4176 120.876 24.0881C119.922 22.7585 119.445 21.0795 119.445 19.0511V10.8182ZM134.786 10.8182H141.689V37H134.786V10.8182ZM153.383 37H145.713L154.355 10.8182H164.071L172.713 37H165.042L159.315 18.0284H159.11L153.383 37ZM151.951 26.6705H166.372V31.9886H151.951V26.6705ZM182.406 37V10.8182H189.514V21.0455H198.923V10.8182H206.031V37H198.923V26.7727H189.514V37H182.406ZM216.207 37H208.537L217.179 10.8182H226.895L235.537 37H227.866L222.139 18.0284H221.935L216.207 37ZM214.776 26.6705H229.196V31.9886H214.776V26.6705ZM237.189 37V31.5284L237.905 31.4261C238.775 31.2898 239.495 30.9148 240.066 30.3011C240.645 29.679 241.088 28.6946 241.395 27.348C241.711 25.9929 241.911 24.1477 241.996 21.8125L242.405 10.8182H261.377V37H254.525V16.3409H248.951L248.542 24.5739C248.388 27.625 247.979 30.0582 247.314 31.8736C246.65 33.6889 245.64 34.9972 244.284 35.7983C242.929 36.5994 241.144 37 238.928 37H237.189ZM264.742 10.8182H271.85V24.5227H272.055L281.362 10.8182H287.396V37H280.288V23.2443H280.134L270.674 37H264.742V10.8182ZM292.343 10.8182H299.195V19.0511C299.195 19.8693 299.336 20.5384 299.617 21.0582C299.907 21.5781 300.388 21.9616 301.062 22.2088C301.744 22.456 302.673 22.5795 303.849 22.5795C304.062 22.5795 304.407 22.5753 304.884 22.5668C305.37 22.5497 305.894 22.5284 306.457 22.5028C307.019 22.4687 307.535 22.4304 308.004 22.3878C308.481 22.3366 308.817 22.2812 309.013 22.2216V27.5909C308.792 27.6676 308.425 27.7358 307.914 27.7955C307.403 27.8466 306.853 27.8935 306.265 27.9361C305.685 27.9702 305.165 28 304.705 28.0256C304.245 28.0426 303.96 28.0511 303.849 28.0511C301.548 28.0511 299.532 27.723 297.802 27.0668C296.072 26.4105 294.729 25.4176 293.775 24.0881C292.82 22.7585 292.343 21.0795 292.343 19.0511V10.8182ZM307.684 10.8182H314.587V37H307.684V10.8182ZM319.48 37V10.8182H326.588V21.0455H335.998V10.8182H343.105V37H335.998V26.7727H326.588V37H319.48ZM350.98 19.6136H356.401C358.608 19.6136 360.534 19.9673 362.179 20.6747C363.833 21.3821 365.115 22.3793 366.027 23.6662C366.948 24.9531 367.404 26.4659 367.395 28.2045C367.404 29.9432 366.948 31.473 366.027 32.794C365.115 34.1151 363.833 35.1463 362.179 35.8878C360.534 36.6293 358.608 37 356.401 37H346.634V10.8182H353.742V31.4261H356.401C357.262 31.4261 357.982 31.2855 358.561 31.0043C359.15 30.723 359.593 30.3352 359.891 29.8409C360.198 29.3466 360.347 28.7841 360.338 28.1534C360.347 27.2585 360.015 26.517 359.341 25.929C358.668 25.3324 357.688 25.0341 356.401 25.0341H350.98V19.6136ZM376.344 10.8182V37H369.236V10.8182H376.344ZM387.322 10.8182L391.618 18.4375H391.822L396.169 10.8182H404.095L396.271 23.9091L404.402 37H396.271L391.822 29.2273H391.618L387.169 37H379.089L387.118 23.9091L379.345 10.8182H387.322Z" fill="#0E1111"/>
<path d="M11.4446 57.8182H18.2969V66.0511C18.2969 66.8693 18.4375 67.5384 18.7188 68.0582C19.0085 68.5781 19.4901 68.9616 20.1634 69.2088C20.8452 69.456 21.7741 69.5795 22.9503 69.5795C23.1634 69.5795 23.5085 69.5753 23.9858 69.5668C24.4716 69.5497 24.9957 69.5284 25.5582 69.5028C26.1207 69.4687 26.6364 69.4304 27.1051 69.3878C27.5824 69.3366 27.919 69.2812 28.1151 69.2216V74.5909C27.8935 74.6676 27.527 74.7358 27.0156 74.7955C26.5043 74.8466 25.9545 74.8935 25.3665 74.9361C24.7869 74.9702 24.267 75 23.8068 75.0256C23.3466 75.0426 23.0611 75.0511 22.9503 75.0511C20.6491 75.0511 18.6335 74.723 16.9034 74.0668C15.1733 73.4105 13.831 72.4176 12.8764 71.0881C11.9219 69.7585 11.4446 68.0795 11.4446 66.0511V57.8182ZM26.7855 57.8182H33.6889V84H26.7855V57.8182ZM38.582 84V57.8182H57.4514V63.5455H45.69V68.0455H56.4798V73.7727H45.69V78.2727H57.4002V84H38.582ZM60.9766 84V57.8182H72.2777C74.2209 57.8182 75.9212 58.2017 77.3786 58.9688C78.8359 59.7358 79.9695 60.8139 80.7791 62.2031C81.5888 63.5923 81.9936 65.2159 81.9936 67.0739C81.9936 68.9489 81.576 70.5724 80.7408 71.9446C79.9141 73.3168 78.7507 74.3736 77.2507 75.1151C75.7592 75.8565 74.0163 76.2273 72.022 76.2273H65.272V70.7045H70.5902C71.4254 70.7045 72.1371 70.5597 72.7251 70.2699C73.3217 69.9716 73.7777 69.5497 74.093 69.0043C74.4169 68.4588 74.5788 67.8153 74.5788 67.0739C74.5788 66.3239 74.4169 65.6847 74.093 65.1562C73.7777 64.6193 73.3217 64.2102 72.7251 63.929C72.1371 63.6392 71.4254 63.4943 70.5902 63.4943H68.0845V84H60.9766ZM84.6016 84V57.8182H103.471V63.5455H91.7095V68.0455H102.499V73.7727H91.7095V78.2727H103.42V84H84.6016ZM117.275 84.358C115.212 84.358 113.38 84.0043 111.777 83.2969C110.184 82.581 108.931 81.5966 108.019 80.3438C107.107 79.0909 106.647 77.6506 106.638 76.0227H113.797C113.806 76.5256 113.959 76.9773 114.257 77.3778C114.564 77.7699 114.982 78.0767 115.51 78.2983C116.039 78.5199 116.644 78.6307 117.326 78.6307C117.982 78.6307 118.561 78.5156 119.064 78.2855C119.567 78.0469 119.959 77.7187 120.24 77.3011C120.522 76.8835 120.658 76.4062 120.65 75.8693C120.658 75.3409 120.496 74.8722 120.164 74.4631C119.84 74.054 119.384 73.7344 118.796 73.5043C118.208 73.2741 117.53 73.1591 116.763 73.1591H114.104V68.25H116.763C117.471 68.25 118.093 68.1349 118.63 67.9048C119.175 67.6747 119.597 67.3551 119.895 66.946C120.202 66.5369 120.351 66.0682 120.343 65.5398C120.351 65.0284 120.228 64.5767 119.972 64.1847C119.716 63.7926 119.358 63.4858 118.898 63.2642C118.446 63.0426 117.922 62.9318 117.326 62.9318C116.678 62.9318 116.098 63.0469 115.587 63.277C115.084 63.5071 114.688 63.8267 114.398 64.2358C114.108 64.6449 113.959 65.1136 113.951 65.642H107.15C107.158 64.0398 107.597 62.625 108.466 61.3977C109.344 60.1705 110.546 59.2074 112.071 58.5085C113.597 57.8097 115.348 57.4602 117.326 57.4602C119.26 57.4602 120.969 57.7884 122.452 58.4446C123.944 59.1009 125.107 60.0043 125.942 61.1548C126.786 62.2969 127.203 63.6051 127.195 65.0795C127.212 66.5455 126.709 67.7472 125.686 68.6847C124.672 69.6222 123.385 70.1761 121.826 70.3466V70.5511C123.939 70.7812 125.529 71.429 126.594 72.4943C127.659 73.5511 128.184 74.8807 128.167 76.483C128.175 78.017 127.715 79.3764 126.786 80.5611C125.865 81.7457 124.583 82.6747 122.938 83.348C121.301 84.0213 119.414 84.358 117.275 84.358ZM138.461 84V57.8182H156.87V63.5455H145.569V66.6136H148.228C150.427 66.6136 152.349 66.9673 153.994 67.6747C155.647 68.3821 156.93 69.3793 157.842 70.6662C158.762 71.9531 159.222 73.4659 159.222 75.2045C159.222 76.9432 158.762 78.473 157.842 79.794C156.93 81.1151 155.647 82.1463 153.994 82.8878C152.349 83.6293 150.427 84 148.228 84H138.461ZM145.569 78.4261H148.228C149.08 78.4261 149.796 78.2855 150.376 78.0043C150.964 77.723 151.407 77.3352 151.705 76.8409C152.012 76.3466 152.165 75.7841 152.165 75.1534C152.165 74.2585 151.829 73.517 151.156 72.929C150.482 72.3324 149.506 72.0341 148.228 72.0341H145.569V78.4261ZM168.536 84H160.865L169.507 57.8182H179.223L187.865 84H180.195L174.467 65.0284H174.263L168.536 84ZM167.104 73.6705H181.524V78.9886H167.104V73.6705ZM190.387 84V57.8182H197.495V68.0455H206.904V57.8182H214.012V84H206.904V73.7727H197.495V84H190.387ZM233.52 84L225.492 73.4148H224.495V84H217.387V57.8182H224.495V67.6875H225.415L232.932 57.8182H241.881L231.909 70.3977L242.444 84H233.52ZM268.063 70.9091C268.063 73.8239 267.496 76.2827 266.363 78.2855C265.229 80.2798 263.699 81.7926 261.773 82.8239C259.847 83.8466 257.699 84.358 255.33 84.358C252.944 84.358 250.787 83.8423 248.861 82.8111C246.944 81.7713 245.418 80.2543 244.284 78.2599C243.159 76.2571 242.597 73.8068 242.597 70.9091C242.597 67.9943 243.159 65.5398 244.284 63.5455C245.418 61.5426 246.944 60.0298 248.861 59.0071C250.787 57.9759 252.944 57.4602 255.33 57.4602C257.699 57.4602 259.847 57.9759 261.773 59.0071C263.699 60.0298 265.229 61.5426 266.363 63.5455C267.496 65.5398 268.063 67.9943 268.063 70.9091ZM260.75 70.9091C260.75 69.3409 260.542 68.0199 260.124 66.946C259.715 65.8636 259.105 65.0455 258.296 64.4915C257.495 63.929 256.506 63.6477 255.33 63.6477C254.154 63.6477 253.161 63.929 252.351 64.4915C251.55 65.0455 250.941 65.8636 250.523 66.946C250.114 68.0199 249.909 69.3409 249.909 70.9091C249.909 72.4773 250.114 73.8026 250.523 74.8849C250.941 75.9588 251.55 76.777 252.351 77.3395C253.161 77.8935 254.154 78.1705 255.33 78.1705C256.506 78.1705 257.495 77.8935 258.296 77.3395C259.105 76.777 259.715 75.9588 260.124 74.8849C260.542 73.8026 260.75 72.4773 260.75 70.9091ZM271.352 57.8182H280.198L286.283 72.6477H286.59L292.675 57.8182H301.522V84H294.567V68.8636H294.363L288.533 83.7955H284.34L278.511 68.7614H278.306V84H271.352V57.8182ZM311.692 84H304.021L312.663 57.8182H322.379L331.021 84H323.351L317.624 65.0284H317.419L311.692 84ZM310.26 73.6705H324.68V78.9886H310.26V73.6705ZM329.522 63.5455V57.8182H352.278V63.5455H344.403V84H337.397V63.5455H329.522Z" fill="#F9F9E5"/>
</svg>
