<svg width="20" height="20" viewBox="0 0 20 20" fill="none" xmlns="http://www.w3.org/2000/svg">
<g clip-path="url(#clip0_20_6608)">
<mask id="mask0_20_6608" style="mask-type:luminance" maskUnits="userSpaceOnUse" x="0" y="0" width="20" height="20">
<path d="M0 0H20V20H0V0Z" fill="white"/>
</mask>
<g mask="url(#mask0_20_6608)">
<path d="M10 20C15.5228 20 20 15.5228 20 10C20 4.47715 15.5228 0 10 0C4.47715 0 0 4.47715 0 10C0 15.5228 4.47715 20 10 20Z" fill="#F0F0F0"/>
<path d="M9.56543 9.99978H20.0002C20.0002 9.09722 19.8799 8.22284 19.6557 7.39111H9.56543V9.99978Z" fill="#D80027"/>
<path d="M9.56543 4.78211H18.5324C17.9203 3.78321 17.1376 2.90027 16.225 2.1734H9.56543V4.78211Z" fill="#D80027"/>
<path d="M9.99998 19.9998C12.3535 19.9998 14.5166 19.1864 16.2248 17.8259H3.77515C5.48335 19.1864 7.64653 19.9998 9.99998 19.9998Z" fill="#D80027"/>
<path d="M1.46772 15.2164H18.5322C19.0237 14.4145 19.4048 13.5379 19.6555 12.6077H0.344482C0.595145 13.5379 0.976278 14.4145 1.46772 15.2164Z" fill="#D80027"/>
<path d="M4.63219 1.56164H5.54348L4.69582 2.17746L5.01961 3.17391L4.17199 2.55808L3.32437 3.17391L3.60406 2.31308C2.85773 2.93477 2.20359 3.66313 1.66453 4.47469H1.95652L1.41696 4.86668C1.33289 5.00692 1.25227 5.14937 1.175 5.29394L1.43266 6.08694L0.951956 5.73772C0.832461 5.99083 0.723167 6.24972 0.624922 6.514L0.908789 7.38772H1.95652L1.10887 8.00356L1.43266 9L0.585039 8.38417L0.0773044 8.75311C0.0264844 9.16161 0 9.57772 0 10H10C10 4.47719 10 3.82609 10 0C8.02456 0 6.183 0.573045 4.63219 1.56164ZM5.01961 9L4.17199 8.38417L3.32437 9L3.64817 8.00356L2.80051 7.38772H3.84824L4.17199 6.39128L4.49574 7.38772H5.54348L4.69582 8.00356L5.01961 9ZM4.69582 5.09051L5.01961 6.08694L4.17199 5.47113L3.32437 6.08694L3.64817 5.09051L2.80051 4.47469H3.84824L4.17199 3.47824L4.49574 4.47469H5.54348L4.69582 5.09051ZM8.60656 9L7.75894 8.38417L6.91133 9L7.23511 8.00356L6.38744 7.38772H7.43522L7.75894 6.39128L8.08272 7.38772H9.13044L8.28278 8.00356L8.60656 9ZM8.28278 5.09051L8.60656 6.08694L7.75894 5.47113L6.91133 6.08694L7.23511 5.09051L6.38744 4.47469H7.43522L7.75894 3.47824L8.08272 4.47469H9.13044L8.28278 5.09051ZM8.28278 2.17746L8.60656 3.17391L7.75894 2.55808L6.91133 3.17391L7.23511 2.17746L6.38744 1.56164H7.43522L7.75894 0.565194L8.08272 1.56164H9.13044L8.28278 2.17746Z" fill="#0052B4"/>
</g>
</g>
<defs>
<clipPath id="clip0_20_6608">
<rect width="20" height="20" fill="white"/>
</clipPath>
</defs>
</svg>
