<svg width="696" height="92" viewBox="0 0 696 92" fill="none" xmlns="http://www.w3.org/2000/svg">
<rect y="49" width="695" height="42.039" fill="#F87000"/>
<path d="M28.7216 10.8182V37H21.7159V16.4432H12.8693V37H5.86364V10.8182H28.7216ZM58.6332 23.9091C58.6332 26.8239 58.0664 29.2827 56.9329 31.2855C55.7994 33.2798 54.2695 34.7926 52.3434 35.8239C50.4173 36.8466 48.2695 37.358 45.9002 37.358C43.5138 37.358 41.3576 36.8423 39.4315 35.8111C37.5138 34.7713 35.9883 33.2543 34.8548 31.2599C33.7298 29.2571 33.1673 26.8068 33.1673 23.9091C33.1673 20.9943 33.7298 18.5398 34.8548 16.5455C35.9883 14.5426 37.5138 13.0298 39.4315 12.0071C41.3576 10.9759 43.5138 10.4602 45.9002 10.4602C48.2695 10.4602 50.4173 10.9759 52.3434 12.0071C54.2695 13.0298 55.7994 14.5426 56.9329 16.5455C58.0664 18.5398 58.6332 20.9943 58.6332 23.9091ZM51.3207 23.9091C51.3207 22.3409 51.1119 21.0199 50.6942 19.946C50.2852 18.8636 49.6758 18.0455 48.8661 17.4915C48.065 16.929 47.0763 16.6477 45.9002 16.6477C44.7241 16.6477 43.7312 16.929 42.9215 17.4915C42.1204 18.0455 41.511 18.8636 41.0934 19.946C40.6843 21.0199 40.4798 22.3409 40.4798 23.9091C40.4798 25.4773 40.6843 26.8026 41.0934 27.8849C41.511 28.9588 42.1204 29.777 42.9215 30.3395C43.7312 30.8935 44.7241 31.1705 45.9002 31.1705C47.0763 31.1705 48.065 30.8935 48.8661 30.3395C49.6758 29.777 50.2852 28.9588 50.6942 27.8849C51.1119 26.8026 51.3207 25.4773 51.3207 23.9091ZM61.0526 37V31.5284L61.7685 31.4261C62.6378 31.2898 63.358 30.9148 63.929 30.3011C64.5085 29.679 64.9517 28.6946 65.2585 27.348C65.5739 25.9929 65.7741 24.1477 65.8594 21.8125L66.2685 10.8182H85.2401V37H78.3878V16.3409H72.8139L72.4048 24.5739C72.2514 27.625 71.8423 30.0582 71.1776 31.8736C70.5128 33.6889 69.5028 34.9972 68.1477 35.7983C66.7926 36.5994 65.0071 37 62.7912 37H61.0526ZM92.3896 37.358V31.8352H93.668C94.418 31.8352 95.0103 31.7756 95.445 31.6562C95.8881 31.5284 96.229 31.3068 96.4677 30.9915C96.7148 30.6676 96.9237 30.2159 97.0941 29.6364L97.3498 28.8693L87.5316 10.8182H94.793L100.265 21.4545L104.458 10.8182H111.617L102.617 31.2727C102.123 32.3466 101.534 33.348 100.853 34.277C100.171 35.1974 99.3228 35.9432 98.3086 36.5142C97.2944 37.0767 96.0373 37.358 94.5373 37.358H92.3896ZM115.503 10.8182H122.355V19.0511C122.355 19.8693 122.496 20.5384 122.777 21.0582C123.067 21.5781 123.549 21.9616 124.222 22.2088C124.904 22.456 125.833 22.5795 127.009 22.5795C127.222 22.5795 127.567 22.5753 128.044 22.5668C128.53 22.5497 129.054 22.5284 129.617 22.5028C130.179 22.4687 130.695 22.4304 131.164 22.3878C131.641 22.3366 131.978 22.2812 132.174 22.2216V27.5909C131.952 27.6676 131.586 27.7358 131.074 27.7955C130.563 27.8466 130.013 27.8935 129.425 27.9361C128.846 27.9702 128.326 28 127.865 28.0256C127.405 28.0426 127.12 28.0511 127.009 28.0511C124.708 28.0511 122.692 27.723 120.962 27.0668C119.232 26.4105 117.89 25.4176 116.935 24.0881C115.98 22.7585 115.503 21.0795 115.503 19.0511V10.8182ZM130.844 10.8182H137.748V37H130.844V10.8182ZM142.641 37V10.8182H161.51V16.5455H149.749V21.0455H160.538V26.7727H149.749V31.2727H161.459V37H142.641ZM165.035 37V10.8182H172.143V21.0455H181.552V10.8182H188.66V37H181.552V26.7727H172.143V37H165.035ZM192.035 10.8182H199.143V24.5227H199.348L208.654 10.8182H214.689V37H207.581V23.2443H207.427L197.967 37H192.035V10.8182ZM218.051 37V10.8182H236.92V16.5455H225.159V21.0455H235.949V26.7727H225.159V31.2727H236.869V37H218.051ZM247.617 37V10.8182H254.725V21.0455H264.134V10.8182H271.242V37H264.134V26.7727H254.725V37H247.617ZM281.418 37H273.748L282.39 10.8182H292.106L300.748 37H293.077L287.35 18.0284H287.146L281.418 37ZM279.987 26.6705H294.407V31.9886H279.987V26.6705ZM302.4 37V31.5284L303.116 31.4261C303.985 31.2898 304.706 30.9148 305.277 30.3011C305.856 29.679 306.299 28.6946 306.606 27.348C306.922 25.9929 307.122 24.1477 307.207 21.8125L307.616 10.8182H326.588V37H319.735V16.3409H314.162L313.752 24.5739C313.599 27.625 313.19 30.0582 312.525 31.8736C311.86 33.6889 310.85 34.9972 309.495 35.7983C308.14 36.5994 306.355 37 304.139 37H302.4ZM329.953 10.8182H337.061V24.5227H337.266L346.572 10.8182H352.607V37H345.499V23.2443H345.345L335.885 37H329.953V10.8182ZM357.554 10.8182H364.406V19.0511C364.406 19.8693 364.547 20.5384 364.828 21.0582C365.118 21.5781 365.599 21.9616 366.273 22.2088C366.955 22.456 367.884 22.5795 369.06 22.5795C369.273 22.5795 369.618 22.5753 370.095 22.5668C370.581 22.5497 371.105 22.5284 371.668 22.5028C372.23 22.4687 372.746 22.4304 373.214 22.3878C373.692 22.3366 374.028 22.2812 374.224 22.2216V27.5909C374.003 27.6676 373.636 27.7358 373.125 27.7955C372.614 27.8466 372.064 27.8935 371.476 27.9361C370.896 27.9702 370.376 28 369.916 28.0256C369.456 28.0426 369.17 28.0511 369.06 28.0511C366.759 28.0511 364.743 27.723 363.013 27.0668C361.283 26.4105 359.94 25.4176 358.986 24.0881C358.031 22.7585 357.554 21.0795 357.554 19.0511V10.8182ZM372.895 10.8182H379.798V37H372.895V10.8182ZM384.691 37V10.8182H391.799V21.0455H401.208V10.8182H408.316V37H401.208V26.7727H391.799V37H384.691ZM416.191 19.6136H421.612C423.819 19.6136 425.745 19.9673 427.39 20.6747C429.044 21.3821 430.326 22.3793 431.238 23.6662C432.159 24.9531 432.615 26.4659 432.606 28.2045C432.615 29.9432 432.159 31.473 431.238 32.794C430.326 34.1151 429.044 35.1463 427.39 35.8878C425.745 36.6293 423.819 37 421.612 37H411.845V10.8182H418.953V31.4261H421.612C422.473 31.4261 423.193 31.2855 423.772 31.0043C424.36 30.723 424.804 30.3352 425.102 29.8409C425.409 29.3466 425.558 28.7841 425.549 28.1534C425.558 27.2585 425.225 26.517 424.552 25.929C423.879 25.3324 422.899 25.0341 421.612 25.0341H416.191V19.6136ZM441.555 10.8182V37H434.447V10.8182H441.555ZM452.533 10.8182L456.829 18.4375H457.033L461.38 10.8182H469.306L461.482 23.9091L469.613 37H461.482L457.033 29.2273H456.829L452.38 37H444.3L452.329 23.9091L444.556 10.8182H452.533Z" fill="#0E1111"/>
<path d="M11.8594 84V57.8182H23.2116C25.206 57.8182 26.8807 58.0866 28.2358 58.6236C29.5994 59.1605 30.6264 59.919 31.3168 60.8991C32.0156 61.8793 32.3651 63.0341 32.3651 64.3636C32.3651 65.3267 32.152 66.2045 31.7259 66.9972C31.3082 67.7898 30.7202 68.4545 29.9616 68.9915C29.2031 69.5199 28.3168 69.8864 27.3026 70.0909V70.3466C28.4276 70.3892 29.4503 70.6747 30.3707 71.2031C31.2912 71.723 32.0241 72.4432 32.5696 73.3636C33.1151 74.2756 33.3878 75.3494 33.3878 76.5852C33.3878 78.017 33.0128 79.2912 32.2628 80.4077C31.5213 81.5241 30.4645 82.402 29.0923 83.0412C27.7202 83.6804 26.0838 84 24.1832 84H11.8594ZM18.9673 78.3239H22.2912C23.4844 78.3239 24.3793 78.1023 24.9759 77.6591C25.5724 77.2074 25.8707 76.5426 25.8707 75.6648C25.8707 75.0511 25.7301 74.5312 25.4489 74.1051C25.1676 73.679 24.767 73.3551 24.2472 73.1335C23.7358 72.9119 23.1179 72.8011 22.3935 72.8011H18.9673V78.3239ZM18.9673 68.4034H21.8821C22.5043 68.4034 23.054 68.3054 23.5312 68.1094C24.0085 67.9134 24.3793 67.6321 24.6435 67.2656C24.9162 66.8906 25.0526 66.4347 25.0526 65.8977C25.0526 65.0881 24.7628 64.4702 24.1832 64.044C23.6037 63.6094 22.8707 63.392 21.9844 63.392H18.9673V68.4034ZM68.4418 70.9091C68.4418 73.8239 67.875 76.2827 66.7415 78.2855C65.608 80.2798 64.0781 81.7926 62.152 82.8239C60.2259 83.8466 58.0781 84.358 55.7088 84.358C53.3224 84.358 51.1662 83.8423 49.2401 82.8111C47.3224 81.7713 45.7969 80.2543 44.6634 78.2599C43.5384 76.2571 42.9759 73.8068 42.9759 70.9091C42.9759 67.9943 43.5384 65.5398 44.6634 63.5455C45.7969 61.5426 47.3224 60.0298 49.2401 59.0071C51.1662 57.9759 53.3224 57.4602 55.7088 57.4602C58.0781 57.4602 60.2259 57.9759 62.152 59.0071C64.0781 60.0298 65.608 61.5426 66.7415 63.5455C67.875 65.5398 68.4418 67.9943 68.4418 70.9091ZM61.1293 70.9091C61.1293 69.3409 60.9205 68.0199 60.5028 66.946C60.0938 65.8636 59.4844 65.0455 58.6747 64.4915C57.8736 63.929 56.8849 63.6477 55.7088 63.6477C54.5327 63.6477 53.5398 63.929 52.7301 64.4915C51.929 65.0455 51.3196 65.8636 50.902 66.946C50.4929 68.0199 50.2884 69.3409 50.2884 70.9091C50.2884 72.4773 50.4929 73.8026 50.902 74.8849C51.3196 75.9588 51.929 76.777 52.7301 77.3395C53.5398 77.8935 54.5327 78.1705 55.7088 78.1705C56.8849 78.1705 57.8736 77.8935 58.6747 77.3395C59.4844 76.777 60.0938 75.9588 60.5028 74.8849C60.9205 73.8026 61.1293 72.4773 61.1293 70.9091ZM82.9805 60.4261H89.9862C92.185 60.4261 94.1325 60.8736 95.8285 61.7685C97.533 62.6634 98.8668 63.9332 99.8299 65.5781C100.801 67.223 101.287 69.1705 101.287 71.4205C101.287 73.5511 100.801 75.3963 99.8299 76.956C98.8668 78.5156 97.533 79.7216 95.8285 80.5739C94.1325 81.4261 92.185 81.8523 89.9862 81.8523H82.9805C80.7646 81.8523 78.8001 81.4304 77.087 80.5866C75.3825 79.7429 74.0444 78.5369 73.0728 76.9688C72.1097 75.4006 71.6282 73.5341 71.6282 71.3693C71.6282 69.1193 72.1183 67.1761 73.0984 65.5398C74.087 63.9034 75.4336 62.642 77.1381 61.7557C78.8512 60.8693 80.7987 60.4261 82.9805 60.4261ZM82.9805 66.2557C82.0941 66.2557 81.2759 66.4219 80.5259 66.7543C79.7844 67.0866 79.1879 67.6278 78.7362 68.3778C78.293 69.1278 78.0714 70.125 78.0714 71.3693C78.0714 72.5114 78.3015 73.4233 78.7617 74.1051C79.2305 74.7869 79.8356 75.277 80.5771 75.5753C81.3271 75.8736 82.1282 76.0227 82.9805 76.0227H90.0373C90.9066 76.0227 91.6992 75.8693 92.4151 75.5625C93.1396 75.2472 93.7148 74.7528 94.141 74.0795C94.5756 73.3977 94.793 72.5114 94.793 71.4205C94.793 70.1761 94.5756 69.1747 94.141 68.4162C93.7148 67.6577 93.1396 67.108 92.4151 66.767C91.6992 66.4261 90.9066 66.2557 90.0373 66.2557H82.9805ZM89.7816 57.358V85.0739H83.1339V57.358H89.7816ZM104.566 57.8182H111.674V71.5227H111.879L121.186 57.8182H127.22V84H120.112V70.2443H119.958L110.498 84H104.566V57.8182ZM155.025 67.6364H147.815C147.764 67.0398 147.627 66.4986 147.406 66.0128C147.193 65.527 146.895 65.1094 146.511 64.7599C146.136 64.402 145.68 64.1293 145.143 63.9418C144.606 63.7457 143.997 63.6477 143.315 63.6477C142.122 63.6477 141.112 63.9375 140.285 64.517C139.467 65.0966 138.845 65.9276 138.419 67.0099C138.001 68.0923 137.792 69.392 137.792 70.9091C137.792 72.5114 138.005 73.8537 138.431 74.9361C138.866 76.0099 139.493 76.8196 140.311 77.3651C141.129 77.902 142.113 78.1705 143.264 78.1705C143.92 78.1705 144.508 78.0895 145.028 77.9276C145.548 77.7571 146 77.5142 146.383 77.1989C146.767 76.8835 147.078 76.5043 147.316 76.0611C147.564 75.6094 147.73 75.1023 147.815 74.5398L155.025 74.5909C154.94 75.6989 154.629 76.8281 154.092 77.9787C153.555 79.1207 152.792 80.1776 151.804 81.1491C150.824 82.1122 149.609 82.8878 148.16 83.4759C146.711 84.0639 145.028 84.358 143.11 84.358C140.707 84.358 138.551 83.8423 136.642 82.8111C134.741 81.7798 133.237 80.2628 132.129 78.2599C131.029 76.2571 130.48 73.8068 130.48 70.9091C130.48 67.9943 131.042 65.5398 132.167 63.5455C133.292 61.5426 134.809 60.0298 136.718 59.0071C138.627 57.9759 140.758 57.4602 143.11 57.4602C144.764 57.4602 146.285 57.6861 147.674 58.1378C149.064 58.5895 150.282 59.25 151.331 60.1193C152.379 60.9801 153.223 62.0412 153.862 63.3026C154.501 64.5639 154.889 66.0085 155.025 67.6364ZM158.25 84V57.8182H177.119V63.5455H165.358V68.0455H176.148V73.7727H165.358V78.2727H177.068V84H158.25ZM189.197 70.9091C189.197 67.7642 189.623 64.8707 190.475 62.2287C191.336 59.5866 192.7 57.1278 194.566 54.8523H201.47C200.771 55.696 200.119 56.723 199.514 57.9332C198.917 59.1349 198.397 60.4517 197.954 61.8835C197.52 63.3153 197.179 64.8026 196.931 66.3452C196.684 67.8793 196.561 69.4006 196.561 70.9091C196.561 72.9205 196.774 74.9489 197.2 76.9943C197.626 79.0312 198.21 80.9233 198.951 82.6705C199.693 84.4091 200.532 85.8409 201.47 86.9659H194.566C192.7 84.6903 191.336 82.2315 190.475 79.5895C189.623 76.9474 189.197 74.054 189.197 70.9091ZM203.672 84V57.8182H214.973C216.916 57.8182 218.616 58.2017 220.074 58.9688C221.531 59.7358 222.665 60.8139 223.474 62.2031C224.284 63.5923 224.689 65.2159 224.689 67.0739C224.689 68.9489 224.271 70.5724 223.436 71.9446C222.609 73.3168 221.446 74.3736 219.946 75.1151C218.455 75.8565 216.712 76.2273 214.717 76.2273H207.967V70.7045H213.286C214.121 70.7045 214.832 70.5597 215.42 70.2699C216.017 69.9716 216.473 69.5497 216.788 69.0043C217.112 68.4588 217.274 67.8153 217.274 67.0739C217.274 66.3239 217.112 65.6847 216.788 65.1562C216.473 64.6193 216.017 64.2102 215.42 63.929C214.832 63.6392 214.121 63.4943 213.286 63.4943H210.78V84H203.672ZM230.828 84H223.158L231.8 57.8182H241.516L250.158 84H242.488L236.76 65.0284H236.556L230.828 84ZM229.397 73.6705H243.817V78.9886H229.397V73.6705ZM252.68 57.8182H259.788V71.5227H259.992L269.299 57.8182H275.333V84H268.225V70.2443H268.072L258.612 84H252.68V57.8182ZM266.589 50.7614H271.038C271.029 52.4233 270.394 53.7528 269.133 54.75C267.871 55.7386 266.171 56.233 264.032 56.233C261.876 56.233 260.167 55.7386 258.906 54.75C257.644 53.7528 257.018 52.4233 257.026 50.7614H261.424C261.415 51.2983 261.607 51.7926 261.999 52.2443C262.4 52.6875 263.077 52.9091 264.032 52.9091C264.944 52.9091 265.596 52.6918 265.988 52.2571C266.38 51.8224 266.58 51.3239 266.589 50.7614ZM304.059 70.9091C304.059 73.8239 303.492 76.2827 302.359 78.2855C301.225 80.2798 299.695 81.7926 297.769 82.8239C295.843 83.8466 293.695 84.358 291.326 84.358C288.94 84.358 286.783 83.8423 284.857 82.8111C282.94 81.7713 281.414 80.2543 280.281 78.2599C279.156 76.2571 278.593 73.8068 278.593 70.9091C278.593 67.9943 279.156 65.5398 280.281 63.5455C281.414 61.5426 282.94 60.0298 284.857 59.0071C286.783 57.9759 288.94 57.4602 291.326 57.4602C293.695 57.4602 295.843 57.9759 297.769 59.0071C299.695 60.0298 301.225 61.5426 302.359 63.5455C303.492 65.5398 304.059 67.9943 304.059 70.9091ZM296.746 70.9091C296.746 69.3409 296.538 68.0199 296.12 66.946C295.711 65.8636 295.102 65.0455 294.292 64.4915C293.491 63.929 292.502 63.6477 291.326 63.6477C290.15 63.6477 289.157 63.929 288.347 64.4915C287.546 65.0455 286.937 65.8636 286.519 66.946C286.11 68.0199 285.906 69.3409 285.906 70.9091C285.906 72.4773 286.11 73.8026 286.519 74.8849C286.937 75.9588 287.546 76.777 288.347 77.3395C289.157 77.8935 290.15 78.1705 291.326 78.1705C292.502 78.1705 293.491 77.8935 294.292 77.3395C295.102 76.777 295.711 75.9588 296.12 74.8849C296.538 73.8026 296.746 72.4773 296.746 70.9091ZM307.348 84V57.8182H314.456V68.0455H323.865V57.8182H330.973V84H323.865V73.7727H314.456V84H307.348ZM343.105 57.8182H349.957V66.0511C349.957 66.8693 350.098 67.5384 350.379 68.0582C350.669 68.5781 351.15 68.9616 351.824 69.2088C352.505 69.456 353.434 69.5795 354.61 69.5795C354.824 69.5795 355.169 69.5753 355.646 69.5668C356.132 69.5497 356.656 69.5284 357.218 69.5028C357.781 69.4687 358.297 69.4304 358.765 69.3878C359.243 69.3366 359.579 69.2812 359.775 69.2216V74.5909C359.554 74.6676 359.187 74.7358 358.676 74.7955C358.164 74.8466 357.615 74.8935 357.027 74.9361C356.447 74.9702 355.927 75 355.467 75.0256C355.007 75.0426 354.721 75.0511 354.61 75.0511C352.309 75.0511 350.294 74.723 348.564 74.0668C346.833 73.4105 345.491 72.4176 344.537 71.0881C343.582 69.7585 343.105 68.0795 343.105 66.0511V57.8182ZM358.446 57.8182H365.349V84H358.446V57.8182ZM377.043 84H369.373L378.015 57.8182H387.731L396.373 84H388.702L382.975 65.0284H382.771L377.043 84ZM375.612 73.6705H390.032V78.9886H375.612V73.6705ZM398.025 84V78.5284L398.741 78.4261C399.61 78.2898 400.331 77.9148 400.902 77.3011C401.481 76.679 401.924 75.6946 402.231 74.348C402.547 72.9929 402.747 71.1477 402.832 68.8125L403.241 57.8182H422.213V84H415.36V63.3409H409.787L409.377 71.5739C409.224 74.625 408.815 77.0582 408.15 78.8736C407.485 80.6889 406.475 81.9972 405.12 82.7983C403.765 83.5994 401.98 84 399.764 84H398.025ZM450.942 70.9091C450.942 73.8239 450.375 76.2827 449.241 78.2855C448.108 80.2798 446.578 81.7926 444.652 82.8239C442.726 83.8466 440.578 84.358 438.209 84.358C435.822 84.358 433.666 83.8423 431.74 82.8111C429.822 81.7713 428.297 80.2543 427.163 78.2599C426.038 76.2571 425.476 73.8068 425.476 70.9091C425.476 67.9943 426.038 65.5398 427.163 63.5455C428.297 61.5426 429.822 60.0298 431.74 59.0071C433.666 57.9759 435.822 57.4602 438.209 57.4602C440.578 57.4602 442.726 57.9759 444.652 59.0071C446.578 60.0298 448.108 61.5426 449.241 63.5455C450.375 65.5398 450.942 67.9943 450.942 70.9091ZM443.629 70.9091C443.629 69.3409 443.42 68.0199 443.003 66.946C442.594 65.8636 441.984 65.0455 441.175 64.4915C440.374 63.929 439.385 63.6477 438.209 63.6477C437.033 63.6477 436.04 63.929 435.23 64.4915C434.429 65.0455 433.82 65.8636 433.402 66.946C432.993 68.0199 432.788 69.3409 432.788 70.9091C432.788 72.4773 432.993 73.8026 433.402 74.8849C433.82 75.9588 434.429 76.777 435.23 77.3395C436.04 77.8935 437.033 78.1705 438.209 78.1705C439.385 78.1705 440.374 77.8935 441.175 77.3395C441.984 76.777 442.594 75.9588 443.003 74.8849C443.42 73.8026 443.629 72.4773 443.629 70.9091ZM454.23 84V57.8182H461.338V68.0455H470.748V57.8182H477.855V84H470.748V73.7727H461.338V84H454.23ZM499.64 57.8182V63.5455H488.338V84H481.23V57.8182H499.64ZM508.013 80.4205L507.911 81.8523C507.826 83.0795 507.621 84.2557 507.297 85.3807C506.982 86.5057 506.645 87.5028 506.287 88.3722C505.938 89.2415 505.661 89.9148 505.456 90.392H501.11C501.246 89.9148 501.438 89.2244 501.685 88.321C501.941 87.4261 502.171 86.4119 502.375 85.2784C502.588 84.1534 502.695 83.0114 502.695 81.8523V80.4205H508.013ZM548.858 57.8182V84H541.853V63.4432H533.006V84H526V57.8182H548.858ZM561.026 57.8182L565.321 65.4375H565.526L569.872 57.8182H577.798L569.974 70.9091L578.105 84H569.974L565.526 76.2273H565.321L560.872 84H552.793L560.821 70.9091L553.048 57.8182H561.026ZM584.647 84.358V78.8352H585.926C586.676 78.8352 587.268 78.7756 587.703 78.6562C588.146 78.5284 588.487 78.3068 588.725 77.9915C588.973 77.6676 589.181 77.2159 589.352 76.6364L589.608 75.8693L579.789 57.8182H587.051L592.522 68.4545L596.716 57.8182H603.875L594.875 78.2727C594.38 79.3466 593.792 80.348 593.11 81.277C592.429 82.1974 591.581 82.9432 590.566 83.5142C589.552 84.0767 588.295 84.358 586.795 84.358H584.647ZM622.309 84L614.281 73.4148H613.284V84H606.176V57.8182H613.284V67.6875H614.204L621.721 57.8182H630.67L620.699 70.3977L631.233 84H622.309ZM633.141 84V57.8182H652.01V63.5455H640.249V68.0455H651.038V73.7727H640.249V78.2727H651.959V84H633.141ZM654.819 63.5455V57.8182H677.575V63.5455H669.7V84H662.694V63.5455H654.819ZM691.347 70.9091C691.347 74.054 690.916 76.9474 690.055 79.5895C689.203 82.2315 687.844 84.6903 685.977 86.9659H679.074C679.781 86.1222 680.433 85.0994 681.03 83.8977C681.626 82.6875 682.142 81.3665 682.577 79.9347C683.02 78.5028 683.365 77.0199 683.612 75.4858C683.859 73.9432 683.983 72.4176 683.983 70.9091C683.983 68.8977 683.77 66.8736 683.344 64.8366C682.918 62.7912 682.334 60.8991 681.592 59.1605C680.851 57.4134 680.011 55.9773 679.074 54.8523H685.977C687.844 57.1278 689.203 59.5866 690.055 62.2287C690.916 64.8707 691.347 67.7642 691.347 70.9091Z" fill="#F9F9E5"/>
</svg>
