<svg width="25" height="26" viewBox="0 0 25 26" fill="none" xmlns="http://www.w3.org/2000/svg">
<path d="M12.5 26C19.4052 26 25 20.1814 25 13C25 5.81858 19.4052 0 12.5 0C5.59479 0 0 5.81858 0 13C0 20.1814 5.59479 26 12.5 26ZM5.71979 12.7183L17.7719 7.88558C18.3312 7.67542 18.8198 8.0275 18.6385 8.90717L18.6396 8.90608L16.5875 18.9605C16.4354 19.6733 16.0281 19.8467 15.4583 19.5108L12.3333 17.1156L10.826 18.6258C10.6594 18.7991 10.5187 18.9453 10.1958 18.9453L10.4177 15.6379L16.2094 10.1963C16.4615 9.96558 16.1531 9.83558 15.8208 10.0653L8.66354 14.7517L5.57812 13.7508C4.90833 13.5297 4.89375 13.0542 5.71979 12.7183Z" fill="#004DB4"/>
</svg>
