<svg width="107" height="107" viewBox="0 0 107 107" fill="none" xmlns="http://www.w3.org/2000/svg">
<g clip-path="url(#clip0_99_1313)">
<path d="M103.937 29.0424C66.4778 13.0336 49.3815 20.4726 18.5071 6.18284C15.6153 4.84453 12.2127 6.45289 11.4513 9.53137L2.7552 44.6747C1.08001 45.5267 0 47.2303 0 49.1451V93.2307C0 95.602 1.69414 97.6738 4.02804 98.1572C38.7608 105.35 53.4434 93.9334 92.81 100.215C95.8887 100.706 98.6822 98.3464 98.6822 95.2484C98.6822 83.3211 98.6829 83.9521 98.6811 83.8165C98.6668 82.836 97.8543 82.0555 96.8755 82.069C92.899 82.1044 88.5818 83.7412 85.3201 86.8367C84.6077 87.5126 84.5816 88.6345 85.2617 89.3425C85.9423 90.0505 87.0709 90.0762 87.7831 89.4003C89.8181 87.4692 92.3729 86.2184 95.1158 85.7817V95.2487C95.1158 96.1672 94.2875 96.861 93.3755 96.7157C53.4369 90.3429 38.7902 101.735 4.75585 94.6873C4.0666 94.5444 3.56661 93.9316 3.56661 93.2305V85.7868C7.21168 86.375 10.5295 88.4114 12.6779 91.4564C13.025 91.9482 13.5778 92.2112 14.1396 92.2112C15.5631 92.2112 16.4329 90.6041 15.5981 89.4211C12.7845 85.4335 8.37618 82.8162 3.56661 82.2028V49.1451C3.56661 48.2055 4.43218 47.5161 5.35459 47.6971C8.58638 48.3316 11.6432 48.8032 14.5658 49.1448C13.8019 51.6205 12.3364 53.8527 10.3267 55.5586C9.07033 56.6246 9.83358 58.6785 11.4856 58.6785C11.8951 58.6785 12.307 58.5391 12.6427 58.2538C15.3518 55.9547 17.2744 52.8926 18.1678 49.5064C40.1103 51.3544 55.0127 45.9795 80.1818 47.9689C81.0186 52.9644 84.0455 57.3847 88.4886 59.9931C89.3399 60.4931 90.4322 60.2082 90.9311 59.3685C91.432 58.5258 91.1507 57.4392 90.3029 56.9412C87.0471 55.0297 84.7484 51.8957 83.8879 48.3094C87.0377 48.6366 90.3508 49.0768 93.8677 49.6597C94.5906 49.7795 95.1154 50.3965 95.1154 51.1269V73.1098C95.1154 74.0886 95.9139 74.8821 96.8987 74.8821C97.8835 74.8821 98.682 74.0886 98.682 73.1098V51.1269C98.682 48.657 96.904 46.5695 94.4547 46.1634C71.3297 42.3301 57.283 44.4175 41.0055 45.738C39.0182 38.354 45.2651 30.1593 56.5026 32.9037C60.0316 33.7655 62.8657 35.4197 64.6982 37.6883C65.315 38.4515 66.4374 38.5733 67.2053 37.9605C67.9733 37.3475 68.0959 36.2321 67.4793 35.4689C65.1519 32.588 61.6504 30.5107 57.3535 29.4615C43.6952 26.1269 35.2902 36.262 37.4028 46.0057C28.1354 46.6217 18.5312 46.6193 6.51864 44.3096L11.7674 23.0979C16.1926 23.6047 20.6168 22.4029 24.1631 19.7675C24.9518 19.1813 25.1131 18.0707 24.5233 17.2867C23.9337 16.5029 22.816 16.3425 22.0271 16.9287C19.3076 18.9498 15.963 19.8882 12.6287 19.6171L14.9149 10.3776C15.1429 9.45583 16.1572 9.005 17.0016 9.39579C44.6211 22.1791 61.2039 18.0373 89.6426 27.4116C89.3105 31.7582 90.652 36.1074 93.4353 39.5421C94.0548 40.3066 95.1776 40.4229 95.9426 39.8106C96.7097 39.1967 96.8307 38.0811 96.213 37.3185C94.2012 34.8358 93.1339 31.7533 93.1551 28.6192C96.137 29.6841 99.2509 30.8977 102.528 32.2983C103.202 32.5861 103.564 33.3096 103.388 34.0185L101.704 40.8241C101.469 41.7747 102.053 42.7347 103.01 42.9684C103.967 43.2023 104.932 42.6208 105.167 41.6706L106.851 34.865C107.445 32.4664 106.219 30.0173 103.937 29.0424Z" fill="black"/>
<path d="M27.1829 35.3123C26.2261 35.079 25.2605 35.6601 25.0255 36.6105C24.7906 37.5611 25.3755 38.521 26.3318 38.7545C30.8286 39.8524 30.636 39.8272 30.9412 39.8272C31.743 39.8272 32.4717 39.2857 32.6717 38.4773C32.9066 37.5267 32.3217 36.5668 31.3654 36.3333L27.1829 35.3123Z" fill="black"/>
<path d="M49.3411 61.16C53.4844 61.16 56.9402 62.3559 59.335 64.6185C60.0485 65.293 61.1774 65.2647 61.8561 64.5551C62.5347 63.8457 62.5062 62.7239 61.7924 62.0495C58.7222 59.1487 54.4167 57.6152 49.3414 57.6152C38.6799 57.6152 32.5034 64.4831 32.5034 72.2209C32.5034 79.9526 38.6734 86.8291 49.3414 86.8291C60.0037 86.8291 66.18 79.9597 66.1791 72.2218C66.1791 71.2431 65.3804 70.4495 64.3956 70.4498C63.4107 70.45 62.6125 71.2435 62.6125 72.2223C62.6129 78.0203 58.0076 83.2845 49.3414 83.2845C31.6911 83.2847 31.5634 61.16 49.3411 61.16Z" fill="black"/>
<path d="M21.4623 70.4502C20.4774 70.4502 19.679 71.2437 19.679 72.2225C19.679 73.2012 20.4774 73.9948 21.4623 73.9948H25.7672C26.752 73.9948 27.5505 73.2012 27.5505 72.2225C27.5505 71.2437 26.752 70.4502 25.7672 70.4502H21.4623Z" fill="black"/>
<path d="M72.915 70.4502C71.9302 70.4502 71.1317 71.2437 71.1317 72.2225C71.1317 73.2012 71.9302 73.9948 72.915 73.9948H77.2199C78.2047 73.9948 79.0032 73.2012 79.0032 72.2225C79.0032 71.2437 78.2047 70.4502 77.2199 70.4502H72.915Z" fill="black"/>
</g>
<defs>
<clipPath id="clip0_99_1313">
<rect width="107" height="106.34" fill="white"/>
</clipPath>
</defs>
</svg>
