<svg width="339" height="94" viewBox="0 0 339 94" fill="none" xmlns="http://www.w3.org/2000/svg">
<rect y="47" width="122" height="46" fill="#F87000"/>
<path d="M8.33523 37L0.613636 10.8182H8.53977L12.1193 26.9261H12.3239L16.5682 10.8182H22.8068L27.0511 26.9773H27.2557L30.8352 10.8182H38.7614L31.0398 37H24.2386L19.7898 22.375H19.5852L15.1364 37H8.33523ZM44.805 37H37.1346L45.7766 10.8182H55.4925L64.1346 37H56.4641L50.7369 18.0284H50.5323L44.805 37ZM43.3732 26.6705H57.7937V31.9886H43.3732V26.6705ZM62.9105 10.8182H70.8366L75.9503 21.4545H76.1548L81.2685 10.8182H89.1946L79.581 28.767V37H72.5241V28.767L62.9105 10.8182ZM105.625 19C105.557 18.1477 105.238 17.483 104.667 17.0057C104.104 16.5284 103.248 16.2898 102.097 16.2898C101.364 16.2898 100.763 16.3793 100.294 16.5582C99.8342 16.7287 99.4933 16.9631 99.2717 17.2614C99.0501 17.5597 98.935 17.9006 98.9265 18.2841C98.9094 18.5994 98.9648 18.8849 99.0927 19.1406C99.229 19.3878 99.4421 19.6136 99.7319 19.8182C100.022 20.0142 100.392 20.1932 100.844 20.3551C101.296 20.517 101.833 20.6619 102.455 20.7898L104.603 21.25C106.051 21.5568 107.292 21.9616 108.323 22.4645C109.354 22.9673 110.198 23.5597 110.854 24.2415C111.51 24.9148 111.992 25.6733 112.299 26.517C112.614 27.3608 112.776 28.2812 112.784 29.2784C112.776 31 112.346 32.4574 111.493 33.6506C110.641 34.8438 109.422 35.7514 107.837 36.3736C106.26 36.9957 104.364 37.3068 102.148 37.3068C99.8725 37.3068 97.8867 36.9702 96.1907 36.2969C94.5032 35.6236 93.1907 34.5881 92.2532 33.1903C91.3242 31.7841 90.8555 29.9858 90.8469 27.7955H97.5969C97.6396 28.5966 97.8398 29.2699 98.1978 29.8153C98.5558 30.3608 99.0586 30.7741 99.7063 31.0554C100.363 31.3366 101.142 31.4773 102.046 31.4773C102.804 31.4773 103.439 31.3835 103.951 31.196C104.462 31.0085 104.85 30.7486 105.114 30.4162C105.378 30.0838 105.515 29.7045 105.523 29.2784C105.515 28.8778 105.382 28.5284 105.127 28.2301C104.88 27.9233 104.471 27.6506 103.9 27.4119C103.328 27.1648 102.557 26.9347 101.586 26.7216L98.9776 26.1591C96.6594 25.6562 94.8313 24.8168 93.4933 23.6406C92.1637 22.456 91.5032 20.8409 91.5117 18.7955C91.5032 17.1335 91.9464 15.6804 92.8413 14.4361C93.7447 13.1832 94.9933 12.2074 96.587 11.5085C98.1893 10.8097 100.026 10.4602 102.097 10.4602C104.211 10.4602 106.039 10.8139 107.581 11.5213C109.124 12.2287 110.313 13.2259 111.148 14.5128C111.992 15.7912 112.418 17.2869 112.426 19H105.625ZM121.944 16.5455V10.8182H144.7V16.5455H136.825V37H129.819V16.5455H121.944ZM171.508 23.9091C171.508 26.8239 170.941 29.2827 169.808 31.2855C168.674 33.2798 167.145 34.7926 165.218 35.8239C163.292 36.8466 161.145 37.358 158.775 37.358C156.389 37.358 154.233 36.8423 152.306 35.8111C150.389 34.7713 148.863 33.2543 147.73 31.2599C146.605 29.2571 146.042 26.8068 146.042 23.9091C146.042 20.9943 146.605 18.5398 147.73 16.5455C148.863 14.5426 150.389 13.0298 152.306 12.0071C154.233 10.9759 156.389 10.4602 158.775 10.4602C161.145 10.4602 163.292 10.9759 165.218 12.0071C167.145 13.0298 168.674 14.5426 169.808 16.5455C170.941 18.5398 171.508 20.9943 171.508 23.9091ZM164.196 23.9091C164.196 22.3409 163.987 21.0199 163.569 19.946C163.16 18.8636 162.551 18.0455 161.741 17.4915C160.94 16.929 159.951 16.6477 158.775 16.6477C157.599 16.6477 156.606 16.929 155.797 17.4915C154.995 18.0455 154.386 18.8636 153.968 19.946C153.559 21.0199 153.355 22.3409 153.355 23.9091C153.355 25.4773 153.559 26.8026 153.968 27.8849C154.386 28.9588 154.995 29.777 155.797 30.3395C156.606 30.8935 157.599 31.1705 158.775 31.1705C159.951 31.1705 160.94 30.8935 161.741 30.3395C162.551 29.777 163.16 28.9588 163.569 27.8849C163.987 26.8026 164.196 25.4773 164.196 23.9091ZM181.969 37V10.8182H193.27C195.213 10.8182 196.913 11.1719 198.371 11.8793C199.828 12.5866 200.962 13.6051 201.771 14.9347C202.581 16.2642 202.986 17.858 202.986 19.7159C202.986 21.5909 202.568 23.1719 201.733 24.4588C200.906 25.7457 199.743 26.7173 198.243 27.3736C196.751 28.0298 195.009 28.358 193.014 28.358H186.264V22.8352H191.582C192.418 22.8352 193.129 22.733 193.717 22.5284C194.314 22.3153 194.77 21.9787 195.085 21.5185C195.409 21.0582 195.571 20.4574 195.571 19.7159C195.571 18.9659 195.409 18.3565 195.085 17.8878C194.77 17.4105 194.314 17.0611 193.717 16.8395C193.129 16.6094 192.418 16.4943 191.582 16.4943H189.077V37H181.969ZM197.31 24.983L203.855 37H196.134L189.741 24.983H197.31ZM206.016 37V10.8182H224.885V16.5455H213.124V21.0455H223.913V26.7727H213.124V31.2727H224.834V37H206.016ZM252.853 20.6364H245.643C245.592 20.0398 245.456 19.4986 245.234 19.0128C245.021 18.527 244.723 18.1094 244.339 17.7599C243.964 17.402 243.508 17.1293 242.971 16.9418C242.434 16.7457 241.825 16.6477 241.143 16.6477C239.95 16.6477 238.94 16.9375 238.113 17.517C237.295 18.0966 236.673 18.9276 236.247 20.0099C235.829 21.0923 235.62 22.392 235.62 23.9091C235.62 25.5114 235.833 26.8537 236.26 27.9361C236.694 29.0099 237.321 29.8196 238.139 30.3651C238.957 30.902 239.941 31.1705 241.092 31.1705C241.748 31.1705 242.336 31.0895 242.856 30.9276C243.376 30.7571 243.828 30.5142 244.211 30.1989C244.595 29.8835 244.906 29.5043 245.145 29.0611C245.392 28.6094 245.558 28.1023 245.643 27.5398L252.853 27.5909C252.768 28.6989 252.457 29.8281 251.92 30.9787C251.383 32.1207 250.62 33.1776 249.632 34.1491C248.652 35.1122 247.437 35.8878 245.988 36.4759C244.539 37.0639 242.856 37.358 240.939 37.358C238.535 37.358 236.379 36.8423 234.47 35.8111C232.569 34.7798 231.065 33.2628 229.957 31.2599C228.858 29.2571 228.308 26.8068 228.308 23.9091C228.308 20.9943 228.87 18.5398 229.995 16.5455C231.12 14.5426 232.637 13.0298 234.547 12.0071C236.456 10.9759 238.586 10.4602 240.939 10.4602C242.592 10.4602 244.113 10.6861 245.502 11.1378C246.892 11.5895 248.11 12.25 249.159 13.1193C250.207 13.9801 251.051 15.0412 251.69 16.3026C252.329 17.5639 252.717 19.0085 252.853 20.6364ZM256.078 37V10.8182H274.947V16.5455H263.186V21.0455H273.976V26.7727H263.186V31.2727H274.896V37H256.078ZM285.581 10.8182V37H278.473V10.8182H285.581ZM296.108 10.8182L301.478 29.2784H301.682L307.051 10.8182H315.08L306.438 37H296.722L288.08 10.8182H296.108ZM317.602 37V10.8182H336.471V16.5455H324.71V21.0455H335.499V26.7727H324.71V31.2727H336.42V37H317.602Z" fill="black"/>
<path d="M33.3026 67.6364H26.0923C26.0412 67.0398 25.9048 66.4986 25.6832 66.0128C25.4702 65.527 25.1719 65.1094 24.7884 64.7599C24.4134 64.402 23.9574 64.1293 23.4205 63.9418C22.8835 63.7457 22.2741 63.6477 21.5923 63.6477C20.3991 63.6477 19.3892 63.9375 18.5625 64.517C17.7443 65.0966 17.1222 65.9276 16.696 67.0099C16.2784 68.0923 16.0696 69.392 16.0696 70.9091C16.0696 72.5114 16.2827 73.8537 16.7088 74.9361C17.1435 76.0099 17.7699 76.8196 18.5881 77.3651C19.4063 77.902 20.3906 78.1705 21.5412 78.1705C22.1974 78.1705 22.7855 78.0895 23.3054 77.9276C23.8253 77.7571 24.277 77.5142 24.6605 77.1989C25.044 76.8835 25.3551 76.5043 25.5938 76.0611C25.8409 75.6094 26.0071 75.1023 26.0923 74.5398L33.3026 74.5909C33.2173 75.6989 32.9063 76.8281 32.3693 77.9787C31.8324 79.1207 31.0696 80.1776 30.081 81.1491C29.1009 82.1122 27.8864 82.8878 26.4375 83.4759C24.9886 84.0639 23.3054 84.358 21.3878 84.358C18.9844 84.358 16.8281 83.8423 14.919 82.8111C13.0185 81.7798 11.5142 80.2628 10.4062 78.2599C9.30682 76.2571 8.7571 73.8068 8.7571 70.9091C8.7571 67.9943 9.3196 65.5398 10.4446 63.5455C11.5696 61.5426 13.0866 60.0298 14.9957 59.0071C16.9048 57.9759 19.0355 57.4602 21.3878 57.4602C23.0412 57.4602 24.5625 57.6861 25.9517 58.1378C27.3409 58.5895 28.5597 59.25 29.608 60.1193C30.6563 60.9801 31.5 62.0412 32.1392 63.3026C32.7784 64.5639 33.1662 66.0085 33.3026 67.6364ZM42.5199 84H34.8494L43.4915 57.8182H53.2074L61.8494 84H54.179L48.4517 65.0284H48.2472L42.5199 84ZM41.0881 73.6705H55.5085V78.9886H41.0881V73.6705ZM77.4652 66C77.397 65.1477 77.0774 64.483 76.5064 64.0057C75.9439 63.5284 75.0874 63.2898 73.9368 63.2898C73.2038 63.2898 72.603 63.3793 72.1342 63.5582C71.674 63.7287 71.3331 63.9631 71.1115 64.2614C70.8899 64.5597 70.7749 64.9006 70.7663 65.2841C70.7493 65.5994 70.8047 65.8849 70.9325 66.1406C71.0689 66.3878 71.282 66.6136 71.5717 66.8182C71.8615 67.0142 72.2322 67.1932 72.6839 67.3551C73.1357 67.517 73.6726 67.6619 74.2947 67.7898L76.4425 68.25C77.8913 68.5568 79.1314 68.9616 80.1626 69.4645C81.1939 69.9673 82.0376 70.5597 82.6939 71.2415C83.3501 71.9148 83.8317 72.6733 84.1385 73.517C84.4538 74.3608 84.6158 75.2812 84.6243 76.2784C84.6158 78 84.1854 79.4574 83.3331 80.6506C82.4808 81.8438 81.2621 82.7514 79.6768 83.3736C78.1001 83.9957 76.2038 84.3068 73.9879 84.3068C71.7124 84.3068 69.7266 83.9702 68.0305 83.2969C66.343 82.6236 65.0305 81.5881 64.093 80.1903C63.1641 78.7841 62.6953 76.9858 62.6868 74.7955H69.4368C69.4794 75.5966 69.6797 76.2699 70.0376 76.8153C70.3956 77.3608 70.8984 77.7741 71.5462 78.0554C72.2024 78.3366 72.9822 78.4773 73.8857 78.4773C74.6442 78.4773 75.2791 78.3835 75.7905 78.196C76.3018 78.0085 76.6896 77.7486 76.9538 77.4162C77.218 77.0838 77.3544 76.7045 77.3629 76.2784C77.3544 75.8778 77.2223 75.5284 76.9666 75.2301C76.7195 74.9233 76.3104 74.6506 75.7393 74.4119C75.1683 74.1648 74.397 73.9347 73.4254 73.7216L70.8175 73.1591C68.4993 72.6562 66.6712 71.8168 65.3331 70.6406C64.0036 69.456 63.343 67.8409 63.3516 65.7955C63.343 64.1335 63.7862 62.6804 64.6811 61.4361C65.5845 60.1832 66.8331 59.2074 68.4268 58.5085C70.0291 57.8097 71.8658 57.4602 73.9368 57.4602C76.0504 57.4602 77.8786 57.8139 79.4212 58.5213C80.9638 59.2287 82.1527 60.2259 82.9879 61.5128C83.8317 62.7912 84.2578 64.2869 84.2663 66H77.4652ZM87.3281 84V57.8182H94.4361V68.0455H103.845V57.8182H110.953V84H103.845V73.7727H94.4361V84H87.3281Z" fill="#F9F9E5"/>
</svg>
