<svg width="458" height="94" viewBox="0 0 458 94" fill="none" xmlns="http://www.w3.org/2000/svg">
<rect y="47" width="334" height="46" fill="#F87000"/>
<path d="M26.1307 20.6364H18.9205C18.8693 20.0398 18.733 19.4986 18.5114 19.0128C18.2983 18.527 18 18.1094 17.6165 17.7599C17.2415 17.402 16.7855 17.1293 16.2486 16.9418C15.7116 16.7457 15.1023 16.6477 14.4205 16.6477C13.2273 16.6477 12.2173 16.9375 11.3906 17.517C10.5724 18.0966 9.95028 18.9276 9.52415 20.0099C9.10653 21.0923 8.89773 22.392 8.89773 23.9091C8.89773 25.5114 9.1108 26.8537 9.53693 27.9361C9.97159 29.0099 10.598 29.8196 11.4162 30.3651C12.2344 30.902 13.2188 31.1705 14.3693 31.1705C15.0256 31.1705 15.6136 31.0895 16.1335 30.9276C16.6534 30.7571 17.1051 30.5142 17.4886 30.1989C17.8722 29.8835 18.1832 29.5043 18.4219 29.0611C18.669 28.6094 18.8352 28.1023 18.9205 27.5398L26.1307 27.5909C26.0455 28.6989 25.7344 29.8281 25.1974 30.9787C24.6605 32.1207 23.8977 33.1776 22.9091 34.1491C21.929 35.1122 20.7145 35.8878 19.2656 36.4759C17.8168 37.0639 16.1335 37.358 14.2159 37.358C11.8125 37.358 9.65625 36.8423 7.74716 35.8111C5.84659 34.7798 4.34233 33.2628 3.23438 31.2599C2.13494 29.2571 1.58523 26.8068 1.58523 23.9091C1.58523 20.9943 2.14773 18.5398 3.27273 16.5455C4.39773 14.5426 5.91477 13.0298 7.82386 12.0071C9.73295 10.9759 11.8636 10.4602 14.2159 10.4602C15.8693 10.4602 17.3906 10.6861 18.7798 11.1378C20.169 11.5895 21.3878 12.25 22.4361 13.1193C23.4844 13.9801 24.3281 15.0412 24.9673 16.3026C25.6065 17.5639 25.9943 19.0085 26.1307 20.6364ZM53.3896 10.8182V37H46.3839V16.4432H37.5373V37H30.5316V10.8182H53.3896ZM83.3011 23.9091C83.3011 26.8239 82.7344 29.2827 81.6009 31.2855C80.4673 33.2798 78.9375 34.7926 77.0114 35.8239C75.0852 36.8466 72.9375 37.358 70.5682 37.358C68.1818 37.358 66.0256 36.8423 64.0994 35.8111C62.1818 34.7713 60.6562 33.2543 59.5227 31.2599C58.3977 29.2571 57.8352 26.8068 57.8352 23.9091C57.8352 20.9943 58.3977 18.5398 59.5227 16.5455C60.6562 14.5426 62.1818 13.0298 64.0994 12.0071C66.0256 10.9759 68.1818 10.4602 70.5682 10.4602C72.9375 10.4602 75.0852 10.9759 77.0114 12.0071C78.9375 13.0298 80.4673 14.5426 81.6009 16.5455C82.7344 18.5398 83.3011 20.9943 83.3011 23.9091ZM75.9886 23.9091C75.9886 22.3409 75.7798 21.0199 75.3622 19.946C74.9531 18.8636 74.3438 18.0455 73.5341 17.4915C72.733 16.929 71.7443 16.6477 70.5682 16.6477C69.392 16.6477 68.3991 16.929 67.5895 17.4915C66.7884 18.0455 66.179 18.8636 65.7614 19.946C65.3523 21.0199 65.1477 22.3409 65.1477 23.9091C65.1477 25.4773 65.3523 26.8026 65.7614 27.8849C66.179 28.9588 66.7884 29.777 67.5895 30.3395C68.3991 30.8935 69.392 31.1705 70.5682 31.1705C71.7443 31.1705 72.733 30.8935 73.5341 30.3395C74.3438 29.777 74.9531 28.9588 75.3622 27.8849C75.7798 26.8026 75.9886 25.4773 75.9886 23.9091ZM111.033 20.6364H103.823C103.772 20.0398 103.635 19.4986 103.414 19.0128C103.201 18.527 102.902 18.1094 102.519 17.7599C102.144 17.402 101.688 17.1293 101.151 16.9418C100.614 16.7457 100.005 16.6477 99.3228 16.6477C98.1296 16.6477 97.1197 16.9375 96.293 17.517C95.4748 18.0966 94.8526 18.9276 94.4265 20.0099C94.0089 21.0923 93.8001 22.392 93.8001 23.9091C93.8001 25.5114 94.0131 26.8537 94.4393 27.9361C94.8739 29.0099 95.5004 29.8196 96.3185 30.3651C97.1367 30.902 98.1211 31.1705 99.2717 31.1705C99.9279 31.1705 100.516 31.0895 101.036 30.9276C101.556 30.7571 102.007 30.5142 102.391 30.1989C102.775 29.8835 103.086 29.5043 103.324 29.0611C103.571 28.6094 103.738 28.1023 103.823 27.5398L111.033 27.5909C110.948 28.6989 110.637 29.8281 110.1 30.9787C109.563 32.1207 108.8 33.1776 107.811 34.1491C106.831 35.1122 105.617 35.8878 104.168 36.4759C102.719 37.0639 101.036 37.358 99.1183 37.358C96.7148 37.358 94.5586 36.8423 92.6495 35.8111C90.7489 34.7798 89.2447 33.2628 88.1367 31.2599C87.0373 29.2571 86.4876 26.8068 86.4876 23.9091C86.4876 20.9943 87.0501 18.5398 88.1751 16.5455C89.3001 14.5426 90.8171 13.0298 92.7262 12.0071C94.6353 10.9759 96.766 10.4602 99.1183 10.4602C100.772 10.4602 102.293 10.6861 103.682 11.1378C105.071 11.5895 106.29 12.25 107.338 13.1193C108.387 13.9801 109.23 15.0412 109.87 16.3026C110.509 17.5639 110.897 19.0085 111.033 20.6364ZM139.621 23.9091C139.621 26.8239 139.055 29.2827 137.921 31.2855C136.788 33.2798 135.258 34.7926 133.332 35.8239C131.406 36.8466 129.258 37.358 126.888 37.358C124.502 37.358 122.346 36.8423 120.42 35.8111C118.502 34.7713 116.977 33.2543 115.843 31.2599C114.718 29.2571 114.156 26.8068 114.156 23.9091C114.156 20.9943 114.718 18.5398 115.843 16.5455C116.977 14.5426 118.502 13.0298 120.42 12.0071C122.346 10.9759 124.502 10.4602 126.888 10.4602C129.258 10.4602 131.406 10.9759 133.332 12.0071C135.258 13.0298 136.788 14.5426 137.921 16.5455C139.055 18.5398 139.621 20.9943 139.621 23.9091ZM132.309 23.9091C132.309 22.3409 132.1 21.0199 131.683 19.946C131.273 18.8636 130.664 18.0455 129.854 17.4915C129.053 16.929 128.065 16.6477 126.888 16.6477C125.712 16.6477 124.719 16.929 123.91 17.4915C123.109 18.0455 122.499 18.8636 122.082 19.946C121.673 21.0199 121.468 22.3409 121.468 23.9091C121.468 25.4773 121.673 26.8026 122.082 27.8849C122.499 28.9588 123.109 29.777 123.91 30.3395C124.719 30.8935 125.712 31.1705 126.888 31.1705C128.065 31.1705 129.053 30.8935 129.854 30.3395C130.664 29.777 131.273 28.9588 131.683 27.8849C132.1 26.8026 132.309 25.4773 132.309 23.9091ZM142.91 37V10.8182H161.319V16.5455H150.018V19.6136H152.677C154.876 19.6136 156.798 19.9673 158.443 20.6747C160.096 21.3821 161.379 22.3793 162.291 23.6662C163.211 24.9531 163.672 26.4659 163.672 28.2045C163.672 29.9432 163.211 31.473 162.291 32.794C161.379 34.1151 160.096 35.1463 158.443 35.8878C156.798 36.6293 154.876 37 152.677 37H142.91ZM150.018 31.4261H152.677C153.529 31.4261 154.245 31.2855 154.825 31.0043C155.413 30.723 155.856 30.3352 156.154 29.8409C156.461 29.3466 156.615 28.7841 156.615 28.1534C156.615 27.2585 156.278 26.517 155.605 25.929C154.931 25.3324 153.956 25.0341 152.677 25.0341H150.018V31.4261ZM170.684 19.6136H176.104C178.311 19.6136 180.238 19.9673 181.882 20.6747C183.536 21.3821 184.819 22.3793 185.73 23.6662C186.651 24.9531 187.107 26.4659 187.098 28.2045C187.107 29.9432 186.651 31.473 185.73 32.794C184.819 34.1151 183.536 35.1463 181.882 35.8878C180.238 36.6293 178.311 37 176.104 37H166.337V10.8182H173.445V31.4261H176.104C176.965 31.4261 177.685 31.2855 178.265 31.0043C178.853 30.723 179.296 30.3352 179.594 29.8409C179.901 29.3466 180.05 28.7841 180.042 28.1534C180.05 27.2585 179.718 26.517 179.044 25.929C178.371 25.3324 177.391 25.0341 176.104 25.0341H170.684V19.6136ZM196.047 10.8182V37H188.939V10.8182H196.047ZM230.612 10.8182V37H223.607V16.4432H214.76V37H207.754V10.8182H230.612ZM260.524 23.9091C260.524 26.8239 259.957 29.2827 258.824 31.2855C257.69 33.2798 256.16 34.7926 254.234 35.8239C252.308 36.8466 250.16 37.358 247.791 37.358C245.404 37.358 243.248 36.8423 241.322 35.8111C239.404 34.7713 237.879 33.2543 236.745 31.2599C235.62 29.2571 235.058 26.8068 235.058 23.9091C235.058 20.9943 235.62 18.5398 236.745 16.5455C237.879 14.5426 239.404 13.0298 241.322 12.0071C243.248 10.9759 245.404 10.4602 247.791 10.4602C250.16 10.4602 252.308 10.9759 254.234 12.0071C256.16 13.0298 257.69 14.5426 258.824 16.5455C259.957 18.5398 260.524 20.9943 260.524 23.9091ZM253.211 23.9091C253.211 22.3409 253.002 21.0199 252.585 19.946C252.176 18.8636 251.566 18.0455 250.757 17.4915C249.956 16.929 248.967 16.6477 247.791 16.6477C246.615 16.6477 245.622 16.929 244.812 17.4915C244.011 18.0455 243.402 18.8636 242.984 19.946C242.575 21.0199 242.37 22.3409 242.37 23.9091C242.37 25.4773 242.575 26.8026 242.984 27.8849C243.402 28.9588 244.011 29.777 244.812 30.3395C245.622 30.8935 246.615 31.1705 247.791 31.1705C248.967 31.1705 249.956 30.8935 250.757 30.3395C251.566 29.777 252.176 28.9588 252.585 27.8849C253.002 26.8026 253.211 25.4773 253.211 23.9091ZM262.943 37V31.5284L263.659 31.4261C264.528 31.2898 265.249 30.9148 265.82 30.3011C266.399 29.679 266.842 28.6946 267.149 27.348C267.464 25.9929 267.665 24.1477 267.75 21.8125L268.159 10.8182H287.131V37H280.278V16.3409H274.705L274.295 24.5739C274.142 27.625 273.733 30.0582 273.068 31.8736C272.403 33.6889 271.393 34.9972 270.038 35.7983C268.683 36.5994 266.898 37 264.682 37H262.943ZM294.28 37.358V31.8352H295.559C296.309 31.8352 296.901 31.7756 297.336 31.6562C297.779 31.5284 298.12 31.3068 298.358 30.9915C298.605 30.6676 298.814 30.2159 298.985 29.6364L299.24 28.8693L289.422 10.8182H296.684L302.155 21.4545L306.348 10.8182H313.507L304.507 31.2727C304.013 32.3466 303.425 33.348 302.743 34.277C302.061 35.1974 301.213 35.9432 300.199 36.5142C299.185 37.0767 297.928 37.358 296.428 37.358H294.28ZM317.394 10.8182H324.246V19.0511C324.246 19.8693 324.387 20.5384 324.668 21.0582C324.958 21.5781 325.439 21.9616 326.113 22.2088C326.794 22.456 327.723 22.5795 328.9 22.5795C329.113 22.5795 329.458 22.5753 329.935 22.5668C330.421 22.5497 330.945 22.5284 331.507 22.5028C332.07 22.4687 332.586 22.4304 333.054 22.3878C333.532 22.3366 333.868 22.2812 334.064 22.2216V27.5909C333.843 27.6676 333.476 27.7358 332.965 27.7955C332.453 27.8466 331.904 27.8935 331.316 27.9361C330.736 27.9702 330.216 28 329.756 28.0256C329.296 28.0426 329.01 28.0511 328.9 28.0511C326.598 28.0511 324.583 27.723 322.853 27.0668C321.123 26.4105 319.78 25.4176 318.826 24.0881C317.871 22.7585 317.394 21.0795 317.394 19.0511V10.8182ZM332.735 10.8182H339.638V37H332.735V10.8182ZM344.531 37V10.8182H363.401V16.5455H351.639V21.0455H362.429V26.7727H351.639V31.2727H363.349V37H344.531ZM366.926 37V10.8182H374.034V21.0455H383.443V10.8182H390.551V37H383.443V26.7727H374.034V37H366.926ZM393.926 10.8182H401.034V24.5227H401.238L410.545 10.8182H416.579V37H409.471V23.2443H409.318L399.858 37H393.926V10.8182ZM441.572 37H434.464V16.4943H431.958C431.132 16.4943 430.42 16.6094 429.824 16.8395C429.227 17.0611 428.767 17.4105 428.443 17.8878C428.127 18.3565 427.97 18.9659 427.97 19.7159C427.97 20.4574 428.127 21.0582 428.443 21.5185C428.767 21.9787 429.227 22.3153 429.824 22.5284C430.42 22.733 431.132 22.8352 431.958 22.8352H437.277V28.358H430.527C428.541 28.358 426.798 28.0298 425.298 27.3736C423.798 26.7173 422.63 25.7457 421.795 24.4588C420.968 23.1719 420.555 21.5909 420.555 19.7159C420.555 17.858 420.96 16.2642 421.77 14.9347C422.579 13.6051 423.713 12.5866 425.17 11.8793C426.636 11.1719 428.336 10.8182 430.271 10.8182H441.572V37ZM426.231 24.983H433.799L427.407 37H419.686L426.231 24.983Z" fill="black"/>
<path d="M8.85938 84V57.8182H15.9673V68.0455H25.3764V57.8182H32.4844V84H25.3764V73.7727H15.9673V84H8.85938ZM42.6605 84H34.9901L43.6321 57.8182H53.348L61.9901 84H54.3196L48.5923 65.0284H48.3878L42.6605 84ZM41.2287 73.6705H55.6491V78.9886H41.2287V73.6705ZM63.6424 84V78.5284L64.3583 78.4261C65.2276 78.2898 65.9478 77.9148 66.5188 77.3011C67.0984 76.679 67.5415 75.6946 67.8484 74.348C68.1637 72.9929 68.364 71.1477 68.4492 68.8125L68.8583 57.8182H87.8299V84H80.9776V63.3409H75.4038L74.9947 71.5739C74.8413 74.625 74.4322 77.0582 73.7674 78.8736C73.1026 80.6889 72.0927 81.9972 70.7376 82.7983C69.3825 83.5994 67.5969 84 65.381 84H63.6424ZM91.1953 57.8182H98.3033V71.5227H98.5078L107.815 57.8182H113.849V84H106.741V70.2443H106.587L97.1271 84H91.1953V57.8182ZM118.796 57.8182H125.648V66.0511C125.648 66.8693 125.789 67.5384 126.07 68.0582C126.36 68.5781 126.842 68.9616 127.515 69.2088C128.197 69.456 129.126 69.5795 130.302 69.5795C130.515 69.5795 130.86 69.5753 131.337 69.5668C131.823 69.5497 132.347 69.5284 132.91 69.5028C133.472 69.4687 133.988 69.4304 134.457 69.3878C134.934 69.3366 135.271 69.2812 135.467 69.2216V74.5909C135.245 74.6676 134.879 74.7358 134.367 74.7955C133.856 74.8466 133.306 74.8935 132.718 74.9361C132.138 74.9702 131.619 75 131.158 75.0256C130.698 75.0426 130.413 75.0511 130.302 75.0511C128.001 75.0511 125.985 74.723 124.255 74.0668C122.525 73.4105 121.183 72.4176 120.228 71.0881C119.273 69.7585 118.796 68.0795 118.796 66.0511V57.8182ZM134.137 57.8182H141.04V84H134.137V57.8182ZM145.934 84V57.8182H153.042V68.0455H162.451V57.8182H169.559V84H162.451V73.7727H153.042V84H145.934ZM177.434 66.6136H182.854C185.061 66.6136 186.988 66.9673 188.632 67.6747C190.286 68.3821 191.569 69.3793 192.48 70.6662C193.401 71.9531 193.857 73.4659 193.848 75.2045C193.857 76.9432 193.401 78.473 192.48 79.794C191.569 81.1151 190.286 82.1463 188.632 82.8878C186.988 83.6293 185.061 84 182.854 84H173.087V57.8182H180.195V78.4261H182.854C183.715 78.4261 184.435 78.2855 185.015 78.0043C185.603 77.723 186.046 77.3352 186.344 76.8409C186.651 76.3466 186.8 75.7841 186.792 75.1534C186.8 74.2585 186.468 73.517 185.794 72.929C185.121 72.3324 184.141 72.0341 182.854 72.0341H177.434V66.6136ZM202.797 57.8182V84H195.689V57.8182H202.797ZM213.776 57.8182L218.071 65.4375H218.276L222.622 57.8182H230.548L222.724 70.9091L230.855 84H222.724L218.276 76.2273H218.071L213.622 84H205.543L213.571 70.9091L205.798 57.8182H213.776ZM240.785 84V57.8182H259.194V63.5455H247.893V66.6136H250.552C252.751 66.6136 254.673 66.9673 256.318 67.6747C257.971 68.3821 259.254 69.3793 260.166 70.6662C261.086 71.9531 261.547 73.4659 261.547 75.2045C261.547 76.9432 261.086 78.473 260.166 79.794C259.254 81.1151 257.971 82.1463 256.318 82.8878C254.673 83.6293 252.751 84 250.552 84H240.785ZM247.893 78.4261H250.552C251.404 78.4261 252.12 78.2855 252.7 78.0043C253.288 77.723 253.731 77.3352 254.029 76.8409C254.336 76.3466 254.49 75.7841 254.49 75.1534C254.49 74.2585 254.153 73.517 253.48 72.929C252.806 72.3324 251.831 72.0341 250.552 72.0341H247.893V78.4261ZM270.86 84H263.189L271.831 57.8182H281.547L290.189 84H282.519L276.792 65.0284H276.587L270.86 84ZM269.428 73.6705H283.848V78.9886H269.428V73.6705ZM288.69 63.5455V57.8182H311.446V63.5455H303.571V84H296.565V63.5455H288.69Z" fill="#F9F9E5"/>
</svg>
