<svg width="72" height="18" viewBox="0 0 72 18" fill="none" xmlns="http://www.w3.org/2000/svg">
<path d="M1.2179 6.61812C2.90721 8.12018 4.44225 9.30986 6.57802 10.1526C9.53212 11.3183 12.7343 12.0176 15.8542 12.5619C20.7961 13.4241 27.2038 13.8848 31.1499 10.1426C31.7696 9.55494 31.9551 8.17043 31.4083 7.17243C30.8261 6.10979 29.8183 5.03055 28.8451 4.94187C28.0733 4.87155 26.695 5.63344 26.0844 6.45419C25.4985 7.24174 25.4252 9.01291 25.8143 9.5591C28.5785 13.439 33.9258 14.2717 38.3327 14.6709C43.6906 15.1562 48.9193 14.6743 54.1362 13.3697C60.101 11.878 65.635 9.36484 71.2893 7.03809" stroke="white" stroke-linecap="round"/>
<path d="M63.8329 8.06538C64.391 8.0245 64.9511 8.05966 65.5075 8.01597C65.6736 8.00292 65.8296 7.95183 65.9947 7.93094C66.3322 7.88823 66.6773 7.78171 67.0161 7.76897C67.3207 7.75752 67.6403 7.68558 67.9463 7.64883C68.2631 7.61077 68.5763 7.58403 68.8916 7.53796C69.2952 7.47898 69.7037 7.43873 70.108 7.37703C70.4547 7.32411 70.8284 7.3871 71.1677 7.3239C71.3793 7.28449 71.5323 7.28014 71.4029 7.54941C71.2452 7.87765 71.0708 8.12188 70.8127 8.38395C70.5839 8.61634 70.3165 8.81752 70.1027 9.06274C69.8733 9.32572 69.5718 9.54823 69.3763 9.83766C69.2206 10.0684 68.9793 10.2603 68.792 10.4677C68.6267 10.6507 68.487 10.8523 68.3225 11.036C67.8409 11.5738 67.5665 12.2808 67.0088 12.7492" stroke="white" stroke-linecap="square"/>
</svg>
