<svg width="899" height="574" viewBox="0 0 899 574" fill="none" xmlns="http://www.w3.org/2000/svg">
<g clip-path="url(#clip0_262_6979)">
<rect width="899" height="574" fill="#F9F9E5"/>
<path d="M238.005 345.542C232.213 351.42 225.89 356.802 219.049 361.62L218.761 361.211C215.401 363.577 211.915 365.806 208.304 367.891C204.694 369.975 201.02 371.879 197.291 373.606L197.501 374.06C189.908 377.576 182.086 380.361 174.099 382.438L173.973 381.954C165.975 384.034 157.811 385.403 149.545 386.085L149.586 386.584C141.374 387.261 133.063 387.264 124.717 386.616L124.756 386.118C116.597 385.484 108.404 384.227 100.236 382.369L100.125 382.857C92.1415 381.04 84.1827 378.652 76.3044 375.713L76.4792 375.244C68.8316 372.391 61.2593 369.017 53.8136 365.142L53.5828 365.586C46.3198 361.806 39.1776 357.551 32.2035 352.839L32.4835 352.425C25.7176 347.853 19.1098 342.85 12.7036 337.433L12.3808 337.815C6.12562 332.525 0.062518 326.841 -5.76834 320.778L-5.40797 320.432C-11.0717 314.543 -16.516 308.295 -21.704 301.704L-22.0969 302.013C-27.1636 295.576 -31.9861 288.812 -36.5301 281.733L-36.1093 281.463C-38.333 277.999 -40.4898 274.46 -42.5759 270.847C-44.6619 267.234 -46.6486 263.596 -48.5366 259.939L-48.9809 260.168C-52.839 252.693 -56.2859 245.135 -59.3273 237.528L-58.863 237.343C-61.9772 229.554 -64.6653 221.716 -66.9334 213.866L-67.4138 214.005C-69.7489 205.924 -71.6399 197.831 -73.0934 189.769L-72.6013 189.68C-74.0899 181.424 -75.1186 173.2 -75.6946 165.055L-76.1933 165.09C-76.7871 156.694 -76.901 148.381 -76.5429 140.202L-76.0434 140.223C-75.6763 131.838 -74.812 123.593 -73.4591 115.544L-73.9522 115.461C-72.5585 107.168 -70.6475 99.0815 -68.2284 91.2592L-67.7507 91.4069C-65.2759 83.4043 -62.2681 75.6803 -58.7375 68.2983L-59.1885 68.0826C-55.5767 60.5308 -51.419 53.3347 -46.7259 46.5618L-46.3149 46.8465C-41.5909 40.0291 -36.3232 33.6427 -30.5227 27.7562L-30.8789 27.4052C-25.0865 21.5269 -18.7641 16.1448 -11.9224 11.3274L-11.6346 11.7362C-8.2744 9.37025 -4.78847 7.14092 -1.17802 5.05642C2.43244 2.97193 6.10605 1.06769 9.83514 -0.659305L9.62502 -1.11301C17.2179 -4.62935 25.0401 -7.41364 33.027 -9.49086L33.1529 -9.00697C41.151 -11.0871 49.3157 -12.4558 57.5817 -13.1382L57.5406 -13.6365C65.7527 -14.3144 74.0635 -14.3171 82.4095 -13.6691L82.3708 -13.1706C90.5291 -12.5372 98.7221 -11.28 106.89 -9.42199L107.001 -9.90954C114.985 -8.09338 122.944 -5.70495 130.822 -2.76572L130.647 -2.29726C138.295 0.55592 145.867 3.92973 153.313 7.80459L153.544 7.36105C160.807 11.1409 167.949 15.3959 174.923 20.1081L174.643 20.5224C181.409 25.0938 188.017 30.0966 194.423 35.5141L194.746 35.1323C201.001 40.4221 207.064 46.1061 212.895 52.1689L212.534 52.5155C218.198 58.4044 223.642 64.6517 228.83 71.2429L229.223 70.9337C234.29 77.3708 239.112 84.1352 243.656 91.2137L243.236 91.4838C245.459 94.9477 247.616 98.487 249.702 102.1C251.788 105.713 253.775 109.351 255.663 113.008L256.107 112.779C259.965 120.254 263.412 127.812 266.454 135.419L265.989 135.604C269.104 143.393 271.792 151.231 274.06 159.081L274.54 158.942C276.875 167.023 278.766 175.116 280.22 183.178L279.728 183.267C281.216 191.523 282.245 199.747 282.821 207.892L283.32 207.857C283.913 216.253 284.027 224.566 283.669 232.745L283.17 232.724C282.803 241.109 281.938 249.354 280.585 257.403L281.079 257.486C279.685 265.779 277.774 273.866 275.355 281.688L274.877 281.54C272.402 289.543 269.394 297.267 265.864 304.649L266.315 304.864C262.703 312.416 258.545 319.612 253.852 326.385L253.441 326.1C248.717 332.918 243.45 339.304 237.649 345.191L238.005 345.542Z" stroke="#F87000" stroke-dasharray="25 25"/>
<path d="M1034.3 306.635C1027.89 311.704 1021.15 316.524 1014.09 321.062L1013.82 320.642C1010.37 322.863 1006.84 325.015 1003.23 327.096C999.629 329.177 996 331.158 992.35 333.039L992.579 333.483C985.12 337.326 977.574 340.754 969.979 343.771L969.795 343.307C962.02 346.396 954.193 349.054 946.353 351.289L946.49 351.77C938.422 354.069 930.34 355.921 922.288 357.331L922.202 356.839C913.961 358.282 905.753 359.262 897.621 359.787L897.653 360.286C889.278 360.826 880.984 360.884 872.822 360.468L872.848 359.968C864.49 359.542 856.271 358.618 848.247 357.204L848.16 357.696C839.904 356.242 831.852 354.271 824.062 351.792L824.214 351.316C816.258 348.785 808.578 345.723 801.236 342.142L801.017 342.592C793.517 338.934 786.368 334.735 779.636 330.006L779.924 329.597C773.158 324.844 766.815 319.554 760.964 313.738L760.611 314.092C754.775 308.291 749.424 301.968 744.628 295.133L745.037 294.846C742.682 291.49 740.46 288.011 738.381 284.409C736.301 280.807 734.398 277.144 732.67 273.426L732.216 273.637C728.696 266.065 725.895 258.27 723.79 250.315L724.273 250.187C722.162 242.212 720.752 234.074 720.018 225.838L719.52 225.882C718.791 217.688 718.729 209.397 719.311 201.073L719.81 201.108C720.38 192.959 721.569 184.777 723.354 176.622L722.866 176.515C724.614 168.529 726.933 160.571 729.802 152.694L730.271 152.865C733.059 145.208 736.368 137.629 740.178 130.177L739.733 129.95C743.453 122.673 747.65 115.52 752.306 108.536L752.722 108.814C757.242 102.034 762.195 95.4151 767.565 89.0005L767.182 88.6796C772.429 82.4112 778.074 76.3379 784.1 70.5003L784.447 70.8594C790.302 65.1876 796.518 59.7386 803.081 54.5498L802.771 54.1576C809.181 49.0888 815.922 44.268 822.98 39.73L823.251 40.1505C826.704 37.9298 830.234 35.7769 833.839 33.6959C837.443 31.6149 841.073 29.6343 844.723 27.7536L844.494 27.3091C851.953 23.4659 859.498 20.0385 867.093 17.0209L867.278 17.4856C875.053 14.3966 882.88 11.7381 890.719 9.50365L890.582 9.02279C898.65 6.72302 906.732 4.87143 914.784 3.46109L914.871 3.95359C923.111 2.51036 931.32 1.53027 939.451 1.00578L939.419 0.50681C947.794 -0.0334442 956.088 -0.0914385 964.25 0.324706L964.225 0.824055C972.582 1.25019 980.801 2.17463 988.826 3.58846L988.912 3.09605C997.168 4.55052 1005.22 6.52171 1013.01 9.00016L1012.86 9.47662C1020.81 12.0077 1028.49 15.069 1035.84 18.6501L1036.06 18.2007C1043.55 21.8585 1050.7 26.0574 1057.44 30.7866L1057.15 31.1958C1063.91 35.9488 1070.26 41.2388 1076.11 47.0547L1076.46 46.7C1082.3 52.5013 1087.65 58.8246 1092.44 65.6589L1092.04 65.9462C1094.39 69.3019 1096.61 72.7814 1098.69 76.3833C1100.77 79.9852 1102.67 83.6488 1104.4 87.3664L1104.86 87.1556C1108.38 94.7269 1111.18 102.522 1113.28 110.477L1112.8 110.605C1114.91 118.581 1116.32 126.718 1117.05 134.954L1117.55 134.91C1118.28 143.105 1118.34 151.395 1117.76 159.719L1117.26 159.684C1116.69 167.833 1115.5 176.015 1113.72 184.17L1114.21 184.277C1112.46 192.263 1110.14 200.222 1107.27 208.099L1106.8 207.927C1104.01 215.584 1100.7 223.164 1096.89 230.615L1097.34 230.842C1093.62 238.119 1089.42 245.273 1084.77 252.256L1084.35 251.979C1079.83 258.758 1074.88 265.377 1069.51 271.792L1069.89 272.113C1064.64 278.381 1059 284.454 1052.97 290.292L1052.62 289.933C1046.77 295.605 1040.55 301.054 1033.99 306.243L1034.3 306.635Z" stroke="#F87000" stroke-dasharray="25 25"/>
<path d="M673.759 787.443C667.702 792.929 661.299 798.19 654.56 803.19L654.262 802.788C650.965 805.235 647.587 807.619 644.13 809.937C640.673 812.254 637.184 814.473 633.668 816.594L633.926 817.022C626.741 821.356 619.441 825.28 612.065 828.799L611.85 828.348C604.299 831.95 596.667 835.126 588.995 837.88L589.164 838.35C581.267 841.185 573.328 843.573 565.388 845.518L565.269 845.033C557.143 847.024 549.019 848.551 540.941 849.618L541.006 850.114C532.686 851.213 524.414 851.826 516.243 851.957L516.235 851.457C507.867 851.591 499.605 851.218 491.504 850.344L491.45 850.841C483.116 849.942 474.95 848.514 467.012 846.562L467.131 846.077C459.024 844.083 451.156 841.543 443.591 838.461L443.402 838.924C435.675 835.776 428.261 832.064 421.228 827.796L421.487 827.369C414.418 823.079 407.736 818.225 401.509 812.814L401.181 813.191C394.969 807.793 389.208 801.842 383.965 795.344L384.354 795.03C381.779 791.839 379.33 788.516 377.014 785.061C374.699 781.606 372.555 778.078 370.582 774.485L370.144 774.725C366.125 767.406 362.809 759.816 360.176 752.019L360.649 751.859C358.009 744.043 356.058 736.018 354.776 727.85L354.282 727.927C353.006 719.8 352.389 711.532 352.413 703.188L352.913 703.189C352.937 695.02 353.576 686.777 354.812 678.521L354.317 678.447C355.528 670.362 357.309 662.266 359.644 654.215L360.124 654.354C362.394 646.528 365.188 638.744 368.491 631.055L368.032 630.858C371.257 623.348 374.966 615.93 379.145 608.651L379.578 608.9C383.634 601.833 388.134 594.898 393.063 588.138L392.659 587.844C397.475 581.238 402.701 574.801 408.323 568.573L408.694 568.908C414.156 562.858 419.993 557.005 426.194 551.389L425.859 551.018C431.916 545.532 438.319 540.271 445.058 535.271L445.356 535.673C448.653 533.226 452.031 530.842 455.488 528.524C458.946 526.207 462.434 523.988 465.951 521.867L465.692 521.439C472.877 517.106 480.177 513.181 487.553 509.662L487.768 510.114C495.319 506.511 502.951 503.335 510.623 500.582L510.454 500.111C518.351 497.277 526.29 494.889 534.23 492.943L534.349 493.428C542.475 491.437 550.6 489.91 558.677 488.843L558.612 488.347C566.933 487.248 575.204 486.635 583.375 486.505L583.383 487.005C591.751 486.871 600.013 487.243 608.114 488.117L608.168 487.62C616.502 488.519 624.668 489.947 632.606 491.899L632.487 492.385C640.594 494.378 648.462 496.919 656.027 500.001L656.216 499.537C663.943 502.685 671.357 506.397 678.39 510.665L678.131 511.092C685.2 515.382 691.882 520.236 698.109 525.648L698.437 525.27C704.649 530.668 710.41 536.619 715.653 543.118L715.264 543.431C717.839 546.622 720.288 549.945 722.604 553.4C724.919 556.855 727.063 560.383 729.036 563.976L729.474 563.736C733.493 571.055 736.809 578.645 739.443 586.442L738.969 586.602C741.609 594.418 743.56 602.443 744.842 610.612L745.336 610.534C746.612 618.662 747.229 626.93 747.205 635.274L746.705 635.272C746.681 643.441 746.042 651.684 744.806 659.941L745.301 660.015C744.09 668.099 742.309 676.195 739.974 684.246L739.494 684.107C737.224 691.933 734.43 699.717 731.127 707.406L731.586 707.604C728.361 715.113 724.652 722.531 720.474 729.81L720.04 729.561C715.984 736.628 711.484 743.564 706.555 750.323L706.959 750.618C702.143 757.223 696.917 763.66 691.295 769.888L690.924 769.553C685.462 775.603 679.625 781.456 673.424 787.072L673.759 787.443Z" stroke="#F87000" stroke-dasharray="25 25"/>
</g>
<defs>
<clipPath id="clip0_262_6979">
<rect width="899" height="574" fill="white"/>
</clipPath>
</defs>
</svg>
