<svg width="1440" height="6605" viewBox="0 0 1440 6605" fill="none" xmlns="http://www.w3.org/2000/svg">
<g clip-path="url(#clip0_99_1278)">
<rect width="1440" height="6605" fill="#F9F9E5"/>
<path d="M1483.78 4683.6C1470.32 4693.01 1456.49 4702.1 1442.28 4710.86L1442.02 4710.43C1434.99 4714.76 1427.87 4719.01 1420.66 4723.17C1413.45 4727.34 1406.21 4731.38 1398.95 4735.3L1399.18 4735.74C1384.5 4743.66 1369.71 4751.1 1354.83 4758.05L1354.62 4757.59C1339.49 4764.66 1324.28 4771.22 1309.01 4777.28L1309.19 4777.74C1293.69 4783.89 1278.13 4789.53 1262.53 4794.66L1262.38 4794.19C1246.52 4799.4 1230.63 4804.09 1214.73 4808.26L1214.86 4808.75C1198.72 4812.98 1182.58 4816.67 1166.47 4819.84L1166.37 4819.35C1149.99 4822.56 1133.64 4825.23 1117.35 4827.35L1117.41 4827.85C1100.87 4830 1084.39 4831.6 1068.01 4832.64L1067.98 4832.14C1051.32 4833.2 1034.75 4833.68 1018.32 4833.6L1018.32 4834.1C1001.63 4834.01 985.082 4833.34 968.705 4832.1L968.743 4831.6C952.108 4830.33 935.653 4828.46 919.417 4826.01L919.342 4826.5C902.837 4824 886.558 4820.9 870.545 4817.18L870.658 4816.7C854.425 4812.93 838.467 4808.55 822.826 4803.55L822.674 4804.03C806.787 4798.95 791.227 4793.24 776.038 4786.9L776.231 4786.44C760.869 4780.03 745.888 4772.98 731.335 4765.3L731.101 4765.74C716.393 4757.98 702.12 4749.57 688.331 4740.52L688.605 4740.1C674.738 4731 661.361 4721.25 648.522 4710.87L648.208 4711.26C635.33 4700.84 622.994 4689.78 611.247 4678.09L611.6 4677.74C599.909 4666.1 588.804 4653.84 578.332 4640.96L577.944 4641.27C567.561 4628.5 557.799 4615.11 548.707 4601.12L549.127 4600.85C544.635 4593.94 540.306 4586.88 536.147 4579.68C531.988 4572.48 528.04 4565.2 524.302 4557.85L523.856 4558.08C516.289 4543.21 509.578 4528.07 503.705 4512.69L504.172 4512.51C498.25 4497 493.182 4481.25 488.951 4465.3L488.467 4465.43C484.216 4449.41 480.808 4433.2 478.226 4416.84L478.72 4416.76C476.146 4400.45 474.394 4383.99 473.447 4367.44L472.948 4367.46C472.006 4351 471.858 4334.43 472.489 4317.81L472.988 4317.83C473.612 4301.39 474.997 4284.89 477.128 4268.38L476.632 4268.32C478.739 4251.99 481.574 4235.66 485.12 4219.37L485.609 4219.47C489.1 4203.43 493.282 4187.41 498.14 4171.48L497.661 4171.33C502.453 4155.61 507.901 4139.95 513.99 4124.41L514.456 4124.59C520.446 4109.3 527.058 4094.12 534.277 4079.08L533.827 4078.86C540.934 4064.06 548.63 4049.39 556.9 4034.9L557.334 4035.14C565.478 4020.87 574.18 4006.77 583.427 3992.87L583.01 3992.59C592.104 3978.92 601.724 3965.45 611.859 3952.21L612.257 3952.51C622.242 3939.46 632.727 3926.63 643.701 3914.05L643.324 3913.73C654.121 3901.35 665.391 3889.22 677.122 3877.37L677.477 3877.72C689.037 3866.03 701.045 3854.62 713.491 3843.49L713.157 3843.12C725.399 3832.18 738.064 3821.52 751.142 3811.17L751.452 3811.56C764.338 3801.37 777.625 3791.47 791.304 3781.91L791.018 3781.5C804.474 3772.08 818.309 3762.99 832.513 3754.24L832.776 3754.66C839.805 3750.33 846.924 3746.08 854.133 3741.92C861.343 3737.76 868.582 3733.71 875.848 3729.79L875.611 3729.35C890.294 3721.43 905.088 3714 919.967 3707.05L920.178 3707.5C935.303 3700.44 950.515 3693.88 965.788 3687.82L965.604 3687.35C981.104 3681.2 996.667 3675.56 1012.26 3670.43L1012.42 3670.9C1028.28 3665.69 1044.17 3661 1060.07 3656.83L1059.94 3656.35C1076.07 3652.11 1092.21 3648.42 1108.33 3645.26L1108.42 3645.75C1124.8 3642.53 1141.15 3639.86 1157.45 3637.74L1157.38 3637.25C1173.92 3635.09 1190.4 3633.5 1206.79 3632.46L1206.82 3632.96C1223.48 3631.9 1240.04 3631.41 1256.47 3631.5L1256.48 3631C1273.16 3631.08 1289.71 3631.75 1306.09 3633L1306.05 3633.5C1322.69 3634.76 1339.14 3636.63 1355.38 3639.09L1355.45 3638.59C1371.96 3641.09 1388.24 3644.2 1404.25 3647.91L1404.14 3648.4C1420.37 3652.16 1436.33 3656.54 1451.97 3661.54L1452.12 3661.07C1468.01 3666.14 1483.57 3671.85 1498.76 3678.19L1498.56 3678.65C1513.93 3685.06 1528.91 3692.11 1543.46 3699.79L1543.69 3699.35C1558.4 3707.12 1572.68 3715.53 1586.46 3724.58L1586.19 3724.99C1600.06 3734.09 1613.43 3743.84 1626.27 3754.22L1626.59 3753.84C1639.47 3764.25 1651.8 3775.31 1663.55 3787L1663.2 3787.35C1674.89 3798.99 1685.99 3811.25 1696.46 3824.14L1696.85 3823.82C1707.23 3836.6 1717 3849.98 1726.09 3863.97L1725.67 3864.24C1730.16 3871.15 1734.49 3878.21 1738.65 3885.41C1742.81 3892.62 1746.76 3899.9 1750.49 3907.24L1750.94 3907.01C1758.51 3921.88 1765.22 3937.03 1771.09 3952.41L1770.62 3952.59C1776.55 3968.1 1781.61 3983.85 1785.84 3999.79L1786.33 3999.66C1790.58 4015.68 1793.99 4031.89 1796.57 4048.25L1796.08 4048.33C1798.65 4064.64 1800.4 4081.1 1801.35 4097.66L1801.85 4097.63C1802.79 4114.1 1802.94 4130.66 1802.31 4147.28L1801.81 4147.26C1801.18 4163.71 1799.8 4180.21 1797.67 4196.71L1798.16 4196.78C1796.06 4213.1 1793.22 4229.43 1789.68 4245.73L1789.19 4245.62C1785.7 4261.67 1781.51 4277.68 1776.66 4293.62L1777.13 4293.76C1772.34 4309.49 1766.89 4325.14 1760.81 4340.68L1760.34 4340.5C1754.35 4355.79 1747.74 4370.97 1740.52 4386.01L1740.97 4386.23C1733.86 4401.04 1726.17 4415.7 1717.9 4430.2L1717.46 4429.95C1709.32 4444.22 1700.62 4458.32 1691.37 4472.22L1691.79 4472.5C1682.69 4486.17 1673.07 4499.64 1662.94 4512.89L1662.54 4512.58C1652.55 4525.63 1642.07 4538.46 1631.09 4551.04L1631.47 4551.37C1620.67 4563.74 1609.4 4575.87 1597.67 4587.73L1597.32 4587.38C1585.76 4599.06 1573.75 4610.48 1561.3 4621.6L1561.64 4621.97C1549.4 4632.92 1536.73 4643.57 1523.65 4653.92L1523.34 4653.53C1510.46 4663.73 1497.17 4673.62 1483.49 4683.19L1483.78 4683.6Z" stroke="#F87000" stroke-dasharray="50 50"/>
<path d="M230.181 5567.29C218.743 5577.23 206.553 5586.54 193.637 5595.13L193.36 5594.72C187.027 5598.93 180.518 5602.97 173.837 5606.83C167.157 5610.68 160.404 5614.3 153.589 5617.68L153.811 5618.13C139.912 5625.02 125.756 5630.92 111.429 5635.86L111.266 5635.38C96.6597 5640.42 81.8753 5644.44 67.0048 5647.49L67.1052 5647.98C51.9921 5651.07 36.7901 5653.16 21.5953 5654.25L21.5593 5653.75C6.22529 5654.86 -9.1014 5654.96 -24.3218 5654.08L-24.3506 5654.58C-39.6932 5653.69 -54.9279 5651.81 -69.9535 5648.95L-69.8602 5648.46C-84.9126 5645.6 -99.7549 5641.77 -114.285 5637L-114.441 5637.47C-128.994 5632.69 -143.233 5626.95 -157.058 5620.3L-156.842 5619.85C-170.598 5613.22 -183.943 5605.69 -196.776 5597.26L-197.05 5597.68C-209.802 5589.31 -222.049 5580.07 -233.692 5569.97L-233.365 5569.59C-244.843 5559.64 -255.734 5548.86 -265.942 5537.28L-266.317 5537.61C-276.34 5526.24 -285.707 5514.1 -294.327 5501.2L-293.911 5500.93C-298.138 5494.6 -302.186 5488.1 -306.043 5481.42C-309.9 5474.74 -313.508 5467.98 -316.87 5461.16L-317.319 5461.38C-324.174 5447.47 -330.008 5433.28 -334.844 5418.92L-334.37 5418.76C-339.295 5404.13 -343.185 5389.31 -346.065 5374.39L-346.556 5374.48C-349.477 5359.35 -351.36 5344.13 -352.234 5328.9L-351.735 5328.87C-352.613 5313.54 -352.468 5298.22 -351.325 5282.99L-351.823 5282.95C-350.674 5267.65 -348.52 5252.46 -345.388 5237.46L-344.898 5237.56C-341.771 5222.59 -337.668 5207.82 -332.616 5193.36L-333.088 5193.19C-328.045 5178.75 -322.059 5164.62 -315.157 5150.89L-314.71 5151.11C-307.863 5137.49 -300.114 5124.27 -291.489 5111.54L-291.903 5111.26C-283.356 5098.65 -273.951 5086.52 -263.714 5074.98L-263.34 5075.31C-253.267 5063.96 -242.387 5053.17 -230.726 5043.04L-231.054 5042.66C-219.615 5032.72 -207.426 5023.41 -194.509 5014.82L-194.233 5015.23C-187.899 5011.02 -181.391 5006.98 -174.71 5003.13C-168.029 4999.27 -161.277 4995.65 -154.462 4992.27L-154.684 4991.83C-140.785 4984.93 -126.629 4979.03 -112.302 4974.1L-112.139 4974.57C-97.5325 4969.54 -82.7481 4965.51 -67.8776 4962.46L-67.9779 4961.97C-52.8648 4958.88 -37.6628 4956.8 -22.468 4955.7L-22.432 4956.2C-7.09805 4955.09 8.22864 4954.99 23.449 4955.87L23.4779 4955.38C38.8204 4956.26 54.0551 4958.15 69.0806 4961L68.9874 4961.49C84.0399 4964.35 98.8822 4968.18 113.412 4972.96L113.568 4972.48C128.121 4977.27 142.361 4983 156.186 4989.66L155.969 4990.11C169.725 4996.73 183.07 5004.26 195.903 5012.69L196.178 5012.27C208.93 5020.64 221.176 5029.89 232.82 5039.98L232.492 5040.36C243.97 5050.31 254.861 5061.09 265.069 5072.67L265.444 5072.34C275.468 5083.71 284.834 5095.86 293.454 5108.75L293.038 5109.03C297.266 5115.35 301.313 5121.85 305.17 5128.53C309.028 5135.21 312.636 5141.97 315.998 5148.79L316.446 5148.57C323.301 5162.48 329.135 5176.67 333.971 5191.03L333.497 5191.19C338.422 5205.82 342.312 5220.65 345.192 5235.56L345.683 5235.47C348.604 5250.6 350.488 5265.83 351.361 5281.06L350.862 5281.08C351.741 5296.41 351.595 5311.74 350.452 5326.96L350.95 5327C349.802 5342.3 347.647 5357.5 344.515 5372.49L344.026 5372.39C340.898 5387.36 336.795 5402.13 331.743 5416.6L332.215 5416.76C327.172 5431.2 321.186 5445.34 314.284 5459.07L313.838 5458.84C306.991 5472.46 299.241 5485.69 290.616 5498.41L291.03 5498.69C282.483 5511.31 273.078 5523.43 262.841 5534.97L262.467 5534.64C252.394 5545.99 241.514 5556.78 229.853 5566.92L230.181 5567.29Z" stroke="#F87000" stroke-dasharray="50 50"/>
<path d="M670.174 3948.29C656.079 3958.16 641.585 3967.7 626.701 3976.88L626.439 3976.46C619.073 3981 611.612 3985.45 604.057 3989.82C596.502 3994.18 588.914 3998.41 581.298 4002.52L581.536 4002.96C566.145 4011.26 550.636 4019.04 535.036 4026.31L534.825 4025.86C518.969 4033.25 503.019 4040.1 487.004 4046.43L487.188 4046.9C470.936 4053.32 454.617 4059.21 438.26 4064.55L438.105 4064.08C421.477 4069.51 404.81 4074.39 388.135 4078.72L388.261 4079.2C371.345 4083.59 354.421 4087.42 337.523 4090.69L337.428 4090.19C320.254 4093.51 303.107 4096.25 286.019 4098.42L286.082 4098.92C268.744 4101.11 251.467 4102.72 234.287 4103.75L234.257 4103.25C216.796 4104.29 199.437 4104.72 182.215 4104.56L182.21 4105.06C164.725 4104.9 147.382 4104.12 130.22 4102.73L130.261 4102.24C112.839 4100.83 95.6055 4098.79 78.6 4096.13L78.5228 4096.63C61.2419 4093.93 44.1963 4090.59 27.429 4086.61L27.5443 4086.12C10.5552 4082.1 -6.14764 4077.42 -22.5192 4072.09L-22.6738 4072.57C-39.2896 4067.17 -55.5649 4061.1 -71.4529 4054.38L-71.2581 4053.92C-87.3204 4047.13 -102.986 4039.67 -118.207 4031.54L-118.442 4031.98C-133.815 4023.78 -148.734 4014.9 -163.151 4005.35L-162.875 4004.93C-177.364 3995.34 -191.344 3985.07 -204.765 3974.14L-205.081 3974.52C-218.535 3963.56 -231.428 3951.94 -243.709 3939.65L-243.355 3939.3C-255.574 3927.07 -267.185 3914.19 -278.14 3900.67L-278.528 3900.98C-289.388 3887.58 -299.602 3873.54 -309.122 3858.87L-308.703 3858.6C-313.407 3851.36 -317.941 3843.96 -322.3 3836.41C-326.659 3828.86 -330.799 3821.23 -334.722 3813.54L-335.167 3813.76C-343.107 3798.19 -350.158 3782.32 -356.338 3766.21L-355.871 3766.03C-362.105 3749.79 -367.453 3733.29 -371.931 3716.6L-372.414 3716.73C-376.914 3699.95 -380.538 3682.97 -383.303 3665.84L-382.809 3665.76C-385.567 3648.67 -387.469 3631.42 -388.534 3614.08L-389.033 3614.11C-390.092 3596.85 -390.323 3579.49 -389.743 3562.08L-389.243 3562.09C-388.669 3544.85 -387.3 3527.55 -385.152 3510.24L-385.648 3510.18C-383.523 3493.06 -380.638 3475.93 -377.008 3458.84L-376.519 3458.95C-372.943 3442.11 -368.644 3425.3 -363.638 3408.58L-364.117 3408.43C-359.176 3391.92 -353.547 3375.49 -347.245 3359.18L-346.779 3359.36C-340.578 3343.3 -333.724 3327.36 -326.233 3311.57L-326.685 3311.35C-319.306 3295.8 -311.308 3280.39 -302.707 3265.16L-302.272 3265.41C-293.8 3250.41 -284.741 3235.6 -275.11 3221L-275.527 3220.72C-266.05 3206.36 -256.019 3192.2 -245.447 3178.28L-245.048 3178.58C-234.629 3164.87 -223.682 3151.39 -212.222 3138.17L-212.599 3137.85C-201.322 3124.84 -189.547 3112.1 -177.285 3099.65L-176.929 3100C-164.843 3087.72 -152.284 3075.73 -139.263 3064.04L-139.597 3063.67C-126.79 3052.18 -113.536 3040.99 -99.8465 3030.13L-99.5357 3030.52C-86.0456 3019.81 -72.1322 3009.43 -57.8055 2999.39L-58.0925 2998.98C-43.998 2989.11 -29.5039 2979.57 -14.6197 2970.39L-14.3573 2970.81C-6.99197 2966.27 0.46891 2961.82 8.02417 2957.46C15.5795 2953.09 23.1669 2948.86 30.7831 2944.75L30.5458 2944.31C45.9369 2936.01 61.4456 2928.23 77.045 2920.96L77.2562 2921.41C93.1125 2914.02 109.062 2907.17 125.078 2900.84L124.894 2900.37C141.146 2893.95 157.465 2888.07 173.821 2882.72L173.976 2883.2C190.605 2877.76 207.272 2872.88 223.946 2868.55L223.82 2868.07C240.736 2863.68 257.66 2859.85 274.559 2856.59L274.654 2857.08C291.827 2853.76 308.975 2851.02 326.062 2848.85L325.999 2848.36C343.338 2846.16 360.615 2844.55 377.795 2843.53L377.824 2844.03C395.285 2842.98 412.645 2842.55 429.866 2842.71L429.871 2842.21C447.356 2842.37 464.699 2843.15 481.861 2844.54L481.821 2845.04C499.242 2846.44 516.476 2848.48 533.481 2851.14L533.559 2850.64C550.84 2853.34 567.885 2856.69 584.652 2860.66L584.537 2861.15C601.526 2865.18 618.229 2869.85 634.601 2875.18L634.755 2874.7C651.371 2880.1 667.646 2886.17 683.534 2892.89L683.339 2893.35C699.402 2900.14 715.068 2907.61 730.288 2915.73L730.524 2915.29C745.896 2923.5 760.816 2932.38 775.232 2941.92L774.956 2942.34C789.445 2951.93 803.426 2962.2 816.847 2973.13L817.163 2972.75C830.617 2983.71 843.51 2995.34 855.79 3007.62L855.437 3007.98C867.655 3020.2 879.267 3033.08 890.221 3046.6L890.61 3046.29C901.469 3059.69 911.683 3073.73 921.204 3088.4L920.785 3088.67C925.488 3095.91 930.023 3103.31 934.382 3110.86C938.741 3118.41 942.881 3126.04 946.803 3133.74L947.249 3133.51C955.188 3149.09 962.239 3164.95 968.419 3181.06L967.953 3181.24C974.187 3197.49 979.534 3213.98 984.012 3230.67L984.495 3230.55C988.996 3247.32 992.62 3264.3 995.384 3281.44L994.89 3281.52C997.648 3298.61 999.55 3315.85 1000.62 3333.19L1001.11 3333.16C1002.17 3350.42 1002.4 3367.78 1001.82 3385.2L1001.32 3385.18C1000.75 3402.42 999.381 3419.72 997.233 3437.03L997.729 3437.09C995.605 3454.21 992.719 3471.34 989.09 3488.43L988.601 3488.32C985.025 3505.16 980.726 3521.97 975.719 3538.69L976.198 3538.84C971.257 3555.35 965.628 3571.78 959.327 3588.1L958.86 3587.92C952.659 3603.97 945.806 3619.91 938.315 3635.71L938.766 3635.92C931.387 3651.48 923.39 3666.89 914.788 3682.11L914.353 3681.86C905.881 3696.86 896.823 3711.67 887.191 3726.27L887.609 3726.55C878.132 3740.92 868.101 3755.07 857.528 3768.99L857.13 3768.69C846.71 3782.4 835.764 3795.88 824.303 3809.1L824.681 3809.42C813.403 3822.43 801.628 3835.17 789.367 3847.62L789.01 3847.27C776.924 3859.55 764.365 3871.54 751.345 3883.23L751.679 3883.6C738.871 3895.09 725.617 3906.28 711.928 3917.15L711.617 3916.75C698.127 3927.46 684.214 3937.84 669.887 3947.88L670.174 3948.29Z" stroke="#F87000" stroke-dasharray="50 50"/>
<path d="M1936.87 1412.15C1924.67 1422.77 1911.74 1432.66 1898.08 1441.76L1897.8 1441.35C1891.07 1445.83 1884.17 1450.12 1877.09 1454.21C1870.01 1458.29 1862.84 1462.13 1855.59 1465.72L1855.81 1466.16C1841.1 1473.44 1826.07 1479.7 1810.78 1484.95L1810.62 1484.48C1795.19 1489.78 1779.5 1494.05 1763.62 1497.34L1763.72 1497.83C1747.79 1501.12 1731.67 1503.41 1715.42 1504.73L1715.38 1504.23C1699.24 1505.54 1682.98 1505.89 1666.66 1505.3L1666.64 1505.8C1650.48 1505.22 1634.26 1503.72 1618.05 1501.32L1618.12 1500.83C1602.16 1498.46 1586.21 1495.24 1570.33 1491.16L1570.21 1491.64C1554.58 1487.63 1539.02 1482.8 1523.6 1477.17L1523.77 1476.7C1508.63 1471.18 1493.62 1464.89 1478.8 1457.85L1478.58 1458.3C1464.02 1451.38 1449.63 1443.74 1435.48 1435.4L1435.73 1434.97C1421.86 1426.79 1408.2 1417.94 1394.83 1408.43L1394.54 1408.84C1381.4 1399.49 1368.53 1389.52 1355.97 1378.93L1356.3 1378.55C1343.98 1368.16 1331.98 1357.19 1320.32 1345.64L1319.97 1345.99C1308.52 1334.64 1297.4 1322.74 1286.67 1310.3L1287.05 1309.98C1276.53 1297.78 1266.38 1285.07 1256.63 1271.85L1256.23 1272.15C1246.66 1259.17 1237.49 1245.72 1228.74 1231.79L1229.17 1231.52C1224.86 1224.67 1220.67 1217.69 1216.58 1210.61C1212.49 1203.53 1208.55 1196.41 1204.76 1189.25L1204.32 1189.48C1196.63 1174.95 1189.56 1160.28 1183.11 1145.5L1183.57 1145.3C1176.99 1130.26 1171.06 1115.11 1165.76 1099.9L1165.29 1100.06C1159.88 1084.55 1155.13 1068.97 1151.03 1053.38L1151.51 1053.26C1147.34 1037.39 1143.84 1021.5 1141 1005.64L1140.51 1005.73C1137.61 989.562 1135.41 973.428 1133.89 957.378L1134.39 957.331C1132.84 940.993 1132 924.743 1131.85 908.635L1131.35 908.639C1131.21 892.215 1131.78 875.937 1133.08 859.863L1133.57 859.903C1134.89 843.547 1136.94 827.403 1139.73 811.53L1139.24 811.444C1142.08 795.273 1145.67 779.383 1150.01 763.839L1150.49 763.973C1154.9 748.189 1160.08 732.761 1166.02 717.756L1165.55 717.572C1171.58 702.338 1178.39 687.54 1185.97 673.247L1186.41 673.481C1194.06 659.055 1202.49 645.144 1211.7 631.821L1211.28 631.537C1220.55 618.127 1230.6 605.311 1241.41 593.163L1241.79 593.496C1252.57 581.383 1264.12 569.935 1276.42 559.225L1276.09 558.848C1288.29 548.231 1301.22 538.338 1314.88 529.239L1315.16 529.655C1321.89 525.172 1328.79 520.883 1335.87 516.795C1342.95 512.707 1350.12 508.871 1357.37 505.285L1357.15 504.836C1371.86 497.556 1386.89 491.303 1402.18 486.05L1402.35 486.523C1417.77 481.225 1433.46 476.946 1449.34 473.663L1449.24 473.174C1465.17 469.881 1481.29 467.588 1497.54 466.268L1497.58 466.767C1513.72 465.456 1529.98 465.108 1546.3 465.697L1546.32 465.197C1562.49 465.781 1578.71 467.283 1594.91 469.68L1594.84 470.175C1610.8 472.535 1626.75 475.765 1642.63 479.839L1642.75 479.355C1658.38 483.368 1673.94 488.199 1689.37 493.827L1689.19 494.297C1704.33 499.821 1719.34 506.113 1734.16 513.152L1734.38 512.701C1748.95 519.619 1763.33 527.257 1777.48 535.597L1777.23 536.028C1791.11 544.207 1804.76 553.06 1818.13 562.57L1818.42 562.162C1831.56 571.505 1844.43 581.48 1856.99 592.069L1856.67 592.451C1868.98 602.837 1880.99 613.814 1892.64 625.365L1893 625.01C1904.45 636.357 1915.56 648.257 1926.29 660.696L1925.91 661.022C1936.43 673.218 1946.59 685.932 1956.33 699.148L1956.73 698.851C1966.3 711.826 1975.48 725.284 1984.22 739.211L1983.79 739.477C1988.1 746.334 1992.3 753.305 1996.39 760.388C2000.48 767.471 2004.41 774.593 2008.2 781.749L2008.64 781.515C2016.33 796.049 2023.4 810.723 2029.85 825.496L2029.39 825.696C2035.97 840.744 2041.9 855.895 2047.2 871.104L2047.67 870.94C2053.08 886.452 2057.83 902.026 2061.93 917.616L2061.45 917.743C2065.62 933.615 2069.13 949.502 2071.96 965.358L2072.46 965.27C2075.35 981.437 2077.55 997.572 2079.07 1013.62L2078.57 1013.67C2080.12 1030.01 2080.96 1046.26 2081.11 1062.37L2081.61 1062.36C2081.76 1078.79 2081.18 1095.06 2079.89 1111.14L2079.39 1111.1C2078.07 1127.45 2076.02 1143.6 2073.23 1159.47L2073.72 1159.56C2070.89 1175.73 2067.29 1191.62 2062.95 1207.16L2062.47 1207.03C2058.06 1222.81 2052.88 1238.24 2046.95 1253.24L2047.41 1253.43C2041.38 1268.66 2034.57 1283.46 2027 1297.75L2026.55 1297.52C2018.9 1311.95 2010.47 1325.86 2001.27 1339.18L2001.68 1339.46C1992.41 1352.87 1982.36 1365.69 1971.55 1377.84L1971.18 1377.5C1960.39 1389.62 1948.84 1401.06 1936.54 1411.78L1936.87 1412.15Z" stroke="#F87000" stroke-dasharray="50 50"/>
<path d="M519.836 1356.5C506.982 1367.07 493.456 1377.02 479.272 1386.27L478.998 1385.85C472.016 1390.41 464.875 1394.8 457.575 1399.01C450.275 1403.23 442.904 1407.22 435.467 1410.99L435.693 1411.43C420.586 1419.09 405.211 1425.83 389.627 1431.68L389.451 1431.21C373.657 1437.13 357.648 1442.14 341.487 1446.24L341.61 1446.72C325.286 1450.87 308.806 1454.09 292.235 1456.42L292.166 1455.92C275.544 1458.25 258.829 1459.68 242.087 1460.22L242.104 1460.72C225.341 1461.26 208.551 1460.92 191.798 1459.71L191.834 1459.21C175.148 1458 158.499 1455.93 141.95 1453.02L141.864 1453.51C125.388 1450.62 109.013 1446.89 92.8009 1442.34L92.9358 1441.86C76.8576 1437.36 60.94 1432.05 45.2447 1425.97L45.0639 1426.43C29.4923 1420.39 14.1393 1413.59 -0.934719 1406.03L-0.71063 1405.58C-15.6175 1398.11 -30.2514 1389.9 -44.5543 1380.98L-44.8189 1381.41C-58.9707 1372.58 -72.7986 1363.05 -86.2461 1352.84L-85.9437 1352.44C-99.2065 1342.37 -112.099 1331.64 -124.567 1320.25L-124.905 1320.62C-137.205 1309.4 -149.092 1297.54 -160.515 1285.07L-160.146 1284.73C-171.376 1272.47 -182.156 1259.62 -192.438 1246.18L-192.835 1246.49C-202.941 1233.29 -212.565 1219.53 -221.662 1205.22L-221.24 1204.96C-225.718 1197.92 -230.067 1190.74 -234.283 1183.44C-238.499 1176.14 -242.535 1168.79 -246.394 1161.39L-246.837 1161.62C-254.675 1146.59 -261.779 1131.38 -268.159 1116.02L-267.698 1115.83C-274.189 1100.21 -279.93 1084.45 -284.932 1068.59L-285.409 1068.74C-290.498 1052.62 -294.824 1036.39 -298.397 1020.13L-297.909 1020.02C-301.532 1003.53 -304.382 986.997 -306.471 970.476L-306.967 970.539C-309.086 953.788 -310.423 937.049 -310.993 920.379L-310.493 920.362C-311.068 903.514 -310.859 886.737 -309.877 870.091L-310.376 870.062C-309.383 853.229 -307.602 836.529 -305.046 820.024L-304.552 820.101C-301.975 803.465 -298.611 787.027 -294.474 770.851L-294.958 770.727C-290.786 754.415 -285.828 738.369 -280.099 722.653L-279.629 722.824C-273.874 707.038 -267.341 691.585 -260.044 676.531L-260.494 676.313C-253.167 661.198 -245.072 646.485 -236.221 632.238L-235.797 632.502C-226.957 618.274 -217.365 604.512 -207.034 591.283L-207.428 590.975C-197.129 577.787 -186.097 565.127 -174.346 553.062L-173.988 553.411C-162.355 541.466 -150.017 530.104 -136.989 519.388L-137.306 519.002C-124.452 508.429 -110.926 498.484 -96.7419 489.229L-96.4686 489.648C-89.4866 485.092 -82.345 480.703 -75.0453 476.488C-67.7457 472.274 -60.374 468.284 -52.9374 464.515L-53.1634 464.069C-38.056 456.413 -22.6808 449.671 -7.09728 443.826L-6.92166 444.294C8.87281 438.369 24.8816 433.365 41.0425 429.263L40.9195 428.778C57.244 424.635 73.7237 421.41 90.2945 419.085L90.364 419.58C106.986 417.248 123.701 415.821 140.442 415.281L140.426 414.781C157.189 414.239 173.979 414.585 190.732 415.797L190.696 416.296C207.382 417.504 224.031 419.572 240.579 422.482L240.666 421.989C257.141 424.886 273.517 428.615 289.729 433.158L289.594 433.639C305.672 438.144 321.59 443.45 337.285 449.536L337.466 449.07C353.038 455.109 368.39 461.916 383.464 469.473L383.24 469.92C398.147 477.393 412.781 485.599 427.084 494.521L427.349 494.097C441.501 502.925 455.328 512.453 468.776 522.663L468.474 523.062C481.736 533.132 494.629 543.866 507.097 555.248L507.434 554.878C519.734 566.107 531.622 577.964 543.045 590.436L542.676 590.773C553.906 603.033 564.686 615.886 574.967 629.318L575.364 629.014C585.47 642.216 595.095 655.975 604.192 670.278L603.77 670.547C608.247 677.587 612.597 684.759 616.813 692.061C621.029 699.363 625.065 706.716 628.923 714.114L629.367 713.883C637.205 728.912 644.309 744.127 650.689 759.48L650.227 759.672C656.718 775.292 662.46 791.054 667.462 806.909L667.939 806.759C673.028 822.887 677.353 839.111 680.927 855.377L680.439 855.484C684.062 871.973 686.912 888.506 689.001 905.026L689.497 904.964C691.616 921.715 692.953 938.454 693.522 955.124L693.023 955.141C693.598 971.989 693.388 988.765 692.407 1005.41L692.906 1005.44C691.913 1022.27 690.132 1038.97 687.576 1055.48L687.082 1055.4C684.505 1072.04 681.141 1088.48 677.003 1104.65L677.488 1104.78C673.316 1121.09 668.358 1137.13 662.628 1152.85L662.159 1152.68C656.404 1168.46 649.871 1183.92 642.574 1198.97L643.024 1199.19C635.697 1214.3 627.601 1229.02 618.751 1243.26L618.326 1243C609.487 1257.23 599.895 1270.99 589.564 1284.22L589.958 1284.53C579.659 1297.72 568.626 1310.38 556.876 1322.44L556.518 1322.09C544.885 1334.04 532.547 1345.4 519.518 1356.11L519.836 1356.5Z" stroke="#F87000" stroke-dasharray="50 50"/>
<path d="M306.438 1919.81C292.686 1930.99 278.113 1941.61 262.76 1951.57L262.488 1951.15C254.992 1956.02 247.31 1960.73 239.447 1965.27C231.584 1969.81 223.666 1974.11 215.705 1978.17L215.932 1978.61C199.627 1986.92 183.143 1994.24 166.587 2000.56L166.409 2000.09C149.315 2006.62 132.146 2012.09 115.02 2016.51L115.145 2017C97.3882 2021.59 79.6779 2025.06 62.1458 2027.44L62.0788 2026.94C43.9023 2029.4 25.9186 2030.67 8.27517 2030.78L8.27824 2031.28C-10.1146 2031.4 -28.1389 2030.24 -45.6282 2027.84L-45.5602 2027.35C-63.7613 2024.85 -81.3801 2021.01 -98.2284 2015.83L-98.3751 2016.31C-115.921 2010.93 -132.634 2004.11 -148.303 1995.88L-148.071 1995.43C-164.194 1986.96 -179.207 1977 -192.879 1965.58L-193.2 1965.96C-207.019 1954.41 -219.473 1941.37 -230.322 1926.86L-229.921 1926.56C-235.267 1919.41 -240.222 1911.91 -244.758 1904.05C-249.295 1896.19 -253.316 1888.15 -256.833 1879.95L-257.293 1880.14C-264.432 1863.5 -269.5 1846.19 -272.593 1828.45L-272.1 1828.36C-275.159 1810.81 -276.281 1792.82 -275.553 1774.63L-276.053 1774.61C-275.346 1756.92 -272.896 1739.04 -268.787 1721.15L-268.3 1721.26C-264.354 1704.08 -258.876 1686.9 -251.937 1669.89L-252.4 1669.7C-245.732 1653.36 -237.719 1637.17 -228.425 1621.3L-227.994 1621.55C-219.079 1606.33 -208.983 1591.39 -197.765 1576.88L-198.161 1576.57C-187.34 1562.58 -175.477 1548.97 -162.622 1535.89L-162.265 1536.24C-149.867 1523.63 -136.545 1511.49 -122.345 1499.95L-122.661 1499.56C-108.909 1488.39 -94.336 1477.77 -78.9832 1467.8L-78.711 1468.22C-71.2151 1463.36 -63.5331 1458.65 -55.6699 1454.11C-47.8067 1449.57 -39.8883 1445.27 -31.9274 1441.21L-32.1545 1440.77C-15.8493 1432.45 0.634756 1425.14 17.1899 1418.82L17.3682 1419.29C34.4622 1412.76 51.6317 1407.29 68.7578 1402.86L68.6326 1402.38C86.3891 1397.79 104.099 1394.31 121.631 1391.94L121.699 1392.44C139.875 1389.98 157.859 1388.7 175.502 1388.59L175.499 1388.09C193.892 1387.98 211.916 1389.14 229.405 1391.53L229.338 1392.03C247.539 1394.53 265.157 1398.37 282.006 1403.54L282.152 1403.06C299.698 1408.45 316.412 1415.27 332.081 1423.5L331.848 1423.94C347.971 1432.41 362.985 1442.38 376.656 1453.8L376.977 1453.42C390.797 1464.97 403.25 1478.01 414.099 1492.52L413.698 1492.82C419.044 1499.96 423.999 1507.47 428.536 1515.33C433.072 1523.18 437.093 1531.23 440.611 1539.43L441.07 1539.23C448.209 1555.88 453.278 1573.19 456.37 1590.93L455.877 1591.02C458.937 1608.57 460.058 1626.55 459.33 1644.75L459.83 1644.77C459.123 1662.45 456.674 1680.34 452.565 1698.23L452.077 1698.12C448.132 1715.29 442.653 1732.47 435.714 1749.48L436.177 1749.67C429.509 1766.02 421.496 1782.2 412.202 1798.08L411.771 1797.82C402.856 1813.05 392.76 1827.99 381.542 1842.5L381.938 1842.8C371.117 1856.8 359.254 1870.4 346.399 1883.48L346.042 1883.13C333.644 1895.75 320.322 1907.88 306.123 1919.43L306.438 1919.81Z" stroke="#F87000" stroke-dasharray="50 50"/>
<path d="M1760.06 2749.18C1747.13 2758.17 1733.83 2766.88 1720.2 2775.26L1719.93 2774.84C1713.18 2778.99 1706.35 2783.06 1699.43 2787.06C1692.51 2791.05 1685.57 2794.93 1678.6 2798.7L1678.83 2799.14C1664.75 2806.76 1650.57 2813.92 1636.31 2820.63L1636.1 2820.18C1621.6 2827 1607.02 2833.35 1592.39 2839.24L1592.58 2839.7C1577.73 2845.68 1562.82 2851.17 1547.89 2856.19L1547.73 2855.72C1532.54 2860.83 1517.33 2865.44 1502.11 2869.57L1502.24 2870.05C1486.78 2874.25 1471.33 2877.94 1455.89 2881.13L1455.79 2880.64C1440.1 2883.89 1424.44 2886.62 1408.84 2888.84L1408.91 2889.34C1393.05 2891.59 1377.26 2893.32 1361.55 2894.53L1361.51 2894.03C1345.53 2895.26 1329.65 2895.95 1313.89 2896.11L1313.9 2896.61C1297.88 2896.76 1281.99 2896.36 1266.28 2895.42L1266.31 2894.92C1250.3 2893.96 1234.48 2892.42 1218.86 2890.33L1218.8 2890.83C1202.91 2888.69 1187.24 2885.98 1171.83 2882.69L1171.94 2882.2C1156.28 2878.86 1140.9 2874.92 1125.82 2870.39L1125.68 2870.87C1110.33 2866.26 1095.3 2861.04 1080.63 2855.22L1080.81 2854.76C1065.95 2848.86 1051.47 2842.33 1037.4 2835.2L1037.17 2835.65C1022.92 2828.42 1009.1 2820.56 995.756 2812.09L996.025 2811.66C982.574 2803.12 969.609 2793.94 957.177 2784.14L956.867 2784.53C944.375 2774.68 932.419 2764.2 921.05 2753.1L921.399 2752.74C910.068 2741.67 899.32 2729.99 889.204 2717.69L888.818 2718.01C878.778 2705.8 869.359 2692.99 860.609 2679.59L861.027 2679.32C856.704 2672.7 852.544 2665.93 848.553 2659.01C844.562 2652.1 840.781 2645.12 837.207 2638.06L836.761 2638.29C829.529 2624.01 823.146 2609.45 817.596 2594.65L818.064 2594.47C812.472 2579.56 807.725 2564.41 803.807 2549.07L803.323 2549.19C799.391 2533.79 796.292 2518.2 794.009 2502.45L794.504 2502.38C792.231 2486.71 790.766 2470.9 790.091 2454.98L789.591 2455C788.921 2439.2 789.028 2423.3 789.895 2407.35L790.394 2407.38C791.25 2391.63 792.846 2375.82 795.166 2360L794.672 2359.93C796.962 2344.31 799.957 2328.69 803.64 2313.09L804.126 2313.2C807.744 2297.88 812.027 2282.59 816.959 2267.36L816.483 2267.21C821.338 2252.22 826.822 2237.29 832.92 2222.47L833.383 2222.66C839.376 2208.09 845.963 2193.62 853.13 2179.28L852.683 2179.06C859.722 2164.97 867.32 2151.01 875.465 2137.22L875.895 2137.47C883.906 2123.91 892.444 2110.49 901.499 2097.27L901.087 2096.99C909.987 2083.99 919.385 2071.17 929.27 2058.57L929.663 2058.88C939.388 2046.48 949.583 2034.28 960.239 2022.32L959.865 2021.98C970.347 2010.22 981.272 1998.67 992.632 1987.39L992.985 1987.74C1004.17 1976.63 1015.77 1965.76 1027.79 1955.16L1027.46 1954.79C1039.27 1944.36 1051.49 1934.2 1064.09 1924.33L1064.4 1924.72C1076.81 1915 1089.6 1905.55 1102.75 1896.4L1102.47 1895.99C1115.41 1887 1128.7 1878.29 1142.34 1869.91L1142.6 1870.33C1149.35 1866.18 1156.18 1862.11 1163.1 1858.11C1170.02 1854.12 1176.97 1850.24 1183.94 1846.47L1183.7 1846.03C1197.78 1838.41 1211.97 1831.25 1226.22 1824.54L1226.44 1824.99C1240.94 1818.17 1255.51 1811.82 1270.14 1805.93L1269.95 1805.47C1284.81 1799.49 1299.71 1794 1314.65 1788.98L1314.81 1789.45C1329.99 1784.34 1345.21 1779.73 1360.42 1775.6L1360.29 1775.12C1375.75 1770.92 1391.21 1767.23 1406.64 1764.04L1406.74 1764.53C1422.43 1761.28 1438.09 1758.55 1453.69 1756.33L1453.62 1755.84C1469.48 1753.58 1485.28 1751.85 1500.98 1750.64L1501.02 1751.14C1517 1749.91 1532.89 1749.22 1548.64 1749.06L1548.64 1748.56C1564.66 1748.41 1580.54 1748.81 1596.26 1749.75L1596.23 1750.25C1612.23 1751.21 1628.06 1752.75 1643.67 1754.84L1643.74 1754.34C1659.62 1756.48 1675.29 1759.19 1690.7 1762.48L1690.6 1762.97C1706.25 1766.31 1721.64 1770.25 1736.71 1774.78L1736.86 1774.3C1752.21 1778.91 1767.24 1784.13 1781.9 1789.95L1781.72 1790.41C1796.58 1796.31 1811.07 1802.84 1825.13 1809.97L1825.36 1809.52C1839.61 1816.75 1853.43 1824.61 1866.78 1833.08L1866.51 1833.51C1879.96 1842.05 1892.92 1851.23 1905.36 1861.03L1905.67 1860.64C1918.16 1870.49 1930.11 1880.97 1941.48 1892.07L1941.13 1892.43C1952.46 1903.5 1963.21 1915.18 1973.33 1927.48L1973.71 1927.16C1983.76 1939.37 1993.17 1952.18 2001.92 1965.58L2001.51 1965.85C2005.83 1972.47 2009.99 1979.24 2013.98 1986.16C2017.97 1993.07 2021.75 2000.05 2025.33 2007.11L2025.77 2006.88C2033 2021.16 2039.39 2035.72 2044.94 2050.52L2044.47 2050.7C2050.06 2065.61 2054.81 2080.76 2058.73 2096.1L2059.21 2095.98C2063.14 2111.38 2066.24 2126.97 2068.52 2142.72L2068.03 2142.79C2070.3 2158.46 2071.77 2174.27 2072.44 2190.19L2072.94 2190.17C2073.61 2205.97 2073.5 2221.87 2072.64 2237.82L2072.14 2237.79C2071.28 2253.54 2069.69 2269.35 2067.37 2285.17L2067.86 2285.24C2065.57 2300.86 2062.58 2316.48 2058.89 2332.08L2058.41 2331.97C2054.79 2347.29 2050.51 2362.58 2045.57 2377.81L2046.05 2377.96C2041.19 2392.95 2035.71 2407.88 2029.61 2422.7L2029.15 2422.51C2023.16 2437.08 2016.57 2451.55 2009.4 2465.89L2009.85 2466.12C2002.81 2480.2 1995.21 2494.16 1987.07 2507.95L1986.64 2507.7C1978.63 2521.26 1970.09 2534.68 1961.03 2547.9L1961.45 2548.18C1952.55 2561.18 1943.15 2574 1933.26 2586.6L1932.87 2586.29C1923.15 2598.69 1912.95 2610.89 1902.29 2622.85L1902.67 2623.19C1892.19 2634.95 1881.26 2646.5 1869.9 2657.78L1869.55 2657.43C1858.37 2668.54 1846.76 2679.41 1834.75 2690.01L1835.08 2690.38C1823.26 2700.81 1811.05 2710.97 1798.44 2720.84L1798.14 2720.45C1785.72 2730.17 1772.93 2739.62 1759.78 2748.77L1760.06 2749.18Z" stroke="#F87000" stroke-dasharray="50 50"/>
<path d="M1712.77 6373.5C1698.49 6382.8 1683.95 6391.92 1669.14 6400.82L1668.88 6400.39C1661.53 6404.81 1654.12 6409.18 1646.65 6413.49C1639.18 6417.81 1631.69 6422.04 1624.19 6426.2L1624.43 6426.63C1609.31 6435.01 1594.15 6443.05 1578.96 6450.76L1578.73 6450.31C1563.32 6458.13 1547.89 6465.61 1532.44 6472.75L1532.65 6473.2C1516.95 6480.46 1501.23 6487.36 1485.52 6493.92L1485.33 6493.46C1469.35 6500.13 1453.38 6506.44 1437.42 6512.38L1437.6 6512.85C1421.36 6518.9 1405.15 6524.58 1388.99 6529.89L1388.83 6529.41C1372.38 6534.81 1355.97 6539.83 1339.63 6544.46L1339.77 6544.94C1323.1 6549.66 1306.5 6553.97 1290 6557.89L1289.88 6557.41C1272.98 6561.42 1256.17 6565.01 1239.48 6568.19L1239.58 6568.68C1222.51 6571.92 1205.57 6574.73 1188.78 6577.1L1188.71 6576.61C1171.53 6579.03 1154.51 6581 1137.67 6582.51L1137.71 6583.01C1120.35 6584.57 1103.18 6585.64 1086.24 6586.23L1086.22 6585.73C1068.83 6586.33 1051.69 6586.42 1034.81 6586.01L1034.79 6586.51C1017.35 6586.08 1000.19 6585.1 983.359 6583.58L983.404 6583.08C966.045 6581.52 949.031 6579.38 932.402 6576.66L932.321 6577.15C915.067 6574.33 898.225 6570.89 881.84 6566.83L881.96 6566.34C865.033 6562.15 848.594 6557.29 832.691 6551.78L832.527 6552.25C816.022 6546.52 800.093 6540.09 784.795 6532.95L785.006 6532.5C769.22 6525.13 754.106 6517 739.724 6508.13L739.462 6508.55C724.68 6499.43 710.669 6489.51 697.494 6478.8L697.809 6478.42C684.423 6467.54 671.901 6455.84 660.31 6443.32L659.943 6443.66C648.29 6431.08 637.576 6417.67 627.871 6403.44L628.284 6403.16C623.472 6396.1 618.908 6388.84 614.601 6381.38C610.293 6373.92 606.289 6366.34 602.585 6358.64L602.134 6358.86C594.663 6343.34 588.408 6327.36 583.338 6310.98L583.815 6310.83C578.772 6294.53 574.901 6277.84 572.171 6260.8L571.677 6260.88C568.991 6244.12 567.408 6227.03 566.898 6209.66L567.398 6209.65C566.902 6192.76 567.424 6175.61 568.935 6158.25L568.437 6158.21C569.902 6141.39 572.295 6124.38 575.59 6107.22L576.081 6107.31C579.257 6090.78 583.271 6074.12 588.102 6057.36L587.621 6057.22C592.297 6041 597.738 6024.7 603.921 6008.34L604.389 6008.52C610.348 5992.76 616.999 5976.95 624.323 5961.14L623.869 5960.93C630.971 5945.59 638.705 5930.25 647.055 5914.92L647.494 5915.16C655.572 5900.34 664.226 5885.53 673.442 5870.77L673.018 5870.51C681.999 5856.13 691.511 5841.8 701.542 5827.54L701.951 5827.83C711.679 5814 721.894 5800.24 732.584 5786.58L732.191 5786.27C742.64 5772.91 753.543 5759.65 764.887 5746.49L765.266 5746.81C776.358 5733.95 787.873 5721.19 799.799 5708.56L799.436 5708.22C811.082 5695.88 823.121 5683.67 835.541 5671.59L835.89 5671.95C848.069 5660.11 860.615 5648.41 873.518 5636.86L873.184 5636.49C885.862 5625.14 898.884 5613.94 912.241 5602.91L912.56 5603.3C925.687 5592.45 939.138 5581.77 952.904 5571.27L952.6 5570.87C966.134 5560.54 979.971 5550.39 994.105 5540.42L994.393 5540.83C1008.3 5531.02 1022.5 5521.39 1036.97 5511.96L1036.7 5511.54C1050.97 5502.24 1065.52 5493.12 1080.33 5484.22L1080.58 5484.65C1087.93 5480.23 1095.34 5475.86 1102.81 5471.55C1110.29 5467.23 1117.78 5463 1125.28 5458.84L1125.03 5458.41C1140.15 5450.04 1155.31 5441.99 1170.51 5434.28L1170.74 5434.73C1186.14 5426.91 1201.58 5419.43 1217.03 5412.29L1216.82 5411.84C1232.52 5404.58 1248.23 5397.68 1263.94 5391.12L1264.13 5391.58C1280.11 5384.91 1296.09 5378.6 1312.04 5372.66L1311.87 5372.19C1328.1 5366.14 1344.31 5360.46 1360.48 5355.15L1360.63 5355.63C1377.08 5350.23 1393.49 5345.21 1409.84 5340.58L1409.7 5340.1C1426.36 5335.38 1442.96 5331.07 1459.47 5327.15L1459.58 5327.63C1476.49 5323.62 1493.29 5320.03 1509.98 5316.85L1509.89 5316.36C1526.95 5313.12 1543.89 5310.31 1560.69 5307.94L1560.76 5308.43C1577.94 5306.01 1594.96 5304.04 1611.8 5302.53L1611.75 5302.03C1629.12 5300.47 1646.28 5299.4 1663.23 5298.81L1663.24 5299.31C1680.63 5298.71 1697.78 5298.62 1714.66 5299.03L1714.67 5298.53C1732.12 5298.96 1749.27 5299.94 1766.11 5301.46L1766.06 5301.96C1783.42 5303.52 1800.43 5305.66 1817.06 5308.38L1817.14 5307.89C1834.4 5310.71 1851.24 5314.15 1867.62 5318.21L1867.5 5318.7C1884.43 5322.89 1900.87 5327.75 1916.77 5333.26L1916.94 5332.79C1933.44 5338.52 1949.37 5344.95 1964.67 5352.09L1964.46 5352.54C1980.24 5359.91 1995.36 5368.04 2009.74 5376.91L2010 5376.49C2024.78 5385.61 2038.8 5395.53 2051.97 5406.24L2051.66 5406.62C2065.04 5417.5 2077.56 5429.2 2089.15 5441.72L2089.52 5441.38C2101.17 5453.96 2111.89 5467.37 2121.59 5481.6L2121.18 5481.88C2125.99 5488.94 2130.56 5496.2 2134.86 5503.66C2139.17 5511.12 2143.18 5518.7 2146.88 5526.4L2147.33 5526.18C2154.8 5541.7 2161.06 5557.68 2166.13 5574.07L2165.65 5574.21C2170.69 5590.51 2174.56 5607.2 2177.29 5624.24L2177.79 5624.16C2180.47 5640.92 2182.06 5658.01 2182.57 5675.38L2182.07 5675.39C2182.56 5692.28 2182.04 5709.43 2180.53 5726.79L2181.03 5726.83C2179.56 5743.65 2177.17 5760.66 2173.87 5777.82L2173.38 5777.73C2170.21 5794.26 2166.19 5810.92 2161.36 5827.68L2161.84 5827.82C2157.17 5844.04 2151.73 5860.34 2145.54 5876.7L2145.08 5876.52C2139.12 5892.28 2132.47 5908.09 2125.14 5923.9L2125.6 5924.11C2118.49 5939.45 2110.76 5954.79 2102.41 5970.12L2101.97 5969.88C2093.89 5984.7 2085.24 5999.51 2076.02 6014.27L2076.45 6014.53C2067.47 6028.91 2057.95 6043.24 2047.92 6057.5L2047.51 6057.21C2037.79 6071.04 2027.57 6084.8 2016.88 6098.46L2017.27 6098.77C2006.82 6112.13 1995.92 6125.39 1984.58 6138.55L1984.2 6138.23C1973.11 6151.09 1961.59 6163.85 1949.67 6176.48L1950.03 6176.82C1938.38 6189.16 1926.34 6201.37 1913.92 6213.45L1913.57 6213.09C1901.4 6224.93 1888.85 6236.63 1875.95 6248.18L1876.28 6248.55C1863.6 6259.9 1850.58 6271.1 1837.22 6282.13L1836.9 6281.74C1823.78 6292.59 1810.33 6303.27 1796.56 6313.77L1796.86 6314.17C1783.33 6324.5 1769.49 6334.65 1755.36 6344.62L1755.07 6344.21C1741.16 6354.02 1726.97 6363.65 1712.49 6373.08L1712.77 6373.5Z" stroke="#F87000" stroke-dasharray="50 50"/>
<path d="M945.869 6413.44V6410.91H957.324V6413.44H953.088V6424H950.105V6413.44H945.869ZM965.037 6424.26C963.724 6424.26 962.591 6423.98 961.636 6423.44C960.688 6422.89 959.957 6422.11 959.446 6421.1C958.935 6420.09 958.679 6418.9 958.679 6417.53C958.679 6416.18 958.935 6415 959.446 6413.99C959.963 6412.96 960.685 6412.17 961.611 6411.6C962.537 6411.03 963.625 6410.74 964.875 6410.74C965.682 6410.74 966.443 6410.87 967.159 6411.13C967.881 6411.39 968.517 6411.78 969.068 6412.32C969.625 6412.86 970.063 6413.55 970.381 6414.39C970.699 6415.22 970.858 6416.2 970.858 6417.35V6418.3H960.128V6416.22H967.901C967.895 6415.63 967.767 6415.1 967.517 6414.64C967.267 6414.18 966.918 6413.81 966.469 6413.54C966.026 6413.28 965.509 6413.14 964.918 6413.14C964.287 6413.14 963.733 6413.3 963.256 6413.6C962.778 6413.9 962.406 6414.3 962.139 6414.8C961.878 6415.28 961.744 6415.82 961.739 6416.41V6418.22C961.739 6418.98 961.878 6419.64 962.156 6420.18C962.435 6420.72 962.824 6421.14 963.324 6421.43C963.824 6421.71 964.409 6421.85 965.08 6421.85C965.528 6421.85 965.935 6421.79 966.298 6421.66C966.662 6421.53 966.977 6421.34 967.244 6421.09C967.511 6420.84 967.713 6420.53 967.849 6420.16L970.73 6420.49C970.548 6421.25 970.202 6421.91 969.69 6422.48C969.185 6423.05 968.537 6423.48 967.747 6423.8C966.957 6424.1 966.054 6424.26 965.037 6424.26ZM972.565 6424L972.548 6421.46H972.999C973.34 6421.46 973.627 6421.38 973.86 6421.23C974.093 6421.08 974.286 6420.82 974.44 6420.46C974.593 6420.1 974.712 6419.61 974.798 6419C974.883 6418.38 974.942 6417.62 974.977 6416.7L975.207 6410.91H984.752V6424H981.769V6413.44H978.011L977.806 6417.66C977.755 6418.75 977.633 6419.7 977.44 6420.5C977.252 6421.29 976.985 6421.95 976.638 6422.47C976.298 6422.98 975.869 6423.37 975.352 6423.62C974.835 6423.88 974.224 6424 973.519 6424H972.565ZM989.759 6424.19C989.242 6424.19 988.799 6424.01 988.43 6423.64C988.06 6423.28 987.879 6422.84 987.884 6422.31C987.879 6421.8 988.06 6421.36 988.43 6421C988.799 6420.64 989.242 6420.45 989.759 6420.45C990.259 6420.45 990.694 6420.64 991.063 6421C991.438 6421.36 991.629 6421.8 991.634 6422.31C991.629 6422.66 991.538 6422.97 991.362 6423.26C991.191 6423.54 990.964 6423.77 990.68 6423.94C990.401 6424.11 990.094 6424.19 989.759 6424.19Z" fill="#F9F9E5"/>
<path d="M957.179 6389L951.435 6381.37H949.884V6389H946.722V6371.55H949.884V6378.72H950.676L956.881 6371.55H960.776L953.881 6379.51L961.074 6389H957.179ZM977.881 6380.27C977.881 6382.15 977.528 6383.76 976.824 6385.11C976.125 6386.44 975.17 6387.46 973.96 6388.17C972.756 6388.88 971.389 6389.24 969.861 6389.24C968.332 6389.24 966.963 6388.88 965.753 6388.17C964.548 6387.46 963.594 6386.43 962.889 6385.1C962.19 6383.76 961.841 6382.15 961.841 6380.27C961.841 6378.39 962.19 6376.78 962.889 6375.45C963.594 6374.11 964.548 6373.08 965.753 6372.37C966.963 6371.66 968.332 6371.31 969.861 6371.31C971.389 6371.31 972.756 6371.66 973.96 6372.37C975.17 6373.08 976.125 6374.11 976.824 6375.45C977.528 6376.78 977.881 6378.39 977.881 6380.27ZM974.702 6380.27C974.702 6378.95 974.494 6377.83 974.08 6376.92C973.67 6376.01 973.102 6375.32 972.375 6374.85C971.648 6374.38 970.81 6374.14 969.861 6374.14C968.912 6374.14 968.074 6374.38 967.347 6374.85C966.619 6375.32 966.048 6376.01 965.634 6376.92C965.224 6377.83 965.02 6378.95 965.02 6380.27C965.02 6381.6 965.224 6382.72 965.634 6383.63C966.048 6384.54 966.619 6385.23 967.347 6385.7C968.074 6386.17 968.912 6386.4 969.861 6386.4C970.81 6386.4 971.648 6386.17 972.375 6385.7C973.102 6385.23 973.67 6384.54 974.08 6383.63C974.494 6382.72 974.702 6381.6 974.702 6380.27ZM980.87 6389V6371.55H984.032V6378.93H992.12V6371.55H995.29V6389H992.12V6381.59H984.032V6389H980.87ZM997.962 6374.2V6371.55H1011.89V6374.2H1006.49V6389H1003.36V6374.2H997.962ZM1014.71 6389H1011.33L1017.48 6371.55H1021.38L1027.53 6389H1024.16L1019.5 6375.12H1019.36L1014.71 6389ZM1014.82 6382.16H1024.02V6384.7H1014.82V6382.16ZM1040.29 6389L1034.54 6381.37H1032.99V6389H1029.83V6371.55H1032.99V6378.72H1033.79L1039.99 6371.55H1043.88L1036.99 6379.51L1044.18 6389H1040.29ZM1045.56 6374.2V6371.55H1059.49V6374.2H1054.1V6389H1050.96V6374.2H1045.56ZM1064.31 6378.29H1068.75C1070.08 6378.29 1071.23 6378.51 1072.18 6378.94C1073.14 6379.37 1073.88 6379.99 1074.39 6380.78C1074.9 6381.57 1075.15 6382.49 1075.15 6383.56C1075.15 6384.64 1074.9 6385.58 1074.39 6386.4C1073.88 6387.21 1073.14 6387.85 1072.18 6388.31C1071.23 6388.77 1070.08 6389 1068.75 6389H1062.21V6371.55H1065.38V6386.41H1068.75C1069.45 6386.41 1070.05 6386.28 1070.54 6386.01C1071.02 6385.74 1071.39 6385.39 1071.64 6384.95C1071.9 6384.51 1072.03 6384.04 1072.03 6383.53C1072.03 6382.79 1071.74 6382.16 1071.17 6381.64C1070.61 6381.12 1069.8 6380.86 1068.75 6380.86H1064.31V6378.29ZM1079.83 6371.55V6389H1076.66V6371.55H1079.83Z" fill="#F9F9E5"/>
<path d="M961.662 6493.43H958.474C958.384 6492.91 958.216 6492.45 957.972 6492.05C957.727 6491.64 957.423 6491.29 957.06 6491.01C956.696 6490.72 956.281 6490.51 955.815 6490.37C955.355 6490.22 954.858 6490.14 954.324 6490.14C953.375 6490.14 952.534 6490.38 951.801 6490.86C951.068 6491.33 950.494 6492.03 950.08 6492.94C949.665 6493.85 949.457 6494.96 949.457 6496.27C949.457 6497.61 949.665 6498.73 950.08 6499.65C950.5 6500.56 951.074 6501.24 951.801 6501.71C952.534 6502.17 953.372 6502.4 954.315 6502.4C954.838 6502.4 955.327 6502.33 955.781 6502.2C956.241 6502.05 956.653 6501.85 957.017 6501.57C957.386 6501.3 957.696 6500.97 957.946 6500.57C958.202 6500.17 958.378 6499.72 958.474 6499.2L961.662 6499.22C961.543 6500.05 961.284 6500.83 960.886 6501.56C960.494 6502.28 959.98 6502.93 959.344 6503.48C958.707 6504.03 957.963 6504.47 957.111 6504.78C956.259 6505.09 955.313 6505.24 954.273 6505.24C952.739 6505.24 951.369 6504.88 950.165 6504.17C948.96 6503.46 948.011 6502.44 947.318 6501.1C946.625 6499.76 946.278 6498.15 946.278 6496.27C946.278 6494.39 946.628 6492.78 947.327 6491.45C948.026 6490.11 948.977 6489.08 950.182 6488.37C951.386 6487.66 952.75 6487.31 954.273 6487.31C955.244 6487.31 956.148 6487.44 956.983 6487.72C957.818 6487.99 958.563 6488.39 959.216 6488.92C959.869 6489.44 960.406 6490.08 960.827 6490.84C961.253 6491.6 961.531 6492.46 961.662 6493.43ZM980.154 6496.27C980.154 6498.15 979.802 6499.76 979.097 6501.11C978.398 6502.44 977.444 6503.46 976.234 6504.17C975.029 6504.88 973.663 6505.24 972.134 6505.24C970.606 6505.24 969.237 6504.88 968.026 6504.17C966.822 6503.46 965.867 6502.43 965.163 6501.1C964.464 6499.76 964.114 6498.15 964.114 6496.27C964.114 6494.39 964.464 6492.78 965.163 6491.45C965.867 6490.11 966.822 6489.08 968.026 6488.37C969.237 6487.66 970.606 6487.31 972.134 6487.31C973.663 6487.31 975.029 6487.66 976.234 6488.37C977.444 6489.08 978.398 6490.11 979.097 6491.45C979.802 6492.78 980.154 6494.39 980.154 6496.27ZM976.975 6496.27C976.975 6494.95 976.768 6493.83 976.353 6492.92C975.944 6492.01 975.376 6491.32 974.648 6490.85C973.921 6490.38 973.083 6490.14 972.134 6490.14C971.185 6490.14 970.347 6490.38 969.62 6490.85C968.893 6491.32 968.322 6492.01 967.907 6492.92C967.498 6493.83 967.293 6494.95 967.293 6496.27C967.293 6497.6 967.498 6498.72 967.907 6499.63C968.322 6500.54 968.893 6501.23 969.62 6501.7C970.347 6502.17 971.185 6502.4 972.134 6502.4C973.083 6502.4 973.921 6502.17 974.648 6501.7C975.376 6501.23 975.944 6500.54 976.353 6499.63C976.768 6498.72 976.975 6497.6 976.975 6496.27ZM999.294 6502.36L999.064 6509.12H995.996V6505H994.768V6502.36H999.294ZM983.143 6505V6487.55H986.178V6502.38H994.018V6487.55H997.078V6505H983.143ZM1001.87 6487.55H1005.01V6499.44H1005.17L1013.38 6487.55H1016.21V6505H1013.05V6493.11H1012.91L1004.67 6505H1001.87V6487.55ZM1021.9 6505H1018.53L1024.67 6487.55H1028.57L1034.73 6505H1031.35L1026.69 6491.12H1026.55L1021.9 6505ZM1022.01 6498.16H1031.22V6500.7H1022.01V6498.16ZM1035.89 6505V6502.38L1036.39 6502.35C1037.06 6502.31 1037.59 6502.07 1037.98 6501.62C1038.38 6501.18 1038.67 6500.47 1038.86 6499.49C1039.05 6498.5 1039.18 6497.18 1039.24 6495.53L1039.53 6487.55H1050.97V6505H1047.88V6490.14H1042.48L1042.21 6496.51C1042.13 6498.42 1041.92 6500 1041.58 6501.26C1041.24 6502.51 1040.69 6503.45 1039.92 6504.07C1039.16 6504.69 1038.1 6505 1036.75 6505H1035.89ZM1056.56 6494.29H1060.99C1062.32 6494.29 1063.47 6494.51 1064.42 6494.94C1065.38 6495.37 1066.12 6495.99 1066.63 6496.78C1067.14 6497.57 1067.4 6498.49 1067.4 6499.56C1067.4 6500.64 1067.14 6501.58 1066.63 6502.4C1066.12 6503.21 1065.38 6503.85 1064.42 6504.31C1063.47 6504.77 1062.32 6505 1060.99 6505H1054.45V6487.55H1057.62V6502.41H1060.99C1061.69 6502.41 1062.29 6502.28 1062.78 6502.01C1063.27 6501.74 1063.64 6501.39 1063.89 6500.95C1064.14 6500.51 1064.27 6500.04 1064.27 6499.53C1064.27 6498.79 1063.99 6498.16 1063.42 6497.64C1062.85 6497.12 1062.04 6496.86 1060.99 6496.86H1056.56V6494.29ZM1070.47 6505V6487.55H1073.63V6494.93H1081.72V6487.55H1084.89V6505H1081.72V6497.59H1073.63V6505H1070.47ZM1090.47 6494.29H1094.9C1096.24 6494.29 1097.38 6494.51 1098.34 6494.94C1099.3 6495.37 1100.03 6495.99 1100.54 6496.78C1101.06 6497.57 1101.31 6498.49 1101.31 6499.56C1101.31 6500.64 1101.06 6501.58 1100.54 6502.4C1100.03 6503.21 1099.3 6503.85 1098.34 6504.31C1097.38 6504.77 1096.24 6505 1094.9 6505H1088.37V6487.55H1091.54V6502.41H1094.9C1095.61 6502.41 1096.2 6502.28 1096.69 6502.01C1097.18 6501.74 1097.55 6501.39 1097.8 6500.95C1098.06 6500.51 1098.18 6500.04 1098.18 6499.53C1098.18 6498.79 1097.9 6498.16 1097.33 6497.64C1096.77 6497.12 1095.96 6496.86 1094.9 6496.86H1090.47V6494.29ZM1105.99 6487.55V6505H1102.82V6487.55H1105.99ZM1109.42 6505V6487.55H1120.78V6490.2H1112.59V6494.93H1120.19V6497.59H1112.59V6502.35H1120.85V6505H1109.42ZM1144.9 6493.43H1141.71C1141.62 6492.91 1141.45 6492.45 1141.21 6492.05C1140.96 6491.64 1140.66 6491.29 1140.29 6491.01C1139.93 6490.72 1139.52 6490.51 1139.05 6490.37C1138.59 6490.22 1138.09 6490.14 1137.56 6490.14C1136.61 6490.14 1135.77 6490.38 1135.04 6490.86C1134.3 6491.33 1133.73 6492.03 1133.31 6492.94C1132.9 6493.85 1132.69 6494.96 1132.69 6496.27C1132.69 6497.61 1132.9 6498.73 1133.31 6499.65C1133.73 6500.56 1134.31 6501.24 1135.04 6501.71C1135.77 6502.17 1136.61 6502.4 1137.55 6502.4C1138.07 6502.4 1138.56 6502.33 1139.02 6502.2C1139.48 6502.05 1139.89 6501.85 1140.25 6501.57C1140.62 6501.3 1140.93 6500.97 1141.18 6500.57C1141.44 6500.17 1141.61 6499.72 1141.71 6499.2L1144.9 6499.22C1144.78 6500.05 1144.52 6500.83 1144.12 6501.56C1143.73 6502.28 1143.21 6502.93 1142.58 6503.48C1141.94 6504.03 1141.2 6504.47 1140.35 6504.78C1139.49 6505.09 1138.55 6505.24 1137.51 6505.24C1135.97 6505.24 1134.6 6504.88 1133.4 6504.17C1132.19 6503.46 1131.25 6502.44 1130.55 6501.1C1129.86 6499.76 1129.51 6498.15 1129.51 6496.27C1129.51 6494.39 1129.86 6492.78 1130.56 6491.45C1131.26 6490.11 1132.21 6489.08 1133.42 6488.37C1134.62 6487.66 1135.98 6487.31 1137.51 6487.31C1138.48 6487.31 1139.38 6487.44 1140.22 6487.72C1141.05 6487.99 1141.8 6488.39 1142.45 6488.92C1143.1 6489.44 1143.64 6490.08 1144.06 6490.84C1144.49 6491.6 1144.77 6492.46 1144.9 6493.43ZM1147.79 6505V6487.55H1159.14V6490.2H1150.95V6494.93H1158.56V6497.59H1150.95V6502.35H1159.21V6505H1147.79ZM1161.6 6490.2V6487.55H1175.53V6490.2H1170.13V6505H1167V6490.2H1161.6ZM1178.21 6487.55H1181.35V6499.44H1181.51L1189.72 6487.55H1192.56V6505H1189.4V6493.11H1189.25L1181.02 6505H1178.21V6487.55Z" fill="#F9F9E5"/>
<path d="M952.381 6458.26C951.068 6458.26 949.935 6457.98 948.98 6457.44C948.031 6456.89 947.301 6456.11 946.79 6455.1C946.278 6454.09 946.023 6452.9 946.023 6451.53C946.023 6450.18 946.278 6449 946.79 6447.99C947.307 6446.96 948.028 6446.17 948.955 6445.6C949.881 6445.03 950.969 6444.74 952.219 6444.74C953.026 6444.74 953.787 6444.87 954.503 6445.13C955.224 6445.39 955.861 6445.78 956.412 6446.32C956.969 6446.86 957.406 6447.55 957.724 6448.39C958.043 6449.22 958.202 6450.2 958.202 6451.35V6452.3H947.472V6450.22H955.244C955.239 6449.63 955.111 6449.1 954.861 6448.64C954.611 6448.18 954.261 6447.81 953.812 6447.54C953.369 6447.28 952.852 6447.14 952.261 6447.14C951.631 6447.14 951.077 6447.3 950.599 6447.6C950.122 6447.9 949.75 6448.3 949.483 6448.8C949.222 6449.28 949.088 6449.82 949.082 6450.41V6452.22C949.082 6452.98 949.222 6453.64 949.5 6454.18C949.778 6454.72 950.168 6455.14 950.668 6455.43C951.168 6455.71 951.753 6455.85 952.423 6455.85C952.872 6455.85 953.278 6455.79 953.642 6455.66C954.006 6455.53 954.321 6455.34 954.588 6455.09C954.855 6454.84 955.057 6454.53 955.193 6454.16L958.074 6454.49C957.892 6455.25 957.545 6455.91 957.034 6456.48C956.528 6457.05 955.881 6457.48 955.091 6457.8C954.301 6458.1 953.398 6458.26 952.381 6458.26ZM968.746 6449.46V6452H960.888V6449.46H968.746ZM971.991 6458V6444.91H974.94V6447.13H975.094C975.366 6446.38 975.818 6445.8 976.449 6445.38C977.08 6444.95 977.832 6444.74 978.707 6444.74C979.594 6444.74 980.341 6444.95 980.949 6445.39C981.563 6445.81 981.994 6446.39 982.244 6447.13H982.381C982.67 6446.41 983.159 6445.83 983.847 6445.39C984.54 6444.96 985.361 6444.74 986.31 6444.74C987.514 6444.74 988.497 6445.12 989.259 6445.88C990.02 6446.64 990.401 6447.75 990.401 6449.21V6458H987.307V6449.69C987.307 6448.88 987.091 6448.28 986.659 6447.91C986.227 6447.53 985.699 6447.34 985.074 6447.34C984.33 6447.34 983.747 6447.57 983.327 6448.04C982.912 6448.5 982.705 6449.1 982.705 6449.84V6458H979.679V6449.56C979.679 6448.89 979.474 6448.35 979.065 6447.94C978.662 6447.54 978.134 6447.34 977.48 6447.34C977.037 6447.34 976.634 6447.45 976.27 6447.68C975.906 6447.9 975.616 6448.22 975.401 6448.62C975.185 6449.03 975.077 6449.5 975.077 6450.04V6458H971.991ZM997.298 6458.26C996.468 6458.26 995.721 6458.12 995.056 6457.82C994.397 6457.52 993.874 6457.08 993.488 6456.49C993.107 6455.91 992.917 6455.18 992.917 6454.33C992.917 6453.59 993.053 6452.98 993.326 6452.49C993.599 6452.01 993.971 6451.62 994.442 6451.34C994.914 6451.05 995.445 6450.83 996.036 6450.68C996.633 6450.53 997.249 6450.41 997.886 6450.35C998.653 6450.27 999.275 6450.2 999.752 6450.13C1000.23 6450.07 1000.58 6449.96 1000.79 6449.83C1001.01 6449.68 1001.12 6449.47 1001.12 6449.17V6449.12C1001.12 6448.48 1000.93 6447.98 1000.55 6447.63C1000.17 6447.28 999.624 6447.1 998.908 6447.1C998.153 6447.1 997.553 6447.26 997.11 6447.59C996.673 6447.92 996.377 6448.31 996.224 6448.76L993.343 6448.35C993.57 6447.56 993.945 6446.89 994.468 6446.36C994.991 6445.82 995.63 6445.41 996.386 6445.15C997.141 6444.88 997.977 6444.74 998.891 6444.74C999.522 6444.74 1000.15 6444.81 1000.77 6444.96C1001.4 6445.11 1001.97 6445.35 1002.49 6445.69C1003 6446.03 1003.42 6446.49 1003.73 6447.07C1004.05 6447.64 1004.21 6448.37 1004.21 6449.24V6458H1001.24V6456.2H1001.14C1000.95 6456.57 1000.69 6456.91 1000.35 6457.22C1000.01 6457.54 999.59 6457.79 999.079 6457.98C998.573 6458.17 997.979 6458.26 997.298 6458.26ZM998.099 6456C998.718 6456 999.255 6455.87 999.71 6455.63C1000.16 6455.38 1000.51 6455.05 1000.76 6454.64C1001.01 6454.23 1001.13 6453.79 1001.13 6453.3V6451.76C1001.04 6451.84 1000.87 6451.91 1000.64 6451.98C1000.41 6452.05 1000.16 6452.11 999.871 6452.16C999.587 6452.21 999.306 6452.26 999.028 6452.3C998.749 6452.34 998.508 6452.37 998.303 6452.4C997.843 6452.46 997.431 6452.57 997.067 6452.71C996.704 6452.85 996.417 6453.05 996.207 6453.3C995.996 6453.55 995.891 6453.88 995.891 6454.28C995.891 6454.84 996.099 6455.27 996.513 6455.56C996.928 6455.85 997.457 6456 998.099 6456ZM1007.31 6458V6444.91H1010.4V6458H1007.31ZM1008.86 6443.05C1008.37 6443.05 1007.95 6442.89 1007.6 6442.57C1007.25 6442.24 1007.07 6441.84 1007.07 6441.38C1007.07 6440.91 1007.25 6440.52 1007.6 6440.2C1007.95 6439.87 1008.37 6439.7 1008.86 6439.7C1009.36 6439.7 1009.78 6439.87 1010.12 6440.2C1010.48 6440.52 1010.65 6440.91 1010.65 6441.38C1010.65 6441.84 1010.48 6442.24 1010.12 6442.57C1009.78 6442.89 1009.36 6443.05 1008.86 6443.05ZM1016.65 6440.55V6458H1013.57V6440.55H1016.65Z" fill="#F9F9E5"/>
<path d="M190.295 6479.68C190.069 6479.68 189.858 6479.66 189.662 6479.62C189.466 6479.58 189.31 6479.53 189.195 6479.48L189.502 6478.47C189.89 6478.59 190.235 6478.64 190.538 6478.6C190.84 6478.57 191.109 6478.44 191.343 6478.19C191.577 6477.95 191.786 6477.59 191.969 6477.09L192.327 6476.1L188.716 6466.18H189.95L192.864 6474.5H192.954L195.869 6466.18H197.102L192.947 6477.55C192.773 6478.03 192.558 6478.42 192.302 6478.74C192.046 6479.06 191.75 6479.29 191.413 6479.45C191.081 6479.6 190.708 6479.68 190.295 6479.68ZM202.793 6476.2C201.945 6476.2 201.195 6475.99 200.543 6475.56C199.895 6475.13 199.388 6474.53 199.021 6473.78C198.655 6473.01 198.472 6472.13 198.472 6471.14C198.472 6470.13 198.655 6469.25 199.021 6468.48C199.388 6467.72 199.895 6467.12 200.543 6466.69C201.195 6466.26 201.945 6466.05 202.793 6466.05C203.641 6466.05 204.389 6466.26 205.036 6466.69C205.684 6467.12 206.191 6467.72 206.558 6468.48C206.928 6469.25 207.114 6470.13 207.114 6471.14C207.114 6472.13 206.931 6473.01 206.564 6473.78C206.198 6474.53 205.688 6475.13 205.036 6475.56C204.389 6475.99 203.641 6476.2 202.793 6476.2ZM202.793 6475.16C203.475 6475.16 204.052 6474.98 204.525 6474.61C204.998 6474.25 205.356 6473.76 205.599 6473.15C205.846 6472.54 205.97 6471.87 205.97 6471.14C205.97 6470.4 205.846 6469.73 205.599 6469.12C205.356 6468.5 204.998 6468.01 204.525 6467.64C204.052 6467.27 203.475 6467.08 202.793 6467.08C202.115 6467.08 201.538 6467.27 201.061 6467.64C200.588 6468.01 200.227 6468.5 199.98 6469.12C199.737 6469.73 199.616 6470.4 199.616 6471.14C199.616 6471.87 199.737 6472.54 199.98 6473.15C200.227 6473.76 200.588 6474.25 201.061 6474.61C201.534 6474.98 202.111 6475.16 202.793 6475.16ZM215.85 6472.25V6466.18H216.988V6476H215.85V6474.37H215.761C215.531 6474.87 215.166 6475.29 214.668 6475.63C214.169 6475.96 213.56 6476.13 212.839 6476.13C212.213 6476.13 211.657 6475.99 211.171 6475.72C210.685 6475.44 210.304 6475.04 210.027 6474.5C209.75 6473.97 209.612 6473.32 209.612 6472.54V6466.18H210.749V6472.47C210.749 6473.24 210.975 6473.86 211.427 6474.33C211.879 6474.79 212.458 6475.02 213.165 6475.02C213.609 6475.02 214.035 6474.92 214.444 6474.7C214.853 6474.49 215.19 6474.18 215.454 6473.77C215.718 6473.36 215.85 6472.85 215.85 6472.25ZM220 6476V6466.18H221.106V6467.69H221.189C221.385 6467.2 221.726 6466.8 222.212 6466.5C222.702 6466.19 223.256 6466.03 223.874 6466.03C223.968 6466.03 224.072 6466.04 224.187 6466.04C224.302 6466.05 224.398 6466.05 224.475 6466.05V6467.21C224.423 6467.2 224.334 6467.19 224.206 6467.17C224.078 6467.16 223.94 6467.15 223.791 6467.15C223.279 6467.15 222.823 6467.26 222.423 6467.47C222.026 6467.69 221.713 6467.98 221.483 6468.36C221.253 6468.74 221.138 6469.17 221.138 6469.66V6476H220ZM231.715 6462.91H233.096L237.845 6474.31H237.96L242.71 6462.91H244.09V6476H242.965V6465.43H242.863L238.446 6476H237.359L232.942 6465.43H232.84V6476H231.715V6462.91ZM251.15 6476.2C250.302 6476.2 249.552 6475.99 248.9 6475.56C248.252 6475.13 247.745 6474.53 247.379 6473.78C247.012 6473.01 246.829 6472.13 246.829 6471.14C246.829 6470.13 247.012 6469.25 247.379 6468.48C247.745 6467.72 248.252 6467.12 248.9 6466.69C249.552 6466.26 250.302 6466.05 251.15 6466.05C251.998 6466.05 252.746 6466.26 253.394 6466.69C254.042 6467.12 254.549 6467.72 254.915 6468.48C255.286 6469.25 255.471 6470.13 255.471 6471.14C255.471 6472.13 255.288 6473.01 254.922 6473.78C254.555 6474.53 254.046 6475.13 253.394 6475.56C252.746 6475.99 251.998 6476.2 251.15 6476.2ZM251.15 6475.16C251.832 6475.16 252.409 6474.98 252.882 6474.61C253.355 6474.25 253.713 6473.76 253.956 6473.15C254.203 6472.54 254.327 6471.87 254.327 6471.14C254.327 6470.4 254.203 6469.73 253.956 6469.12C253.713 6468.5 253.355 6468.01 252.882 6467.64C252.409 6467.27 251.832 6467.08 251.15 6467.08C250.473 6467.08 249.895 6467.27 249.418 6467.64C248.945 6468.01 248.585 6468.5 248.338 6469.12C248.095 6469.73 247.973 6470.4 247.973 6471.14C247.973 6471.87 248.095 6472.54 248.338 6473.15C248.585 6473.76 248.945 6474.25 249.418 6474.61C249.891 6474.98 250.468 6475.16 251.15 6475.16ZM259.107 6469.86V6476H257.969V6466.18H259.075V6467.72H259.177C259.407 6467.22 259.765 6466.82 260.251 6466.51C260.741 6466.21 261.346 6466.05 262.066 6466.05C262.727 6466.05 263.306 6466.19 263.805 6466.47C264.308 6466.74 264.698 6467.14 264.975 6467.68C265.256 6468.21 265.396 6468.86 265.396 6469.64V6476H264.259V6469.71C264.259 6468.9 264.033 6468.27 263.581 6467.8C263.134 6467.33 262.533 6467.1 261.779 6467.1C261.263 6467.1 260.805 6467.21 260.404 6467.43C260.004 6467.65 259.686 6467.97 259.452 6468.39C259.222 6468.8 259.107 6469.29 259.107 6469.86ZM272.362 6476.2C271.446 6476.2 270.653 6475.99 269.984 6475.57C269.315 6475.13 268.798 6474.54 268.431 6473.78C268.069 6473.02 267.888 6472.14 267.888 6471.15C267.888 6470.16 268.069 6469.28 268.431 6468.51C268.798 6467.74 269.303 6467.14 269.946 6466.71C270.594 6466.27 271.342 6466.05 272.19 6466.05C272.722 6466.05 273.236 6466.15 273.73 6466.34C274.224 6466.53 274.668 6466.83 275.06 6467.23C275.456 6467.63 275.769 6468.13 275.999 6468.73C276.229 6469.33 276.344 6470.04 276.344 6470.87V6471.43H268.674V6470.43H275.181C275.181 6469.8 275.053 6469.23 274.798 6468.73C274.546 6468.22 274.195 6467.82 273.743 6467.52C273.295 6467.23 272.778 6467.08 272.19 6467.08C271.567 6467.08 271.02 6467.25 270.547 6467.58C270.074 6467.91 269.703 6468.35 269.435 6468.9C269.17 6469.44 269.036 6470.04 269.032 6470.69V6471.29C269.032 6472.07 269.166 6472.75 269.435 6473.33C269.707 6473.91 270.093 6474.36 270.592 6474.68C271.09 6475 271.68 6475.16 272.362 6475.16C272.827 6475.16 273.234 6475.09 273.583 6474.95C273.937 6474.8 274.233 6474.61 274.472 6474.36C274.714 6474.12 274.898 6473.85 275.021 6473.55L276.102 6473.9C275.952 6474.32 275.707 6474.7 275.366 6475.05C275.03 6475.4 274.608 6475.68 274.101 6475.89C273.598 6476.1 273.018 6476.2 272.362 6476.2ZM279.346 6479.68C279.12 6479.68 278.909 6479.66 278.713 6479.62C278.517 6479.58 278.361 6479.53 278.246 6479.48L278.553 6478.47C278.941 6478.59 279.286 6478.64 279.588 6478.6C279.891 6478.57 280.159 6478.44 280.394 6478.19C280.628 6477.95 280.837 6477.59 281.02 6477.09L281.378 6476.1L277.767 6466.18H279L281.915 6474.5H282.005L284.919 6466.18H286.153L281.998 6477.55C281.824 6478.03 281.608 6478.42 281.353 6478.74C281.097 6479.06 280.801 6479.29 280.464 6479.45C280.132 6479.6 279.759 6479.68 279.346 6479.68ZM293.678 6476V6462.91H301.272V6463.98H294.873V6468.91H300.869V6469.99H294.873V6474.93H301.4V6476H293.678ZM304.832 6466.18L307.363 6470.37L309.895 6466.18H311.218L308.06 6471.09L311.218 6476H309.895L307.363 6471.95L304.832 6476H303.515L306.635 6471.09L303.515 6466.18H304.832ZM317.035 6476.2C316.157 6476.2 315.392 6475.99 314.74 6475.55C314.092 6475.11 313.589 6474.51 313.231 6473.74C312.873 6472.98 312.694 6472.11 312.694 6471.14C312.694 6470.15 312.876 6469.28 313.238 6468.51C313.604 6467.74 314.111 6467.14 314.759 6466.71C315.407 6466.27 316.159 6466.05 317.015 6466.05C317.672 6466.05 318.266 6466.18 318.799 6466.43C319.331 6466.68 319.77 6467.04 320.116 6467.5C320.465 6467.95 320.684 6468.49 320.774 6469.1H319.623C319.504 6468.54 319.216 6468.07 318.76 6467.68C318.309 6467.28 317.733 6467.08 317.035 6467.08C316.408 6467.08 315.854 6467.25 315.373 6467.59C314.891 6467.93 314.514 6468.4 314.241 6469.01C313.973 6469.61 313.839 6470.3 313.839 6471.1C313.839 6471.89 313.971 6472.6 314.235 6473.21C314.499 6473.82 314.87 6474.3 315.347 6474.64C315.829 6474.99 316.391 6475.16 317.035 6475.16C317.469 6475.16 317.866 6475.08 318.224 6474.92C318.586 6474.75 318.888 6474.52 319.131 6474.22C319.378 6473.91 319.545 6473.55 319.63 6473.14H320.78C320.695 6473.73 320.484 6474.26 320.148 6474.72C319.815 6475.18 319.383 6475.54 318.85 6475.81C318.322 6476.07 317.716 6476.2 317.035 6476.2ZM324.357 6469.86V6476H323.219V6462.91H324.357V6467.72H324.459C324.689 6467.22 325.045 6466.81 325.526 6466.51C326.012 6466.21 326.626 6466.05 327.367 6466.05C328.032 6466.05 328.616 6466.19 329.119 6466.46C329.622 6466.74 330.014 6467.14 330.295 6467.67C330.576 6468.2 330.717 6468.86 330.717 6469.64V6476H329.573V6469.71C329.573 6468.9 329.347 6468.26 328.895 6467.8C328.448 6467.33 327.843 6467.1 327.08 6467.1C326.556 6467.1 326.089 6467.21 325.68 6467.43C325.271 6467.65 324.947 6467.97 324.708 6468.39C324.474 6468.8 324.357 6469.29 324.357 6469.86ZM336.455 6476.22C335.863 6476.22 335.322 6476.11 334.832 6475.88C334.342 6475.64 333.952 6475.31 333.662 6474.87C333.372 6474.43 333.227 6473.89 333.227 6473.26C333.227 6472.77 333.319 6472.36 333.502 6472.03C333.685 6471.7 333.945 6471.43 334.282 6471.21C334.619 6471 335.017 6470.83 335.477 6470.71C335.938 6470.58 336.445 6470.49 336.999 6470.42C337.548 6470.35 338.013 6470.29 338.392 6470.24C338.776 6470.19 339.067 6470.11 339.268 6470C339.468 6469.89 339.568 6469.71 339.568 6469.46V6469.23C339.568 6468.56 339.368 6468.04 338.967 6467.65C338.571 6467.26 338 6467.07 337.254 6467.07C336.547 6467.07 335.969 6467.23 335.522 6467.54C335.079 6467.85 334.768 6468.21 334.589 6468.64L333.509 6468.25C333.73 6467.71 334.037 6467.28 334.429 6466.96C334.821 6466.64 335.26 6466.41 335.746 6466.26C336.232 6466.12 336.724 6466.05 337.222 6466.05C337.597 6466.05 337.987 6466.1 338.392 6466.19C338.801 6466.29 339.18 6466.46 339.53 6466.71C339.879 6466.94 340.163 6467.28 340.38 6467.71C340.597 6468.14 340.706 6468.68 340.706 6469.33V6476H339.568V6474.45H339.498C339.362 6474.74 339.159 6475.02 338.891 6475.29C338.622 6475.56 338.286 6475.79 337.881 6475.96C337.476 6476.14 337.001 6476.22 336.455 6476.22ZM336.609 6475.18C337.214 6475.18 337.738 6475.05 338.181 6474.78C338.624 6474.51 338.965 6474.15 339.204 6473.71C339.447 6473.26 339.568 6472.77 339.568 6472.24V6470.82C339.483 6470.9 339.34 6470.97 339.14 6471.03C338.944 6471.1 338.716 6471.15 338.456 6471.21C338.2 6471.25 337.945 6471.29 337.689 6471.33C337.433 6471.36 337.203 6471.39 336.999 6471.42C336.445 6471.49 335.972 6471.59 335.58 6471.74C335.188 6471.88 334.887 6472.08 334.678 6472.34C334.469 6472.59 334.365 6472.91 334.365 6473.31C334.365 6473.91 334.578 6474.37 335.004 6474.7C335.43 6475.02 335.965 6475.18 336.609 6475.18ZM344.87 6469.86V6476H343.733V6466.18H344.838V6467.72H344.941C345.171 6467.22 345.529 6466.82 346.015 6466.51C346.505 6466.21 347.11 6466.05 347.83 6466.05C348.49 6466.05 349.07 6466.19 349.569 6466.47C350.071 6466.74 350.461 6467.14 350.738 6467.68C351.02 6468.21 351.16 6468.86 351.16 6469.64V6476H350.022V6469.71C350.022 6468.9 349.797 6468.27 349.345 6467.8C348.897 6467.33 348.297 6467.1 347.542 6467.1C347.027 6467.1 346.569 6467.21 346.168 6467.43C345.767 6467.65 345.45 6467.97 345.216 6468.39C344.985 6468.8 344.87 6469.29 344.87 6469.86ZM357.902 6479.89C357.233 6479.89 356.647 6479.8 356.144 6479.62C355.642 6479.45 355.218 6479.22 354.872 6478.92C354.527 6478.62 354.259 6478.29 354.067 6477.92L355 6477.3C355.141 6477.55 355.328 6477.79 355.563 6478.03C355.801 6478.27 356.11 6478.47 356.49 6478.63C356.873 6478.78 357.344 6478.86 357.902 6478.86C358.771 6478.86 359.472 6478.65 360.005 6478.21C360.542 6477.78 360.811 6477.1 360.811 6476.19V6473.97H360.708C360.576 6474.27 360.387 6474.57 360.139 6474.87C359.892 6475.16 359.568 6475.41 359.168 6475.6C358.771 6475.8 358.279 6475.9 357.691 6475.9C356.907 6475.9 356.21 6475.7 355.601 6475.32C354.996 6474.93 354.519 6474.37 354.169 6473.65C353.824 6472.93 353.651 6472.07 353.651 6471.07C353.651 6470.07 353.82 6469.2 354.156 6468.44C354.497 6467.69 354.972 6467.1 355.582 6466.68C356.191 6466.26 356.901 6466.05 357.71 6466.05C358.311 6466.05 358.81 6466.15 359.206 6466.37C359.602 6466.58 359.92 6466.84 360.159 6467.15C360.401 6467.46 360.591 6467.76 360.727 6468.05H360.843V6466.18H361.955V6476.26C361.955 6477.09 361.778 6477.77 361.424 6478.31C361.07 6478.84 360.589 6479.24 359.98 6479.5C359.37 6479.76 358.678 6479.89 357.902 6479.89ZM357.825 6474.86C358.456 6474.86 358.995 6474.7 359.443 6474.4C359.89 6474.1 360.233 6473.66 360.472 6473.09C360.71 6472.51 360.83 6471.83 360.83 6471.05C360.83 6470.28 360.713 6469.6 360.478 6469.01C360.244 6468.41 359.903 6467.94 359.455 6467.6C359.012 6467.26 358.469 6467.08 357.825 6467.08C357.169 6467.08 356.615 6467.26 356.164 6467.61C355.712 6467.97 355.371 6468.44 355.141 6469.05C354.911 6469.64 354.796 6470.31 354.796 6471.05C354.796 6471.8 354.913 6472.46 355.147 6473.03C355.382 6473.61 355.725 6474.05 356.176 6474.38C356.628 6474.7 357.178 6474.86 357.825 6474.86ZM368.936 6476.2C368.02 6476.2 367.228 6475.99 366.559 6475.57C365.89 6475.13 365.372 6474.54 365.005 6473.78C364.643 6473.02 364.462 6472.14 364.462 6471.15C364.462 6470.16 364.643 6469.28 365.005 6468.51C365.372 6467.74 365.877 6467.14 366.52 6466.71C367.168 6466.27 367.916 6466.05 368.764 6466.05C369.297 6466.05 369.81 6466.15 370.304 6466.34C370.799 6466.53 371.242 6466.83 371.634 6467.23C372.03 6467.63 372.343 6468.13 372.574 6468.73C372.804 6469.33 372.919 6470.04 372.919 6470.87V6471.43H365.248V6470.43H371.755C371.755 6469.8 371.627 6469.23 371.372 6468.73C371.12 6468.22 370.769 6467.82 370.317 6467.52C369.87 6467.23 369.352 6467.08 368.764 6467.08C368.142 6467.08 367.594 6467.25 367.121 6467.58C366.648 6467.91 366.277 6468.35 366.009 6468.9C365.745 6469.44 365.61 6470.04 365.606 6470.69V6471.29C365.606 6472.07 365.74 6472.75 366.009 6473.33C366.282 6473.91 366.667 6474.36 367.166 6474.68C367.664 6475 368.255 6475.16 368.936 6475.16C369.401 6475.16 369.808 6475.09 370.157 6474.95C370.511 6474.8 370.807 6474.61 371.046 6474.36C371.289 6474.12 371.472 6473.85 371.596 6473.55L372.676 6473.9C372.527 6474.32 372.282 6474.7 371.941 6475.05C371.604 6475.4 371.182 6475.68 370.675 6475.89C370.172 6476.1 369.593 6476.2 368.936 6476.2ZM380.725 6476V6462.91H381.92V6474.93H388.159V6476H380.725ZM390.626 6476V6466.18H391.77V6476H390.626ZM391.208 6464.49C390.974 6464.49 390.773 6464.42 390.607 6464.26C390.441 6464.1 390.358 6463.9 390.358 6463.68C390.358 6463.45 390.441 6463.26 390.607 6463.1C390.773 6462.94 390.974 6462.86 391.208 6462.86C391.442 6462.86 391.643 6462.94 391.809 6463.1C391.975 6463.26 392.058 6463.45 392.058 6463.68C392.058 6463.9 391.975 6464.1 391.809 6464.26C391.643 6464.42 391.442 6464.49 391.208 6464.49ZM398.615 6476.2C397.737 6476.2 396.972 6475.99 396.32 6475.55C395.672 6475.11 395.169 6474.51 394.811 6473.74C394.453 6472.98 394.275 6472.11 394.275 6471.14C394.275 6470.15 394.456 6469.28 394.818 6468.51C395.184 6467.74 395.691 6467.14 396.339 6466.71C396.987 6466.27 397.739 6466.05 398.596 6466.05C399.252 6466.05 399.846 6466.18 400.379 6466.43C400.912 6466.68 401.35 6467.04 401.696 6467.5C402.045 6467.95 402.265 6468.49 402.354 6469.1H401.203C401.084 6468.54 400.797 6468.07 400.341 6467.68C399.889 6467.28 399.314 6467.08 398.615 6467.08C397.988 6467.08 397.434 6467.25 396.953 6467.59C396.471 6467.93 396.094 6468.4 395.821 6469.01C395.553 6469.61 395.419 6470.3 395.419 6471.1C395.419 6471.89 395.551 6472.6 395.815 6473.21C396.079 6473.82 396.45 6474.3 396.927 6474.64C397.409 6474.99 397.971 6475.16 398.615 6475.16C399.049 6475.16 399.446 6475.08 399.804 6474.92C400.166 6474.75 400.468 6474.52 400.711 6474.22C400.958 6473.91 401.125 6473.55 401.21 6473.14H402.36C402.275 6473.73 402.064 6474.26 401.728 6474.72C401.395 6475.18 400.963 6475.54 400.43 6475.81C399.902 6476.07 399.297 6476.2 398.615 6476.2ZM408.768 6476.2C407.852 6476.2 407.06 6475.99 406.391 6475.57C405.722 6475.13 405.204 6474.54 404.837 6473.78C404.475 6473.02 404.294 6472.14 404.294 6471.15C404.294 6470.16 404.475 6469.28 404.837 6468.51C405.204 6467.74 405.709 6467.14 406.352 6466.71C407 6466.27 407.748 6466.05 408.596 6466.05C409.129 6466.05 409.642 6466.15 410.136 6466.34C410.631 6466.53 411.074 6466.83 411.466 6467.23C411.862 6467.63 412.175 6468.13 412.406 6468.73C412.636 6469.33 412.751 6470.04 412.751 6470.87V6471.43H405.08V6470.43H411.587C411.587 6469.8 411.46 6469.23 411.204 6468.73C410.952 6468.22 410.601 6467.82 410.149 6467.52C409.702 6467.23 409.184 6467.08 408.596 6467.08C407.974 6467.08 407.426 6467.25 406.953 6467.58C406.48 6467.91 406.109 6468.35 405.841 6468.9C405.577 6469.44 405.442 6470.04 405.438 6470.69V6471.29C405.438 6472.07 405.572 6472.75 405.841 6473.33C406.114 6473.91 406.499 6474.36 406.998 6474.68C407.496 6475 408.087 6475.16 408.768 6475.16C409.233 6475.16 409.64 6475.09 409.989 6474.95C410.343 6474.8 410.639 6474.61 410.878 6474.36C411.121 6474.12 411.304 6473.85 411.428 6473.55L412.508 6473.9C412.359 6474.32 412.114 6474.7 411.773 6475.05C411.436 6475.4 411.014 6475.68 410.507 6475.89C410.004 6476.1 409.425 6476.2 408.768 6476.2ZM416.396 6469.86V6476H415.258V6466.18H416.364V6467.72H416.466C416.696 6467.22 417.054 6466.82 417.54 6466.51C418.03 6466.21 418.635 6466.05 419.355 6466.05C420.016 6466.05 420.595 6466.19 421.094 6466.47C421.597 6466.74 421.987 6467.14 422.264 6467.68C422.545 6468.21 422.686 6468.86 422.686 6469.64V6476H421.548V6469.71C421.548 6468.9 421.322 6468.27 420.87 6467.8C420.423 6467.33 419.822 6467.1 419.068 6467.1C418.552 6467.1 418.094 6467.21 417.693 6467.43C417.293 6467.65 416.975 6467.97 416.741 6468.39C416.511 6468.8 416.396 6469.29 416.396 6469.86ZM432.278 6468.34L431.237 6468.63C431.134 6468.34 430.989 6468.07 430.802 6467.83C430.614 6467.59 430.369 6467.4 430.067 6467.26C429.768 6467.12 429.398 6467.05 428.955 6467.05C428.29 6467.05 427.744 6467.21 427.318 6467.52C426.892 6467.84 426.679 6468.25 426.679 6468.75C426.679 6469.17 426.824 6469.51 427.114 6469.77C427.408 6470.03 427.859 6470.24 428.469 6470.39L429.952 6470.76C430.774 6470.96 431.39 6471.28 431.799 6471.71C432.212 6472.15 432.419 6472.69 432.419 6473.35C432.419 6473.9 432.266 6474.39 431.959 6474.82C431.652 6475.25 431.224 6475.59 430.674 6475.84C430.129 6476.08 429.496 6476.2 428.776 6476.2C427.817 6476.2 427.026 6475.99 426.404 6475.56C425.782 6475.12 425.384 6474.5 425.209 6473.68L426.302 6473.41C426.442 6474 426.717 6474.44 427.126 6474.73C427.54 6475.03 428.083 6475.18 428.756 6475.18C429.511 6475.18 430.114 6475.01 430.565 6474.68C431.017 6474.34 431.243 6473.91 431.243 6473.4C431.243 6473 431.111 6472.67 430.847 6472.4C430.582 6472.13 430.182 6471.93 429.645 6471.8L428.04 6471.42C427.188 6471.21 426.558 6470.89 426.148 6470.45C425.739 6470 425.535 6469.45 425.535 6468.8C425.535 6468.25 425.682 6467.78 425.976 6467.37C426.27 6466.96 426.675 6466.63 427.19 6466.4C427.706 6466.16 428.294 6466.05 428.955 6466.05C429.854 6466.05 430.572 6466.25 431.109 6466.66C431.65 6467.07 432.04 6467.62 432.278 6468.34ZM438.88 6476.2C437.964 6476.2 437.171 6475.99 436.502 6475.57C435.833 6475.13 435.315 6474.54 434.949 6473.78C434.586 6473.02 434.405 6472.14 434.405 6471.15C434.405 6470.16 434.586 6469.28 434.949 6468.51C435.315 6467.74 435.82 6467.14 436.464 6466.71C437.111 6466.27 437.859 6466.05 438.707 6466.05C439.24 6466.05 439.753 6466.15 440.248 6466.34C440.742 6466.53 441.185 6466.83 441.577 6467.23C441.974 6467.63 442.287 6468.13 442.517 6468.73C442.747 6469.33 442.862 6470.04 442.862 6470.87V6471.43H435.192V6470.43H441.699C441.699 6469.8 441.571 6469.23 441.315 6468.73C441.064 6468.22 440.712 6467.82 440.26 6467.52C439.813 6467.23 439.295 6467.08 438.707 6467.08C438.085 6467.08 437.537 6467.25 437.064 6467.58C436.591 6467.91 436.221 6468.35 435.952 6468.9C435.688 6469.44 435.554 6470.04 435.55 6470.69V6471.29C435.55 6472.07 435.684 6472.75 435.952 6473.33C436.225 6473.91 436.611 6474.36 437.109 6474.68C437.608 6475 438.198 6475.16 438.88 6475.16C439.344 6475.16 439.751 6475.09 440.101 6474.95C440.454 6474.8 440.751 6474.61 440.989 6474.36C441.232 6474.12 441.415 6473.85 441.539 6473.55L442.619 6473.9C442.47 6474.32 442.225 6474.7 441.884 6475.05C441.547 6475.4 441.126 6475.68 440.618 6475.89C440.116 6476.1 439.536 6476.2 438.88 6476.2ZM190.64 6493.86V6500H189.502V6490.18H190.608V6491.72H190.71C190.94 6491.22 191.298 6490.82 191.784 6490.51C192.274 6490.21 192.879 6490.05 193.599 6490.05C194.26 6490.05 194.839 6490.19 195.338 6490.47C195.841 6490.74 196.231 6491.14 196.508 6491.68C196.789 6492.21 196.93 6492.86 196.93 6493.64V6500H195.792V6493.71C195.792 6492.9 195.566 6492.27 195.114 6491.8C194.667 6491.33 194.066 6491.1 193.312 6491.1C192.796 6491.1 192.338 6491.21 191.938 6491.43C191.537 6491.65 191.219 6491.97 190.985 6492.39C190.755 6492.8 190.64 6493.29 190.64 6493.86ZM206.165 6496.25V6490.18H207.302V6500H206.165V6498.37H206.075C205.845 6498.87 205.481 6499.29 204.982 6499.63C204.483 6499.96 203.874 6500.13 203.154 6500.13C202.528 6500.13 201.971 6499.99 201.486 6499.72C201 6499.44 200.618 6499.04 200.341 6498.5C200.064 6497.97 199.926 6497.32 199.926 6496.54V6490.18H201.064V6496.47C201.064 6497.24 201.29 6497.86 201.741 6498.33C202.193 6498.79 202.773 6499.02 203.48 6499.02C203.923 6499.02 204.349 6498.92 204.758 6498.7C205.167 6498.49 205.504 6498.18 205.768 6497.77C206.032 6497.36 206.165 6496.85 206.165 6496.25ZM210.315 6500V6490.18H211.42V6491.69H211.523C211.719 6491.18 212.045 6490.78 212.501 6490.5C212.961 6490.2 213.513 6490.05 214.156 6490.05C214.834 6490.05 215.39 6490.21 215.825 6490.53C216.263 6490.85 216.592 6491.28 216.809 6491.84H216.892C217.114 6491.29 217.474 6490.86 217.972 6490.54C218.475 6490.22 219.085 6490.05 219.8 6490.05C220.712 6490.05 221.433 6490.34 221.961 6490.92C222.489 6491.49 222.754 6492.32 222.754 6493.42V6500H221.616V6493.42C221.616 6492.65 221.418 6492.07 221.021 6491.68C220.625 6491.29 220.103 6491.1 219.455 6491.1C218.705 6491.1 218.128 6491.33 217.723 6491.79C217.318 6492.25 217.116 6492.83 217.116 6493.54V6500H215.952V6493.32C215.952 6492.66 215.767 6492.12 215.396 6491.71C215.026 6491.3 214.504 6491.1 213.83 6491.1C213.379 6491.1 212.972 6491.21 212.609 6491.43C212.251 6491.65 211.968 6491.96 211.759 6492.36C211.555 6492.75 211.452 6493.2 211.452 6493.71V6500H210.315ZM226.002 6500V6486.91H227.146V6492.05H227.249C227.377 6491.76 227.56 6491.46 227.798 6491.15C228.041 6490.84 228.359 6490.58 228.751 6490.37C229.147 6490.15 229.646 6490.05 230.247 6490.05C231.052 6490.05 231.759 6490.26 232.369 6490.69C232.978 6491.11 233.453 6491.7 233.794 6492.46C234.135 6493.22 234.306 6494.11 234.306 6495.12C234.306 6496.13 234.135 6497.02 233.794 6497.78C233.458 6498.54 232.985 6499.14 232.375 6499.57C231.77 6499.99 231.067 6500.2 230.266 6500.2C229.669 6500.2 229.171 6500.1 228.77 6499.88C228.374 6499.67 228.054 6499.41 227.811 6499.1C227.568 6498.78 227.381 6498.48 227.249 6498.18H227.108V6500H226.002ZM227.127 6495.1C227.127 6495.89 227.244 6496.59 227.479 6497.21C227.718 6497.82 228.058 6498.3 228.502 6498.64C228.949 6498.99 229.49 6499.16 230.125 6499.16C230.777 6499.16 231.329 6498.98 231.781 6498.63C232.232 6498.26 232.575 6497.78 232.81 6497.16C233.044 6496.55 233.161 6495.86 233.161 6495.1C233.161 6494.34 233.044 6493.66 232.81 6493.06C232.58 6492.45 232.239 6491.97 231.787 6491.62C231.335 6491.26 230.781 6491.08 230.125 6491.08C229.486 6491.08 228.943 6491.26 228.495 6491.6C228.052 6491.94 227.713 6492.41 227.479 6493.02C227.244 6493.62 227.127 6494.31 227.127 6495.1ZM240.774 6500.2C239.858 6500.2 239.066 6499.99 238.396 6499.57C237.727 6499.13 237.21 6498.54 236.843 6497.78C236.481 6497.02 236.3 6496.14 236.3 6495.15C236.3 6494.16 236.481 6493.28 236.843 6492.51C237.21 6491.74 237.715 6491.14 238.358 6490.71C239.006 6490.27 239.754 6490.05 240.602 6490.05C241.134 6490.05 241.648 6490.15 242.142 6490.34C242.637 6490.53 243.08 6490.83 243.472 6491.23C243.868 6491.63 244.181 6492.13 244.411 6492.73C244.642 6493.33 244.757 6494.04 244.757 6494.87V6495.43H237.086V6494.43H243.593C243.593 6493.8 243.465 6493.23 243.21 6492.73C242.958 6492.22 242.607 6491.82 242.155 6491.52C241.708 6491.23 241.19 6491.08 240.602 6491.08C239.98 6491.08 239.432 6491.25 238.959 6491.58C238.486 6491.91 238.115 6492.35 237.847 6492.9C237.583 6493.44 237.448 6494.04 237.444 6494.69V6495.29C237.444 6496.07 237.578 6496.75 237.847 6497.33C238.119 6497.91 238.505 6498.36 239.004 6498.68C239.502 6499 240.093 6499.16 240.774 6499.16C241.239 6499.16 241.646 6499.09 241.995 6498.95C242.349 6498.8 242.645 6498.61 242.884 6498.36C243.127 6498.12 243.31 6497.85 243.433 6497.55L244.514 6497.9C244.365 6498.32 244.119 6498.7 243.779 6499.05C243.442 6499.4 243.02 6499.68 242.513 6499.89C242.01 6500.1 241.431 6500.2 240.774 6500.2ZM247.264 6500V6490.18H248.37V6491.69H248.453C248.649 6491.2 248.99 6490.8 249.475 6490.5C249.966 6490.19 250.52 6490.03 251.137 6490.03C251.231 6490.03 251.336 6490.04 251.451 6490.04C251.566 6490.05 251.662 6490.05 251.738 6490.05V6491.21C251.687 6491.2 251.598 6491.19 251.47 6491.17C251.342 6491.16 251.203 6491.15 251.054 6491.15C250.543 6491.15 250.087 6491.26 249.686 6491.47C249.29 6491.69 248.977 6491.98 248.747 6492.36C248.517 6492.74 248.402 6493.17 248.402 6493.66V6500H247.264ZM258.755 6500V6490.18H259.899V6500H258.755ZM259.337 6488.49C259.102 6488.49 258.902 6488.42 258.736 6488.26C258.57 6488.1 258.487 6487.9 258.487 6487.68C258.487 6487.45 258.57 6487.26 258.736 6487.1C258.902 6486.94 259.102 6486.86 259.337 6486.86C259.571 6486.86 259.771 6486.94 259.938 6487.1C260.104 6487.26 260.187 6487.45 260.187 6487.68C260.187 6487.9 260.104 6488.1 259.938 6488.26C259.771 6488.42 259.571 6488.49 259.337 6488.49ZM269.505 6492.34L268.463 6492.63C268.361 6492.34 268.216 6492.07 268.028 6491.83C267.841 6491.59 267.596 6491.4 267.293 6491.26C266.995 6491.12 266.624 6491.05 266.181 6491.05C265.516 6491.05 264.971 6491.21 264.545 6491.52C264.119 6491.84 263.906 6492.25 263.906 6492.75C263.906 6493.17 264.05 6493.51 264.34 6493.77C264.634 6494.03 265.086 6494.24 265.695 6494.39L267.178 6494.76C268.001 6494.96 268.616 6495.28 269.026 6495.71C269.439 6496.15 269.646 6496.69 269.646 6497.35C269.646 6497.9 269.492 6498.39 269.185 6498.82C268.879 6499.25 268.45 6499.59 267.901 6499.84C267.355 6500.08 266.722 6500.2 266.002 6500.2C265.043 6500.2 264.253 6499.99 263.631 6499.56C263.009 6499.12 262.61 6498.5 262.435 6497.68L263.528 6497.41C263.669 6498 263.944 6498.44 264.353 6498.73C264.766 6499.03 265.31 6499.18 265.983 6499.18C266.737 6499.18 267.34 6499.01 267.792 6498.68C268.244 6498.34 268.469 6497.91 268.469 6497.4C268.469 6497 268.337 6496.67 268.073 6496.4C267.809 6496.13 267.408 6495.93 266.871 6495.8L265.267 6495.42C264.415 6495.21 263.784 6494.89 263.375 6494.45C262.966 6494 262.761 6493.45 262.761 6492.8C262.761 6492.25 262.908 6491.78 263.202 6491.37C263.496 6490.96 263.901 6490.63 264.417 6490.4C264.933 6490.16 265.521 6490.05 266.181 6490.05C267.08 6490.05 267.798 6490.25 268.335 6490.66C268.876 6491.07 269.266 6491.62 269.505 6492.34ZM277.436 6486.91H278.817L283.566 6498.31H283.681L288.43 6486.91H289.811V6500H288.686V6489.43H288.584L284.167 6500H283.08L278.663 6489.43H278.561V6500H277.436V6486.91ZM303.544 6491H302.343C302.253 6490.55 302.091 6490.14 301.857 6489.76C301.627 6489.38 301.337 6489.04 300.987 6488.76C300.638 6488.47 300.242 6488.25 299.798 6488.09C299.355 6487.93 298.876 6487.86 298.36 6487.86C297.534 6487.86 296.779 6488.07 296.097 6488.5C295.42 6488.93 294.877 6489.56 294.468 6490.4C294.063 6491.23 293.86 6492.25 293.86 6493.45C293.86 6494.67 294.063 6495.69 294.468 6496.52C294.877 6497.35 295.42 6497.98 296.097 6498.41C296.779 6498.84 297.534 6499.05 298.36 6499.05C298.876 6499.05 299.355 6498.98 299.798 6498.82C300.242 6498.66 300.638 6498.44 300.987 6498.16C301.337 6497.87 301.627 6497.54 301.857 6497.16C302.091 6496.77 302.253 6496.36 302.343 6495.91H303.544C303.438 6496.51 303.237 6497.07 302.943 6497.59C302.654 6498.11 302.283 6498.56 301.831 6498.95C301.384 6499.33 300.868 6499.64 300.284 6499.85C299.7 6500.07 299.059 6500.18 298.36 6500.18C297.261 6500.18 296.285 6499.9 295.433 6499.35C294.58 6498.8 293.911 6498.02 293.426 6497.01C292.944 6496.01 292.703 6494.82 292.703 6493.45C292.703 6492.09 292.944 6490.9 293.426 6489.89C293.911 6488.89 294.58 6488.11 295.433 6487.56C296.285 6487.01 297.261 6486.73 298.36 6486.73C299.059 6486.73 299.7 6486.84 300.284 6487.06C300.868 6487.27 301.384 6487.57 301.831 6487.96C302.283 6488.35 302.654 6488.8 302.943 6489.32C303.237 6489.83 303.438 6490.39 303.544 6491ZM306.071 6500V6499.12L310.347 6494.32C310.905 6493.69 311.355 6493.15 311.696 6492.7C312.037 6492.25 312.284 6491.84 312.437 6491.46C312.595 6491.08 312.674 6490.69 312.674 6490.28C312.674 6489.78 312.556 6489.34 312.322 6488.97C312.092 6488.6 311.775 6488.31 311.37 6488.1C310.965 6487.89 310.509 6487.78 310.002 6487.78C309.465 6487.78 308.994 6487.9 308.589 6488.13C308.189 6488.36 307.877 6488.68 307.656 6489.08C307.434 6489.48 307.324 6489.94 307.324 6490.46H306.179C306.179 6489.73 306.346 6489.09 306.678 6488.53C307.015 6487.97 307.473 6487.53 308.052 6487.21C308.636 6486.89 309.297 6486.73 310.034 6486.73C310.762 6486.73 311.41 6486.89 311.977 6487.2C312.544 6487.51 312.989 6487.94 313.313 6488.48C313.637 6489.01 313.799 6489.61 313.799 6490.28C313.799 6490.76 313.713 6491.23 313.543 6491.68C313.377 6492.13 313.089 6492.63 312.68 6493.19C312.271 6493.74 311.704 6494.42 310.98 6495.22L307.733 6498.84V6498.93H314.208V6500H306.071ZM317.057 6500V6499.12L321.333 6494.32C321.892 6493.69 322.341 6493.15 322.682 6492.7C323.023 6492.25 323.27 6491.84 323.423 6491.46C323.581 6491.08 323.66 6490.69 323.66 6490.28C323.66 6489.78 323.543 6489.34 323.308 6488.97C323.078 6488.6 322.761 6488.31 322.356 6488.1C321.951 6487.89 321.495 6487.78 320.988 6487.78C320.451 6487.78 319.98 6487.9 319.575 6488.13C319.175 6488.36 318.864 6488.68 318.642 6489.08C318.421 6489.48 318.31 6489.94 318.31 6490.46H317.166C317.166 6489.73 317.332 6489.09 317.664 6488.53C318.001 6487.97 318.459 6487.53 319.039 6487.21C319.622 6486.89 320.283 6486.73 321.02 6486.73C321.749 6486.73 322.396 6486.89 322.963 6487.2C323.53 6487.51 323.975 6487.94 324.299 6488.48C324.623 6489.01 324.785 6489.61 324.785 6490.28C324.785 6490.76 324.7 6491.23 324.529 6491.68C324.363 6492.13 324.075 6492.63 323.666 6493.19C323.257 6493.74 322.691 6494.42 321.966 6495.22L318.719 6498.84V6498.93H325.194V6500H317.057ZM331.872 6500.18C331.143 6500.18 330.491 6500.03 329.916 6499.74C329.345 6499.44 328.889 6499.03 328.548 6498.51C328.212 6497.99 328.033 6497.4 328.011 6496.73H329.168C329.207 6497.42 329.479 6497.99 329.987 6498.44C330.494 6498.88 331.122 6499.11 331.872 6499.11C332.456 6499.11 332.976 6498.97 333.432 6498.69C333.888 6498.41 334.244 6498.02 334.499 6497.54C334.759 6497.05 334.889 6496.5 334.889 6495.88C334.885 6495.24 334.746 6494.68 334.474 6494.2C334.201 6493.71 333.83 6493.32 333.362 6493.05C332.897 6492.77 332.375 6492.63 331.795 6492.63C331.357 6492.63 330.926 6492.7 330.504 6492.85C330.082 6493 329.731 6493.19 329.45 6493.42L328.254 6493.27L329.04 6486.91H335.509V6487.98H330.044L329.52 6492.36H329.584C329.874 6492.12 330.225 6491.92 330.638 6491.77C331.056 6491.61 331.497 6491.54 331.962 6491.54C332.733 6491.54 333.425 6491.72 334.039 6492.09C334.657 6492.46 335.145 6492.98 335.503 6493.63C335.865 6494.27 336.046 6495.02 336.046 6495.86C336.046 6496.69 335.865 6497.43 335.503 6498.08C335.145 6498.73 334.651 6499.24 334.02 6499.62C333.393 6499.99 332.678 6500.18 331.872 6500.18ZM342.889 6500.18C342.348 6500.17 341.819 6500.07 341.304 6499.85C340.788 6499.64 340.324 6499.29 339.91 6498.81C339.497 6498.33 339.169 6497.69 338.926 6496.91C338.683 6496.12 338.561 6495.15 338.561 6494C338.561 6492.93 338.655 6491.96 338.843 6491.07C339.03 6490.18 339.311 6489.42 339.686 6488.77C340.061 6488.12 340.53 6487.62 341.093 6487.27C341.655 6486.91 342.314 6486.73 343.068 6486.73C343.775 6486.73 344.4 6486.88 344.941 6487.17C345.482 6487.46 345.921 6487.87 346.257 6488.39C346.594 6488.91 346.805 6489.5 346.89 6490.18H345.714C345.595 6489.49 345.311 6488.92 344.864 6488.48C344.417 6488.03 343.818 6487.8 343.068 6487.8C341.994 6487.8 341.163 6488.3 340.575 6489.3C339.987 6490.29 339.691 6491.7 339.686 6493.53H339.77C339.978 6493.14 340.247 6492.81 340.575 6492.53C340.907 6492.24 341.284 6492.02 341.706 6491.86C342.128 6491.7 342.571 6491.62 343.036 6491.62C343.765 6491.62 344.431 6491.81 345.037 6492.18C345.642 6492.54 346.125 6493.05 346.488 6493.69C346.85 6494.33 347.031 6495.06 347.031 6495.88C347.031 6496.66 346.858 6497.38 346.513 6498.04C346.172 6498.69 345.691 6499.22 345.069 6499.6C344.451 6499.99 343.724 6500.18 342.889 6500.18ZM342.889 6499.11C343.46 6499.11 343.969 6498.96 344.417 6498.67C344.868 6498.38 345.224 6497.99 345.484 6497.51C345.744 6497.02 345.874 6496.48 345.874 6495.88C345.874 6495.29 345.744 6494.75 345.484 6494.27C345.224 6493.79 344.868 6493.41 344.417 6493.12C343.969 6492.84 343.46 6492.69 342.889 6492.69C342.454 6492.69 342.049 6492.78 341.674 6492.96C341.299 6493.14 340.973 6493.38 340.696 6493.68C340.424 6493.99 340.215 6494.33 340.07 6494.73C339.929 6495.12 339.876 6495.53 339.91 6495.96C339.957 6496.56 340.113 6497.1 340.377 6497.58C340.645 6498.05 340.995 6498.42 341.425 6498.7C341.86 6498.97 342.348 6499.11 342.889 6499.11ZM350.112 6500L356.076 6488.07V6487.98H349.204V6486.91H357.328V6488.03L351.371 6500H350.112ZM363.661 6500.18C362.741 6500.18 361.955 6499.91 361.303 6499.39C360.655 6498.85 360.156 6498.08 359.807 6497.08C359.462 6496.07 359.289 6494.87 359.289 6493.45C359.289 6492.05 359.462 6490.84 359.807 6489.84C360.156 6488.84 360.657 6488.07 361.309 6487.54C361.965 6487 362.749 6486.73 363.661 6486.73C364.573 6486.73 365.355 6487 366.007 6487.54C366.664 6488.07 367.164 6488.84 367.509 6489.84C367.859 6490.84 368.034 6492.05 368.034 6493.45C368.034 6494.87 367.859 6496.07 367.509 6497.08C367.164 6498.08 366.666 6498.85 366.014 6499.39C365.366 6499.91 364.582 6500.18 363.661 6500.18ZM363.661 6499.11C364.671 6499.11 365.46 6498.61 366.026 6497.63C366.593 6496.64 366.877 6495.25 366.877 6493.45C366.877 6492.26 366.747 6491.24 366.487 6490.4C366.231 6489.55 365.862 6488.9 365.381 6488.46C364.904 6488.01 364.33 6487.78 363.661 6487.78C362.66 6487.78 361.874 6488.28 361.303 6489.28C360.732 6490.27 360.446 6491.66 360.446 6493.45C360.446 6494.65 360.574 6495.67 360.83 6496.51C361.09 6497.35 361.458 6498 361.936 6498.44C362.417 6498.88 362.992 6499.11 363.661 6499.11ZM374.7 6500.18C373.78 6500.18 372.994 6499.91 372.342 6499.39C371.694 6498.85 371.195 6498.08 370.846 6497.08C370.501 6496.07 370.328 6494.87 370.328 6493.45C370.328 6492.05 370.501 6490.84 370.846 6489.84C371.195 6488.84 371.696 6488.07 372.348 6487.54C373.004 6487 373.789 6486.73 374.7 6486.73C375.612 6486.73 376.394 6487 377.046 6487.54C377.703 6488.07 378.203 6488.84 378.548 6489.84C378.898 6490.84 379.073 6492.05 379.073 6493.45C379.073 6494.87 378.898 6496.07 378.548 6497.08C378.203 6498.08 377.705 6498.85 377.053 6499.39C376.405 6499.91 375.621 6500.18 374.7 6500.18ZM374.7 6499.11C375.71 6499.11 376.499 6498.61 377.066 6497.63C377.632 6496.64 377.916 6495.25 377.916 6493.45C377.916 6492.26 377.786 6491.24 377.526 6490.4C377.27 6489.55 376.901 6488.9 376.42 6488.46C375.943 6488.01 375.369 6487.78 374.7 6487.78C373.699 6487.78 372.913 6488.28 372.342 6489.28C371.771 6490.27 371.485 6491.66 371.485 6493.45C371.485 6494.65 371.613 6495.67 371.869 6496.51C372.129 6497.35 372.497 6498 372.975 6498.44C373.456 6498.88 374.031 6499.11 374.7 6499.11ZM385.72 6500.18C384.885 6500.18 384.142 6500.02 383.49 6499.71C382.838 6499.39 382.326 6498.96 381.955 6498.41C381.585 6497.87 381.399 6497.25 381.399 6496.55C381.399 6496.01 381.512 6495.51 381.738 6495.04C381.964 6494.57 382.275 6494.17 382.671 6493.85C383.068 6493.53 383.513 6493.32 384.007 6493.22V6493.15C383.364 6492.96 382.846 6492.59 382.454 6492.04C382.062 6491.49 381.868 6490.86 381.872 6490.16C381.868 6489.5 382.034 6488.92 382.371 6488.4C382.708 6487.89 383.166 6487.48 383.745 6487.18C384.329 6486.88 384.987 6486.73 385.72 6486.73C386.449 6486.73 387.103 6486.88 387.683 6487.18C388.262 6487.48 388.72 6487.89 389.057 6488.4C389.398 6488.92 389.57 6489.5 389.575 6490.16C389.57 6490.86 389.372 6491.48 388.98 6492.04C388.588 6492.6 388.073 6492.96 387.433 6493.15V6493.22C387.928 6493.31 388.371 6493.52 388.763 6493.84C389.155 6494.17 389.466 6494.57 389.696 6495.04C389.926 6495.51 390.041 6496.01 390.041 6496.55C390.041 6497.25 389.854 6497.87 389.479 6498.41C389.108 6498.96 388.597 6499.39 387.945 6499.71C387.297 6500.02 386.556 6500.18 385.72 6500.18ZM385.72 6499.11C386.343 6499.11 386.888 6498.99 387.357 6498.77C387.83 6498.55 388.198 6498.24 388.463 6497.85C388.731 6497.45 388.865 6497 388.865 6496.5C388.865 6495.97 388.727 6495.51 388.45 6495.1C388.173 6494.68 387.798 6494.36 387.325 6494.12C386.852 6493.88 386.317 6493.75 385.72 6493.75C385.124 6493.75 384.587 6493.88 384.11 6494.12C383.637 6494.36 383.262 6494.68 382.985 6495.1C382.712 6495.51 382.575 6495.97 382.575 6496.5C382.575 6497 382.705 6497.45 382.965 6497.85C383.23 6498.24 383.598 6498.55 384.071 6498.77C384.548 6498.99 385.098 6499.11 385.72 6499.11ZM385.72 6492.73C386.232 6492.73 386.69 6492.62 387.095 6492.41C387.499 6492.19 387.819 6491.89 388.053 6491.52C388.292 6491.14 388.414 6490.71 388.418 6490.23C388.414 6489.75 388.294 6489.33 388.06 6488.96C387.825 6488.59 387.506 6488.3 387.101 6488.1C386.7 6487.89 386.24 6487.78 385.72 6487.78C385.2 6487.78 384.736 6487.89 384.327 6488.1C383.922 6488.3 383.602 6488.59 383.368 6488.96C383.138 6489.33 383.025 6489.75 383.029 6490.23C383.025 6490.71 383.14 6491.14 383.374 6491.52C383.613 6491.89 383.935 6492.19 384.34 6492.41C384.749 6492.62 385.209 6492.73 385.72 6492.73ZM396.761 6500.18C395.841 6500.18 395.054 6499.91 394.402 6499.39C393.755 6498.85 393.256 6498.08 392.907 6497.08C392.561 6496.07 392.389 6494.87 392.389 6493.45C392.389 6492.05 392.561 6490.84 392.907 6489.84C393.256 6488.84 393.757 6488.07 394.409 6487.54C395.065 6487 395.849 6486.73 396.761 6486.73C397.673 6486.73 398.455 6487 399.107 6487.54C399.763 6488.07 400.264 6488.84 400.609 6489.84C400.958 6490.84 401.133 6492.05 401.133 6493.45C401.133 6494.87 400.958 6496.07 400.609 6497.08C400.264 6498.08 399.765 6498.85 399.113 6499.39C398.466 6499.91 397.681 6500.18 396.761 6500.18ZM396.761 6499.11C397.771 6499.11 398.559 6498.61 399.126 6497.63C399.693 6496.64 399.976 6495.25 399.976 6493.45C399.976 6492.26 399.846 6491.24 399.586 6490.4C399.331 6489.55 398.962 6488.9 398.48 6488.46C398.003 6488.01 397.43 6487.78 396.761 6487.78C395.76 6487.78 394.973 6488.28 394.402 6489.28C393.831 6490.27 393.546 6491.66 393.546 6493.45C393.546 6494.65 393.674 6495.67 393.929 6496.51C394.189 6497.35 394.558 6498 395.035 6498.44C395.517 6498.88 396.092 6499.11 396.761 6499.11Z" fill="#F9F9E5"/>
<g clip-path="url(#clip1_99_1278)">
<path d="M967 6569C978.048 6569 987 6560.05 987 6549C987 6537.95 978.048 6529 967 6529C955.952 6529 947 6537.95 947 6549C947 6560.05 955.952 6569 967 6569ZM956.152 6548.57L975.435 6541.13C976.33 6540.81 977.112 6541.35 976.822 6542.7L976.823 6542.7L973.54 6558.17C973.297 6559.27 972.645 6559.53 971.733 6559.02L966.733 6555.33L964.322 6557.66C964.055 6557.92 963.83 6558.15 963.313 6558.15L963.668 6553.06L972.935 6544.69C973.338 6544.33 972.845 6544.13 972.313 6544.49L960.862 6551.69L955.925 6550.15C954.853 6549.81 954.83 6549.08 956.152 6548.57Z" fill="#F9F9E5"/>
</g>
<g clip-path="url(#clip2_99_1278)">
<path d="M1055 6529H1055C1043.97 6529 1035 6537.97 1035 6549C1035 6553.38 1036.41 6557.43 1038.81 6560.72L1036.32 6568.15L1044 6565.69C1047.16 6567.79 1050.94 6569 1055 6569C1066.03 6569 1075 6560.03 1075 6549C1075 6537.97 1066.03 6529 1055 6529ZM1066.64 6557.24C1066.16 6558.6 1064.24 6559.73 1062.72 6560.06C1061.67 6560.29 1060.31 6560.47 1055.71 6558.56C1049.83 6556.12 1046.05 6550.15 1045.76 6549.76C1045.47 6549.38 1043.38 6546.6 1043.38 6543.73C1043.38 6540.86 1044.84 6539.47 1045.43 6538.86C1045.91 6538.37 1046.7 6538.15 1047.47 6538.15C1047.72 6538.15 1047.94 6538.16 1048.14 6538.17C1048.73 6538.19 1049.02 6538.23 1049.41 6539.16C1049.89 6540.32 1051.07 6543.19 1051.21 6543.49C1051.35 6543.78 1051.49 6544.18 1051.29 6544.57C1051.1 6544.97 1050.94 6545.15 1050.64 6545.49C1050.35 6545.82 1050.07 6546.09 1049.77 6546.45C1049.5 6546.77 1049.2 6547.11 1049.54 6547.69C1049.88 6548.27 1051.06 6550.19 1052.78 6551.73C1055.02 6553.71 1056.83 6554.35 1057.47 6554.62C1057.96 6554.82 1058.53 6554.77 1058.89 6554.4C1059.33 6553.92 1059.89 6553.12 1060.45 6552.33C1060.85 6551.76 1061.35 6551.69 1061.88 6551.89C1062.42 6552.08 1065.28 6553.49 1065.87 6553.78C1066.45 6554.08 1066.84 6554.22 1066.98 6554.47C1067.12 6554.72 1067.12 6555.88 1066.64 6557.24Z" fill="#F9F9E5"/>
</g>
<g clip-path="url(#clip3_99_1278)">
<path d="M1146.95 6549.01C1146.95 6549.8 1146.72 6550.56 1146.29 6551.21C1145.85 6551.86 1145.23 6552.37 1144.51 6552.67C1143.79 6552.96 1143 6553.04 1142.23 6552.89C1141.46 6552.74 1140.76 6552.36 1140.21 6551.81C1139.65 6551.26 1139.28 6550.55 1139.12 6549.78C1138.97 6549.02 1139.05 6548.22 1139.35 6547.5C1139.65 6546.78 1140.15 6546.16 1140.8 6545.73C1141.45 6545.29 1142.22 6545.06 1143 6545.06C1143.52 6545.06 1144.03 6545.16 1144.51 6545.36C1144.99 6545.56 1145.43 6545.85 1145.8 6546.22C1146.16 6546.58 1146.45 6547.02 1146.65 6547.5C1146.85 6547.98 1146.95 6548.49 1146.95 6549.01Z" fill="#F9F9E5"/>
<path d="M1148.05 6539.03H1137.95C1136.64 6539.03 1135.39 6539.55 1134.46 6540.47C1133.54 6541.4 1133.02 6542.65 1133.02 6543.96V6554.07C1133.02 6554.72 1133.14 6555.36 1133.39 6555.96C1133.64 6556.56 1134 6557.1 1134.46 6557.56C1134.92 6558.01 1135.46 6558.38 1136.06 6558.63C1136.66 6558.87 1137.3 6559 1137.95 6559H1148.06C1148.7 6559 1149.35 6558.87 1149.94 6558.62C1150.54 6558.38 1151.08 6558.01 1151.54 6557.55C1152 6557.1 1152.36 6556.55 1152.61 6555.96C1152.86 6555.36 1152.98 6554.72 1152.98 6554.07V6543.96C1152.98 6542.65 1152.46 6541.4 1151.54 6540.47C1150.61 6539.55 1149.36 6539.03 1148.05 6539.03ZM1143 6555.48C1141.72 6555.48 1140.47 6555.1 1139.41 6554.39C1138.35 6553.68 1137.52 6552.67 1137.03 6551.49C1136.55 6550.31 1136.42 6549.01 1136.67 6547.76C1136.92 6546.5 1137.53 6545.35 1138.44 6544.45C1139.34 6543.55 1140.49 6542.93 1141.74 6542.68C1143 6542.43 1144.29 6542.56 1145.48 6543.05C1146.66 6543.54 1147.66 6544.36 1148.38 6545.43C1149.09 6546.49 1149.46 6547.74 1149.47 6549.01C1149.47 6549.86 1149.3 6550.7 1148.97 6551.49C1148.65 6552.27 1148.17 6552.99 1147.57 6553.59C1146.97 6554.19 1146.26 6554.66 1145.47 6554.99C1144.69 6555.31 1143.85 6555.48 1143 6555.48ZM1149.5 6544.15C1149.19 6544.15 1148.88 6544.05 1148.62 6543.88C1148.36 6543.7 1148.15 6543.45 1148.03 6543.16C1147.91 6542.87 1147.88 6542.55 1147.94 6542.24C1148 6541.94 1148.15 6541.65 1148.38 6541.43C1148.6 6541.21 1148.88 6541.06 1149.19 6540.99C1149.5 6540.93 1149.82 6540.96 1150.11 6541.08C1150.4 6541.21 1150.65 6541.41 1150.83 6541.67C1151 6541.93 1151.09 6542.24 1151.09 6542.55C1151.09 6542.98 1150.93 6543.38 1150.63 6543.68C1150.33 6543.98 1149.92 6544.15 1149.5 6544.15Z" fill="#F9F9E5"/>
<path d="M1162.01 6538.28C1161.11 6534.68 1157.32 6530.89 1153.72 6529.99C1150.18 6529.34 1146.59 6529.01 1143 6529C1139.41 6529.01 1135.82 6529.34 1132.28 6529.99C1128.68 6530.89 1124.89 6534.68 1123.99 6538.28C1122.67 6545.37 1122.67 6552.63 1123.99 6559.72C1124.89 6563.32 1128.68 6567.11 1132.28 6568.01C1135.82 6568.66 1139.41 6568.99 1143 6569C1144.01 6569 1145.03 6568.97 1146.05 6568.92C1148.62 6568.78 1151.18 6568.48 1153.72 6568.01C1157.33 6567.12 1161.11 6563.33 1162.01 6559.72C1162.68 6556.07 1163.02 6552.37 1163 6548.65C1162.97 6545.18 1162.64 6541.71 1162.01 6538.28ZM1155.5 6554.07C1155.5 6556.04 1154.71 6557.93 1153.32 6559.33C1151.92 6560.73 1150.03 6561.51 1148.05 6561.51H1137.95C1135.97 6561.51 1134.08 6560.73 1132.68 6559.33C1131.29 6557.93 1130.5 6556.04 1130.5 6554.07V6543.96C1130.5 6541.99 1131.29 6540.09 1132.68 6538.7C1134.08 6537.3 1135.97 6536.52 1137.95 6536.51H1148.05C1150.03 6536.52 1151.92 6537.3 1153.32 6538.7C1154.71 6540.09 1155.5 6541.99 1155.5 6543.96V6554.07Z" fill="#F9F9E5"/>
</g>
</g>
<defs>
<clipPath id="clip0_99_1278">
<rect width="1440" height="6605" fill="white"/>
</clipPath>
<clipPath id="clip1_99_1278">
<rect width="40" height="40" fill="white" transform="translate(947 6529)"/>
</clipPath>
<clipPath id="clip2_99_1278">
<rect width="40" height="40" fill="white" transform="translate(1035 6529)"/>
</clipPath>
<clipPath id="clip3_99_1278">
<rect width="40" height="40" fill="white" transform="translate(1123 6529)"/>
</clipPath>
</defs>
</svg>
