<svg width="316" height="101" viewBox="0 0 316 101" fill="none" xmlns="http://www.w3.org/2000/svg">
<rect width="316" height="53.7583" fill="#F87000"/>
<path d="M15.8011 70.8872C15.733 70.0349 15.4134 69.3702 14.8423 68.8929C14.2798 68.4156 13.4233 68.177 12.2727 68.177C11.5398 68.177 10.9389 68.2665 10.4702 68.4454C10.0099 68.6159 9.66903 68.8503 9.44744 69.1486C9.22585 69.4469 9.1108 69.7878 9.10227 70.1713C9.08523 70.4866 9.14063 70.7721 9.26847 71.0278C9.40483 71.275 9.6179 71.5008 9.90767 71.7054C10.1974 71.9014 10.5682 72.0804 11.0199 72.2423C11.4716 72.4043 12.0085 72.5491 12.6307 72.677L14.7784 73.1372C16.2273 73.444 17.4673 73.8489 18.4986 74.3517C19.5298 74.8545 20.3736 75.4469 21.0298 76.1287C21.6861 76.802 22.1676 77.5605 22.4744 78.4043C22.7898 79.248 22.9517 80.1685 22.9602 81.1656C22.9517 82.8872 22.5213 84.3446 21.669 85.5378C20.8168 86.731 19.598 87.6386 18.0128 88.2608C16.4361 88.8829 14.5398 89.194 12.3239 89.194C10.0483 89.194 8.0625 88.8574 6.36648 88.1841C4.67898 87.5108 3.36648 86.4753 2.42898 85.0775C1.5 83.6713 1.03125 81.873 1.02273 79.6827H7.77273C7.81534 80.4838 8.01563 81.1571 8.37358 81.7025C8.73153 82.248 9.23438 82.6614 9.8821 82.9426C10.5384 83.2239 11.3182 83.3645 12.2216 83.3645C12.9801 83.3645 13.6151 83.2707 14.1264 83.0832C14.6378 82.8957 15.0256 82.6358 15.2898 82.3034C15.554 81.971 15.6903 81.5918 15.6989 81.1656C15.6903 80.765 15.5582 80.4156 15.3026 80.1173C15.0554 79.8105 14.6463 79.5378 14.0753 79.2991C13.5043 79.052 12.733 78.8219 11.7614 78.6088L9.15341 78.0463C6.83523 77.5435 5.0071 76.704 3.66903 75.5278C2.33949 74.3432 1.67898 72.7281 1.6875 70.6827C1.67898 69.0207 2.12216 67.5676 3.01705 66.3233C3.92045 65.0704 5.16903 64.0946 6.76278 63.3957C8.36506 62.6969 10.2017 62.3474 12.2727 62.3474C14.3864 62.3474 16.2145 62.7011 17.7571 63.4085C19.2997 64.1159 20.4886 65.1131 21.3239 66.4C22.1676 67.6784 22.5938 69.1741 22.6023 70.8872H15.8011ZM25.6641 88.8872V62.7054H44.5334V68.4327H32.772V72.9327H43.5618V78.6599H32.772V83.1599H44.4822V88.8872H25.6641ZM48.0586 88.8872V62.7054H59.3597C61.3029 62.7054 63.0032 63.0591 64.4606 63.7665C65.918 64.4739 67.0515 65.4923 67.8612 66.8219C68.6708 68.1514 69.0756 69.7452 69.0756 71.6031C69.0756 73.4781 68.658 75.0591 67.8228 76.346C66.9961 77.6329 65.8327 78.6045 64.3327 79.2608C62.8413 79.917 61.0984 80.2452 59.104 80.2452H52.354V74.7224H57.6722C58.5075 74.7224 59.2191 74.6202 59.8072 74.4156C60.4038 74.2025 60.8597 73.8659 61.1751 73.4057C61.4989 72.9454 61.6609 72.3446 61.6609 71.6031C61.6609 70.8531 61.4989 70.2437 61.1751 69.775C60.8597 69.2977 60.4038 68.9483 59.8072 68.7267C59.2191 68.4966 58.5075 68.3815 57.6722 68.3815H55.1665V88.8872H48.0586ZM63.3995 76.8702L69.945 88.8872H62.2234L55.8313 76.8702H63.3995ZM78.456 62.7054L83.8253 81.1656H84.0298L89.3991 62.7054H97.4276L88.7855 88.8872H79.0696L70.4276 62.7054H78.456ZM107.057 62.7054V88.8872H99.9492V62.7054H107.057ZM134.869 72.5236H127.659C127.608 71.927 127.471 71.3858 127.25 70.9C127.037 70.4142 126.738 69.9966 126.355 69.6471C125.98 69.2892 125.524 69.0165 124.987 68.829C124.45 68.6329 123.841 68.5349 123.159 68.5349C121.966 68.5349 120.956 68.8247 120.129 69.4043C119.311 69.9838 118.689 70.8148 118.262 71.8971C117.845 72.9795 117.636 74.2793 117.636 75.7963C117.636 77.3986 117.849 78.7409 118.275 79.8233C118.71 80.8972 119.336 81.7068 120.154 82.2523C120.973 82.7892 121.957 83.0577 123.108 83.0577C123.764 83.0577 124.352 82.9767 124.872 82.8148C125.392 82.6443 125.843 82.4014 126.227 82.0861C126.61 81.7707 126.922 81.3915 127.16 80.9483C127.407 80.4966 127.574 79.9895 127.659 79.427L134.869 79.4781C134.784 80.5861 134.473 81.7153 133.936 82.8659C133.399 84.0079 132.636 85.0648 131.647 86.0364C130.667 86.9994 129.453 87.775 128.004 88.3631C126.555 88.9511 124.872 89.2452 122.954 89.2452C120.551 89.2452 118.395 88.7295 116.485 87.6983C114.585 86.667 113.081 85.15 111.973 83.1471C110.873 81.1443 110.324 78.694 110.324 75.7963C110.324 72.8815 110.886 70.427 112.011 68.4327C113.136 66.4298 114.653 64.917 116.562 63.8943C118.471 62.8631 120.602 62.3474 122.954 62.3474C124.608 62.3474 126.129 62.5733 127.518 63.025C128.907 63.4767 130.126 64.1372 131.174 65.0065C132.223 65.8673 133.066 66.9284 133.706 68.1898C134.345 69.4511 134.733 70.8957 134.869 72.5236ZM138.094 88.8872V62.7054H156.963V68.4327H145.202V72.9327H155.991V78.6599H145.202V83.1599H156.912V88.8872H138.094Z" fill="#0E1111"/>
<path d="M33.3026 25.5236H26.0923C26.0412 24.927 25.9048 24.3858 25.6832 23.9C25.4702 23.4142 25.1719 22.9966 24.7884 22.6471C24.4134 22.2892 23.9574 22.0165 23.4205 21.829C22.8835 21.6329 22.2741 21.5349 21.5923 21.5349C20.3991 21.5349 19.3892 21.8247 18.5625 22.4043C17.7443 22.9838 17.1222 23.8148 16.696 24.8971C16.2784 25.9795 16.0696 27.2793 16.0696 28.7963C16.0696 30.3986 16.2827 31.7409 16.7088 32.8233C17.1435 33.8972 17.7699 34.7068 18.5881 35.2523C19.4063 35.7892 20.3906 36.0577 21.5412 36.0577C22.1974 36.0577 22.7855 35.9767 23.3054 35.8148C23.8253 35.6443 24.277 35.4014 24.6605 35.0861C25.044 34.7707 25.3551 34.3915 25.5938 33.9483C25.8409 33.4966 26.0071 32.9895 26.0923 32.427L33.3026 32.4781C33.2173 33.5861 32.9063 34.7153 32.3693 35.8659C31.8324 37.0079 31.0696 38.0648 30.081 39.0364C29.1009 39.9994 27.8864 40.775 26.4375 41.3631C24.9886 41.9511 23.3054 42.2452 21.3878 42.2452C18.9844 42.2452 16.8281 41.7295 14.919 40.6983C13.0185 39.667 11.5142 38.15 10.4062 36.1471C9.30682 34.1443 8.7571 31.694 8.7571 28.7963C8.7571 25.8815 9.3196 23.427 10.4446 21.4327C11.5696 19.4298 13.0866 17.917 14.9957 16.8943C16.9048 15.8631 19.0355 15.3474 21.3878 15.3474C23.0412 15.3474 24.5625 15.5733 25.9517 16.025C27.3409 16.4767 28.5597 17.1372 29.608 18.0065C30.6563 18.8673 31.5 19.9284 32.1392 21.1898C32.7784 22.4511 33.1662 23.8957 33.3026 25.5236ZM42.5199 41.8872H34.8494L43.4915 15.7054H53.2074L61.8494 41.8872H54.179L48.4517 22.9156H48.2472L42.5199 41.8872ZM41.0881 31.5577H55.5085V36.8758H41.0881V31.5577ZM77.4652 23.8872C77.397 23.0349 77.0774 22.3702 76.5064 21.8929C75.9439 21.4156 75.0874 21.177 73.9368 21.177C73.2038 21.177 72.603 21.2665 72.1342 21.4454C71.674 21.6159 71.3331 21.8503 71.1115 22.1486C70.8899 22.4469 70.7749 22.7878 70.7663 23.1713C70.7493 23.4866 70.8047 23.7721 70.9325 24.0278C71.0689 24.275 71.282 24.5008 71.5717 24.7054C71.8615 24.9014 72.2322 25.0804 72.6839 25.2423C73.1357 25.4043 73.6726 25.5491 74.2947 25.677L76.4425 26.1372C77.8913 26.444 79.1314 26.8489 80.1626 27.3517C81.1939 27.8545 82.0376 28.4469 82.6939 29.1287C83.3501 29.802 83.8317 30.5605 84.1385 31.4043C84.4538 32.248 84.6158 33.1685 84.6243 34.1656C84.6158 35.8872 84.1854 37.3446 83.3331 38.5378C82.4808 39.731 81.2621 40.6386 79.6768 41.2608C78.1001 41.8829 76.2038 42.194 73.9879 42.194C71.7124 42.194 69.7266 41.8574 68.0305 41.1841C66.343 40.5108 65.0305 39.4753 64.093 38.0775C63.1641 36.6713 62.6953 34.873 62.6868 32.6827H69.4368C69.4794 33.4838 69.6797 34.1571 70.0376 34.7025C70.3956 35.248 70.8984 35.6614 71.5462 35.9426C72.2024 36.2239 72.9822 36.3645 73.8857 36.3645C74.6442 36.3645 75.2791 36.2707 75.7905 36.0832C76.3018 35.8957 76.6896 35.6358 76.9538 35.3034C77.218 34.971 77.3544 34.5918 77.3629 34.1656C77.3544 33.765 77.2223 33.4156 76.9666 33.1173C76.7195 32.8105 76.3104 32.5378 75.7393 32.2991C75.1683 32.052 74.397 31.8219 73.4254 31.6088L70.8175 31.0463C68.4993 30.5435 66.6712 29.704 65.3331 28.5278C64.0036 27.3432 63.343 25.7281 63.3516 23.6827C63.343 22.0207 63.7862 20.5676 64.6811 19.3233C65.5845 18.0704 66.8331 17.0946 68.4268 16.3957C70.0291 15.6969 71.8658 15.3474 73.9368 15.3474C76.0504 15.3474 77.8786 15.7011 79.4212 16.4085C80.9638 17.1159 82.1527 18.1131 82.9879 19.4C83.8317 20.6784 84.2578 22.1741 84.2663 23.8872H77.4652ZM87.3281 41.8872V15.7054H94.4361V25.9327H103.845V15.7054H110.953V41.8872H103.845V31.6599H94.4361V41.8872H87.3281ZM131.574 41.8872H121.5V15.7054H131.472C134.165 15.7054 136.491 16.2295 138.452 17.2778C140.42 18.3176 141.938 19.8176 143.003 21.7778C144.077 23.7295 144.614 26.069 144.614 28.7963C144.614 31.5236 144.081 33.8673 143.016 35.8275C141.95 37.7793 140.442 39.2793 138.49 40.3275C136.538 41.3673 134.233 41.8872 131.574 41.8872ZM128.608 35.8531H131.318C132.614 35.8531 133.717 35.6443 134.629 35.2267C135.55 34.8091 136.249 34.0889 136.726 33.0662C137.212 32.0435 137.455 30.6202 137.455 28.7963C137.455 26.9724 137.207 25.5491 136.713 24.5264C136.227 23.5037 135.511 22.7835 134.565 22.3659C133.628 21.9483 132.477 21.7395 131.114 21.7395H128.608V35.8531ZM147.902 41.8872V15.7054H166.772V21.4327H155.01V25.9327H165.8V31.6599H155.01V36.1599H166.721V41.8872H147.902ZM170.297 41.8872V15.7054H177.405V36.1599H187.99V41.8872H170.297ZM197.971 15.7054V41.8872H190.863V15.7054H197.971ZM208.499 15.7054L213.868 34.1656H214.073L219.442 15.7054H227.471L218.828 41.8872H209.113L200.471 15.7054H208.499ZM229.992 41.8872V15.7054H248.862V21.4327H237.1V25.9327H247.89V31.6599H237.1V36.1599H248.81V41.8872H229.992ZM252.387 41.8872V15.7054H263.688C265.631 15.7054 267.331 16.0591 268.789 16.7665C270.246 17.4739 271.38 18.4923 272.189 19.8219C272.999 21.1514 273.404 22.7452 273.404 24.6031C273.404 26.4781 272.986 28.0591 272.151 29.346C271.324 30.6329 270.161 31.6045 268.661 32.2608C267.169 32.917 265.426 33.2452 263.432 33.2452H256.682V27.7224H262C262.836 27.7224 263.547 27.6202 264.135 27.4156C264.732 27.2025 265.188 26.8659 265.503 26.4057C265.827 25.9454 265.989 25.3446 265.989 24.6031C265.989 23.8531 265.827 23.2437 265.503 22.775C265.188 22.2977 264.732 21.9483 264.135 21.7267C263.547 21.4966 262.836 21.3815 262 21.3815H259.495V41.8872H252.387ZM267.728 29.8702L274.273 41.8872H266.551L260.159 29.8702H267.728ZM274.129 15.7054H282.055L287.169 26.3418H287.374L292.487 15.7054H300.413L290.8 33.6543V41.8872H283.743V33.6543L274.129 15.7054Z" fill="#F9F9E5"/>
</svg>
